<svg width="96" height="79" viewBox="0 0 96 79" fill="none" xmlns="http://www.w3.org/2000/svg">
<path d="M71.9444 -2.05392e-06C79.1734 -1.42194e-06 84.9565 1.97501 89.2939 5.925C93.3903 10.0944 95.4385 15.8 95.4385 23.0417C95.4385 39.0611 90.0168 53.1056 79.1733 65.175C74.3541 70.8805 68.9323 75.4889 62.9082 79L52.0648 67.4792C55.4383 65.2847 58.8118 62.4319 62.1853 58.9208C68.6914 52.5569 71.9444 46.0833 71.9444 39.5C66.4022 39.5 61.7034 37.6347 57.848 33.9042C53.9925 30.1736 52.0648 25.4556 52.0648 19.75C52.0648 14.0444 53.9925 9.32637 57.848 5.59582C61.7034 1.86527 66.4022 -2.53843e-06 71.9444 -2.05392e-06ZM19.8798 -6.60555e-06C27.1088 -5.97357e-06 32.8919 1.975 37.2293 5.925C41.3257 10.0944 43.3739 15.8 43.3739 23.0417C43.3739 39.0611 37.9522 53.1056 27.1088 65.175C22.2895 70.8805 16.8678 75.4889 10.8436 79L0.000237518 67.4791C3.37374 65.2847 6.74725 62.4319 10.1208 58.9208C16.6268 52.5569 19.8798 46.0833 19.8798 39.5C14.3376 39.5 9.63883 37.6347 5.78339 33.9041C1.92794 30.1736 0.000241192 25.4556 0.000241691 19.75C0.00024219 14.0444 1.92795 9.32637 5.78339 5.59582C9.63883 1.86527 14.3376 -7.09006e-06 19.8798 -6.60555e-06Z" fill="#F3F2FF"/>
</svg>
