<svg width="96" height="79" viewBox="0 0 96 79" fill="none" xmlns="http://www.w3.org/2000/svg">
<path d="M23.4941 79C16.2651 79 10.482 77.025 6.14461 73.075C2.0482 68.9056 0 63.2 0 55.9583C0 39.9389 5.42171 25.8944 16.2651 13.825C21.0844 8.11945 26.5061 3.51112 32.5303 0L43.3737 11.5208C40.0002 13.7153 36.6267 16.5681 33.2531 20.0792C26.7471 26.4431 23.4941 32.9167 23.4941 39.5C29.0363 39.5 33.7351 41.3653 37.5905 45.0958C41.446 48.8264 43.3737 53.5444 43.3737 59.25C43.3737 64.9556 41.446 69.6736 37.5905 73.4042C33.7351 77.1347 29.0363 79 23.4941 79ZM75.5586 79C68.3297 79 62.5465 77.025 58.2092 73.075C54.1128 68.9056 52.0646 63.2 52.0646 55.9583C52.0646 39.9389 57.4863 25.8944 68.3297 13.825C73.149 8.11945 78.5707 3.51112 84.5948 0L95.4382 11.5208C92.0647 13.7153 88.6912 16.5681 85.3177 20.0792C78.8117 26.4431 75.5586 32.9167 75.5586 39.5C81.1008 39.5 85.7997 41.3653 89.6551 45.0958C93.5105 48.8264 95.4382 53.5444 95.4382 59.25C95.4382 64.9556 93.5105 69.6736 89.6551 73.4042C85.7997 77.1347 81.1008 79 75.5586 79Z" fill="#F3F2FF"/>
</svg>
