<svg width="96" height="80" viewBox="0 0 96 80" fill="none" xmlns="http://www.w3.org/2000/svg">
<path d="M23.4941 79.3464C16.2651 79.3464 10.482 77.3714 6.14461 73.4214C2.0482 69.252 0 63.5464 0 56.3048C0 40.2853 5.42171 26.2409 16.2651 14.1714C21.0844 8.46589 26.5061 3.85755 32.5303 0.346436L43.3737 11.8673C40.0002 14.0617 36.6267 16.9145 33.2531 20.4256C26.7471 26.7895 23.4941 33.2631 23.4941 39.8464C29.0363 39.8464 33.7351 41.7117 37.5905 45.4423C41.446 49.1728 43.3737 53.8909 43.3737 59.5964C43.3737 65.302 41.446 70.0201 37.5905 73.7506C33.7351 77.4812 29.0363 79.3464 23.4941 79.3464ZM75.5586 79.3464C68.3297 79.3464 62.5465 77.3714 58.2092 73.4214C54.1128 69.252 52.0646 63.5464 52.0646 56.3048C52.0646 40.2853 57.4863 26.2409 68.3297 14.1714C73.149 8.46589 78.5707 3.85755 84.5948 0.346436L95.4382 11.8673C92.0647 14.0617 88.6912 16.9145 85.3177 20.4256C78.8117 26.7895 75.5586 33.2631 75.5586 39.8464C81.1008 39.8464 85.7997 41.7117 89.6551 45.4423C93.5105 49.1728 95.4382 53.8909 95.4382 59.5964C95.4382 65.302 93.5105 70.0201 89.6551 73.7506C85.7997 77.4812 81.1008 79.3464 75.5586 79.3464Z" fill="#EBEBEB"/>
</svg>
