<svg width="451" height="451" viewBox="0 0 451 451" fill="none" xmlns="http://www.w3.org/2000/svg">
<path d="M372.223 0H78.777C35.2696 0 0 35.2696 0 78.777V372.223C0 415.731 35.2696 451 78.777 451H372.223C415.731 451 451 415.731 451 372.223V78.777C451 35.2696 415.731 0 372.223 0Z" fill="url(#paint0_linear_9353_3257)"/>
<path d="M195.225 231.575V265.7C195.225 274.109 194.986 279.496 194.348 281.868C193.789 284.13 191.59 291.162 179.854 291.162C168.118 291.162 166.319 284.236 165.76 282.085C165.122 280.036 164.802 275.295 164.802 267.855V231.575H142.465V240.91C142.465 260.203 142.704 272.813 143.265 278.743C143.746 284.78 145.502 290.49 148.3 295.881C151.175 301.271 155.49 305.689 161.321 309.03C167.071 312.372 173.703 314.094 181.293 314.094C188.083 314.094 193.995 312.691 199.029 309.783C204.064 306.981 208.055 302.777 211.173 297.28C214.21 291.782 216.046 286.392 216.685 281.222C217.324 275.941 217.643 266.886 217.643 253.953V231.579H195.225V231.575Z" fill="white"/>
<path d="M108.447 231.575H132.477V253.075H108.447C108.447 269.83 111.608 292.278 132.477 292.278V314.094C116.668 314.094 88.5293 299.233 88.5293 263.823V201.842L108.762 193.837L108.447 231.575Z" fill="white"/>
<path d="M392.265 231.26C369.303 231.26 350.689 249.873 350.689 272.835C350.689 295.796 369.303 314.41 392.265 314.41C415.226 314.41 433.84 295.796 433.84 272.835C433.84 249.873 415.226 231.26 392.265 231.26ZM392.265 294.478C380.308 294.478 370.618 284.788 370.618 272.831C370.618 260.875 380.308 251.184 392.265 251.184C404.221 251.184 413.911 260.875 413.911 272.831C413.911 284.788 404.221 294.478 392.265 294.478Z" fill="white"/>
<path d="M290.853 193.837V237.072C284.541 233.209 277.149 230.943 269.206 230.943C246.245 230.943 227.631 249.557 227.631 272.518C227.631 295.48 246.245 314.094 269.206 314.094C292.168 314.094 310.781 295.48 310.781 272.518V201.739L290.853 193.837ZM269.206 294.162C257.25 294.162 247.559 284.471 247.559 272.515C247.559 260.558 257.25 250.868 269.206 250.868C281.162 250.868 290.853 260.558 290.853 272.515C290.853 284.471 281.162 294.162 269.206 294.162Z" fill="white"/>
<path d="M320.773 314.09H340.702V227.907L340.698 227.903V218.771L320.777 226.669L320.773 314.09Z" fill="white"/>
<path d="M320.777 206.366V222.167L340.698 214.269L320.777 206.37V206.366Z" fill="#805BEA"/>
<path d="M55.0691 258.187C52.7594 257.291 50.7471 256.395 49.0726 255.529C47.6552 254.794 46.5059 254.016 45.665 253.226C44.982 252.58 44.5083 251.926 44.2035 251.21C43.8987 250.498 43.7445 249.591 43.7445 248.515C43.7445 247.439 44.1227 246.591 45.0517 245.757C46.0505 244.857 48.0885 244.365 50.7912 244.365C52.7484 244.365 54.5624 244.685 56.1854 245.305C57.9958 246.003 60.1109 247.226 62.4831 248.945L67.0107 252.224L78.5374 234.029L74.5238 231.139C71.1748 228.726 67.5395 226.809 63.7169 225.443C59.7841 224.041 55.5428 223.328 51.1033 223.328C46.9318 223.328 43.0174 223.828 39.4665 224.812C35.7724 225.84 32.4969 227.382 29.7282 229.398C26.7722 231.55 24.4551 234.3 22.8394 237.568C21.2494 240.796 20.4415 244.512 20.4415 248.621C20.4415 255.951 22.8798 262.131 27.6938 266.989C32.0195 271.355 37.8655 274.987 45.0444 277.781C47.3688 278.699 49.2673 279.606 50.6847 280.477C51.9148 281.229 52.8659 281.986 53.5085 282.713C54.0299 283.311 54.3898 283.906 54.5808 284.494C54.8231 285.236 54.9443 286.095 54.9443 287.053C54.9443 289.76 54.052 290.869 53.2698 291.533C51.9185 292.686 49.7997 293.27 46.9686 293.27C44.5266 293.27 42.272 292.885 40.267 292.117C38.0785 291.28 35.4823 289.804 32.5483 287.725L27.8444 284.391L17.166 302.931L20.9042 305.718C25.1491 308.884 29.4344 311.153 33.6389 312.464C37.7847 313.753 42.305 314.407 47.075 314.407C51.8451 314.407 56.4939 313.735 60.2835 312.405C64.1942 311.032 67.5285 309.071 70.1871 306.585C72.8713 304.073 74.9167 301.125 76.268 297.812C77.59 294.574 78.2583 291.056 78.2583 287.358C78.2583 280.109 76.2019 274.028 72.1443 269.277C68.3547 264.845 62.6116 261.11 55.0765 258.187H55.0691Z" fill="white"/>
<path d="M187.74 177.431L191.258 182.653V147.695L187.74 142.08V177.431Z" fill="white"/>
<path d="M194.594 187.639L198.082 192.835V158.586L194.594 152.997V187.639Z" fill="white"/>
<path d="M156.877 136.594V207.847L163.494 214.383H179.526V165.173L184.41 172.444V136.752L184.304 136.594H156.877Z" fill="white"/>
<path d="M208.268 208.005L211.756 213.201V180.394L208.268 174.831V208.005Z" fill="white"/>
<path d="M201.416 197.797L204.934 203.044V169.503L201.416 163.889V197.797Z" fill="white"/>
<path d="M219.97 136.594V179.021V193.492L215.09 185.697V214.383H242.645V179.021V147.929V136.594H219.97Z" fill="white"/>
<path d="M187.74 177.423L191.258 182.645V147.687L187.74 142.072V177.423Z" fill="#805BEA"/>
<path d="M194.594 187.632L198.082 192.828V158.578L194.594 152.989V187.632Z" fill="#805BEA"/>
<path d="M208.264 207.998L211.756 213.194V180.387L208.264 174.824V207.998Z" fill="#805BEA"/>
<path d="M201.416 197.789L204.93 203.036V169.495L201.416 163.881V197.789Z" fill="#805BEA"/>
<path d="M110.235 136.594H148.589V203.117V205.467V214.383H125.929V205.467V203.117V151.616H100.467L110.235 136.594Z" fill="white"/>
<path d="M289.48 136.594H250.982V203.117H250.979V214.383H273.639V203.117H273.613V151.616H299.02L289.48 136.594Z" fill="white"/>
<defs>
<linearGradient id="paint0_linear_9353_3257" x1="0" y1="225.498" x2="451" y2="225.498" gradientUnits="userSpaceOnUse">
<stop stop-color="#2B8EB0"/>
<stop offset="0.16" stop-color="#3191A6"/>
<stop offset="0.42" stop-color="#419B8D"/>
<stop offset="0.75" stop-color="#5BAB64"/>
<stop offset="1" stop-color="#73B940"/>
</linearGradient>
</defs>
</svg>
