<svg width="397" height="137" viewBox="0 0 397 137" fill="none" xmlns="http://www.w3.org/2000/svg">
<circle cx="394" cy="2" r="2" fill="#D9D9D9"/>
<circle cx="394" cy="8.47607" r="2" fill="#D9D9D9"/>
<circle cx="394" cy="14.9524" r="2" fill="#D9D9D9"/>
<line x1="-4.37114e-08" y1="69.5" x2="396" y2="69.5" stroke="#F7F7F7"/>
<path d="M0.751953 33.7871V31.4453H13.1484V33.7871H8.35742V47H5.56445V33.7871H0.751953ZM28.123 31.4453V47H25.6309L18.2617 36.3652H18.1328V47H15.3398V31.4453H17.875L25.2012 42.0801H25.3516V31.4453H28.123ZM30.3145 33.7871V31.4453H42.7109V33.7871H37.9199V47H35.127V33.7871H30.3145ZM53.3672 35.7207C53.2275 34.3779 52.0996 33.6045 50.4238 33.6152C48.6514 33.6045 47.5986 34.4639 47.5879 35.6348C47.5771 36.9453 48.9629 37.4824 50.252 37.7832L51.7129 38.1699C54.0332 38.707 56.2676 39.9316 56.2676 42.6387C56.2676 45.3672 54.1084 47.2363 50.3809 47.2363C46.7607 47.2363 44.4619 45.4961 44.3438 42.4238H47.0938C47.2227 44.0459 48.5869 44.8408 50.3594 44.8516C52.1963 44.8408 53.4639 43.9492 53.4746 42.6172C53.4639 41.3926 52.3467 40.877 50.6602 40.4473L48.8984 39.9961C46.3418 39.3301 44.752 38.041 44.752 35.8066C44.752 33.0566 47.1904 31.2305 50.4668 31.2305C53.7646 31.2305 56.0098 33.0889 56.0527 35.7207H53.3672ZM57.9004 33.7871V31.4453H70.2969V33.7871H65.5059V47H62.7129V33.7871H57.9004ZM82.3066 31.4453H85.1211V41.6074C85.1104 44.9482 82.5967 47.2363 78.8047 47.2363C74.9912 47.2363 72.499 44.9482 72.4883 41.6074V31.4453H75.2812V41.3711C75.292 43.3369 76.6562 44.7334 78.8047 44.7441C80.9531 44.7334 82.3066 43.3369 82.3066 41.3711V31.4453ZM93.2852 47H88V31.4453H93.3711C98.0117 31.4453 100.815 34.3564 100.826 39.2012C100.815 44.0674 98.0117 47 93.2852 47ZM90.793 44.5723H93.1348C96.3896 44.583 98.0332 42.7891 98.0332 39.2012C98.0332 35.6348 96.3896 33.8623 93.2207 33.873H90.793V44.5723ZM106.09 31.4453V47H103.297V31.4453H106.09ZM122.869 39.2227C122.88 44.25 119.808 47.2148 115.736 47.2148C111.644 47.2148 108.593 44.2393 108.604 39.2227C108.593 34.1953 111.644 31.2305 115.736 31.2305C119.808 31.2305 122.88 34.1953 122.869 39.2227ZM111.418 39.2227C111.407 42.7783 113.201 44.7012 115.736 44.7012C118.282 44.7012 120.065 42.7783 120.055 39.2227C120.065 35.667 118.282 33.7441 115.736 33.7441C113.201 33.7441 111.407 35.667 111.418 39.2227Z" fill="#0C43B7"/>
<path d="M5.69531 92.2734V105H4.0957V93.9258H4.02539L0.931641 95.9824V94.3828L4.0957 92.2734H5.69531ZM13.2539 105.176C10.4326 105.176 8.79785 102.803 8.80664 98.6367C8.79785 94.5059 10.4502 92.0977 13.2539 92.0977C16.0488 92.0977 17.7012 94.5059 17.7012 98.6367C17.7012 102.803 16.0752 105.176 13.2539 105.176ZM10.3359 98.6367C10.3447 101.933 11.4082 103.77 13.2539 103.77C15.0908 103.77 16.1631 101.933 16.1543 98.6367C16.1631 95.3408 15.082 93.4775 13.2539 93.4688C11.4258 93.4775 10.3447 95.3408 10.3359 98.6367ZM23.9766 105.176C21.1553 105.176 19.5205 102.803 19.5293 98.6367C19.5205 94.5059 21.1729 92.0977 23.9766 92.0977C26.7715 92.0977 28.4238 94.5059 28.4238 98.6367C28.4238 102.803 26.7979 105.176 23.9766 105.176ZM21.0586 98.6367C21.0674 101.933 22.1309 103.77 23.9766 103.77C25.8135 103.77 26.8857 101.933 26.877 98.6367C26.8857 95.3408 25.8047 93.4775 23.9766 93.4688C22.1484 93.4775 21.0674 95.3408 21.0586 98.6367ZM38.7422 91.9922V93.1348H37.1426V98.1357C37.8633 98.083 38.5752 98.0215 39.252 97.9336L39.3223 98.9883C36.2725 99.4541 32.7217 99.5068 30.1816 99.498L30.0059 98.3379C30.6299 98.3379 31.3066 98.3379 32.0273 98.3291V93.1348H30.4453V91.9922H38.7422ZM32.502 103.576C32.4932 101.792 34.4707 100.772 37.7402 100.781C41.0098 100.772 42.9785 101.792 42.9785 103.576C42.9785 105.36 41.0098 106.389 37.7402 106.389C34.4707 106.389 32.4932 105.36 32.502 103.576ZM33.3633 98.3027C34.1631 98.2852 34.9893 98.2588 35.8066 98.2148V93.1348H33.3633V98.3027ZM33.873 103.576C33.8643 104.666 35.332 105.299 37.7402 105.299C40.1396 105.299 41.6074 104.666 41.6074 103.576C41.6074 102.504 40.1396 101.854 37.7402 101.854C35.332 101.854 33.8643 102.504 33.873 103.576ZM38.9004 97.5469V96.4043H41.5371V94.752H38.9004V93.6094H41.5371V90.7969H42.9258V100.447H41.5371V97.5469H38.9004ZM62.3145 91.8164V93.0117C62.3145 94.4092 62.3145 96.1582 61.875 98.6367H64.2832V99.7793H60.5215V106.424H59.1504V99.7793H55.1426V106.424H53.7715V99.7793H50.0449V98.6367H60.46C60.9697 96.1846 60.9697 94.4004 60.9785 93.0117V92.959H51.873V91.8164H62.3145ZM79.9102 103.26V104.42H65.6016V103.26H72.0352V99.4453H67.2891V92.1152H78.1348V99.4453H73.3887V103.26H79.9102ZM68.6426 98.3379H76.7988V93.2227H68.6426V98.3379ZM99.0352 90.7969V106.424H97.7168V98.2324H95.4141V105.615H94.1484V91.1484H95.4141V97.0898H97.7168V90.7969H99.0352ZM86.2559 102.557V92.7129H92.1094V93.8555H87.627V101.379C89.7803 101.37 91.2656 101.291 93.0059 100.939L93.1289 102.1C91.248 102.486 89.6572 102.548 87.2578 102.557H86.2559ZM110.092 92.5547V93.6797H101.25V92.5547H105.047V90.6738H106.418V92.5547H110.092ZM102.182 97.3711C102.164 95.6309 103.605 94.4795 105.715 94.4883C107.807 94.4795 109.274 95.6309 109.283 97.3711C109.274 99.1201 107.807 100.263 105.715 100.271C103.605 100.263 102.164 99.1201 102.182 97.3711ZM103.465 97.3711C103.456 98.4697 104.353 99.208 105.715 99.1992C107.06 99.208 107.982 98.4697 108 97.3711C107.982 96.2725 107.06 95.543 105.715 95.5254C104.353 95.543 103.456 96.2725 103.465 97.3711ZM103.781 103.734C103.781 102.029 105.759 101.062 109.037 101.062C112.298 101.062 114.275 102.029 114.275 103.734C114.275 105.413 112.298 106.389 109.037 106.389C105.759 106.389 103.781 105.413 103.781 103.734ZM105.205 103.734C105.214 104.728 106.664 105.325 109.037 105.316C111.375 105.325 112.816 104.728 112.816 103.734C112.816 102.715 111.375 102.144 109.037 102.135C106.664 102.144 105.214 102.715 105.205 103.734ZM110.074 98.7422V97.5996H112.799V95.7012H110.092V94.5586H112.799V90.7969H114.188V100.904H112.799V98.7422H110.074ZM129.094 93.0996C129.103 95.7803 132.161 98.1621 134.877 98.6719L134.244 99.832C131.88 99.2871 129.401 97.6084 128.391 95.3145C127.371 97.6084 124.901 99.2783 122.537 99.832L121.904 98.6719C124.611 98.1533 127.644 95.7891 127.652 93.0996V91.9043H129.094V93.0996ZM121.307 104.297V103.154H135.615V104.297H121.307ZM151.154 100.236V101.396H147.393V106.424H146.021V101.396H141.979V106.424H140.59V101.396H136.846V100.236H151.154ZM138.762 98.6191V91.5352H149.361V92.6602H140.133V94.4531H148.992V95.5605H140.133V97.4766H149.537V98.6191H138.762ZM165.305 90.7969V106.459H163.916V90.7969H165.305ZM153.439 102.574V92.291H160.875V93.4512H154.828V101.379C157.869 101.379 159.864 101.291 162.211 100.869L162.352 102.029C159.926 102.46 157.869 102.565 154.705 102.574H153.439ZM175.096 91.8164C178.418 91.834 180.809 93.4512 180.809 95.9121C180.809 98.2412 178.734 99.7793 175.764 99.9814V103.26H182.285V104.42H167.977V103.26H174.41V99.9814C171.457 99.7705 169.383 98.2324 169.383 95.9121C169.383 93.4512 171.782 91.834 175.096 91.8164ZM170.719 95.9121C170.71 97.7139 172.564 98.8828 175.096 98.9004C177.627 98.8828 179.473 97.7139 179.473 95.9121C179.473 94.1455 177.627 92.9502 175.096 92.959C172.564 92.9502 170.71 94.1455 170.719 95.9121ZM186.1 103.822L184.729 108.604H183.428L184.395 103.822H186.1ZM200.654 91.6406V94.1895H204.223V90.7969H205.594V98.8301H204.223V95.3145H200.654V98.0215H193.395V91.6406H200.654ZM194.766 96.9141H199.301V92.748H194.766V96.9141ZM195.469 100.729V99.6211H205.594V103.365H196.875V105.105H206.191V106.213H195.504V102.311H204.223V100.729H195.469ZM216.826 92.2207V93.3809H210.586V96.6152H216.264V97.7402H210.586V101.52C213.504 101.52 215.508 101.414 217.898 101.01L218.039 102.152C215.569 102.565 213.469 102.653 210.463 102.662H209.215V92.2207H216.826ZM219.744 106.424V90.7969H221.133V106.424H219.744ZM231.908 92.3438V102.504H224.684V92.3438H231.908ZM226.037 101.379H230.555V93.4512H226.037V101.379ZM235.266 106.459V90.7969H236.654V106.459H235.266ZM252.211 90.7969V106.459H250.822V90.7969H252.211ZM240.346 102.574V92.291H247.781V93.4512H241.734V101.379C244.775 101.379 246.771 101.291 249.117 100.869L249.258 102.029C246.832 102.46 244.775 102.565 241.611 102.574H240.346ZM259.084 92.0098C261.211 92.0186 262.749 93.8467 262.96 96.7734H266.467V90.7969H267.838V106.459H266.467V97.916H262.978C262.828 100.983 261.264 102.899 259.084 102.891C256.772 102.899 255.155 100.79 255.164 97.459C255.155 94.1367 256.772 92.0186 259.084 92.0098ZM256.482 97.459C256.491 99.999 257.546 101.669 259.084 101.66C260.613 101.669 261.686 99.999 261.686 97.459C261.686 94.9189 260.613 93.249 259.084 93.2402C257.546 93.249 256.491 94.9189 256.482 97.459ZM287.42 91.5703V92.8711C287.429 94.3213 287.429 95.9121 286.998 98.0566L285.627 97.9336C285.82 97.0195 285.926 96.2021 285.979 95.4639L276.469 95.9121L276.275 94.7344L286.04 94.418C286.058 93.873 286.066 93.3633 286.066 92.8711V92.6953H276.662V91.5703H287.42ZM274.975 100.236V99.1113H280.775V96.8086H282.164V99.1113H289.195V100.236H274.975ZM276.785 106.178V101.572H278.174V105.053H287.789V106.178H276.785ZM303.785 90.8145V102.521H302.467V90.8145H303.785ZM291.252 99.9199V92.0977H297.211V93.2402H292.57V95.4023H296.561V96.4922H292.57V98.7773C294.838 98.7598 296.235 98.707 297.914 98.3555L298.055 99.4805C296.244 99.8408 294.768 99.9199 292.236 99.9199H291.252ZM293.59 106.09V101.221H294.996V104.93H304.26V106.09H293.59ZM297.299 96.3691V95.2617H299.408V91.1309H300.744V102.117H299.408V96.3691H297.299ZM320.379 103.26V104.42H306.07V103.26H320.379ZM306.949 99.5156C309.902 98.9795 312.495 97.0459 312.504 94.4531H307.406V93.3281H312.521V91.1836H313.875V93.3281H319.008V94.4531H313.91C313.901 97.0459 316.485 98.9795 319.465 99.5156L318.902 100.641C316.433 100.131 314.183 98.7861 313.198 96.7471C312.223 98.7861 309.964 100.131 307.494 100.641L306.949 99.5156ZM324.193 103.822L322.822 108.604H321.521L322.488 103.822H324.193ZM339.416 91.7812V92.625C339.407 93.6006 339.407 95.0156 338.994 96.8613L337.623 96.7383C337.992 95.0859 338.027 93.873 338.027 92.9414H331.629V91.7812H339.416ZM330.662 98.3203C331.682 98.3203 332.824 98.3115 334.02 98.2764V95.1738H335.391V98.2412C337.131 98.1709 338.915 98.0566 340.541 97.8457L340.629 98.8652C337.351 99.3926 333.624 99.4805 330.803 99.4805L330.662 98.3203ZM332.719 103.541C332.719 101.792 334.688 100.764 337.922 100.764C341.156 100.764 343.134 101.792 343.125 103.541C343.134 105.352 341.156 106.38 337.922 106.371C334.688 106.38 332.719 105.352 332.719 103.541ZM334.107 103.541C334.099 104.648 335.558 105.272 337.922 105.281C340.277 105.272 341.728 104.648 341.736 103.541C341.728 102.486 340.277 101.845 337.922 101.836C335.558 101.845 334.099 102.486 334.107 103.541ZM341.596 100.57V90.7969H343.002V95.0859H345.287V96.2461H343.002V100.57H341.596ZM358.84 92.3789V93.9434C358.822 95.8594 358.822 98.0039 358.26 101.15L356.854 100.992C357.442 98.0039 357.442 95.8154 357.451 93.9434V93.5215H347.818V92.3789H358.84ZM346.307 104.209V103.066H351.896V97.4766H353.25V103.066H360.545V104.209H346.307ZM375.223 90.7969V106.424H373.904V90.7969H375.223ZM361.67 102.258C363.85 100.957 365.124 98.1006 365.115 95.2617V93.7852H362.109V92.6426H369.316V93.7852H366.451V95.2617C366.451 97.96 367.673 100.658 369.826 101.906L368.982 102.926C367.444 102.003 366.354 100.315 365.81 98.3291C365.247 100.482 364.113 102.319 362.549 103.295L361.67 102.258ZM368.121 97.5645V96.4395H370.758V91.1836H372.059V105.615H370.758V97.5645H368.121ZM382.711 93.6973C382.72 95.7803 384.249 97.6787 386.561 98.4785L385.857 99.5508C384.073 98.918 382.711 97.6436 382.043 96.0264C381.375 97.8018 379.942 99.1816 378.105 99.8496L377.367 98.7773C379.705 97.9512 381.34 95.9385 381.357 93.6973V93.0293H377.789V91.9043H386.227V93.0293H382.711V93.6973ZM379.406 102.17V101.045H389.637V106.424H388.266V102.17H379.406ZM388.266 100.219V90.7969H389.637V94.9277H391.992V96.1055H389.637V100.219H388.266ZM395.543 103.822L394.172 108.604H392.871L393.838 103.822H395.543ZM8.49023 120.379V130.451H1.2832V120.379H8.49023ZM2.61914 129.326H7.11914V121.486H2.61914V129.326ZM11.3555 134.424V118.797H12.7266V125.037H15.3457V126.232H12.7266V134.424H11.3555ZM23.0801 120.66C23.0713 122.137 22.9043 123.604 22.4561 124.984H24.9609V119.219H26.2793V133.633H24.9609V126.127H22.0078C21.1289 128.052 19.5996 129.792 17.0859 131.172L16.2949 130.188C18.7031 128.878 20.1357 127.234 20.9268 125.389L16.4707 125.846L16.2598 124.615L21.3135 124.299C21.542 123.49 21.6738 122.664 21.7266 121.803H17.0156V120.66H23.0801ZM28.248 134.424V118.797H29.5664V134.424H28.248ZM40.1484 119.957V121.082H34.0488V123.051H39.709V124.176H34.0488V126.232C37.3711 126.241 39.2344 126.18 41.4316 125.811L41.5723 126.936C39.2959 127.305 37.3799 127.384 33.9258 127.375H32.6602V119.957H40.1484ZM34.1719 131.541C34.1719 129.757 36.1494 128.711 39.4629 128.729C42.7148 128.711 44.7275 129.757 44.7188 131.541C44.7275 133.36 42.7148 134.389 39.4629 134.389C36.1494 134.389 34.1719 133.36 34.1719 131.541ZM35.543 131.541C35.543 132.648 37.002 133.299 39.4629 133.299C41.8535 133.299 43.3564 132.648 43.3652 131.541C43.3564 130.478 41.8535 129.818 39.4629 129.818C37.002 129.818 35.543 130.478 35.543 131.541ZM43.2773 128.5V118.814H44.6484V128.5H43.2773ZM49.8691 131.822L48.498 136.604H47.1973L48.1641 131.822H49.8691ZM65.0391 120.221V121.381H58.7988V124.615H64.4766V125.74H58.7988V129.52C61.7168 129.52 63.7207 129.414 66.1113 129.01L66.252 130.152C63.7822 130.565 61.6816 130.653 58.6758 130.662H57.4277V120.221H65.0391ZM67.957 134.424V118.797H69.3457V134.424H67.957ZM80.3672 120.432C80.3496 124.94 78.7236 129.106 73.0723 131.875L72.2988 130.768C75.2344 129.361 77.0449 127.56 78.0293 125.441L72.5977 125.969L72.3691 124.738L78.4688 124.334C78.75 123.464 78.917 122.541 78.9873 121.574H73.1602V120.432H80.3672ZM83.5137 134.424V118.797H84.9023V134.424H83.5137ZM91.2832 120.027C93.3486 120.036 94.8604 121.601 94.8691 123.824C94.8604 126.048 93.3486 127.604 91.2832 127.586C89.1914 127.604 87.7061 126.048 87.7148 123.824C87.7061 121.601 89.1914 120.036 91.2832 120.027ZM88.9629 123.824C88.9453 125.345 89.9385 126.426 91.2832 126.426C92.6104 126.426 93.5947 125.345 93.6035 123.824C93.5947 122.312 92.6104 121.214 91.2832 121.223C89.9385 121.214 88.9453 122.312 88.9629 123.824ZM90.5625 134.09V128.992H91.9336V132.93H101.285V134.09H90.5625ZM96.1172 129.994V119.113H97.418V123.385H99.4922V118.814H100.811V130.557H99.4922V124.527H97.418V129.994H96.1172ZM111.111 120.221V121.381H105.17V124.615H110.76V125.74H105.17V129.52C107.991 129.52 109.969 129.414 112.307 129.01L112.465 130.152C110.021 130.565 107.974 130.653 105.012 130.662H103.781V120.221H111.111ZM113.818 134.424V118.797H115.189V125.09H117.809V126.268H115.189V134.424H113.818ZM126.756 120.432C126.747 124.94 125.209 129.071 119.584 131.84L118.811 130.785C121.746 129.353 123.513 127.542 124.462 125.441L119.109 125.951L118.881 124.738L124.884 124.334C125.165 123.455 125.323 122.532 125.385 121.574H119.672V120.432H126.756ZM129.375 134.424V118.797H130.746V125.16H133.277V126.32H130.746V134.424H129.375ZM146.672 120.432C146.654 124.94 145.055 129.071 139.535 131.84L138.744 130.785C141.618 129.344 143.394 127.542 144.369 125.433L139.043 125.934L138.797 124.738L144.791 124.343C145.081 123.464 145.239 122.541 145.31 121.574H139.588V120.432H146.672ZM146.619 126.232V125.09H150.293V118.797H151.664V134.424H150.293V126.232H146.619ZM168.574 127.85V128.992H164.918V134.547H163.547V128.992H159.311V134.547H157.939V128.992H154.266V127.85H168.574ZM156.111 125.74V119.658H166.711V125.74H156.111ZM157.465 124.633H165.34V120.783H157.465V124.633ZM182.725 118.797V134.424H181.354V118.797H182.725ZM170.859 130.398V120.344H172.213V129.203C174.604 129.186 177.064 129.001 179.684 128.447L179.877 129.625C177.1 130.205 174.63 130.398 172.125 130.398H170.859ZM194.01 120.221V121.381H187.77V124.615H193.447V125.74H187.77V129.52C190.688 129.52 192.691 129.414 195.082 129.01L195.223 130.152C192.753 130.565 190.652 130.653 187.646 130.662H186.398V120.221H194.01ZM196.928 134.424V118.797H198.316V134.424H196.928ZM203.52 131.822L202.148 136.604H200.848L201.814 131.822H203.52ZM222.539 120.396V122.33C222.548 124.633 222.548 126.76 221.889 129.924L220.5 129.801C220.852 128.298 221.019 126.997 221.106 125.784L211.57 126.303L211.377 125.16L221.168 124.756C221.194 123.93 221.203 123.13 221.203 122.33V121.557H211.799V120.396H222.539ZM210.076 132.227V131.066H224.314V132.227H210.076ZM238.535 118.797V134.459H237.164V118.797H238.535ZM226.512 121.398V120.256H233.789V125.811H227.953V129.502C230.546 129.511 232.857 129.388 235.652 128.939L235.793 130.1C232.919 130.548 230.546 130.662 227.848 130.662H226.547V124.686H232.4V121.398H226.512ZM254.584 118.797V134.424H253.248V118.797H254.584ZM241.383 125.547C241.392 122.225 242.71 120.124 244.74 120.115C246.639 120.124 247.922 121.952 248.098 124.896H250.119V119.131H251.438V133.633H250.119V126.039H248.106C247.975 129.08 246.665 130.987 244.74 130.979C242.71 130.987 241.392 128.869 241.383 125.547ZM242.684 125.547C242.666 128.078 243.475 129.678 244.74 129.66C246.015 129.678 246.823 128.078 246.814 125.547C246.823 123.007 246.015 121.416 244.74 121.416C243.475 121.416 242.666 123.007 242.684 125.547ZM269.631 118.797V134.459H268.242V118.797H269.631ZM257.326 125.459C257.335 122.137 258.987 120.019 261.316 120.01C263.637 120.019 265.315 122.137 265.307 125.459C265.315 128.79 263.637 130.899 261.316 130.891C258.987 130.899 257.335 128.79 257.326 125.459ZM258.662 125.459C258.662 127.999 259.752 129.669 261.316 129.66C262.89 129.669 263.971 127.999 263.971 125.459C263.971 122.919 262.89 121.249 261.316 121.24C259.752 121.249 258.662 122.919 258.662 125.459ZM285.258 118.797V134.459H283.887V125.846H280.582V124.703H283.887V118.797H285.258ZM273.023 130.68V120.238H280.318V121.381H274.412V124.633H279.633V125.758H274.412V129.537C277.277 129.528 279.123 129.449 281.268 129.062L281.426 130.205C279.149 130.574 277.242 130.68 274.219 130.68H273.023ZM304.928 120.379V122.119C304.919 124.123 304.919 126.136 304.365 129.045L303.012 128.887C303.565 126.127 303.565 124.07 303.574 122.119V121.521H293.871V120.379H304.928ZM292.377 132.209V131.066H295.91V125.916H297.281V131.066H299.812V125.916H301.166V131.066H306.615V132.209H292.377ZM322.172 126.338V127.463H318.375V129.449H320.414V134.424H319.025V130.557H309.516V129.449H311.713V127.463H307.934V126.338H322.172ZM309.516 122.154C309.516 120.282 311.651 119.166 315.053 119.184C318.437 119.166 320.563 120.282 320.572 122.154C320.563 124.035 318.437 125.16 315.053 125.143C311.651 125.16 309.516 124.035 309.516 122.154ZM310.939 122.154C310.931 123.341 312.521 124.062 315.053 124.07C317.558 124.062 319.157 123.341 319.166 122.154C319.157 120.994 317.558 120.273 315.053 120.291C312.521 120.273 310.931 120.994 310.939 122.154ZM313.102 129.449H317.021V127.463H313.102V129.449Z" fill="black"/>
<path d="M22.6113 14L20.3555 6.57617H21.5996L23.1855 12.2363H23.2539L24.8262 6.57617H26.084L27.6289 12.209H27.7109L29.2969 6.57617H30.5273L28.2715 14H27.1094L25.4961 8.33984H25.3867L23.7871 14H22.6113ZM33.4941 14L31.2383 6.57617H32.4824L34.0684 12.2363H34.1367L35.709 6.57617H36.9668L38.5117 12.209H38.5938L40.1797 6.57617H41.4102L39.1543 14H37.9922L36.3789 8.33984H36.2695L34.6699 14H33.4941ZM44.377 14L42.1211 6.57617H43.3652L44.9512 12.2363H45.0195L46.5918 6.57617H47.8496L49.3945 12.209H49.4766L51.0625 6.57617H52.293L50.0371 14H48.875L47.2617 8.33984H47.1523L45.5527 14H44.377ZM53.4141 14.082C52.9355 14.0752 52.5254 13.6787 52.5391 13.1934C52.5254 12.7148 52.9355 12.3184 53.4141 12.3184C53.8994 12.3184 54.2959 12.7148 54.2891 13.1934C54.2959 13.6787 53.8994 14.0752 53.4141 14.082ZM59.375 6.57617V7.56055H57.8164V11.8672C57.8096 12.8174 58.2881 12.9746 58.7871 12.9746C58.999 12.9746 59.3135 12.9541 59.4844 12.9473V14.041C59.2998 14.0684 59.0127 14.0957 58.6641 14.0957C57.6729 14.0957 56.6338 13.4805 56.627 12.168V7.56055H55.5059V6.57617H56.627V4.79883H57.8164V6.57617H59.375ZM62.0684 9.54297V14H60.8926V6.57617H62.0273V7.73828H62.123C62.4717 6.97949 63.1689 6.48047 64.2969 6.48047C65.8008 6.48047 66.8057 7.39648 66.7988 9.2832V14H65.623V9.36523C65.623 8.2168 64.9941 7.5332 63.9414 7.5332C62.8613 7.5332 62.0684 8.25781 62.0684 9.54297ZM71.9258 6.57617V7.56055H70.3672V11.8672C70.3604 12.8174 70.8389 12.9746 71.3379 12.9746C71.5498 12.9746 71.8643 12.9541 72.0352 12.9473V14.041C71.8506 14.0684 71.5635 14.0957 71.2148 14.0957C70.2236 14.0957 69.1846 13.4805 69.1777 12.168V7.56055H68.0566V6.57617H69.1777V4.79883H70.3672V6.57617H71.9258ZM77.4355 8.50391C77.2715 7.88867 76.7998 7.48535 75.9316 7.47852C75.0156 7.48535 74.3662 7.97754 74.3594 8.59961C74.3662 9.0918 74.7627 9.42676 75.6309 9.63867L76.7383 9.91211C78.0645 10.2266 78.7139 10.8896 78.7207 11.9219C78.7139 13.207 77.668 14.1572 75.8086 14.1504C74.1406 14.1572 73.1494 13.4121 72.9512 12.0586H74.1816C74.3184 12.7832 74.8447 13.1318 75.7812 13.125C76.8408 13.1318 77.5039 12.6875 77.5039 11.9902C77.5039 11.4639 77.1279 11.1221 76.2871 10.9238L75.166 10.6641C73.874 10.3633 73.1836 9.65918 73.1836 8.66797C73.1836 7.39648 74.2979 6.48047 75.9316 6.48047C77.4697 6.48047 78.4336 7.30078 78.584 8.50391H77.4355ZM83.4922 6.57617V7.56055H81.9336V11.8672C81.9268 12.8174 82.4053 12.9746 82.9043 12.9746C83.1162 12.9746 83.4307 12.9541 83.6016 12.9473V14.041C83.417 14.0684 83.1299 14.0957 82.7812 14.0957C81.79 14.0957 80.751 13.4805 80.7441 12.168V7.56055H79.623V6.57617H80.7441V4.79883H81.9336V6.57617H83.4922ZM89.6992 10.9512V6.57617H90.8613V14H89.6992V12.7422H89.6172C89.2686 13.4941 88.5303 14.0957 87.416 14.0957C86.0078 14.0957 85.0029 13.1797 85.0098 11.293V6.57617H86.1855V11.2109C86.1855 12.2773 86.8486 12.9678 87.7988 12.9609C88.6396 12.9678 89.6924 12.3389 89.6992 10.9512ZM95.5508 14.1504C93.6982 14.1572 92.3926 12.667 92.3926 10.3086C92.3926 7.95703 93.6982 6.48047 95.5645 6.48047C97.0068 6.48047 97.458 7.35547 97.7109 7.75195H97.793V4.10156H98.9824V14H97.834V12.8652H97.7109C97.4512 13.2754 96.9658 14.1572 95.5508 14.1504ZM93.582 10.2812C93.582 11.8604 94.3066 13.0977 95.7148 13.0977C97.0752 13.0977 97.8271 11.9492 97.834 10.2812C97.8271 8.63379 97.0957 7.5332 95.7148 7.5332C94.2861 7.5332 93.582 8.72949 93.582 10.2812ZM101.02 14V6.57617H102.195V14H101.02ZM100.787 4.56641C100.78 4.12891 101.156 3.78027 101.607 3.78711C102.059 3.78027 102.435 4.12891 102.441 4.56641C102.435 4.99707 102.059 5.3457 101.607 5.3457C101.156 5.3457 100.78 4.99707 100.787 4.56641ZM107.104 14.1504C105.08 14.1572 103.713 12.626 103.713 10.3223C103.713 8.00488 105.08 6.48047 107.104 6.48047C109.12 6.48047 110.474 8.00488 110.467 10.3223C110.474 12.626 109.12 14.1572 107.104 14.1504ZM104.889 10.3223C104.896 11.8057 105.593 13.1113 107.104 13.1113C108.601 13.1113 109.291 11.8057 109.291 10.3223C109.291 8.8457 108.601 7.51953 107.104 7.51953C105.593 7.51953 104.896 8.8457 104.889 10.3223ZM112.846 14.082C112.367 14.0752 111.957 13.6787 111.971 13.1934C111.957 12.7148 112.367 12.3184 112.846 12.3184C113.331 12.3184 113.728 12.7148 113.721 13.1934C113.728 13.6787 113.331 14.0752 112.846 14.082ZM118.602 14.1504C116.496 14.1572 115.211 12.5508 115.211 10.3223C115.211 8.06641 116.558 6.48047 118.574 6.48047C120.153 6.48047 121.343 7.41699 121.527 8.81836H120.352C120.181 8.1416 119.593 7.51953 118.602 7.51953C117.275 7.51953 116.394 8.61328 116.387 10.2812C116.394 11.9971 117.255 13.0977 118.602 13.0977C119.477 13.0977 120.146 12.626 120.352 11.8125H121.527C121.343 13.1387 120.249 14.1572 118.602 14.1504ZM126.012 14.1504C123.988 14.1572 122.621 12.626 122.621 10.3223C122.621 8.00488 123.988 6.48047 126.012 6.48047C128.028 6.48047 129.382 8.00488 129.375 10.3223C129.382 12.626 128.028 14.1572 126.012 14.1504ZM123.797 10.3223C123.804 11.8057 124.501 13.1113 126.012 13.1113C127.509 13.1113 128.199 11.8057 128.199 10.3223C128.199 8.8457 127.509 7.51953 126.012 7.51953C124.501 7.51953 123.804 8.8457 123.797 10.3223ZM130.92 14V6.57617H132.055V7.73828H132.15C132.458 6.94531 133.176 6.48047 134.146 6.48047C135.117 6.48047 135.78 6.94531 136.129 7.73828H136.211C136.587 6.97266 137.373 6.48047 138.439 6.48047C139.759 6.48047 140.709 7.28711 140.709 9.03711V14H139.533V9.05078C139.526 7.95703 138.843 7.5332 138.029 7.5332C136.997 7.5332 136.409 8.23047 136.402 9.17383V14H135.213V8.92773C135.22 8.09375 134.618 7.5332 133.764 7.5332C132.875 7.5332 132.096 8.28516 132.096 9.36523V14H130.92Z" fill="#808080"/>
<path d="M12.3799 1H2.62008C1.17305 1 0 2.17305 0 3.62008V13.3799C0 14.827 1.17305 16 2.62008 16H12.3799C13.827 16 15 14.827 15 13.3799V3.62008C15 2.17305 13.827 1 12.3799 1Z" fill="url(#paint0_linear_9527_3256)"/>
<path d="M6.49306 8.70239V9.83736C6.49306 10.117 6.48512 10.2962 6.46387 10.3751C6.44531 10.4503 6.37215 10.6842 5.98182 10.6842C5.59149 10.6842 5.53164 10.4539 5.51308 10.3823C5.49183 10.3142 5.4812 10.1565 5.4812 9.90905V8.70239H4.73828V9.01285C4.73828 9.65453 4.74622 10.0739 4.76491 10.2712C4.7809 10.4719 4.83928 10.6619 4.93235 10.8411C5.02798 11.0204 5.17148 11.1674 5.36542 11.2785C5.55668 11.3896 5.77725 11.4469 6.02969 11.4469C6.25551 11.4469 6.45214 11.4003 6.61959 11.3035C6.78703 11.2104 6.91978 11.0705 7.02347 10.8877C7.12448 10.7049 7.18554 10.5256 7.20679 10.3536C7.22804 10.178 7.23867 9.8768 7.23867 9.44666V8.70251H6.49306V8.70239Z" fill="white"/>
<path d="M3.60677 8.70241H4.406V9.41748H3.60677C3.60677 9.97477 3.71193 10.7214 4.406 10.7214V11.4469C3.88023 11.4469 2.94434 10.9527 2.94434 9.77496V7.71351L3.61728 7.44727L3.60677 8.70241Z" fill="white"/>
<path d="M13.0468 8.69189C12.2831 8.69189 11.6641 9.31098 11.6641 10.0747C11.6641 10.8383 12.2831 11.4574 13.0468 11.4574C13.8105 11.4574 14.4296 10.8383 14.4296 10.0747C14.4296 9.31098 13.8105 8.69189 13.0468 8.69189ZM13.0468 10.7945C12.6492 10.7945 12.3269 10.4722 12.3269 10.0745C12.3269 9.67688 12.6492 9.35458 13.0468 9.35458C13.4445 9.35458 13.7668 9.67688 13.7668 10.0745C13.7668 10.4722 13.4445 10.7945 13.0468 10.7945Z" fill="white"/>
<path d="M9.67304 7.44727V8.88524C9.4631 8.75675 9.21725 8.6814 8.95308 8.6814C8.18939 8.6814 7.57031 9.30048 7.57031 10.0642C7.57031 10.8279 8.18939 11.4469 8.95308 11.4469C9.71676 11.4469 10.3358 10.8279 10.3358 10.0642V7.71009L9.67304 7.44727ZM8.95308 10.784C8.55542 10.784 8.23312 10.4617 8.23312 10.064C8.23312 9.66638 8.55542 9.34408 8.95308 9.34408C9.35074 9.34408 9.67304 9.66638 9.67304 10.064C9.67304 10.4617 9.35074 10.784 8.95308 10.784Z" fill="white"/>
<path d="M10.668 11.4464H11.3308V8.57998L11.3307 8.57986V8.27612L10.6681 8.53883L10.668 11.4464Z" fill="white"/>
<path d="M10.668 7.86377V8.3893L11.3305 8.1266L10.668 7.86389V7.86377Z" fill="#805BEA"/>
<path d="M1.83095 9.58737C1.75413 9.55757 1.6872 9.52777 1.63151 9.49894C1.58437 9.47452 1.54614 9.44863 1.51817 9.42237C1.49545 9.40087 1.4797 9.37913 1.46956 9.35532C1.45943 9.33163 1.4543 9.30146 1.4543 9.26567C1.4543 9.22989 1.46688 9.20168 1.49777 9.17395C1.53099 9.14403 1.59878 9.12767 1.68867 9.12767C1.75376 9.12767 1.81409 9.13829 1.86808 9.15893C1.92829 9.18214 1.99863 9.22281 2.07753 9.27996L2.22812 9.38903L2.61149 8.78387L2.478 8.68775C2.36661 8.60751 2.2457 8.54376 2.11857 8.49833C1.98776 8.45167 1.8467 8.42798 1.69905 8.42798C1.56031 8.42798 1.43011 8.44459 1.31201 8.47732C1.18915 8.51152 1.08021 8.56281 0.988122 8.62986C0.889807 8.70143 0.812742 8.79291 0.759005 8.9016C0.706122 9.00896 0.679253 9.13255 0.679253 9.26922C0.679253 9.51299 0.760348 9.71854 0.920462 9.88012C1.06433 10.0253 1.25876 10.1461 1.49753 10.2391C1.57484 10.2696 1.63798 10.2998 1.68512 10.3287C1.72604 10.3537 1.75767 10.3789 1.77904 10.4031C1.79639 10.423 1.80835 10.4428 1.8147 10.4623C1.82277 10.487 1.8268 10.5156 1.8268 10.5474C1.8268 10.6374 1.79712 10.6743 1.7711 10.6964C1.72616 10.7348 1.65569 10.7542 1.56153 10.7542C1.48031 10.7542 1.40532 10.7414 1.33864 10.7159C1.26585 10.688 1.1795 10.6389 1.08192 10.5698L0.925469 10.4589L0.570312 11.0755L0.694642 11.1682C0.835825 11.2735 0.978352 11.349 1.11819 11.3926C1.25608 11.4355 1.40642 11.4572 1.56507 11.4572C1.72372 11.4572 1.87833 11.4348 2.00437 11.3906C2.13444 11.345 2.24534 11.2797 2.33376 11.1971C2.42304 11.1135 2.49107 11.0154 2.53601 10.9053C2.57998 10.7976 2.6022 10.6806 2.6022 10.5576C2.6022 10.3165 2.53381 10.1142 2.39886 9.9562C2.27282 9.80879 2.08181 9.68458 1.83119 9.58737H1.83095Z" fill="white"/>
<path d="M6.24414 6.90183L6.36114 7.0755V5.91281L6.24414 5.72607V6.90183Z" fill="white"/>
<path d="M6.47168 7.24105L6.5877 7.41387V6.27475L6.47168 6.08887V7.24105Z" fill="white"/>
<path d="M5.21777 5.54321V7.91304L5.43785 8.13043H5.97108V6.49376L6.13351 6.73558V5.54846L6.12997 5.54321H5.21777Z" fill="white"/>
<path d="M6.92676 7.91852L7.04278 8.09133V7.00021L6.92676 6.81519V7.91852Z" fill="white"/>
<path d="M6.69922 7.57893L6.81622 7.75345V6.63791L6.69922 6.45117V7.57893Z" fill="white"/>
<path d="M7.31661 5.54321V6.95431V7.43563L7.1543 7.17635V8.13043H8.07077V6.95431V5.92023V5.54321H7.31661Z" fill="white"/>
<path d="M6.24414 6.90159L6.36114 7.07526V5.91257L6.24414 5.72583V6.90159Z" fill="#805BEA"/>
<path d="M6.47168 7.24056L6.5877 7.41338V6.27426L6.47168 6.08838V7.24056Z" fill="#805BEA"/>
<path d="M6.92578 7.91827L7.04193 8.09109V6.99997L6.92578 6.81494V7.91827Z" fill="#805BEA"/>
<path d="M6.69922 7.57893L6.8161 7.75345V6.63791L6.69922 6.45117V7.57893Z" fill="#805BEA"/>
<path d="M3.66569 5.54297H4.94135V7.75549V7.83366V8.13019H4.18768V7.83366V7.75549V6.04261H3.34082L3.66569 5.54297Z" fill="white"/>
<path d="M9.62722 5.54297H8.3468V7.75549H8.34668V8.13019H9.10035V7.75549H9.09949V6.04261H9.94452L9.62722 5.54297Z" fill="white"/>
<defs>
<linearGradient id="paint0_linear_9527_3256" x1="0" y1="8.49994" x2="15" y2="8.49994" gradientUnits="userSpaceOnUse">
<stop stop-color="#2B8EB0"/>
<stop offset="0.16" stop-color="#3191A6"/>
<stop offset="0.42" stop-color="#419B8D"/>
<stop offset="0.75" stop-color="#5BAB64"/>
<stop offset="1" stop-color="#73B940"/>
</linearGradient>
</defs>
</svg>
