<svg width="416" height="156" viewBox="0 0 416 156" fill="none" xmlns="http://www.w3.org/2000/svg">
<rect width="416" height="156" fill="white"/>
<circle cx="406" cy="12" r="2" fill="#D9D9D9"/>
<circle cx="406" cy="18.4761" r="2" fill="#D9D9D9"/>
<circle cx="406" cy="24.9524" r="2" fill="#D9D9D9"/>
<line x1="12" y1="79.5" x2="408" y2="79.5" stroke="#F7F7F7"/>
<path d="M12.752 43.7871V41.4453H25.1484V43.7871H20.3574V57H17.5645V43.7871H12.752ZM40.123 41.4453V57H37.6309L30.2617 46.3652H30.1328V57H27.3398V41.4453H29.875L37.2012 52.0801H37.3516V41.4453H40.123ZM42.3145 43.7871V41.4453H54.7109V43.7871H49.9199V57H47.127V43.7871H42.3145ZM65.3672 45.7207C65.2275 44.3779 64.0996 43.6045 62.4238 43.6152C60.6514 43.6045 59.5986 44.4639 59.5879 45.6348C59.5771 46.9453 60.9629 47.4824 62.252 47.7832L63.7129 48.1699C66.0332 48.707 68.2676 49.9316 68.2676 52.6387C68.2676 55.3672 66.1084 57.2363 62.3809 57.2363C58.7607 57.2363 56.4619 55.4961 56.3438 52.4238H59.0938C59.2227 54.0459 60.5869 54.8408 62.3594 54.8516C64.1963 54.8408 65.4639 53.9492 65.4746 52.6172C65.4639 51.3926 64.3467 50.877 62.6602 50.4473L60.8984 49.9961C58.3418 49.3301 56.752 48.041 56.752 45.8066C56.752 43.0566 59.1904 41.2305 62.4668 41.2305C65.7646 41.2305 68.0098 43.0889 68.0527 45.7207H65.3672ZM69.9004 43.7871V41.4453H82.2969V43.7871H77.5059V57H74.7129V43.7871H69.9004ZM94.3066 41.4453H97.1211V51.6074C97.1104 54.9482 94.5967 57.2363 90.8047 57.2363C86.9912 57.2363 84.499 54.9482 84.4883 51.6074V41.4453H87.2812V51.3711C87.292 53.3369 88.6562 54.7334 90.8047 54.7441C92.9531 54.7334 94.3066 53.3369 94.3066 51.3711V41.4453ZM105.285 57H100V41.4453H105.371C110.012 41.4453 112.815 44.3564 112.826 49.2012C112.815 54.0674 110.012 57 105.285 57ZM102.793 54.5723H105.135C108.39 54.583 110.033 52.7891 110.033 49.2012C110.033 45.6348 108.39 43.8623 105.221 43.873H102.793V54.5723ZM118.09 41.4453V57H115.297V41.4453H118.09ZM134.869 49.2227C134.88 54.25 131.808 57.2148 127.736 57.2148C123.644 57.2148 120.593 54.2393 120.604 49.2227C120.593 44.1953 123.644 41.2305 127.736 41.2305C131.808 41.2305 134.88 44.1953 134.869 49.2227ZM123.418 49.2227C123.407 52.7783 125.201 54.7012 127.736 54.7012C130.282 54.7012 132.065 52.7783 132.055 49.2227C132.065 45.667 130.282 43.7441 127.736 43.7441C125.201 43.7441 123.407 45.667 123.418 49.2227Z" fill="#0C43B7"/>
<path d="M17.6953 102.273V115H16.0957V103.926H16.0254L12.9316 105.982V104.383L16.0957 102.273H17.6953ZM25.2539 115.176C22.4326 115.176 20.7979 112.803 20.8066 108.637C20.7979 104.506 22.4502 102.098 25.2539 102.098C28.0488 102.098 29.7012 104.506 29.7012 108.637C29.7012 112.803 28.0752 115.176 25.2539 115.176ZM22.3359 108.637C22.3447 111.933 23.4082 113.77 25.2539 113.77C27.0908 113.77 28.1631 111.933 28.1543 108.637C28.1631 105.341 27.082 103.478 25.2539 103.469C23.4258 103.478 22.3447 105.341 22.3359 108.637ZM35.9766 115.176C33.1553 115.176 31.5205 112.803 31.5293 108.637C31.5205 104.506 33.1729 102.098 35.9766 102.098C38.7715 102.098 40.4238 104.506 40.4238 108.637C40.4238 112.803 38.7979 115.176 35.9766 115.176ZM33.0586 108.637C33.0674 111.933 34.1309 113.77 35.9766 113.77C37.8135 113.77 38.8857 111.933 38.877 108.637C38.8857 105.341 37.8047 103.478 35.9766 103.469C34.1484 103.478 33.0674 105.341 33.0586 108.637ZM50.7422 101.992V103.135H49.1426V108.136C49.8633 108.083 50.5752 108.021 51.252 107.934L51.3223 108.988C48.2725 109.454 44.7217 109.507 42.1816 109.498L42.0059 108.338C42.6299 108.338 43.3066 108.338 44.0273 108.329V103.135H42.4453V101.992H50.7422ZM44.502 113.576C44.4932 111.792 46.4707 110.772 49.7402 110.781C53.0098 110.772 54.9785 111.792 54.9785 113.576C54.9785 115.36 53.0098 116.389 49.7402 116.389C46.4707 116.389 44.4932 115.36 44.502 113.576ZM45.3633 108.303C46.1631 108.285 46.9893 108.259 47.8066 108.215V103.135H45.3633V108.303ZM45.873 113.576C45.8643 114.666 47.332 115.299 49.7402 115.299C52.1396 115.299 53.6074 114.666 53.6074 113.576C53.6074 112.504 52.1396 111.854 49.7402 111.854C47.332 111.854 45.8643 112.504 45.873 113.576ZM50.9004 107.547V106.404H53.5371V104.752H50.9004V103.609H53.5371V100.797H54.9258V110.447H53.5371V107.547H50.9004ZM74.3145 101.816V103.012C74.3145 104.409 74.3145 106.158 73.875 108.637H76.2832V109.779H72.5215V116.424H71.1504V109.779H67.1426V116.424H65.7715V109.779H62.0449V108.637H72.46C72.9697 106.185 72.9697 104.4 72.9785 103.012V102.959H63.873V101.816H74.3145ZM91.9102 113.26V114.42H77.6016V113.26H84.0352V109.445H79.2891V102.115H90.1348V109.445H85.3887V113.26H91.9102ZM80.6426 108.338H88.7988V103.223H80.6426V108.338ZM111.035 100.797V116.424H109.717V108.232H107.414V115.615H106.148V101.148H107.414V107.09H109.717V100.797H111.035ZM98.2559 112.557V102.713H104.109V103.855H99.627V111.379C101.78 111.37 103.266 111.291 105.006 110.939L105.129 112.1C103.248 112.486 101.657 112.548 99.2578 112.557H98.2559ZM122.092 102.555V103.68H113.25V102.555H117.047V100.674H118.418V102.555H122.092ZM114.182 107.371C114.164 105.631 115.605 104.479 117.715 104.488C119.807 104.479 121.274 105.631 121.283 107.371C121.274 109.12 119.807 110.263 117.715 110.271C115.605 110.263 114.164 109.12 114.182 107.371ZM115.465 107.371C115.456 108.47 116.353 109.208 117.715 109.199C119.06 109.208 119.982 108.47 120 107.371C119.982 106.272 119.06 105.543 117.715 105.525C116.353 105.543 115.456 106.272 115.465 107.371ZM115.781 113.734C115.781 112.029 117.759 111.062 121.037 111.062C124.298 111.062 126.275 112.029 126.275 113.734C126.275 115.413 124.298 116.389 121.037 116.389C117.759 116.389 115.781 115.413 115.781 113.734ZM117.205 113.734C117.214 114.728 118.664 115.325 121.037 115.316C123.375 115.325 124.816 114.728 124.816 113.734C124.816 112.715 123.375 112.144 121.037 112.135C118.664 112.144 117.214 112.715 117.205 113.734ZM122.074 108.742V107.6H124.799V105.701H122.092V104.559H124.799V100.797H126.188V110.904H124.799V108.742H122.074ZM141.094 103.1C141.103 105.78 144.161 108.162 146.877 108.672L146.244 109.832C143.88 109.287 141.401 107.608 140.391 105.314C139.371 107.608 136.901 109.278 134.537 109.832L133.904 108.672C136.611 108.153 139.644 105.789 139.652 103.1V101.904H141.094V103.1ZM133.307 114.297V113.154H147.615V114.297H133.307ZM163.154 110.236V111.396H159.393V116.424H158.021V111.396H153.979V116.424H152.59V111.396H148.846V110.236H163.154ZM150.762 108.619V101.535H161.361V102.66H152.133V104.453H160.992V105.561H152.133V107.477H161.537V108.619H150.762ZM177.305 100.797V116.459H175.916V100.797H177.305ZM165.439 112.574V102.291H172.875V103.451H166.828V111.379C169.869 111.379 171.864 111.291 174.211 110.869L174.352 112.029C171.926 112.46 169.869 112.565 166.705 112.574H165.439ZM187.096 101.816C190.418 101.834 192.809 103.451 192.809 105.912C192.809 108.241 190.734 109.779 187.764 109.981V113.26H194.285V114.42H179.977V113.26H186.41V109.981C183.457 109.771 181.383 108.232 181.383 105.912C181.383 103.451 183.782 101.834 187.096 101.816ZM182.719 105.912C182.71 107.714 184.564 108.883 187.096 108.9C189.627 108.883 191.473 107.714 191.473 105.912C191.473 104.146 189.627 102.95 187.096 102.959C184.564 102.95 182.71 104.146 182.719 105.912ZM198.1 113.822L196.729 118.604H195.428L196.395 113.822H198.1ZM212.654 101.641V104.189H216.223V100.797H217.594V108.83H216.223V105.314H212.654V108.021H205.395V101.641H212.654ZM206.766 106.914H211.301V102.748H206.766V106.914ZM207.469 110.729V109.621H217.594V113.365H208.875V115.105H218.191V116.213H207.504V112.311H216.223V110.729H207.469ZM228.826 102.221V103.381H222.586V106.615H228.264V107.74H222.586V111.52C225.504 111.52 227.508 111.414 229.898 111.01L230.039 112.152C227.569 112.565 225.469 112.653 222.463 112.662H221.215V102.221H228.826ZM231.744 116.424V100.797H233.133V116.424H231.744ZM243.908 102.344V112.504H236.684V102.344H243.908ZM238.037 111.379H242.555V103.451H238.037V111.379ZM247.266 116.459V100.797H248.654V116.459H247.266ZM264.211 100.797V116.459H262.822V100.797H264.211ZM252.346 112.574V102.291H259.781V103.451H253.734V111.379C256.775 111.379 258.771 111.291 261.117 110.869L261.258 112.029C258.832 112.46 256.775 112.565 253.611 112.574H252.346ZM271.084 102.01C273.211 102.019 274.749 103.847 274.96 106.773H278.467V100.797H279.838V116.459H278.467V107.916H274.978C274.828 110.983 273.264 112.899 271.084 112.891C268.772 112.899 267.155 110.79 267.164 107.459C267.155 104.137 268.772 102.019 271.084 102.01ZM268.482 107.459C268.491 109.999 269.546 111.669 271.084 111.66C272.613 111.669 273.686 109.999 273.686 107.459C273.686 104.919 272.613 103.249 271.084 103.24C269.546 103.249 268.491 104.919 268.482 107.459ZM299.42 101.57V102.871C299.429 104.321 299.429 105.912 298.998 108.057L297.627 107.934C297.82 107.02 297.926 106.202 297.979 105.464L288.469 105.912L288.275 104.734L298.04 104.418C298.058 103.873 298.066 103.363 298.066 102.871V102.695H288.662V101.57H299.42ZM286.975 110.236V109.111H292.775V106.809H294.164V109.111H301.195V110.236H286.975ZM288.785 116.178V111.572H290.174V115.053H299.789V116.178H288.785ZM315.785 100.814V112.521H314.467V100.814H315.785ZM303.252 109.92V102.098H309.211V103.24H304.57V105.402H308.561V106.492H304.57V108.777C306.838 108.76 308.235 108.707 309.914 108.355L310.055 109.48C308.244 109.841 306.768 109.92 304.236 109.92H303.252ZM305.59 116.09V111.221H306.996V114.93H316.26V116.09H305.59ZM309.299 106.369V105.262H311.408V101.131H312.744V112.117H311.408V106.369H309.299ZM332.379 113.26V114.42H318.07V113.26H332.379ZM318.949 109.516C321.902 108.979 324.495 107.046 324.504 104.453H319.406V103.328H324.521V101.184H325.875V103.328H331.008V104.453H325.91C325.901 107.046 328.485 108.979 331.465 109.516L330.902 110.641C328.433 110.131 326.183 108.786 325.198 106.747C324.223 108.786 321.964 110.131 319.494 110.641L318.949 109.516ZM336.193 113.822L334.822 118.604H333.521L334.488 113.822H336.193ZM351.416 101.781V102.625C351.407 103.601 351.407 105.016 350.994 106.861L349.623 106.738C349.992 105.086 350.027 103.873 350.027 102.941H343.629V101.781H351.416ZM342.662 108.32C343.682 108.32 344.824 108.312 346.02 108.276V105.174H347.391V108.241C349.131 108.171 350.915 108.057 352.541 107.846L352.629 108.865C349.351 109.393 345.624 109.48 342.803 109.48L342.662 108.32ZM344.719 113.541C344.719 111.792 346.688 110.764 349.922 110.764C353.156 110.764 355.134 111.792 355.125 113.541C355.134 115.352 353.156 116.38 349.922 116.371C346.688 116.38 344.719 115.352 344.719 113.541ZM346.107 113.541C346.099 114.648 347.558 115.272 349.922 115.281C352.277 115.272 353.728 114.648 353.736 113.541C353.728 112.486 352.277 111.845 349.922 111.836C347.558 111.845 346.099 112.486 346.107 113.541ZM353.596 110.57V100.797H355.002V105.086H357.287V106.246H355.002V110.57H353.596ZM370.84 102.379V103.943C370.822 105.859 370.822 108.004 370.26 111.15L368.854 110.992C369.442 108.004 369.442 105.815 369.451 103.943V103.521H359.818V102.379H370.84ZM358.307 114.209V113.066H363.896V107.477H365.25V113.066H372.545V114.209H358.307ZM387.223 100.797V116.424H385.904V100.797H387.223ZM373.67 112.258C375.85 110.957 377.124 108.101 377.115 105.262V103.785H374.109V102.643H381.316V103.785H378.451V105.262C378.451 107.96 379.673 110.658 381.826 111.906L380.982 112.926C379.444 112.003 378.354 110.315 377.81 108.329C377.247 110.482 376.113 112.319 374.549 113.295L373.67 112.258ZM380.121 107.564V106.439H382.758V101.184H384.059V115.615H382.758V107.564H380.121ZM394.711 103.697C394.72 105.78 396.249 107.679 398.561 108.479L397.857 109.551C396.073 108.918 394.711 107.644 394.043 106.026C393.375 107.802 391.942 109.182 390.105 109.85L389.367 108.777C391.705 107.951 393.34 105.938 393.357 103.697V103.029H389.789V101.904H398.227V103.029H394.711V103.697ZM391.406 112.17V111.045H401.637V116.424H400.266V112.17H391.406ZM400.266 110.219V100.797H401.637V104.928H403.992V106.105H401.637V110.219H400.266ZM407.543 113.822L406.172 118.604H404.871L405.838 113.822H407.543ZM20.4902 130.379V140.451H13.2832V130.379H20.4902ZM14.6191 139.326H19.1191V131.486H14.6191V139.326ZM23.3555 144.424V128.797H24.7266V135.037H27.3457V136.232H24.7266V144.424H23.3555ZM35.0801 130.66C35.0713 132.137 34.9043 133.604 34.4561 134.984H36.9609V129.219H38.2793V143.633H36.9609V136.127H34.0078C33.1289 138.052 31.5996 139.792 29.0859 141.172L28.2949 140.188C30.7031 138.878 32.1357 137.234 32.9268 135.389L28.4707 135.846L28.2598 134.615L33.3135 134.299C33.542 133.49 33.6738 132.664 33.7266 131.803H29.0156V130.66H35.0801ZM40.248 144.424V128.797H41.5664V144.424H40.248ZM52.1484 129.957V131.082H46.0488V133.051H51.709V134.176H46.0488V136.232C49.3711 136.241 51.2344 136.18 53.4316 135.811L53.5723 136.936C51.2959 137.305 49.3799 137.384 45.9258 137.375H44.6602V129.957H52.1484ZM46.1719 141.541C46.1719 139.757 48.1494 138.711 51.4629 138.729C54.7148 138.711 56.7275 139.757 56.7188 141.541C56.7275 143.36 54.7148 144.389 51.4629 144.389C48.1494 144.389 46.1719 143.36 46.1719 141.541ZM47.543 141.541C47.543 142.648 49.002 143.299 51.4629 143.299C53.8535 143.299 55.3564 142.648 55.3652 141.541C55.3564 140.478 53.8535 139.818 51.4629 139.818C49.002 139.818 47.543 140.478 47.543 141.541ZM55.2773 138.5V128.814H56.6484V138.5H55.2773ZM61.8691 141.822L60.498 146.604H59.1973L60.1641 141.822H61.8691ZM77.0391 130.221V131.381H70.7988V134.615H76.4766V135.74H70.7988V139.52C73.7168 139.52 75.7207 139.414 78.1113 139.01L78.252 140.152C75.7822 140.565 73.6816 140.653 70.6758 140.662H69.4277V130.221H77.0391ZM79.957 144.424V128.797H81.3457V144.424H79.957ZM92.3672 130.432C92.3496 134.94 90.7236 139.106 85.0723 141.875L84.2988 140.768C87.2344 139.361 89.0449 137.56 90.0293 135.441L84.5977 135.969L84.3691 134.738L90.4688 134.334C90.75 133.464 90.917 132.541 90.9873 131.574H85.1602V130.432H92.3672ZM95.5137 144.424V128.797H96.9023V144.424H95.5137ZM103.283 130.027C105.349 130.036 106.86 131.601 106.869 133.824C106.86 136.048 105.349 137.604 103.283 137.586C101.191 137.604 99.7061 136.048 99.7148 133.824C99.7061 131.601 101.191 130.036 103.283 130.027ZM100.963 133.824C100.945 135.345 101.938 136.426 103.283 136.426C104.61 136.426 105.595 135.345 105.604 133.824C105.595 132.312 104.61 131.214 103.283 131.223C101.938 131.214 100.945 132.312 100.963 133.824ZM102.562 144.09V138.992H103.934V142.93H113.285V144.09H102.562ZM108.117 139.994V129.113H109.418V133.385H111.492V128.814H112.811V140.557H111.492V134.527H109.418V139.994H108.117ZM123.111 130.221V131.381H117.17V134.615H122.76V135.74H117.17V139.52C119.991 139.52 121.969 139.414 124.307 139.01L124.465 140.152C122.021 140.565 119.974 140.653 117.012 140.662H115.781V130.221H123.111ZM125.818 144.424V128.797H127.189V135.09H129.809V136.268H127.189V144.424H125.818ZM138.756 130.432C138.747 134.94 137.209 139.071 131.584 141.84L130.811 140.785C133.746 139.353 135.513 137.542 136.462 135.441L131.109 135.951L130.881 134.738L136.884 134.334C137.165 133.455 137.323 132.532 137.385 131.574H131.672V130.432H138.756ZM141.375 144.424V128.797H142.746V135.16H145.277V136.32H142.746V144.424H141.375ZM158.672 130.432C158.654 134.94 157.055 139.071 151.535 141.84L150.744 140.785C153.618 139.344 155.394 137.542 156.369 135.433L151.043 135.934L150.797 134.738L156.791 134.343C157.081 133.464 157.239 132.541 157.31 131.574H151.588V130.432H158.672ZM158.619 136.232V135.09H162.293V128.797H163.664V144.424H162.293V136.232H158.619ZM180.574 137.85V138.992H176.918V144.547H175.547V138.992H171.311V144.547H169.939V138.992H166.266V137.85H180.574ZM168.111 135.74V129.658H178.711V135.74H168.111ZM169.465 134.633H177.34V130.783H169.465V134.633ZM194.725 128.797V144.424H193.354V128.797H194.725ZM182.859 140.398V130.344H184.213V139.203C186.604 139.186 189.064 139.001 191.684 138.447L191.877 139.625C189.1 140.205 186.63 140.398 184.125 140.398H182.859ZM206.01 130.221V131.381H199.77V134.615H205.447V135.74H199.77V139.52C202.688 139.52 204.691 139.414 207.082 139.01L207.223 140.152C204.753 140.565 202.652 140.653 199.646 140.662H198.398V130.221H206.01ZM208.928 144.424V128.797H210.316V144.424H208.928ZM215.52 141.822L214.148 146.604H212.848L213.814 141.822H215.52ZM234.539 130.396V132.33C234.548 134.633 234.548 136.76 233.889 139.924L232.5 139.801C232.852 138.298 233.019 136.997 233.106 135.784L223.57 136.303L223.377 135.16L233.168 134.756C233.194 133.93 233.203 133.13 233.203 132.33V131.557H223.799V130.396H234.539ZM222.076 142.227V141.066H236.314V142.227H222.076ZM250.535 128.797V144.459H249.164V128.797H250.535ZM238.512 131.398V130.256H245.789V135.811H239.953V139.502C242.546 139.511 244.857 139.388 247.652 138.939L247.793 140.1C244.919 140.548 242.546 140.662 239.848 140.662H238.547V134.686H244.4V131.398H238.512ZM266.584 128.797V144.424H265.248V128.797H266.584ZM253.383 135.547C253.392 132.225 254.71 130.124 256.74 130.115C258.639 130.124 259.922 131.952 260.098 134.896H262.119V129.131H263.438V143.633H262.119V136.039H260.106C259.975 139.08 258.665 140.987 256.74 140.979C254.71 140.987 253.392 138.869 253.383 135.547ZM254.684 135.547C254.666 138.078 255.475 139.678 256.74 139.66C258.015 139.678 258.823 138.078 258.814 135.547C258.823 133.007 258.015 131.416 256.74 131.416C255.475 131.416 254.666 133.007 254.684 135.547ZM281.631 128.797V144.459H280.242V128.797H281.631ZM269.326 135.459C269.335 132.137 270.987 130.019 273.316 130.01C275.637 130.019 277.315 132.137 277.307 135.459C277.315 138.79 275.637 140.899 273.316 140.891C270.987 140.899 269.335 138.79 269.326 135.459ZM270.662 135.459C270.662 137.999 271.752 139.669 273.316 139.66C274.89 139.669 275.971 137.999 275.971 135.459C275.971 132.919 274.89 131.249 273.316 131.24C271.752 131.249 270.662 132.919 270.662 135.459ZM297.258 128.797V144.459H295.887V135.846H292.582V134.703H295.887V128.797H297.258ZM285.023 140.68V130.238H292.318V131.381H286.412V134.633H291.633V135.758H286.412V139.537C289.277 139.528 291.123 139.449 293.268 139.062L293.426 140.205C291.149 140.574 289.242 140.68 286.219 140.68H285.023ZM316.928 130.379V132.119C316.919 134.123 316.919 136.136 316.365 139.045L315.012 138.887C315.565 136.127 315.565 134.07 315.574 132.119V131.521H305.871V130.379H316.928ZM304.377 142.209V141.066H307.91V135.916H309.281V141.066H311.812V135.916H313.166V141.066H318.615V142.209H304.377ZM334.172 136.338V137.463H330.375V139.449H332.414V144.424H331.025V140.557H321.516V139.449H323.713V137.463H319.934V136.338H334.172ZM321.516 132.154C321.516 130.282 323.651 129.166 327.053 129.184C330.437 129.166 332.563 130.282 332.572 132.154C332.563 134.035 330.437 135.16 327.053 135.143C323.651 135.16 321.516 134.035 321.516 132.154ZM322.939 132.154C322.931 133.341 324.521 134.062 327.053 134.07C329.558 134.062 331.157 133.341 331.166 132.154C331.157 130.994 329.558 130.273 327.053 130.291C324.521 130.273 322.931 130.994 322.939 132.154ZM325.102 139.449H329.021V137.463H325.102V139.449Z" fill="black"/>
<path d="M34.6113 24L32.3555 16.5762H33.5996L35.1855 22.2363H35.2539L36.8262 16.5762H38.084L39.6289 22.209H39.7109L41.2969 16.5762H42.5273L40.2715 24H39.1094L37.4961 18.3398H37.3867L35.7871 24H34.6113ZM45.4941 24L43.2383 16.5762H44.4824L46.0684 22.2363H46.1367L47.709 16.5762H48.9668L50.5117 22.209H50.5938L52.1797 16.5762H53.4102L51.1543 24H49.9922L48.3789 18.3398H48.2695L46.6699 24H45.4941ZM56.377 24L54.1211 16.5762H55.3652L56.9512 22.2363H57.0195L58.5918 16.5762H59.8496L61.3945 22.209H61.4766L63.0625 16.5762H64.293L62.0371 24H60.875L59.2617 18.3398H59.1523L57.5527 24H56.377ZM65.4141 24.082C64.9355 24.0752 64.5254 23.6787 64.5391 23.1934C64.5254 22.7148 64.9355 22.3184 65.4141 22.3184C65.8994 22.3184 66.2959 22.7148 66.2891 23.1934C66.2959 23.6787 65.8994 24.0752 65.4141 24.082ZM71.375 16.5762V17.5605H69.8164V21.8672C69.8096 22.8174 70.2881 22.9746 70.7871 22.9746C70.999 22.9746 71.3135 22.9541 71.4844 22.9473V24.041C71.2998 24.0684 71.0127 24.0957 70.6641 24.0957C69.6729 24.0957 68.6338 23.4805 68.627 22.168V17.5605H67.5059V16.5762H68.627V14.7988H69.8164V16.5762H71.375ZM74.0684 19.543V24H72.8926V16.5762H74.0273V17.7383H74.123C74.4717 16.9795 75.1689 16.4805 76.2969 16.4805C77.8008 16.4805 78.8057 17.3965 78.7988 19.2832V24H77.623V19.3652C77.623 18.2168 76.9941 17.5332 75.9414 17.5332C74.8613 17.5332 74.0684 18.2578 74.0684 19.543ZM83.9258 16.5762V17.5605H82.3672V21.8672C82.3604 22.8174 82.8389 22.9746 83.3379 22.9746C83.5498 22.9746 83.8643 22.9541 84.0352 22.9473V24.041C83.8506 24.0684 83.5635 24.0957 83.2148 24.0957C82.2236 24.0957 81.1846 23.4805 81.1777 22.168V17.5605H80.0566V16.5762H81.1777V14.7988H82.3672V16.5762H83.9258ZM89.4355 18.5039C89.2715 17.8887 88.7998 17.4854 87.9316 17.4785C87.0156 17.4854 86.3662 17.9775 86.3594 18.5996C86.3662 19.0918 86.7627 19.4268 87.6309 19.6387L88.7383 19.9121C90.0645 20.2266 90.7139 20.8896 90.7207 21.9219C90.7139 23.207 89.668 24.1572 87.8086 24.1504C86.1406 24.1572 85.1494 23.4121 84.9512 22.0586H86.1816C86.3184 22.7832 86.8447 23.1318 87.7812 23.125C88.8408 23.1318 89.5039 22.6875 89.5039 21.9902C89.5039 21.4639 89.1279 21.1221 88.2871 20.9238L87.166 20.6641C85.874 20.3633 85.1836 19.6592 85.1836 18.668C85.1836 17.3965 86.2979 16.4805 87.9316 16.4805C89.4697 16.4805 90.4336 17.3008 90.584 18.5039H89.4355ZM95.4922 16.5762V17.5605H93.9336V21.8672C93.9268 22.8174 94.4053 22.9746 94.9043 22.9746C95.1162 22.9746 95.4307 22.9541 95.6016 22.9473V24.041C95.417 24.0684 95.1299 24.0957 94.7812 24.0957C93.79 24.0957 92.751 23.4805 92.7441 22.168V17.5605H91.623V16.5762H92.7441V14.7988H93.9336V16.5762H95.4922ZM101.699 20.9512V16.5762H102.861V24H101.699V22.7422H101.617C101.269 23.4941 100.53 24.0957 99.416 24.0957C98.0078 24.0957 97.0029 23.1797 97.0098 21.293V16.5762H98.1855V21.2109C98.1855 22.2773 98.8486 22.9678 99.7988 22.9609C100.64 22.9678 101.692 22.3389 101.699 20.9512ZM107.551 24.1504C105.698 24.1572 104.393 22.667 104.393 20.3086C104.393 17.957 105.698 16.4805 107.564 16.4805C109.007 16.4805 109.458 17.3555 109.711 17.752H109.793V14.1016H110.982V24H109.834V22.8652H109.711C109.451 23.2754 108.966 24.1572 107.551 24.1504ZM105.582 20.2812C105.582 21.8604 106.307 23.0977 107.715 23.0977C109.075 23.0977 109.827 21.9492 109.834 20.2812C109.827 18.6338 109.096 17.5332 107.715 17.5332C106.286 17.5332 105.582 18.7295 105.582 20.2812ZM113.02 24V16.5762H114.195V24H113.02ZM112.787 14.5664C112.78 14.1289 113.156 13.7803 113.607 13.7871C114.059 13.7803 114.435 14.1289 114.441 14.5664C114.435 14.9971 114.059 15.3457 113.607 15.3457C113.156 15.3457 112.78 14.9971 112.787 14.5664ZM119.104 24.1504C117.08 24.1572 115.713 22.626 115.713 20.3223C115.713 18.0049 117.08 16.4805 119.104 16.4805C121.12 16.4805 122.474 18.0049 122.467 20.3223C122.474 22.626 121.12 24.1572 119.104 24.1504ZM116.889 20.3223C116.896 21.8057 117.593 23.1113 119.104 23.1113C120.601 23.1113 121.291 21.8057 121.291 20.3223C121.291 18.8457 120.601 17.5195 119.104 17.5195C117.593 17.5195 116.896 18.8457 116.889 20.3223ZM124.846 24.082C124.367 24.0752 123.957 23.6787 123.971 23.1934C123.957 22.7148 124.367 22.3184 124.846 22.3184C125.331 22.3184 125.728 22.7148 125.721 23.1934C125.728 23.6787 125.331 24.0752 124.846 24.082ZM127.566 24V14.1016H128.742V19.8574H128.879L132.092 16.5762H133.541L130.41 19.7549L133.773 24H132.283L129.528 20.5L128.742 21.2314V24H127.566ZM134.799 24V16.5762H135.934V17.7109H136.016C136.282 16.959 137.055 16.46 137.93 16.4531C138.107 16.46 138.408 16.4668 138.545 16.4805V17.6699C138.456 17.6494 138.142 17.5879 137.834 17.5879C136.768 17.5879 135.975 18.3262 135.975 19.3242V24H134.799Z" fill="#808080"/>
<path d="M24.3799 11H14.6201C13.173 11 12 12.173 12 13.6201V23.3799C12 24.827 13.173 26 14.6201 26H24.3799C25.827 26 27 24.827 27 23.3799V13.6201C27 12.173 25.827 11 24.3799 11Z" fill="url(#paint0_linear_9524_4279)"/>
<path d="M18.4931 18.7024V19.8374C18.4931 20.117 18.4851 20.2962 18.4639 20.3751C18.4453 20.4503 18.3721 20.6842 17.9818 20.6842C17.5915 20.6842 17.5316 20.4539 17.5131 20.3823C17.4918 20.3142 17.4812 20.1565 17.4812 19.909V18.7024H16.7383V19.0128C16.7383 19.6545 16.7462 20.0739 16.7649 20.2712C16.7809 20.4719 16.8393 20.6619 16.9323 20.8411C17.028 21.0204 17.1715 21.1674 17.3654 21.2785C17.5567 21.3896 17.7772 21.4469 18.0297 21.4469C18.2555 21.4469 18.4521 21.4003 18.6196 21.3035C18.787 21.2104 18.9198 21.0705 19.0235 20.8877C19.1245 20.7049 19.1855 20.5256 19.2068 20.3536C19.228 20.178 19.2387 19.8768 19.2387 19.4467V18.7025H18.4931V18.7024Z" fill="white"/>
<path d="M15.6068 18.7024H16.406V19.4175H15.6068C15.6068 19.9748 15.7119 20.7214 16.406 20.7214V21.4469C15.8802 21.4469 14.9443 20.9527 14.9443 19.775V17.7135L15.6173 17.4473L15.6068 18.7024Z" fill="white"/>
<path d="M25.0468 18.6919C24.2831 18.6919 23.6641 19.311 23.6641 20.0747C23.6641 20.8383 24.2831 21.4574 25.0468 21.4574C25.8105 21.4574 26.4296 20.8383 26.4296 20.0747C26.4296 19.311 25.8105 18.6919 25.0468 18.6919ZM25.0468 20.7945C24.6492 20.7945 24.3269 20.4722 24.3269 20.0745C24.3269 19.6769 24.6492 19.3546 25.0468 19.3546C25.4445 19.3546 25.7668 19.6769 25.7668 20.0745C25.7668 20.4722 25.4445 20.7945 25.0468 20.7945Z" fill="white"/>
<path d="M21.673 17.4473V18.8852C21.4631 18.7568 21.2172 18.6814 20.9531 18.6814C20.1894 18.6814 19.5703 19.3005 19.5703 20.0642C19.5703 20.8279 20.1894 21.4469 20.9531 21.4469C21.7168 21.4469 22.3358 20.8279 22.3358 20.0642V17.7101L21.673 17.4473ZM20.9531 20.784C20.5554 20.784 20.2331 20.4617 20.2331 20.064C20.2331 19.6664 20.5554 19.3441 20.9531 19.3441C21.3507 19.3441 21.673 19.6664 21.673 20.064C21.673 20.4617 21.3507 20.784 20.9531 20.784Z" fill="white"/>
<path d="M22.668 21.4464H23.3308V18.58L23.3307 18.5799V18.2761L22.6681 18.5388L22.668 21.4464Z" fill="white"/>
<path d="M22.668 17.8638V18.3893L23.3305 18.1266L22.668 17.8639V17.8638Z" fill="#805BEA"/>
<path d="M13.8309 19.5874C13.7541 19.5576 13.6872 19.5278 13.6315 19.4989C13.5844 19.4745 13.5461 19.4486 13.5182 19.4224C13.4955 19.4009 13.4797 19.3791 13.4696 19.3553C13.4594 19.3316 13.4543 19.3015 13.4543 19.2657C13.4543 19.2299 13.4669 19.2017 13.4978 19.174C13.531 19.144 13.5988 19.1277 13.6887 19.1277C13.7538 19.1277 13.8141 19.1383 13.8681 19.1589C13.9283 19.1821 13.9986 19.2228 14.0775 19.28L14.2281 19.389L14.6115 18.7839L14.478 18.6878C14.3666 18.6075 14.2457 18.5438 14.1186 18.4983C13.9878 18.4517 13.8467 18.428 13.699 18.428C13.5603 18.428 13.4301 18.4446 13.312 18.4773C13.1892 18.5115 13.0802 18.5628 12.9881 18.6299C12.8898 18.7014 12.8127 18.7929 12.759 18.9016C12.7061 19.009 12.6793 19.1326 12.6793 19.2692C12.6793 19.513 12.7603 19.7185 12.9205 19.8801C13.0643 20.0253 13.2588 20.1461 13.4975 20.2391C13.5748 20.2696 13.638 20.2998 13.6851 20.3287C13.726 20.3537 13.7577 20.3789 13.779 20.4031C13.7964 20.423 13.8084 20.4428 13.8147 20.4623C13.8228 20.487 13.8268 20.5156 13.8268 20.5474C13.8268 20.6374 13.7971 20.6743 13.7711 20.6964C13.7262 20.7348 13.6557 20.7542 13.5615 20.7542C13.4803 20.7542 13.4053 20.7414 13.3386 20.7159C13.2658 20.688 13.1795 20.6389 13.0819 20.5698L12.9255 20.4589L12.5703 21.0755L12.6946 21.1682C12.8358 21.2735 12.9784 21.349 13.1182 21.3926C13.2561 21.4355 13.4064 21.4572 13.5651 21.4572C13.7237 21.4572 13.8783 21.4348 14.0044 21.3906C14.1344 21.345 14.2453 21.2797 14.3338 21.1971C14.423 21.1135 14.4911 21.0154 14.536 20.9053C14.58 20.7976 14.6022 20.6806 14.6022 20.5576C14.6022 20.3165 14.5338 20.1142 14.3989 19.9562C14.2728 19.8088 14.0818 19.6846 13.8312 19.5874H13.8309Z" fill="white"/>
<path d="M18.2441 16.9018L18.3611 17.0755V15.9128L18.2441 15.7261V16.9018Z" fill="white"/>
<path d="M18.4717 17.2411L18.5877 17.4139V16.2748L18.4717 16.0889V17.2411Z" fill="white"/>
<path d="M17.2178 15.5432V17.913L17.4379 18.1304H17.9711V16.4938L18.1335 16.7356V15.5485L18.13 15.5432H17.2178Z" fill="white"/>
<path d="M18.9268 17.9185L19.0428 18.0913V17.0002L18.9268 16.8152V17.9185Z" fill="white"/>
<path d="M18.6992 17.5789L18.8162 17.7535V16.6379L18.6992 16.4512V17.5789Z" fill="white"/>
<path d="M19.3166 15.5432V16.9543V17.4356L19.1543 17.1763V18.1304H20.0708V16.9543V15.9202V15.5432H19.3166Z" fill="white"/>
<path d="M18.2441 16.9016L18.3611 17.0753V15.9126L18.2441 15.7258V16.9016Z" fill="#805BEA"/>
<path d="M18.4717 17.2406L18.5877 17.4134V16.2743L18.4717 16.0884V17.2406Z" fill="#805BEA"/>
<path d="M18.9258 17.9183L19.0419 18.0911V17L18.9258 16.8149V17.9183Z" fill="#805BEA"/>
<path d="M18.6992 17.5789L18.8161 17.7535V16.6379L18.6992 16.4512V17.5789Z" fill="#805BEA"/>
<path d="M15.6657 15.543H16.9413V17.7555V17.8337V18.1302H16.1877V17.8337V17.7555V16.0426H15.3408L15.6657 15.543Z" fill="white"/>
<path d="M21.6272 15.543H20.3468V17.7555H20.3467V18.1302H21.1004V17.7555H21.0995V16.0426H21.9445L21.6272 15.543Z" fill="white"/>
<defs>
<linearGradient id="paint0_linear_9524_4279" x1="12" y1="18.4999" x2="27" y2="18.4999" gradientUnits="userSpaceOnUse">
<stop stop-color="#2B8EB0"/>
<stop offset="0.16" stop-color="#3191A6"/>
<stop offset="0.42" stop-color="#419B8D"/>
<stop offset="0.75" stop-color="#5BAB64"/>
<stop offset="1" stop-color="#73B940"/>
</linearGradient>
</defs>
</svg>
