<svg width="416" height="156" viewBox="0 0 416 156" fill="none" xmlns="http://www.w3.org/2000/svg">
<rect width="416" height="156" fill="white"/>
<circle cx="406" cy="18" r="2" fill="#D9D9D9"/>
<circle cx="406" cy="24.4761" r="2" fill="#D9D9D9"/>
<circle cx="406" cy="30.9524" r="2" fill="#D9D9D9"/>
<line x1="12" y1="74.5" x2="408" y2="74.5" stroke="#F7F7F7"/>
<path d="M12.752 43.7871V41.4453H25.1484V43.7871H20.3574V57H17.5645V43.7871H12.752ZM40.123 41.4453V57H37.6309L30.2617 46.3652H30.1328V57H27.3398V41.4453H29.875L37.2012 52.0801H37.3516V41.4453H40.123ZM42.3145 43.7871V41.4453H54.7109V43.7871H49.9199V57H47.127V43.7871H42.3145ZM65.3672 45.7207C65.2275 44.3779 64.0996 43.6045 62.4238 43.6152C60.6514 43.6045 59.5986 44.4639 59.5879 45.6348C59.5771 46.9453 60.9629 47.4824 62.252 47.7832L63.7129 48.1699C66.0332 48.707 68.2676 49.9316 68.2676 52.6387C68.2676 55.3672 66.1084 57.2363 62.3809 57.2363C58.7607 57.2363 56.4619 55.4961 56.3438 52.4238H59.0938C59.2227 54.0459 60.5869 54.8408 62.3594 54.8516C64.1963 54.8408 65.4639 53.9492 65.4746 52.6172C65.4639 51.3926 64.3467 50.877 62.6602 50.4473L60.8984 49.9961C58.3418 49.3301 56.752 48.041 56.752 45.8066C56.752 43.0566 59.1904 41.2305 62.4668 41.2305C65.7646 41.2305 68.0098 43.0889 68.0527 45.7207H65.3672ZM69.9004 43.7871V41.4453H82.2969V43.7871H77.5059V57H74.7129V43.7871H69.9004ZM94.3066 41.4453H97.1211V51.6074C97.1104 54.9482 94.5967 57.2363 90.8047 57.2363C86.9912 57.2363 84.499 54.9482 84.4883 51.6074V41.4453H87.2812V51.3711C87.292 53.3369 88.6562 54.7334 90.8047 54.7441C92.9531 54.7334 94.3066 53.3369 94.3066 51.3711V41.4453ZM105.285 57H100V41.4453H105.371C110.012 41.4453 112.815 44.3564 112.826 49.2012C112.815 54.0674 110.012 57 105.285 57ZM102.793 54.5723H105.135C108.39 54.583 110.033 52.7891 110.033 49.2012C110.033 45.6348 108.39 43.8623 105.221 43.873H102.793V54.5723ZM118.09 41.4453V57H115.297V41.4453H118.09ZM134.869 49.2227C134.88 54.25 131.808 57.2148 127.736 57.2148C123.644 57.2148 120.593 54.2393 120.604 49.2227C120.593 44.1953 123.644 41.2305 127.736 41.2305C131.808 41.2305 134.88 44.1953 134.869 49.2227ZM123.418 49.2227C123.407 52.7783 125.201 54.7012 127.736 54.7012C130.282 54.7012 132.065 52.7783 132.055 49.2227C132.065 45.667 130.282 43.7441 127.736 43.7441C125.201 43.7441 123.407 45.667 123.418 49.2227Z" fill="#0C43B7"/>
<path d="M17.6953 92.2734V105H16.0957V93.9258H16.0254L12.9316 95.9824V94.3828L16.0957 92.2734H17.6953ZM25.2539 105.176C22.4326 105.176 20.7979 102.803 20.8066 98.6367C20.7979 94.5059 22.4502 92.0977 25.2539 92.0977C28.0488 92.0977 29.7012 94.5059 29.7012 98.6367C29.7012 102.803 28.0752 105.176 25.2539 105.176ZM22.3359 98.6367C22.3447 101.933 23.4082 103.77 25.2539 103.77C27.0908 103.77 28.1631 101.933 28.1543 98.6367C28.1631 95.3408 27.082 93.4775 25.2539 93.4688C23.4258 93.4775 22.3447 95.3408 22.3359 98.6367ZM35.9766 105.176C33.1553 105.176 31.5205 102.803 31.5293 98.6367C31.5205 94.5059 33.1729 92.0977 35.9766 92.0977C38.7715 92.0977 40.4238 94.5059 40.4238 98.6367C40.4238 102.803 38.7979 105.176 35.9766 105.176ZM33.0586 98.6367C33.0674 101.933 34.1309 103.77 35.9766 103.77C37.8135 103.77 38.8857 101.933 38.877 98.6367C38.8857 95.3408 37.8047 93.4775 35.9766 93.4688C34.1484 93.4775 33.0674 95.3408 33.0586 98.6367ZM50.7422 91.9922V93.1348H49.1426V98.1357C49.8633 98.083 50.5752 98.0215 51.252 97.9336L51.3223 98.9883C48.2725 99.4541 44.7217 99.5068 42.1816 99.498L42.0059 98.3379C42.6299 98.3379 43.3066 98.3379 44.0273 98.3291V93.1348H42.4453V91.9922H50.7422ZM44.502 103.576C44.4932 101.792 46.4707 100.772 49.7402 100.781C53.0098 100.772 54.9785 101.792 54.9785 103.576C54.9785 105.36 53.0098 106.389 49.7402 106.389C46.4707 106.389 44.4932 105.36 44.502 103.576ZM45.3633 98.3027C46.1631 98.2852 46.9893 98.2588 47.8066 98.2148V93.1348H45.3633V98.3027ZM45.873 103.576C45.8643 104.666 47.332 105.299 49.7402 105.299C52.1396 105.299 53.6074 104.666 53.6074 103.576C53.6074 102.504 52.1396 101.854 49.7402 101.854C47.332 101.854 45.8643 102.504 45.873 103.576ZM50.9004 97.5469V96.4043H53.5371V94.752H50.9004V93.6094H53.5371V90.7969H54.9258V100.447H53.5371V97.5469H50.9004ZM74.3145 91.8164V93.0117C74.3145 94.4092 74.3145 96.1582 73.875 98.6367H76.2832V99.7793H72.5215V106.424H71.1504V99.7793H67.1426V106.424H65.7715V99.7793H62.0449V98.6367H72.46C72.9697 96.1846 72.9697 94.4004 72.9785 93.0117V92.959H63.873V91.8164H74.3145ZM91.9102 103.26V104.42H77.6016V103.26H84.0352V99.4453H79.2891V92.1152H90.1348V99.4453H85.3887V103.26H91.9102ZM80.6426 98.3379H88.7988V93.2227H80.6426V98.3379ZM111.035 90.7969V106.424H109.717V98.2324H107.414V105.615H106.148V91.1484H107.414V97.0898H109.717V90.7969H111.035ZM98.2559 102.557V92.7129H104.109V93.8555H99.627V101.379C101.78 101.37 103.266 101.291 105.006 100.939L105.129 102.1C103.248 102.486 101.657 102.548 99.2578 102.557H98.2559ZM122.092 92.5547V93.6797H113.25V92.5547H117.047V90.6738H118.418V92.5547H122.092ZM114.182 97.3711C114.164 95.6309 115.605 94.4795 117.715 94.4883C119.807 94.4795 121.274 95.6309 121.283 97.3711C121.274 99.1201 119.807 100.263 117.715 100.271C115.605 100.263 114.164 99.1201 114.182 97.3711ZM115.465 97.3711C115.456 98.4697 116.353 99.208 117.715 99.1992C119.06 99.208 119.982 98.4697 120 97.3711C119.982 96.2725 119.06 95.543 117.715 95.5254C116.353 95.543 115.456 96.2725 115.465 97.3711ZM115.781 103.734C115.781 102.029 117.759 101.062 121.037 101.062C124.298 101.062 126.275 102.029 126.275 103.734C126.275 105.413 124.298 106.389 121.037 106.389C117.759 106.389 115.781 105.413 115.781 103.734ZM117.205 103.734C117.214 104.728 118.664 105.325 121.037 105.316C123.375 105.325 124.816 104.728 124.816 103.734C124.816 102.715 123.375 102.144 121.037 102.135C118.664 102.144 117.214 102.715 117.205 103.734ZM122.074 98.7422V97.5996H124.799V95.7012H122.092V94.5586H124.799V90.7969H126.188V100.904H124.799V98.7422H122.074ZM141.094 93.0996C141.103 95.7803 144.161 98.1621 146.877 98.6719L146.244 99.832C143.88 99.2871 141.401 97.6084 140.391 95.3145C139.371 97.6084 136.901 99.2783 134.537 99.832L133.904 98.6719C136.611 98.1533 139.644 95.7891 139.652 93.0996V91.9043H141.094V93.0996ZM133.307 104.297V103.154H147.615V104.297H133.307ZM163.154 100.236V101.396H159.393V106.424H158.021V101.396H153.979V106.424H152.59V101.396H148.846V100.236H163.154ZM150.762 98.6191V91.5352H161.361V92.6602H152.133V94.4531H160.992V95.5605H152.133V97.4766H161.537V98.6191H150.762ZM177.305 90.7969V106.459H175.916V90.7969H177.305ZM165.439 102.574V92.291H172.875V93.4512H166.828V101.379C169.869 101.379 171.864 101.291 174.211 100.869L174.352 102.029C171.926 102.46 169.869 102.565 166.705 102.574H165.439ZM187.096 91.8164C190.418 91.834 192.809 93.4512 192.809 95.9121C192.809 98.2412 190.734 99.7793 187.764 99.9814V103.26H194.285V104.42H179.977V103.26H186.41V99.9814C183.457 99.7705 181.383 98.2324 181.383 95.9121C181.383 93.4512 183.782 91.834 187.096 91.8164ZM182.719 95.9121C182.71 97.7139 184.564 98.8828 187.096 98.9004C189.627 98.8828 191.473 97.7139 191.473 95.9121C191.473 94.1455 189.627 92.9502 187.096 92.959C184.564 92.9502 182.71 94.1455 182.719 95.9121ZM198.1 103.822L196.729 108.604H195.428L196.395 103.822H198.1ZM212.654 91.6406V94.1895H216.223V90.7969H217.594V98.8301H216.223V95.3145H212.654V98.0215H205.395V91.6406H212.654ZM206.766 96.9141H211.301V92.748H206.766V96.9141ZM207.469 100.729V99.6211H217.594V103.365H208.875V105.105H218.191V106.213H207.504V102.311H216.223V100.729H207.469ZM228.826 92.2207V93.3809H222.586V96.6152H228.264V97.7402H222.586V101.52C225.504 101.52 227.508 101.414 229.898 101.01L230.039 102.152C227.569 102.565 225.469 102.653 222.463 102.662H221.215V92.2207H228.826ZM231.744 106.424V90.7969H233.133V106.424H231.744ZM243.908 92.3438V102.504H236.684V92.3438H243.908ZM238.037 101.379H242.555V93.4512H238.037V101.379ZM247.266 106.459V90.7969H248.654V106.459H247.266ZM264.211 90.7969V106.459H262.822V90.7969H264.211ZM252.346 102.574V92.291H259.781V93.4512H253.734V101.379C256.775 101.379 258.771 101.291 261.117 100.869L261.258 102.029C258.832 102.46 256.775 102.565 253.611 102.574H252.346ZM271.084 92.0098C273.211 92.0186 274.749 93.8467 274.96 96.7734H278.467V90.7969H279.838V106.459H278.467V97.916H274.978C274.828 100.983 273.264 102.899 271.084 102.891C268.772 102.899 267.155 100.79 267.164 97.459C267.155 94.1367 268.772 92.0186 271.084 92.0098ZM268.482 97.459C268.491 99.999 269.546 101.669 271.084 101.66C272.613 101.669 273.686 99.999 273.686 97.459C273.686 94.9189 272.613 93.249 271.084 93.2402C269.546 93.249 268.491 94.9189 268.482 97.459ZM299.42 91.5703V92.8711C299.429 94.3213 299.429 95.9121 298.998 98.0566L297.627 97.9336C297.82 97.0195 297.926 96.2021 297.979 95.4639L288.469 95.9121L288.275 94.7344L298.04 94.418C298.058 93.873 298.066 93.3633 298.066 92.8711V92.6953H288.662V91.5703H299.42ZM286.975 100.236V99.1113H292.775V96.8086H294.164V99.1113H301.195V100.236H286.975ZM288.785 106.178V101.572H290.174V105.053H299.789V106.178H288.785ZM315.785 90.8145V102.521H314.467V90.8145H315.785ZM303.252 99.9199V92.0977H309.211V93.2402H304.57V95.4023H308.561V96.4922H304.57V98.7773C306.838 98.7598 308.235 98.707 309.914 98.3555L310.055 99.4805C308.244 99.8408 306.768 99.9199 304.236 99.9199H303.252ZM305.59 106.09V101.221H306.996V104.93H316.26V106.09H305.59ZM309.299 96.3691V95.2617H311.408V91.1309H312.744V102.117H311.408V96.3691H309.299ZM332.379 103.26V104.42H318.07V103.26H332.379ZM318.949 99.5156C321.902 98.9795 324.495 97.0459 324.504 94.4531H319.406V93.3281H324.521V91.1836H325.875V93.3281H331.008V94.4531H325.91C325.901 97.0459 328.485 98.9795 331.465 99.5156L330.902 100.641C328.433 100.131 326.183 98.7861 325.198 96.7471C324.223 98.7861 321.964 100.131 319.494 100.641L318.949 99.5156ZM336.193 103.822L334.822 108.604H333.521L334.488 103.822H336.193ZM351.416 91.7812V92.625C351.407 93.6006 351.407 95.0156 350.994 96.8613L349.623 96.7383C349.992 95.0859 350.027 93.873 350.027 92.9414H343.629V91.7812H351.416ZM342.662 98.3203C343.682 98.3203 344.824 98.3115 346.02 98.2764V95.1738H347.391V98.2412C349.131 98.1709 350.915 98.0566 352.541 97.8457L352.629 98.8652C349.351 99.3926 345.624 99.4805 342.803 99.4805L342.662 98.3203ZM344.719 103.541C344.719 101.792 346.688 100.764 349.922 100.764C353.156 100.764 355.134 101.792 355.125 103.541C355.134 105.352 353.156 106.38 349.922 106.371C346.688 106.38 344.719 105.352 344.719 103.541ZM346.107 103.541C346.099 104.648 347.558 105.272 349.922 105.281C352.277 105.272 353.728 104.648 353.736 103.541C353.728 102.486 352.277 101.845 349.922 101.836C347.558 101.845 346.099 102.486 346.107 103.541ZM353.596 100.57V90.7969H355.002V95.0859H357.287V96.2461H355.002V100.57H353.596ZM370.84 92.3789V93.9434C370.822 95.8594 370.822 98.0039 370.26 101.15L368.854 100.992C369.442 98.0039 369.442 95.8154 369.451 93.9434V93.5215H359.818V92.3789H370.84ZM358.307 104.209V103.066H363.896V97.4766H365.25V103.066H372.545V104.209H358.307ZM387.223 90.7969V106.424H385.904V90.7969H387.223ZM373.67 102.258C375.85 100.957 377.124 98.1006 377.115 95.2617V93.7852H374.109V92.6426H381.316V93.7852H378.451V95.2617C378.451 97.96 379.673 100.658 381.826 101.906L380.982 102.926C379.444 102.003 378.354 100.315 377.81 98.3291C377.247 100.482 376.113 102.319 374.549 103.295L373.67 102.258ZM380.121 97.5645V96.4395H382.758V91.1836H384.059V105.615H382.758V97.5645H380.121ZM394.711 93.6973C394.72 95.7803 396.249 97.6787 398.561 98.4785L397.857 99.5508C396.073 98.918 394.711 97.6436 394.043 96.0264C393.375 97.8018 391.942 99.1816 390.105 99.8496L389.367 98.7773C391.705 97.9512 393.34 95.9385 393.357 93.6973V93.0293H389.789V91.9043H398.227V93.0293H394.711V93.6973ZM391.406 102.17V101.045H401.637V106.424H400.266V102.17H391.406ZM400.266 100.219V90.7969H401.637V94.9277H403.992V96.1055H401.637V100.219H400.266ZM407.543 103.822L406.172 108.604H404.871L405.838 103.822H407.543ZM20.4902 120.379V130.451H13.2832V120.379H20.4902ZM14.6191 129.326H19.1191V121.486H14.6191V129.326ZM23.3555 134.424V118.797H24.7266V125.037H27.3457V126.232H24.7266V134.424H23.3555ZM35.0801 120.66C35.0713 122.137 34.9043 123.604 34.4561 124.984H36.9609V119.219H38.2793V133.633H36.9609V126.127H34.0078C33.1289 128.052 31.5996 129.792 29.0859 131.172L28.2949 130.188C30.7031 128.878 32.1357 127.234 32.9268 125.389L28.4707 125.846L28.2598 124.615L33.3135 124.299C33.542 123.49 33.6738 122.664 33.7266 121.803H29.0156V120.66H35.0801ZM40.248 134.424V118.797H41.5664V134.424H40.248ZM52.1484 119.957V121.082H46.0488V123.051H51.709V124.176H46.0488V126.232C49.3711 126.241 51.2344 126.18 53.4316 125.811L53.5723 126.936C51.2959 127.305 49.3799 127.384 45.9258 127.375H44.6602V119.957H52.1484ZM46.1719 131.541C46.1719 129.757 48.1494 128.711 51.4629 128.729C54.7148 128.711 56.7275 129.757 56.7188 131.541C56.7275 133.36 54.7148 134.389 51.4629 134.389C48.1494 134.389 46.1719 133.36 46.1719 131.541ZM47.543 131.541C47.543 132.648 49.002 133.299 51.4629 133.299C53.8535 133.299 55.3564 132.648 55.3652 131.541C55.3564 130.478 53.8535 129.818 51.4629 129.818C49.002 129.818 47.543 130.478 47.543 131.541ZM55.2773 128.5V118.814H56.6484V128.5H55.2773ZM61.8691 131.822L60.498 136.604H59.1973L60.1641 131.822H61.8691ZM77.0391 120.221V121.381H70.7988V124.615H76.4766V125.74H70.7988V129.52C73.7168 129.52 75.7207 129.414 78.1113 129.01L78.252 130.152C75.7822 130.565 73.6816 130.653 70.6758 130.662H69.4277V120.221H77.0391ZM79.957 134.424V118.797H81.3457V134.424H79.957ZM92.3672 120.432C92.3496 124.94 90.7236 129.106 85.0723 131.875L84.2988 130.768C87.2344 129.361 89.0449 127.56 90.0293 125.441L84.5977 125.969L84.3691 124.738L90.4688 124.334C90.75 123.464 90.917 122.541 90.9873 121.574H85.1602V120.432H92.3672ZM95.5137 134.424V118.797H96.9023V134.424H95.5137ZM103.283 120.027C105.349 120.036 106.86 121.601 106.869 123.824C106.86 126.048 105.349 127.604 103.283 127.586C101.191 127.604 99.7061 126.048 99.7148 123.824C99.7061 121.601 101.191 120.036 103.283 120.027ZM100.963 123.824C100.945 125.345 101.938 126.426 103.283 126.426C104.61 126.426 105.595 125.345 105.604 123.824C105.595 122.312 104.61 121.214 103.283 121.223C101.938 121.214 100.945 122.312 100.963 123.824ZM102.562 134.09V128.992H103.934V132.93H113.285V134.09H102.562ZM108.117 129.994V119.113H109.418V123.385H111.492V118.814H112.811V130.557H111.492V124.527H109.418V129.994H108.117ZM123.111 120.221V121.381H117.17V124.615H122.76V125.74H117.17V129.52C119.991 129.52 121.969 129.414 124.307 129.01L124.465 130.152C122.021 130.565 119.974 130.653 117.012 130.662H115.781V120.221H123.111ZM125.818 134.424V118.797H127.189V125.09H129.809V126.268H127.189V134.424H125.818ZM138.756 120.432C138.747 124.94 137.209 129.071 131.584 131.84L130.811 130.785C133.746 129.353 135.513 127.542 136.462 125.441L131.109 125.951L130.881 124.738L136.884 124.334C137.165 123.455 137.323 122.532 137.385 121.574H131.672V120.432H138.756ZM141.375 134.424V118.797H142.746V125.16H145.277V126.32H142.746V134.424H141.375ZM158.672 120.432C158.654 124.94 157.055 129.071 151.535 131.84L150.744 130.785C153.618 129.344 155.394 127.542 156.369 125.433L151.043 125.934L150.797 124.738L156.791 124.343C157.081 123.464 157.239 122.541 157.31 121.574H151.588V120.432H158.672ZM158.619 126.232V125.09H162.293V118.797H163.664V134.424H162.293V126.232H158.619ZM180.574 127.85V128.992H176.918V134.547H175.547V128.992H171.311V134.547H169.939V128.992H166.266V127.85H180.574ZM168.111 125.74V119.658H178.711V125.74H168.111ZM169.465 124.633H177.34V120.783H169.465V124.633ZM194.725 118.797V134.424H193.354V118.797H194.725ZM182.859 130.398V120.344H184.213V129.203C186.604 129.186 189.064 129.001 191.684 128.447L191.877 129.625C189.1 130.205 186.63 130.398 184.125 130.398H182.859ZM206.01 120.221V121.381H199.77V124.615H205.447V125.74H199.77V129.52C202.688 129.52 204.691 129.414 207.082 129.01L207.223 130.152C204.753 130.565 202.652 130.653 199.646 130.662H198.398V120.221H206.01ZM208.928 134.424V118.797H210.316V134.424H208.928ZM215.52 131.822L214.148 136.604H212.848L213.814 131.822H215.52ZM234.539 120.396V122.33C234.548 124.633 234.548 126.76 233.889 129.924L232.5 129.801C232.852 128.298 233.019 126.997 233.106 125.784L223.57 126.303L223.377 125.16L233.168 124.756C233.194 123.93 233.203 123.13 233.203 122.33V121.557H223.799V120.396H234.539ZM222.076 132.227V131.066H236.314V132.227H222.076ZM250.535 118.797V134.459H249.164V118.797H250.535ZM238.512 121.398V120.256H245.789V125.811H239.953V129.502C242.546 129.511 244.857 129.388 247.652 128.939L247.793 130.1C244.919 130.548 242.546 130.662 239.848 130.662H238.547V124.686H244.4V121.398H238.512ZM266.584 118.797V134.424H265.248V118.797H266.584ZM253.383 125.547C253.392 122.225 254.71 120.124 256.74 120.115C258.639 120.124 259.922 121.952 260.098 124.896H262.119V119.131H263.438V133.633H262.119V126.039H260.106C259.975 129.08 258.665 130.987 256.74 130.979C254.71 130.987 253.392 128.869 253.383 125.547ZM254.684 125.547C254.666 128.078 255.475 129.678 256.74 129.66C258.015 129.678 258.823 128.078 258.814 125.547C258.823 123.007 258.015 121.416 256.74 121.416C255.475 121.416 254.666 123.007 254.684 125.547ZM281.631 118.797V134.459H280.242V118.797H281.631ZM269.326 125.459C269.335 122.137 270.987 120.019 273.316 120.01C275.637 120.019 277.315 122.137 277.307 125.459C277.315 128.79 275.637 130.899 273.316 130.891C270.987 130.899 269.335 128.79 269.326 125.459ZM270.662 125.459C270.662 127.999 271.752 129.669 273.316 129.66C274.89 129.669 275.971 127.999 275.971 125.459C275.971 122.919 274.89 121.249 273.316 121.24C271.752 121.249 270.662 122.919 270.662 125.459ZM297.258 118.797V134.459H295.887V125.846H292.582V124.703H295.887V118.797H297.258ZM285.023 130.68V120.238H292.318V121.381H286.412V124.633H291.633V125.758H286.412V129.537C289.277 129.528 291.123 129.449 293.268 129.062L293.426 130.205C291.149 130.574 289.242 130.68 286.219 130.68H285.023ZM316.928 120.379V122.119C316.919 124.123 316.919 126.136 316.365 129.045L315.012 128.887C315.565 126.127 315.565 124.07 315.574 122.119V121.521H305.871V120.379H316.928ZM304.377 132.209V131.066H307.91V125.916H309.281V131.066H311.812V125.916H313.166V131.066H318.615V132.209H304.377ZM334.172 126.338V127.463H330.375V129.449H332.414V134.424H331.025V130.557H321.516V129.449H323.713V127.463H319.934V126.338H334.172ZM321.516 122.154C321.516 120.282 323.651 119.166 327.053 119.184C330.437 119.166 332.563 120.282 332.572 122.154C332.563 124.035 330.437 125.16 327.053 125.143C323.651 125.16 321.516 124.035 321.516 122.154ZM322.939 122.154C322.931 123.341 324.521 124.062 327.053 124.07C329.558 124.062 331.157 123.341 331.166 122.154C331.157 120.994 329.558 120.273 327.053 120.291C324.521 120.273 322.931 120.994 322.939 122.154ZM325.102 129.449H329.021V127.463H325.102V129.449Z" fill="black"/>
<path d="M34.6113 30L32.3555 22.5762H33.5996L35.1855 28.2363H35.2539L36.8262 22.5762H38.084L39.6289 28.209H39.7109L41.2969 22.5762H42.5273L40.2715 30H39.1094L37.4961 24.3398H37.3867L35.7871 30H34.6113ZM45.4941 30L43.2383 22.5762H44.4824L46.0684 28.2363H46.1367L47.709 22.5762H48.9668L50.5117 28.209H50.5938L52.1797 22.5762H53.4102L51.1543 30H49.9922L48.3789 24.3398H48.2695L46.6699 30H45.4941ZM56.377 30L54.1211 22.5762H55.3652L56.9512 28.2363H57.0195L58.5918 22.5762H59.8496L61.3945 28.209H61.4766L63.0625 22.5762H64.293L62.0371 30H60.875L59.2617 24.3398H59.1523L57.5527 30H56.377ZM65.4141 30.082C64.9355 30.0752 64.5254 29.6787 64.5391 29.1934C64.5254 28.7148 64.9355 28.3184 65.4141 28.3184C65.8994 28.3184 66.2959 28.7148 66.2891 29.1934C66.2959 29.6787 65.8994 30.0752 65.4141 30.082ZM71.375 22.5762V23.5605H69.8164V27.8672C69.8096 28.8174 70.2881 28.9746 70.7871 28.9746C70.999 28.9746 71.3135 28.9541 71.4844 28.9473V30.041C71.2998 30.0684 71.0127 30.0957 70.6641 30.0957C69.6729 30.0957 68.6338 29.4805 68.627 28.168V23.5605H67.5059V22.5762H68.627V20.7988H69.8164V22.5762H71.375ZM74.0684 25.543V30H72.8926V22.5762H74.0273V23.7383H74.123C74.4717 22.9795 75.1689 22.4805 76.2969 22.4805C77.8008 22.4805 78.8057 23.3965 78.7988 25.2832V30H77.623V25.3652C77.623 24.2168 76.9941 23.5332 75.9414 23.5332C74.8613 23.5332 74.0684 24.2578 74.0684 25.543ZM83.9258 22.5762V23.5605H82.3672V27.8672C82.3604 28.8174 82.8389 28.9746 83.3379 28.9746C83.5498 28.9746 83.8643 28.9541 84.0352 28.9473V30.041C83.8506 30.0684 83.5635 30.0957 83.2148 30.0957C82.2236 30.0957 81.1846 29.4805 81.1777 28.168V23.5605H80.0566V22.5762H81.1777V20.7988H82.3672V22.5762H83.9258ZM89.4355 24.5039C89.2715 23.8887 88.7998 23.4854 87.9316 23.4785C87.0156 23.4854 86.3662 23.9775 86.3594 24.5996C86.3662 25.0918 86.7627 25.4268 87.6309 25.6387L88.7383 25.9121C90.0645 26.2266 90.7139 26.8896 90.7207 27.9219C90.7139 29.207 89.668 30.1572 87.8086 30.1504C86.1406 30.1572 85.1494 29.4121 84.9512 28.0586H86.1816C86.3184 28.7832 86.8447 29.1318 87.7812 29.125C88.8408 29.1318 89.5039 28.6875 89.5039 27.9902C89.5039 27.4639 89.1279 27.1221 88.2871 26.9238L87.166 26.6641C85.874 26.3633 85.1836 25.6592 85.1836 24.668C85.1836 23.3965 86.2979 22.4805 87.9316 22.4805C89.4697 22.4805 90.4336 23.3008 90.584 24.5039H89.4355ZM95.4922 22.5762V23.5605H93.9336V27.8672C93.9268 28.8174 94.4053 28.9746 94.9043 28.9746C95.1162 28.9746 95.4307 28.9541 95.6016 28.9473V30.041C95.417 30.0684 95.1299 30.0957 94.7812 30.0957C93.79 30.0957 92.751 29.4805 92.7441 28.168V23.5605H91.623V22.5762H92.7441V20.7988H93.9336V22.5762H95.4922ZM101.699 26.9512V22.5762H102.861V30H101.699V28.7422H101.617C101.269 29.4941 100.53 30.0957 99.416 30.0957C98.0078 30.0957 97.0029 29.1797 97.0098 27.293V22.5762H98.1855V27.2109C98.1855 28.2773 98.8486 28.9678 99.7988 28.9609C100.64 28.9678 101.692 28.3389 101.699 26.9512ZM107.551 30.1504C105.698 30.1572 104.393 28.667 104.393 26.3086C104.393 23.957 105.698 22.4805 107.564 22.4805C109.007 22.4805 109.458 23.3555 109.711 23.752H109.793V20.1016H110.982V30H109.834V28.8652H109.711C109.451 29.2754 108.966 30.1572 107.551 30.1504ZM105.582 26.2812C105.582 27.8604 106.307 29.0977 107.715 29.0977C109.075 29.0977 109.827 27.9492 109.834 26.2812C109.827 24.6338 109.096 23.5332 107.715 23.5332C106.286 23.5332 105.582 24.7295 105.582 26.2812ZM113.02 30V22.5762H114.195V30H113.02ZM112.787 20.5664C112.78 20.1289 113.156 19.7803 113.607 19.7871C114.059 19.7803 114.435 20.1289 114.441 20.5664C114.435 20.9971 114.059 21.3457 113.607 21.3457C113.156 21.3457 112.78 20.9971 112.787 20.5664ZM119.104 30.1504C117.08 30.1572 115.713 28.626 115.713 26.3223C115.713 24.0049 117.08 22.4805 119.104 22.4805C121.12 22.4805 122.474 24.0049 122.467 26.3223C122.474 28.626 121.12 30.1572 119.104 30.1504ZM116.889 26.3223C116.896 27.8057 117.593 29.1113 119.104 29.1113C120.601 29.1113 121.291 27.8057 121.291 26.3223C121.291 24.8457 120.601 23.5195 119.104 23.5195C117.593 23.5195 116.896 24.8457 116.889 26.3223ZM124.846 30.082C124.367 30.0752 123.957 29.6787 123.971 29.1934C123.957 28.7148 124.367 28.3184 124.846 28.3184C125.331 28.3184 125.728 28.7148 125.721 29.1934C125.728 29.6787 125.331 30.0752 124.846 30.082ZM130.602 30.1504C128.496 30.1572 127.211 28.5508 127.211 26.3223C127.211 24.0664 128.558 22.4805 130.574 22.4805C132.153 22.4805 133.343 23.417 133.527 24.8184H132.352C132.181 24.1416 131.593 23.5195 130.602 23.5195C129.275 23.5195 128.394 24.6133 128.387 26.2812C128.394 27.9971 129.255 29.0977 130.602 29.0977C131.477 29.0977 132.146 28.626 132.352 27.8125H133.527C133.343 29.1387 132.249 30.1572 130.602 30.1504ZM138.012 30.1504C135.988 30.1572 134.621 28.626 134.621 26.3223C134.621 24.0049 135.988 22.4805 138.012 22.4805C140.028 22.4805 141.382 24.0049 141.375 26.3223C141.382 28.626 140.028 30.1572 138.012 30.1504ZM135.797 26.3223C135.804 27.8057 136.501 29.1113 138.012 29.1113C139.509 29.1113 140.199 27.8057 140.199 26.3223C140.199 24.8457 139.509 23.5195 138.012 23.5195C136.501 23.5195 135.804 24.8457 135.797 26.3223ZM142.92 30V22.5762H144.055V23.7383H144.15C144.458 22.9453 145.176 22.4805 146.146 22.4805C147.117 22.4805 147.78 22.9453 148.129 23.7383H148.211C148.587 22.9727 149.373 22.4805 150.439 22.4805C151.759 22.4805 152.709 23.2871 152.709 25.0371V30H151.533V25.0508C151.526 23.957 150.843 23.5332 150.029 23.5332C148.997 23.5332 148.409 24.2305 148.402 25.1738V30H147.213V24.9277C147.22 24.0938 146.618 23.5332 145.764 23.5332C144.875 23.5332 144.096 24.2852 144.096 25.3652V30H142.92Z" fill="#808080"/>
<path d="M24.3799 17H14.6201C13.173 17 12 18.173 12 19.6201V29.3799C12 30.827 13.173 32 14.6201 32H24.3799C25.827 32 27 30.827 27 29.3799V19.6201C27 18.173 25.827 17 24.3799 17Z" fill="url(#paint0_linear_9524_4363)"/>
<path d="M18.4931 24.7024V25.8374C18.4931 26.117 18.4851 26.2962 18.4639 26.3751C18.4453 26.4503 18.3721 26.6842 17.9818 26.6842C17.5915 26.6842 17.5316 26.4539 17.5131 26.3823C17.4918 26.3142 17.4812 26.1565 17.4812 25.909V24.7024H16.7383V25.0128C16.7383 25.6545 16.7462 26.0739 16.7649 26.2712C16.7809 26.4719 16.8393 26.6619 16.9323 26.8411C17.028 27.0204 17.1715 27.1674 17.3654 27.2785C17.5567 27.3896 17.7772 27.4469 18.0297 27.4469C18.2555 27.4469 18.4521 27.4003 18.6196 27.3035C18.787 27.2104 18.9198 27.0705 19.0235 26.8877C19.1245 26.7049 19.1855 26.5256 19.2068 26.3536C19.228 26.178 19.2387 25.8768 19.2387 25.4467V24.7025H18.4931V24.7024Z" fill="white"/>
<path d="M15.6068 24.7024H16.406V25.4175H15.6068C15.6068 25.9748 15.7119 26.7214 16.406 26.7214V27.4469C15.8802 27.4469 14.9443 26.9527 14.9443 25.775V23.7135L15.6173 23.4473L15.6068 24.7024Z" fill="white"/>
<path d="M25.0468 24.6919C24.2831 24.6919 23.6641 25.311 23.6641 26.0747C23.6641 26.8383 24.2831 27.4574 25.0468 27.4574C25.8105 27.4574 26.4296 26.8383 26.4296 26.0747C26.4296 25.311 25.8105 24.6919 25.0468 24.6919ZM25.0468 26.7945C24.6492 26.7945 24.3269 26.4722 24.3269 26.0745C24.3269 25.6769 24.6492 25.3546 25.0468 25.3546C25.4445 25.3546 25.7668 25.6769 25.7668 26.0745C25.7668 26.4722 25.4445 26.7945 25.0468 26.7945Z" fill="white"/>
<path d="M21.673 23.4473V24.8852C21.4631 24.7568 21.2172 24.6814 20.9531 24.6814C20.1894 24.6814 19.5703 25.3005 19.5703 26.0642C19.5703 26.8279 20.1894 27.4469 20.9531 27.4469C21.7168 27.4469 22.3358 26.8279 22.3358 26.0642V23.7101L21.673 23.4473ZM20.9531 26.784C20.5554 26.784 20.2331 26.4617 20.2331 26.064C20.2331 25.6664 20.5554 25.3441 20.9531 25.3441C21.3507 25.3441 21.673 25.6664 21.673 26.064C21.673 26.4617 21.3507 26.784 20.9531 26.784Z" fill="white"/>
<path d="M22.668 27.4464H23.3308V24.58L23.3307 24.5799V24.2761L22.6681 24.5388L22.668 27.4464Z" fill="white"/>
<path d="M22.668 23.8638V24.3893L23.3305 24.1266L22.668 23.8639V23.8638Z" fill="#805BEA"/>
<path d="M13.8309 25.5874C13.7541 25.5576 13.6872 25.5278 13.6315 25.4989C13.5844 25.4745 13.5461 25.4486 13.5182 25.4224C13.4955 25.4009 13.4797 25.3791 13.4696 25.3553C13.4594 25.3316 13.4543 25.3015 13.4543 25.2657C13.4543 25.2299 13.4669 25.2017 13.4978 25.174C13.531 25.144 13.5988 25.1277 13.6887 25.1277C13.7538 25.1277 13.8141 25.1383 13.8681 25.1589C13.9283 25.1821 13.9986 25.2228 14.0775 25.28L14.2281 25.389L14.6115 24.7839L14.478 24.6878C14.3666 24.6075 14.2457 24.5438 14.1186 24.4983C13.9878 24.4517 13.8467 24.428 13.699 24.428C13.5603 24.428 13.4301 24.4446 13.312 24.4773C13.1892 24.5115 13.0802 24.5628 12.9881 24.6299C12.8898 24.7014 12.8127 24.7929 12.759 24.9016C12.7061 25.009 12.6793 25.1326 12.6793 25.2692C12.6793 25.513 12.7603 25.7185 12.9205 25.8801C13.0643 26.0253 13.2588 26.1461 13.4975 26.2391C13.5748 26.2696 13.638 26.2998 13.6851 26.3287C13.726 26.3537 13.7577 26.3789 13.779 26.4031C13.7964 26.423 13.8084 26.4428 13.8147 26.4623C13.8228 26.487 13.8268 26.5156 13.8268 26.5474C13.8268 26.6374 13.7971 26.6743 13.7711 26.6964C13.7262 26.7348 13.6557 26.7542 13.5615 26.7542C13.4803 26.7542 13.4053 26.7414 13.3386 26.7159C13.2658 26.688 13.1795 26.6389 13.0819 26.5698L12.9255 26.4589L12.5703 27.0755L12.6946 27.1682C12.8358 27.2735 12.9784 27.349 13.1182 27.3926C13.2561 27.4355 13.4064 27.4572 13.5651 27.4572C13.7237 27.4572 13.8783 27.4348 14.0044 27.3906C14.1344 27.345 14.2453 27.2797 14.3338 27.1971C14.423 27.1135 14.4911 27.0154 14.536 26.9053C14.58 26.7976 14.6022 26.6806 14.6022 26.5576C14.6022 26.3165 14.5338 26.1142 14.3989 25.9562C14.2728 25.8088 14.0818 25.6846 13.8312 25.5874H13.8309Z" fill="white"/>
<path d="M18.2441 22.9018L18.3611 23.0755V21.9128L18.2441 21.7261V22.9018Z" fill="white"/>
<path d="M18.4717 23.2411L18.5877 23.4139V22.2748L18.4717 22.0889V23.2411Z" fill="white"/>
<path d="M17.2178 21.5432V23.913L17.4379 24.1304H17.9711V22.4938L18.1335 22.7356V21.5485L18.13 21.5432H17.2178Z" fill="white"/>
<path d="M18.9268 23.9185L19.0428 24.0913V23.0002L18.9268 22.8152V23.9185Z" fill="white"/>
<path d="M18.6992 23.5789L18.8162 23.7535V22.6379L18.6992 22.4512V23.5789Z" fill="white"/>
<path d="M19.3166 21.5432V22.9543V23.4356L19.1543 23.1763V24.1304H20.0708V22.9543V21.9202V21.5432H19.3166Z" fill="white"/>
<path d="M18.2441 22.9016L18.3611 23.0753V21.9126L18.2441 21.7258V22.9016Z" fill="#805BEA"/>
<path d="M18.4717 23.2406L18.5877 23.4134V22.2743L18.4717 22.0884V23.2406Z" fill="#805BEA"/>
<path d="M18.9258 23.9183L19.0419 24.0911V23L18.9258 22.8149V23.9183Z" fill="#805BEA"/>
<path d="M18.6992 23.5789L18.8161 23.7535V22.6379L18.6992 22.4512V23.5789Z" fill="#805BEA"/>
<path d="M15.6657 21.543H16.9413V23.7555V23.8337V24.1302H16.1877V23.8337V23.7555V22.0426H15.3408L15.6657 21.543Z" fill="white"/>
<path d="M21.6272 21.543H20.3468V23.7555H20.3467V24.1302H21.1003V23.7555H21.0995V22.0426H21.9445L21.6272 21.543Z" fill="white"/>
<defs>
<linearGradient id="paint0_linear_9524_4363" x1="12" y1="24.4999" x2="27" y2="24.4999" gradientUnits="userSpaceOnUse">
<stop stop-color="#2B8EB0"/>
<stop offset="0.16" stop-color="#3191A6"/>
<stop offset="0.42" stop-color="#419B8D"/>
<stop offset="0.75" stop-color="#5BAB64"/>
<stop offset="1" stop-color="#73B940"/>
</linearGradient>
</defs>
</svg>
