<svg width="455" height="599" viewBox="0 0 455 599" fill="none" xmlns="http://www.w3.org/2000/svg">
<g filter="url(#filter0_f_9527_3259)">
<path d="M6 56C6 28.3857 28.3858 6 56 6H399C426.614 6 449 28.3858 449 56V593H6V56Z" fill="#F3F2FF"/>
</g>
<path d="M9 59C9 31.3857 31.3858 9 59 9H396C423.614 9 446 31.3858 446 59V593H9V59Z" fill="white"/>
<path d="M60 15H396C420.853 15 441 35.1472 441 60V588H15V60C15 35.1472 35.1472 15 60 15Z" fill="white" stroke="#F4F4F4" stroke-width="10"/>
<path d="M60 15H396C420.853 15 441 35.1472 441 60V588H15V60C15 35.1472 35.1472 15 60 15Z" fill="white" stroke="#F5F5F4" stroke-width="10"/>
<path d="M108 20H348V32C348 43.0457 339.046 52 328 52H128C116.954 52 108 43.0457 108 32V20Z" fill="#F4F4F4"/>
<line x1="20" y1="128" x2="436" y2="128" stroke="#5D1ED2" stroke-width="2"/>
<g filter="url(#filter1_f_9527_3259)">
<rect x="20" y="140" width="416" height="442" fill="#E7ECF1"/>
</g>
<g filter="url(#filter2_f_9527_3259)">
<rect x="20" y="571" width="416" height="12" fill="white"/>
</g>
<g filter="url(#filter3_f_9527_3259)">
<rect x="20" y="355" width="416" height="206" fill="white"/>
<path d="M41.8125 432.703V433.77H40.0762V435.328H41.8125V436.422H40.0762V438.172H38.7773V430.912H40.0762V432.703H41.8125ZM30.6426 434.549C30.6289 432.833 32.0234 431.623 33.8965 431.623C35.7764 431.623 37.1504 432.833 37.1641 434.549C37.1504 436.278 35.7764 437.475 33.8965 437.475C32.0234 437.475 30.6289 436.278 30.6426 434.549ZM31.9141 434.549C31.9004 435.649 32.748 436.381 33.8965 436.367C35.0449 436.381 35.8857 435.649 35.8926 434.549C35.8857 433.455 35.0449 432.737 33.8965 432.73C32.748 432.737 31.9004 433.455 31.9141 434.549ZM31.9824 439.771V438.719H40.0762V443.162H38.7773V439.771H31.9824ZM49.7969 431.965C51.6152 431.979 53.5225 433.072 53.5293 436.695C53.5293 440.168 52.0322 442.137 49.6602 442.137C47.835 442.137 46.5635 441.009 46.3242 439.402H47.8145C48.0195 440.236 48.6621 440.817 49.6602 440.824C51.1846 440.817 52.0801 439.491 52.0938 437.229H51.9707C51.4375 438.062 50.5078 438.568 49.4414 438.568C47.6641 438.568 46.2422 437.208 46.2422 435.314C46.2422 433.428 47.6436 431.951 49.7969 431.965ZM47.7051 435.287C47.7119 436.436 48.5664 437.345 49.7695 437.338C50.9658 437.345 51.8887 436.367 51.8887 435.273C51.8887 434.2 51.0068 433.223 49.7969 433.223C48.6006 433.223 47.6982 434.152 47.7051 435.287ZM55.7168 442.096C55.1836 442.089 54.7393 441.658 54.7461 441.125C54.7393 440.592 55.1836 440.154 55.7168 440.154C56.2432 440.154 56.6807 440.592 56.6875 441.125C56.6807 441.658 56.2432 442.089 55.7168 442.096ZM61.7188 431.965C63.5371 431.979 65.4443 433.072 65.4512 436.695C65.4512 440.168 63.9541 442.137 61.582 442.137C59.7568 442.137 58.4854 441.009 58.2461 439.402H59.7363C59.9414 440.236 60.584 440.817 61.582 440.824C63.1064 440.817 64.002 439.491 64.0156 437.229H63.8926C63.3594 438.062 62.4297 438.568 61.3633 438.568C59.5859 438.568 58.1641 437.208 58.1641 435.314C58.1641 433.428 59.5654 431.951 61.7188 431.965ZM59.627 435.287C59.6338 436.436 60.4883 437.345 61.6914 437.338C62.8877 437.345 63.8105 436.367 63.8105 435.273C63.8105 434.2 62.9287 433.223 61.7188 433.223C60.5225 433.223 59.6201 434.152 59.627 435.287ZM70.9062 433.824C70.9062 435.369 72.0615 436.791 73.9414 437.379L73.3125 438.404C71.9043 437.96 70.8447 437.03 70.2842 435.834C69.751 437.112 68.6914 438.117 67.2422 438.596L66.6133 437.584C68.4863 436.982 69.6211 435.472 69.6211 433.824V433.537H66.9551V432.484H69.6211V430.994H70.9199V432.484H73.5723V433.537H70.9062V433.824ZM68.8691 442.902V439.238H70.168V441.85H77.1543V442.902H68.8691ZM73.1484 435.684V434.631H75.5273V430.926H76.8262V440.045H75.5273V435.684H73.1484ZM92.3438 430.912V438.145H91.0449V436.326H88.3789V437.324H82.6914V431.828H88.3789V432.84H91.0449V430.912H92.3438ZM83.9766 436.285H87.1074V432.867H83.9766V436.285ZM84.0996 440.824C84.0928 439.341 85.665 438.479 88.2422 438.486C90.8057 438.479 92.3779 439.341 92.3848 440.824C92.3779 442.301 90.8057 443.142 88.2422 443.135C85.665 443.142 84.0928 442.301 84.0996 440.824ZM85.3848 440.824C85.3779 441.645 86.4443 442.13 88.2422 442.137C90.0264 442.13 91.0928 441.645 91.0996 440.824C91.0928 439.963 90.0264 439.491 88.2422 439.484C86.4443 439.491 85.3779 439.963 85.3848 440.824ZM88.3789 435.273H91.0449V433.879H88.3789V435.273ZM98.2227 431.787C100.157 431.78 101.552 432.977 101.559 434.699C101.552 436.422 100.157 437.618 98.2227 437.625C96.2949 437.618 94.8799 436.422 94.8867 434.699C94.8799 432.977 96.2949 431.78 98.2227 431.787ZM94.2988 439.471C96.5273 439.471 99.6172 439.45 102.297 439.061L102.393 440.004C99.624 440.537 96.6504 440.551 94.4629 440.551L94.2988 439.471ZM96.1719 434.699C96.1582 435.786 97.0332 436.49 98.2227 436.49C99.4121 436.49 100.287 435.786 100.287 434.699C100.287 433.626 99.4121 432.908 98.2227 432.908C97.0332 432.908 96.1582 433.626 96.1719 434.699ZM103.062 443.189V430.912H104.361V443.189H103.062ZM119.496 431.678V432.758C119.496 433.92 119.496 435.185 119.154 436.928H120.918V437.994H115.955V443.176H114.643V437.994H109.748V436.928H117.842C118.204 435.178 118.204 433.899 118.211 432.758V432.744H111.115V431.678H119.496ZM133.018 436.955V438.008H121.848V436.955H126.783V435.615H123.242V431.404H131.65V432.443H124.541V434.549H131.773V435.615H128.082V436.955H133.018ZM123.092 440.141V439.088H131.664V443.23H130.379V440.141H123.092ZM138.213 434.521C138.206 436.456 139.484 438.616 141.344 439.498L140.605 440.51C139.231 439.854 138.138 438.473 137.584 436.873C137.023 438.616 135.875 440.127 134.48 440.824L133.715 439.799C135.574 438.903 136.921 436.593 136.928 434.521V433.223H134.166V432.143H140.879V433.223H138.213V434.521ZM142.191 443.162V430.912H143.49V435.766H145.459V436.859H143.49V443.162H142.191ZM157.244 436.531V437.529H146.033V436.531H157.244ZM147.359 439.32V438.391H155.863V441.084H148.672V442.096H156.246V443.012H147.373V440.223H154.578V439.32H147.359ZM147.441 432.143V431.227H155.836V433.879H148.754V434.809H156.041V435.725H147.469V433.018H154.537V432.143H147.441ZM172.775 440.564V441.645H161.564V440.564H166.5V438.049H162.85V431.746H164.148V433.852H170.164V431.746H171.449V438.049H167.785V440.564H172.775ZM164.148 436.996H170.164V434.904H164.148V436.996ZM184.861 437.83V438.896H182.018V443.162H180.705V438.896H177.779V443.162H176.439V438.896H173.65V437.83H184.861ZM174.867 434.084C174.874 432.43 176.638 431.377 179.229 431.377C181.819 431.377 183.597 432.43 183.59 434.084C183.597 435.718 181.819 436.75 179.229 436.736C176.638 436.75 174.874 435.718 174.867 434.084ZM176.207 434.084C176.2 435.089 177.41 435.711 179.229 435.711C181.054 435.711 182.257 435.089 182.264 434.084C182.257 433.052 181.054 432.423 179.229 432.416C177.41 432.423 176.2 433.052 176.207 434.084ZM195.389 430.926V434.863H197.166V435.943H195.389V440.086H194.09V430.926H195.389ZM185.777 433.4V432.348H188.785V430.912H190.084V432.348H193.078V433.4H185.777ZM186.447 436.299C186.44 434.897 187.65 433.981 189.428 433.988C191.185 433.981 192.395 434.897 192.395 436.299C192.395 437.687 191.185 438.589 189.428 438.596C187.65 438.589 186.44 437.687 186.447 436.299ZM187.623 442.902V439.361H188.922V441.85H195.908V442.902H187.623ZM187.705 436.299C187.691 437.099 188.389 437.591 189.428 437.584C190.467 437.591 191.164 437.099 191.178 436.299C191.164 435.492 190.467 434.993 189.428 434.986C188.389 434.993 187.691 435.492 187.705 436.299ZM201.35 433.4V432.102H209.02V433.4H205.943V442H204.439V433.4H201.35ZM218.535 432.102V442H217.154L212.137 434.768H212.055V442H210.551V432.102H211.945L216.963 439.348H217.059V432.102H218.535ZM220.066 433.4V432.102H227.736V433.4H224.66V442H223.156V433.4H220.066ZM234.654 434.713C234.559 433.79 233.752 433.264 232.617 433.264C231.407 433.264 230.642 433.886 230.635 434.727C230.635 435.663 231.653 436.032 232.439 436.217L233.396 436.477C234.661 436.784 236.247 437.475 236.254 439.266C236.247 440.94 234.914 442.164 232.576 442.164C230.361 442.164 228.967 441.057 228.871 439.252H230.375C230.464 440.332 231.421 440.845 232.576 440.852C233.841 440.845 234.757 440.209 234.764 439.238C234.757 438.377 233.937 438.028 232.891 437.748L231.715 437.434C230.122 436.996 229.138 436.189 229.131 434.809C229.138 433.1 230.655 431.965 232.658 431.965C234.668 431.965 236.069 433.113 236.117 434.713H234.654ZM237.375 433.4V432.102H245.045V433.4H241.969V442H240.465V433.4H237.375ZM252.934 432.102H254.438V438.609C254.444 440.688 252.879 442.164 250.514 442.164C248.128 442.164 246.569 440.688 246.576 438.609V432.102H248.08V438.486C248.073 439.826 249.01 440.79 250.514 440.797C252.011 440.79 252.934 439.826 252.934 438.486V432.102ZM259.674 442H256.461V432.102H259.77C262.688 432.102 264.425 433.954 264.432 437.037C264.425 440.127 262.688 442 259.674 442ZM257.965 440.688H259.592C261.834 440.681 262.941 439.375 262.941 437.037C262.941 434.706 261.834 433.414 259.674 433.414H257.965V440.688ZM267.631 432.102V442H266.127V432.102H267.631ZM278.24 437.051C278.24 440.216 276.34 442.137 273.783 442.137C271.206 442.137 269.312 440.209 269.312 437.051C269.312 433.886 271.206 431.965 273.783 431.965C276.34 431.965 278.24 433.886 278.24 437.051ZM270.803 437.051C270.81 439.457 272.074 440.763 273.783 440.756C275.479 440.763 276.743 439.457 276.75 437.051C276.743 434.645 275.479 433.339 273.783 433.346C272.074 433.339 270.81 434.645 270.803 437.051ZM283.367 431.787C285.302 431.78 286.696 432.977 286.703 434.699C286.696 436.422 285.302 437.618 283.367 437.625C281.439 437.618 280.024 436.422 280.031 434.699C280.024 432.977 281.439 431.78 283.367 431.787ZM279.443 439.471C281.672 439.471 284.762 439.45 287.441 439.061L287.537 440.004C284.769 440.537 281.795 440.551 279.607 440.551L279.443 439.471ZM281.316 434.699C281.303 435.786 282.178 436.49 283.367 436.49C284.557 436.49 285.432 435.786 285.432 434.699C285.432 433.626 284.557 432.908 283.367 432.908C282.178 432.908 281.303 433.626 281.316 434.699ZM288.207 443.189V430.912H289.506V443.189H288.207ZM298.215 431.828C299.336 431.835 300.252 432.471 300.792 433.578H303.82V430.912H305.105V443.189H303.82V438.486H300.881C300.354 439.717 299.397 440.435 298.215 440.428C296.39 440.435 295.098 438.767 295.111 436.121C295.098 433.503 296.39 431.835 298.215 431.828ZM296.342 436.121C296.349 438.069 297.107 439.266 298.215 439.266C299.322 439.266 300.081 438.069 300.088 436.121C300.081 434.2 299.322 432.997 298.215 432.99C297.107 432.997 296.349 434.2 296.342 436.121ZM301.161 434.645C301.257 435.096 301.318 435.588 301.318 436.121C301.318 436.586 301.277 437.017 301.195 437.42H303.82V434.645H301.161ZM317.191 430.912V443.189H315.906V436.6H313.664V435.52H315.906V430.912H317.191ZM307.416 433.072V432.02H312.939V436.395H308.742V439.184C310.697 439.17 312.201 439.108 313.91 438.801L314.02 439.867C312.188 440.188 310.574 440.264 308.414 440.277H307.443V435.342H311.682V433.072H307.416ZM328.635 430.912V435.793H330.535V436.873H328.635V443.148H327.336V430.912H328.635ZM319.105 439.881C322.175 438.35 323.843 436.135 324.109 433.277H319.721V432.197H325.436C325.422 435.738 323.863 438.903 319.83 440.893L319.105 439.881ZM335.703 434.521C335.696 436.572 337.043 438.691 338.93 439.498L338.219 440.51C336.776 439.874 335.628 438.521 335.061 436.887C334.493 438.637 333.345 440.127 331.916 440.824L331.164 439.799C333.01 438.931 334.377 436.634 334.391 434.521V433.223H331.588V432.143H338.492V433.223H335.703V434.521ZM340.037 443.162V430.912H341.336V443.162H340.037ZM356.854 430.912V443.189H355.555V430.912H356.854ZM347.133 436.121C347.133 433.503 348.452 431.835 350.305 431.828C352.123 431.835 353.463 433.503 353.463 436.121C353.463 438.767 352.123 440.435 350.305 440.428C348.452 440.435 347.133 438.767 347.133 436.121ZM348.391 436.121C348.384 438.069 349.163 439.266 350.305 439.266C351.426 439.266 352.205 438.069 352.205 436.121C352.205 434.2 351.426 432.997 350.305 432.99C349.163 432.997 348.384 434.2 348.391 436.121ZM364.783 431.76V435.451H360.6V437.215C362.767 437.208 364.154 437.14 365.74 436.873L365.863 437.939C364.141 438.22 362.664 438.268 360.271 438.268H359.301V434.426H363.498V432.799H359.273V431.76H364.783ZM360.982 442.902V439.225H362.281V441.85H369.377V442.902H360.982ZM365.521 435.137V434.029H367.723V430.926H369.021V439.922H367.723V435.137H365.521ZM381.135 430.912V443.189H379.836V436.381H377.307V435.314H379.836V430.912H381.135ZM370.771 439.771C372.645 438.876 373.964 436.559 373.971 434.357V433.209H371.264V432.143H378.004V433.209H375.283V434.357C375.283 436.429 376.589 438.664 378.469 439.498L377.689 440.537C376.274 439.854 375.188 438.425 374.641 436.757C374.094 438.534 372.979 440.059 371.564 440.783L370.771 439.771ZM388.982 431.76V435.451H384.799V437.215C386.966 437.208 388.354 437.14 389.939 436.873L390.062 437.939C388.34 438.22 386.863 438.268 384.471 438.268H383.5V434.426H387.697V432.799H383.473V431.76H388.982ZM385.182 442.902V439.225H386.48V441.85H393.576V442.902H385.182ZM389.721 435.137V434.029H391.922V430.926H393.221V439.922H391.922V435.137H389.721ZM408.67 430.912V443.189H407.371V430.912H408.67ZM398.949 436.121C398.949 433.503 400.269 431.835 402.121 431.828C403.939 431.835 405.279 433.503 405.279 436.121C405.279 438.767 403.939 440.435 402.121 440.428C400.269 440.435 398.949 438.767 398.949 436.121ZM400.207 436.121C400.2 438.069 400.979 439.266 402.121 439.266C403.242 439.266 404.021 438.069 404.021 436.121C404.021 434.2 403.242 432.997 402.121 432.99C400.979 432.997 400.2 434.2 400.207 436.121ZM413.906 431.828C415.738 431.835 417.044 433.503 417.051 436.121C417.044 438.767 415.738 440.435 413.906 440.428C412.074 440.435 410.769 438.767 410.775 436.121C410.769 433.503 412.074 431.835 413.906 431.828ZM412.02 436.121C412.013 438.069 412.792 439.266 413.906 439.266C415.041 439.266 415.807 438.069 415.807 436.121C415.807 434.2 415.041 432.997 413.906 432.99C412.792 432.997 412.013 434.2 412.02 436.121ZM418.869 443.162V430.912H420.168V433.906H422.068V435.014H420.168V437.557H422.068V438.623H420.168V443.162H418.869ZM40.6367 452.912V465.162H39.3242V452.912H40.6367ZM30.5742 461.881C33.8281 460.329 35.4209 458.121 35.6738 455.264H31.1621V454.225H36.9863C36.9863 457.813 35.4619 460.917 31.2578 462.934L30.5742 461.881ZM53.748 458.531V459.529H42.5371V458.531H53.748ZM43.8633 461.32V460.391H52.3672V463.084H45.1758V464.096H52.75V465.012H43.877V462.223H51.082V461.32H43.8633ZM43.9453 454.143V453.227H52.3398V455.879H45.2578V456.809H52.5449V457.725H43.9727V455.018H51.041V454.143H43.9453ZM67.6113 452.912V457.875H69.5801V458.955H67.6113V465.162H66.3262V452.912H67.6113ZM58 455.893V454.826H61.0215V453.076H62.3203V454.826H65.2598V455.893H58ZM58.6289 459.639C58.6289 457.971 59.9141 456.795 61.6777 456.795C63.4346 456.795 64.7197 457.971 64.7266 459.639C64.7197 461.32 63.4346 462.489 61.6777 462.496C59.9141 462.489 58.6289 461.32 58.6289 459.639ZM59.873 459.639C59.8662 460.705 60.6318 461.416 61.6777 461.402C62.7168 461.416 63.4756 460.705 63.4824 459.639C63.4756 458.593 62.7168 457.868 61.6777 457.861C60.6318 457.868 59.8662 458.593 59.873 459.639ZM80.0801 456.494V457.533H71.6445V453.35H72.9297V456.494H80.0801ZM70.1543 460.117V459.078H81.3652V460.117H70.1543ZM71.5488 464.875V461.279H72.8477V463.809H80.1621V464.875H71.5488ZM92.0293 453.5V454.389C92.0361 455.325 92.0361 456.385 91.7285 457.807L90.4434 457.67C90.7305 456.344 90.7441 455.394 90.7441 454.525H83.5801V453.5H92.0293ZM82.2812 459.625V458.586H86.752V456.18H88.0234V458.586H93.4238V459.625H82.2812ZM83.0469 464.096C85.4189 463.774 87.1416 462.53 87.1484 461.02V460.527H88.4609V461.02C88.4541 462.53 90.1768 463.774 92.5898 464.096L92.0977 465.107C90.1631 464.813 88.5566 463.959 87.8047 462.701C87.0459 463.959 85.4395 464.813 83.5117 465.107L83.0469 464.096ZM104.525 452.926V461.826H103.227V452.926H104.525ZM94.6133 456.781C94.6201 455.011 96.0283 453.753 97.8809 453.746C99.7266 453.753 101.135 455.011 101.135 456.781C101.135 458.579 99.7266 459.83 97.8809 459.83C96.0283 459.83 94.6201 458.579 94.6133 456.781ZM95.8848 456.781C95.8779 457.937 96.7393 458.695 97.8809 458.695C99.002 458.695 99.8633 457.937 99.8633 456.781C99.8633 455.653 99.002 454.881 97.8809 454.881C96.7393 454.881 95.8779 455.653 95.8848 456.781ZM96.5137 464.902V460.924H97.8262V463.85H104.895V464.902H96.5137ZM116.994 452.912V465.162H115.736V452.912H116.994ZM106.904 462.277V454.375H111.553V455.441H108.176V461.197C109.775 461.184 110.855 461.115 112.127 460.842L112.236 461.936C110.835 462.216 109.625 462.277 107.711 462.277H106.904ZM110.719 458.6V457.52H113.234V453.172H114.465V464.547H113.234V458.6H110.719ZM132.143 452.926V459.898H130.844V452.926H132.143ZM122.23 456.439C122.237 454.71 123.618 453.534 125.498 453.541C127.371 453.534 128.752 454.71 128.752 456.439C128.752 458.121 127.371 459.311 125.498 459.311C123.618 459.311 122.237 458.121 122.23 456.439ZM123.502 456.439C123.495 457.492 124.336 458.217 125.498 458.217C126.646 458.217 127.48 457.492 127.48 456.439C127.48 455.353 126.646 454.628 125.498 454.635C124.336 454.628 123.495 455.353 123.502 456.439ZM124.09 465.012V460.514H132.143V465.012H124.09ZM125.375 463.959H130.871V461.553H125.375V463.959ZM144.598 452.912V465.162H143.354V458.832H141.768V464.533H140.578V453.158H141.768V457.766H143.354V452.912H144.598ZM134.494 462.223V454.389H139.088V455.441H135.793V461.115C137.297 461.108 138.432 461.04 139.744 460.787L139.84 461.854C138.37 462.161 137.099 462.209 135.314 462.223H134.494ZM149.574 453.473C151.188 453.459 152.438 454.396 152.705 455.77H155.098V452.912H156.396V459.488H155.098V456.836H152.712C152.459 458.244 151.201 459.188 149.574 459.188C147.701 459.188 146.354 458.005 146.361 456.316C146.354 454.648 147.701 453.459 149.574 453.473ZM147.605 456.316C147.599 457.362 148.419 458.094 149.574 458.094C150.709 458.094 151.516 457.362 151.516 456.316C151.516 455.264 150.709 454.546 149.574 454.553C148.419 454.546 147.599 455.264 147.605 456.316ZM148.412 465.012V460.076H149.697V461.498H155.098V460.076H156.396V465.012H148.412ZM149.697 463.945H155.098V462.523H149.697V463.945ZM165.953 456.029C165.939 458.196 167.204 460.418 169.029 461.307L168.223 462.346C166.89 461.648 165.857 460.281 165.317 458.647C164.771 460.384 163.697 461.854 162.303 462.578L161.496 461.525C163.376 460.623 164.647 458.271 164.654 456.029V453.938H165.953V456.029ZM169.945 465.162V452.912H171.244V457.793H173.213V458.9H171.244V465.162H169.945ZM177.191 453.473C178.805 453.459 180.056 454.396 180.322 455.77H182.715V452.912H184.014V459.488H182.715V456.836H180.329C180.076 458.244 178.818 459.188 177.191 459.188C175.318 459.188 173.972 458.005 173.979 456.316C173.972 454.648 175.318 453.459 177.191 453.473ZM175.223 456.316C175.216 457.362 176.036 458.094 177.191 458.094C178.326 458.094 179.133 457.362 179.133 456.316C179.133 455.264 178.326 454.546 177.191 454.553C176.036 454.546 175.216 455.264 175.223 456.316ZM176.029 465.012V460.076H177.314V461.498H182.715V460.076H184.014V465.012H176.029ZM177.314 463.945H182.715V462.523H177.314V463.945ZM195.826 458.559V459.598H192.121V462.592H197.111V463.658H185.9V462.592H190.836V459.598H187.295V453.855H195.717V454.908H188.594V458.559H195.826ZM210.961 452.912V457.875H212.93V458.955H210.961V465.162H209.676V452.912H210.961ZM201.35 455.893V454.826H204.371V453.076H205.67V454.826H208.609V455.893H201.35ZM201.979 459.639C201.979 457.971 203.264 456.795 205.027 456.795C206.784 456.795 208.069 457.971 208.076 459.639C208.069 461.32 206.784 462.489 205.027 462.496C203.264 462.489 201.979 461.32 201.979 459.639ZM203.223 459.639C203.216 460.705 203.981 461.416 205.027 461.402C206.066 461.416 206.825 460.705 206.832 459.639C206.825 458.593 206.066 457.868 205.027 457.861C203.981 457.868 203.216 458.593 203.223 459.639ZM223.43 454.088V455.291C223.423 456.802 223.423 458.497 222.965 461.006L221.652 460.869C222.124 458.497 222.124 456.761 222.131 455.291V455.141H214.693V454.088H223.43ZM213.518 463.508V462.428H217.77V458.107H219.055V462.428H224.688V463.508H213.518ZM234.709 460.541C237.231 460.541 238.77 461.389 238.77 462.838C238.77 464.308 237.231 465.155 234.709 465.162C232.159 465.155 230.594 464.308 230.594 462.838C230.594 461.389 232.159 460.541 234.709 460.541ZM229.514 459.365V453.678H230.785V455.441H233.998V453.678H235.283V459.365H229.514ZM230.785 458.326H233.998V456.467H230.785V458.326ZM231.893 462.838C231.886 463.658 232.938 464.123 234.709 464.123C236.466 464.123 237.505 463.658 237.498 462.838C237.505 462.024 236.466 461.566 234.709 461.566C232.938 461.566 231.886 462.024 231.893 462.838ZM237.361 460.227V452.912H238.66V455.906H240.438V457.014H238.66V460.227H237.361ZM247.355 457.205V458.914H252.305V459.967H241.135V458.914H246.07V457.205H247.355ZM241.777 456.85C244.122 456.549 246.05 455.168 246.057 453.623V453.104H247.369V453.623C247.362 455.188 249.283 456.549 251.648 456.85L251.143 457.875C249.201 457.561 247.485 456.617 246.706 455.264C245.927 456.617 244.211 457.561 242.256 457.875L241.777 456.85ZM242.461 463.016C242.461 461.642 244.047 460.869 246.713 460.869C249.358 460.869 250.931 461.642 250.938 463.016C250.931 464.383 249.358 465.142 246.713 465.135C244.047 465.142 242.461 464.383 242.461 463.016ZM243.773 463.016C243.767 463.747 244.819 464.15 246.713 464.15C248.579 464.15 249.639 463.747 249.639 463.016C249.639 462.271 248.579 461.874 246.713 461.867C244.819 461.874 243.767 462.271 243.773 463.016ZM263.023 453.486V454.402C263.03 455.305 263.03 456.385 262.743 457.807H264.445V458.859H259.469V460.951H263.078V465.162H261.779V461.99H254.383V460.951H258.17V458.859H253.234V457.807H261.438C261.725 456.433 261.738 455.414 261.738 454.539H254.643V453.486H263.023ZM275.561 452.912V465.189H274.262V458.818H271.732V457.766H274.262V452.912H275.561ZM265.334 461.812C267.187 460.958 268.403 458.866 268.396 456.85V456.043H265.676V455.004H268.41V453.158H269.709V455.004H272.361V456.043H269.682V456.85C269.682 458.784 270.933 460.773 272.812 461.607L272.088 462.605C270.687 461.99 269.606 460.705 269.06 459.167C268.526 460.794 267.453 462.161 266.045 462.811L265.334 461.812ZM287.646 460.746V465.012H279.512V460.746H287.646ZM277.926 454.58V453.514H283.408V457.027H279.225V458.6C281.187 458.6 282.649 458.531 284.379 458.258L284.488 459.324C282.622 459.618 281.057 459.673 278.896 459.666H277.939V456.043H282.15V454.58H277.926ZM280.797 463.959H286.361V461.758H280.797V463.959ZM284.133 456.658V455.592H286.348V452.926H287.646V460.117H286.348V456.658H284.133ZM297.203 456.029C297.189 458.196 298.454 460.418 300.279 461.307L299.473 462.346C298.14 461.648 297.107 460.281 296.567 458.647C296.021 460.384 294.947 461.854 293.553 462.578L292.746 461.525C294.626 460.623 295.897 458.271 295.904 456.029V453.938H297.203V456.029ZM301.195 465.162V452.912H302.494V457.793H304.463V458.9H302.494V465.162H301.195ZM316.221 458.887V459.939H305.051V458.887H307.73V457.239C306.78 456.856 306.247 456.241 306.254 455.428C306.247 453.972 307.936 453.124 310.629 453.131C313.315 453.124 314.997 453.972 315.004 455.428C314.997 456.241 314.464 456.856 313.514 457.246V458.887H316.221ZM306.377 462.947C306.377 461.546 307.963 460.773 310.629 460.773C313.261 460.773 314.847 461.546 314.854 462.947C314.847 464.362 313.261 465.135 310.629 465.135C307.963 465.135 306.377 464.362 306.377 462.947ZM307.594 455.428C307.587 456.248 308.722 456.706 310.629 456.713C312.522 456.706 313.671 456.248 313.664 455.428C313.671 454.607 312.522 454.136 310.629 454.129C308.722 454.136 307.587 454.607 307.594 455.428ZM307.689 462.947C307.683 463.713 308.756 464.15 310.629 464.137C312.475 464.15 313.555 463.713 313.555 462.947C313.555 462.195 312.475 461.771 310.629 461.771C308.756 461.771 307.683 462.195 307.689 462.947ZM309.043 458.887H312.229V457.581C311.75 457.656 311.21 457.697 310.629 457.697C310.055 457.697 309.521 457.656 309.043 457.588V458.887ZM327.076 458.559V459.598H323.371V462.592H328.361V463.658H317.15V462.592H322.086V459.598H318.545V453.855H326.967V454.908H319.844V458.559H327.076ZM342.211 452.912V457.875H344.18V458.955H342.211V465.162H340.926V452.912H342.211ZM332.6 455.893V454.826H335.621V453.076H336.92V454.826H339.859V455.893H332.6ZM333.229 459.639C333.229 457.971 334.514 456.795 336.277 456.795C338.034 456.795 339.319 457.971 339.326 459.639C339.319 461.32 338.034 462.489 336.277 462.496C334.514 462.489 333.229 461.32 333.229 459.639ZM334.473 459.639C334.466 460.705 335.231 461.416 336.277 461.402C337.316 461.416 338.075 460.705 338.082 459.639C338.075 458.593 337.316 457.868 336.277 457.861C335.231 457.868 334.466 458.593 334.473 459.639ZM354.68 454.088V455.291C354.673 456.802 354.673 458.497 354.215 461.006L352.902 460.869C353.374 458.497 353.374 456.761 353.381 455.291V455.141H345.943V454.088H354.68ZM344.768 463.508V462.428H349.02V458.107H350.305V462.428H355.938V463.508H344.768ZM40.3086 476.102V477.592C40.3086 479.383 40.3086 481.064 39.7754 483.607L38.4902 483.484C38.75 482.356 38.8867 481.379 38.9551 480.47L31.5996 480.859L31.4355 479.793L39.0166 479.506C39.0439 478.85 39.0439 478.221 39.0508 477.592V477.168H31.7773V476.102H40.3086ZM30.4512 485.521V484.455H41.6211V485.521H30.4512ZM53.7617 484.605V485.699H42.5508V484.605H47.4863V482.459H43.918V478.562H51.1094V476.84H43.8906V475.773H52.3945V479.602H45.2031V481.393H52.6816V482.459H48.7715V484.605H53.7617ZM60.8438 476.129V484.086H55.1152V476.129H60.8438ZM56.3867 483.033H59.5586V477.154H56.3867V483.033ZM62.8945 487.162V474.912H64.1934V479.711H66.1621V480.805H64.1934V487.162H62.8945ZM73.3535 476.156C73.3467 479.766 72.1504 483.013 67.6523 485.207L66.9551 484.195C69.1562 483.129 70.5166 481.81 71.2822 480.251L67.2012 480.627L67.0234 479.492L71.6992 479.191C71.8975 478.569 72.0137 477.906 72.0615 477.209H67.6387V476.156H73.3535ZM75.623 487.162V474.912H76.9355V487.162H75.623ZM88.7754 480.559V481.598H85.0703V484.592H90.0605V485.658H78.8496V484.592H83.7852V481.598H80.2441V475.855H88.666V476.908H81.543V480.559H88.7754ZM98.6191 483.006C98.6191 484.059 99.1387 485.173 100.253 485.836C101.374 485.118 101.928 483.949 101.928 483.006V482.418H103.199V483.006C103.192 484.277 104.033 485.508 105.633 486.027L104.99 486.984C103.78 486.567 102.953 485.747 102.529 484.749C102.14 485.733 101.408 486.629 100.287 487.094C99.1113 486.649 98.3662 485.781 97.9902 484.783C97.5459 485.747 96.7393 486.561 95.584 486.984L94.9277 486.027C96.5 485.467 97.3545 484.188 97.3613 483.006V482.418H98.6191V483.006ZM94.6133 478.494C94.6201 476.778 96.001 475.603 97.8809 475.596C99.7539 475.603 101.135 476.778 101.135 478.494C101.135 480.189 99.7539 481.365 97.8809 481.365C96.001 481.365 94.6201 480.189 94.6133 478.494ZM95.8848 478.494C95.8779 479.561 96.7188 480.285 97.8809 480.285C99.0293 480.285 99.8633 479.561 99.8633 478.494C99.8633 477.421 99.0293 476.696 97.8809 476.703C96.7188 476.696 95.8779 477.421 95.8848 478.494ZM103.227 481.898V474.926H104.525V481.898H103.227ZM116.379 476.088V477.291C116.372 478.802 116.372 480.497 115.914 483.006L114.602 482.869C115.073 480.497 115.073 478.761 115.08 477.291V477.141H107.643V476.088H116.379ZM106.467 485.508V484.428H110.719V480.107H112.004V484.428H117.637V485.508H106.467ZM120.768 485.057L119.674 488.83H118.512L119.236 485.057H120.768ZM135.506 481.434V482.473H126.975V475.924H135.383V476.977H128.287V478.631H135.123V479.656H128.287V481.434H135.506ZM125.566 485.617V484.551H136.777V485.617H125.566ZM142.547 475.883V479.52H139.484V481.242C140.981 481.235 142.109 481.167 143.449 480.914L143.586 481.953C142.075 482.24 140.804 482.281 139.02 482.295H138.213V478.549H141.289V476.908H138.186V475.883H142.547ZM139.99 486.902V483.197H141.275V485.85H148.467V486.902H139.99ZM143.025 479.287V478.207H144.42V475.145H145.664V483.812H144.42V479.287H143.025ZM146.881 484.127V474.926H148.111V484.127H146.881ZM159.91 474.912V487.189H158.611V474.912H159.91ZM150.545 484.182V476.047H156.41V477.127H151.857V483.074C154.175 483.067 155.665 482.999 157.395 482.691L157.531 483.771C155.699 484.106 154.1 484.175 151.557 484.182H150.545ZM171.49 474.926V478.863H173.268V479.943H171.49V484.086H170.191V474.926H171.49ZM161.879 477.4V476.348H164.887V474.912H166.186V476.348H169.18V477.4H161.879ZM162.549 480.299C162.542 478.897 163.752 477.981 165.529 477.988C167.286 477.981 168.496 478.897 168.496 480.299C168.496 481.687 167.286 482.589 165.529 482.596C163.752 482.589 162.542 481.687 162.549 480.299ZM163.725 486.902V483.361H165.023V485.85H172.01V486.902H163.725ZM163.807 480.299C163.793 481.099 164.49 481.591 165.529 481.584C166.568 481.591 167.266 481.099 167.279 480.299C167.266 479.492 166.568 478.993 165.529 478.986C164.49 478.993 163.793 479.492 163.807 480.299ZM182.906 482.609C185.559 482.609 187.233 483.45 187.24 484.879C187.233 486.301 185.559 487.142 182.906 487.135C180.281 487.142 178.6 486.301 178.6 484.879C178.6 483.45 180.281 482.609 182.906 482.609ZM177.396 481.598V480.545H181.867V478.248H183.139V480.545H188.539V481.598H177.396ZM178.695 476.553V475.514H187.145V476.539C187.151 477.517 187.151 478.528 186.803 479.793L185.531 479.656C185.859 478.405 185.859 477.503 185.859 476.553H178.695ZM179.898 484.879C179.885 485.672 181.054 486.13 182.906 486.137C184.779 486.13 185.941 485.672 185.955 484.879C185.941 484.072 184.779 483.601 182.906 483.594C181.054 483.601 179.885 484.072 179.898 484.879ZM199.107 474.912V478.535H200.885V479.615H199.107V483.812H197.795V474.912H199.107ZM189.469 481.434C192.34 480.572 194.117 478.938 194.37 476.922H189.988V475.842H195.785C195.785 479.055 193.598 481.386 190.016 482.473L189.469 481.434ZM191.328 486.902V482.896H192.641V485.85H199.613V486.902H191.328ZM211.727 474.912V487.189H210.428V474.912H211.727ZM202.006 480.121C202.006 477.503 203.325 475.835 205.178 475.828C206.996 475.835 208.336 477.503 208.336 480.121C208.336 482.767 206.996 484.435 205.178 484.428C203.325 484.435 202.006 482.767 202.006 480.121ZM203.264 480.121C203.257 482.069 204.036 483.266 205.178 483.266C206.299 483.266 207.078 482.069 207.078 480.121C207.078 478.2 206.299 476.997 205.178 476.99C204.036 476.997 203.257 478.2 203.264 480.121ZM221.352 483.006C221.352 484.059 221.871 485.173 222.985 485.836C224.106 485.118 224.66 483.949 224.66 483.006V482.418H225.932V483.006C225.925 484.277 226.766 485.508 228.365 486.027L227.723 486.984C226.513 486.567 225.686 485.747 225.262 484.749C224.872 485.733 224.141 486.629 223.02 487.094C221.844 486.649 221.099 485.781 220.723 484.783C220.278 485.747 219.472 486.561 218.316 486.984L217.66 486.027C219.232 485.467 220.087 484.188 220.094 483.006V482.418H221.352V483.006ZM217.346 478.494C217.353 476.778 218.733 475.603 220.613 475.596C222.486 475.603 223.867 476.778 223.867 478.494C223.867 480.189 222.486 481.365 220.613 481.365C218.733 481.365 217.353 480.189 217.346 478.494ZM218.617 478.494C218.61 479.561 219.451 480.285 220.613 480.285C221.762 480.285 222.596 479.561 222.596 478.494C222.596 477.421 221.762 476.696 220.613 476.703C219.451 476.696 218.61 477.421 218.617 478.494ZM225.959 481.898V474.926H227.258V481.898H225.959ZM238.742 474.912V479.656H240.711V480.723H238.742V487.189H237.443V474.912H238.742ZM229.719 484.141V476.088H235.447V477.141H231.018V483.061C233.075 483.054 234.613 482.965 236.363 482.65L236.527 483.744C234.606 484.086 232.979 484.147 230.703 484.141H229.719ZM242.693 486.096C242.16 486.089 241.716 485.658 241.723 485.125C241.716 484.592 242.16 484.154 242.693 484.154C243.22 484.154 243.657 484.592 243.664 485.125C243.657 485.658 243.22 486.089 242.693 486.096ZM259.428 479.93V480.969H248.244V479.93H259.428ZM249.584 482.938V481.939H258.006V484.906H250.869V486H258.348V487.025H249.598V483.949H256.721V482.938H249.584ZM249.707 479.041V475.268H257.979V476.32H251.006V478.002H258.102V479.041H249.707ZM263.666 475.828C265.334 475.835 266.544 477.243 266.742 479.506H269.271V474.912H270.557V487.189H269.271V480.559H266.756C266.612 482.951 265.375 484.435 263.666 484.428C261.841 484.435 260.549 482.767 260.562 480.121C260.549 477.503 261.841 475.835 263.666 475.828ZM261.793 480.121C261.8 482.069 262.559 483.266 263.666 483.266C264.773 483.266 265.532 482.069 265.539 480.121C265.532 478.2 264.773 476.997 263.666 476.99C262.559 476.997 261.8 478.2 261.793 480.121ZM278.021 475.049C280.783 475.042 282.39 475.801 282.396 477.154C282.39 478.426 281.022 479.157 278.637 479.26V480.121H283.613V481.16H272.443V480.121H277.365V479.26C275.007 479.15 273.64 478.419 273.646 477.154C273.64 475.801 275.26 475.042 278.021 475.049ZM273.783 483.061V482.076H282.205V484.947H275.068V486.041H282.547V487.039H273.797V484.018H280.92V483.061H273.783ZM275 477.154C274.993 477.913 276.073 478.296 278.021 478.303C279.983 478.296 281.063 477.913 281.057 477.154C281.063 476.437 279.983 476.026 278.021 476.02C276.073 476.026 274.993 476.437 275 477.154ZM289.547 476.197V480.627H286.184V483.211C287.51 483.204 288.768 483.143 290.244 482.91L290.354 483.949C288.651 484.25 287.284 484.291 285.76 484.305H284.926V479.561H288.289V477.264H284.912V476.197H289.547ZM291.037 486.533V475.158H292.227V479.684H293.812V474.912H295.057V487.162H293.812V480.736H292.227V486.533H291.037ZM309.686 474.912V477.469H311.463V478.549H309.686V481.105H308.387V474.912H309.686ZM300.539 480.531V475.568H306.268V480.531H300.539ZM301.77 482.678V481.666H309.686V484.77H303.068V485.973H310.109V487.012H301.797V483.799H308.4V482.678H301.77ZM301.811 479.492H304.996V476.607H301.811V479.492ZM317.164 476.197V480.627H313.801V483.211C315.127 483.204 316.385 483.143 317.861 482.91L317.971 483.949C316.269 484.25 314.901 484.291 313.377 484.305H312.543V479.561H315.906V477.264H312.529V476.197H317.164ZM318.654 486.533V475.158H319.844V479.684H321.43V474.912H322.674V487.162H321.43V480.736H319.844V486.533H318.654ZM326.27 483.061C326.29 481.27 326.816 480.723 327.719 480.162C328.293 479.813 328.73 479.308 328.73 478.59C328.73 477.735 328.074 477.195 327.254 477.195C326.516 477.195 325.798 477.646 325.736 478.658H324.26C324.314 476.915 325.627 475.965 327.254 475.965C329.031 475.965 330.221 477.031 330.221 478.59C330.221 479.69 329.694 480.422 328.826 480.955C328.006 481.454 327.685 481.946 327.664 483.061V483.143H326.27V483.061ZM326.051 485.125C326.044 484.592 326.488 484.154 327.021 484.154C327.548 484.154 327.985 484.592 327.992 485.125C327.985 485.658 327.548 486.089 327.021 486.096C326.488 486.089 326.044 485.658 326.051 485.125ZM34.9629 500.521C34.9561 502.572 36.3027 504.691 38.1895 505.498L37.4785 506.51C36.0361 505.874 34.8877 504.521 34.3203 502.887C33.7529 504.637 32.6045 506.127 31.1758 506.824L30.4238 505.799C32.2695 504.931 33.6367 502.634 33.6504 500.521V499.223H30.8477V498.143H37.752V499.223H34.9629V500.521ZM39.2969 509.162V496.912H40.5957V509.162H39.2969ZM52.3398 497.527V498.457C52.3467 499.414 52.3467 500.521 52.0254 501.998H53.7617V503.064H42.5508V501.998H50.7129C51.041 500.569 51.0547 499.523 51.0547 498.594H43.959V497.527H52.3398ZM43.918 509.012V504.623H52.3535V509.012H43.918ZM45.1895 507.959H51.0684V505.648H45.1895V507.959ZM67.6934 496.912V499.469H69.4707V500.549H67.6934V503.105H66.3945V496.912H67.6934ZM58.5469 502.531V497.568H64.2754V502.531H58.5469ZM59.7773 504.678V503.666H67.6934V506.77H61.0762V507.973H68.1172V509.012H59.8047V505.799H66.4082V504.678H59.7773ZM59.8184 501.492H63.0039V498.607H59.8184V501.492ZM76.2246 498.936V499.988H70.1406V498.936H72.5469V497.268H73.832V498.936H76.2246ZM70.5371 503.543C70.5303 501.896 71.6514 500.727 73.1895 500.727C74.7412 500.727 75.8486 501.896 75.8555 503.543C75.8486 505.218 74.7412 506.394 73.1895 506.387C71.6514 506.394 70.5303 505.218 70.5371 503.543ZM71.6855 503.543C71.6787 504.582 72.3076 505.279 73.1895 505.279C74.0713 505.279 74.707 504.582 74.707 503.543C74.707 502.524 74.0713 501.813 73.1895 501.807C72.3076 501.813 71.6787 502.524 71.6855 503.543ZM76.7852 508.588V497.186H78.0156V502.012H79.4238V496.912H80.6543V509.162H79.4238V503.078H78.0156V508.588H76.7852ZM85.5488 497.828C87.3809 497.835 88.6865 499.503 88.6934 502.121C88.6865 504.767 87.3809 506.435 85.5488 506.428C83.7168 506.435 82.4111 504.767 82.418 502.121C82.4111 499.503 83.7168 497.835 85.5488 497.828ZM83.6621 502.121C83.6553 504.069 84.4346 505.266 85.5488 505.266C86.6836 505.266 87.4492 504.069 87.4492 502.121C87.4492 500.2 86.6836 498.997 85.5488 498.99C84.4346 498.997 83.6553 500.2 83.6621 502.121ZM90.5117 509.162V496.912H91.8105V499.906H93.7109V501.014H91.8105V503.557H93.7109V504.623H91.8105V509.162H90.5117ZM108.271 496.912V509.162H107.027V502.887H105.455V508.533H104.238V497.158H105.455V501.82H107.027V496.912H108.271ZM98.3594 506.045V498.361H99.6582V504.903C100.786 504.89 102.023 504.801 103.418 504.527L103.555 505.662C101.873 505.963 100.472 506.052 99.1523 506.045H98.3594ZM119.428 496.912V501.793H121.328V502.873H119.428V509.148H118.129V496.912H119.428ZM109.898 505.881C112.968 504.35 114.636 502.135 114.902 499.277H110.514V498.197H116.229C116.215 501.738 114.656 504.903 110.623 506.893L109.898 505.881ZM135.561 496.912V503.488H134.262V496.912H135.561ZM125.648 500.316C125.655 498.635 127.036 497.466 128.916 497.473C130.789 497.466 132.17 498.635 132.17 500.316C132.17 501.991 130.789 503.16 128.916 503.146C127.036 503.16 125.655 501.991 125.648 500.316ZM126.92 500.316C126.913 501.376 127.754 502.08 128.916 502.08C130.064 502.08 130.898 501.376 130.898 500.316C130.898 499.271 130.064 498.56 128.916 498.566C127.754 498.56 126.913 499.271 126.92 500.316ZM127.549 509.012V504.076H128.82V505.457H134.275V504.076H135.561V509.012H127.549ZM128.82 507.945H134.275V506.482H128.82V507.945ZM141.781 499.168C141.774 500.727 142.861 502.148 144.721 502.736L144.105 503.748C142.711 503.304 141.692 502.381 141.152 501.219C140.619 502.559 139.546 503.618 138.076 504.131L137.406 503.092C139.32 502.463 140.476 500.884 140.482 499.182V498.84H137.789V497.787H144.42V498.84H141.781V499.168ZM139.061 506.838C139.061 505.402 140.626 504.562 143.176 504.568C145.698 504.562 147.236 505.402 147.236 506.838C147.236 508.294 145.698 509.142 143.176 509.135C140.626 509.142 139.061 508.294 139.061 506.838ZM140.359 506.838C140.353 507.658 141.405 508.116 143.176 508.109C144.933 508.116 145.972 507.658 145.965 506.838C145.972 506.038 144.933 505.587 143.176 505.594C141.405 505.587 140.353 506.038 140.359 506.838ZM145.828 504.268V496.912H147.127V499.947H148.904V501.014H147.127V504.268H145.828ZM157.518 500.029C157.504 502.265 158.857 504.521 160.758 505.361L159.979 506.387C158.57 505.717 157.456 504.343 156.882 502.668C156.314 504.466 155.187 505.942 153.717 506.66L152.924 505.566C154.852 504.712 156.205 502.367 156.205 500.029V497.938H157.518V500.029ZM161.865 509.189V496.912H163.164V509.189H161.865ZM171.367 498.156C171.367 498.881 171.319 499.585 171.203 500.275H174.033V496.898H175.318V509.148H174.033V504.623H170.82V503.57H174.033V501.342H170.978C170.342 503.639 168.852 505.655 165.83 507.193L165.105 506.209C167.252 505.115 168.578 503.796 169.323 502.237L165.352 502.613L165.146 501.492L169.72 501.205C169.911 500.576 170.027 499.906 170.075 499.209H165.775V498.156H171.367ZM188.389 503.816V504.869H183.412V509.148H182.141V504.869H177.219V503.816H188.389ZM177.848 501.861C180.131 501.547 182.031 500.187 182.072 498.676H178.258V497.637H187.336V498.676H183.549C183.569 500.187 185.456 501.547 187.773 501.861L187.295 502.887C185.285 502.572 183.549 501.581 182.804 500.187C182.052 501.581 180.322 502.572 178.34 502.887L177.848 501.861ZM199.23 500.494V501.533H190.795V497.35H192.08V500.494H199.23ZM189.305 504.117V503.078H200.516V504.117H189.305ZM190.699 508.875V505.279H191.998V507.809H199.312V508.875H190.699ZM211.945 496.912V509.162H210.688V496.912H211.945ZM201.855 506.277V498.375H206.504V499.441H203.127V505.197C204.727 505.184 205.807 505.115 207.078 504.842L207.188 505.936C205.786 506.216 204.576 506.277 202.662 506.277H201.855ZM205.67 502.6V501.52H208.186V497.172H209.416V508.547H208.186V502.6H205.67ZM226.561 496.898V500.562H228.338V501.656H226.561V505.908H225.262V496.898H226.561ZM217.127 500.795C217.113 499.011 218.535 497.753 220.381 497.746C222.233 497.753 223.635 499.011 223.648 500.795C223.635 502.579 222.233 503.851 220.381 503.844C218.535 503.851 217.113 502.579 217.127 500.795ZM218.398 500.795C218.385 501.937 219.26 502.709 220.381 502.709C221.516 502.709 222.37 501.937 222.377 500.795C222.37 499.653 221.516 498.881 220.381 498.881C219.26 498.881 218.385 499.653 218.398 500.795ZM218.795 508.902V504.965H220.094V507.85H227.08V508.902H218.795ZM238.66 496.871V499.742H240.451V500.809H238.66V503.611H237.361V496.871H238.66ZM229.049 498.977V497.951H232.057V496.803H233.355V497.951H236.35V498.977H229.049ZM229.719 501.451C229.712 500.214 230.901 499.441 232.699 499.441C234.497 499.441 235.666 500.214 235.666 501.451C235.666 502.695 234.497 503.454 232.699 503.447C230.901 503.454 229.712 502.695 229.719 501.451ZM230.744 505.156V504.186H238.66V507.029H232.043V508.055H239.084V509.039H230.771V506.113H237.375V505.156H230.744ZM230.977 501.451C230.963 502.114 231.64 502.504 232.699 502.504C233.752 502.504 234.436 502.114 234.449 501.451C234.436 500.788 233.752 500.378 232.699 500.371C231.64 500.378 230.963 500.788 230.977 501.451ZM246.139 498.197V502.627H242.775V505.211C244.102 505.204 245.359 505.143 246.836 504.91L246.945 505.949C245.243 506.25 243.876 506.291 242.352 506.305H241.518V501.561H244.881V499.264H241.504V498.197H246.139ZM247.629 508.533V497.158H248.818V501.684H250.404V496.912H251.648V509.162H250.404V502.736H248.818V508.533H247.629ZM255.244 505.061C255.265 503.27 255.791 502.723 256.693 502.162C257.268 501.813 257.705 501.308 257.705 500.59C257.705 499.735 257.049 499.195 256.229 499.195C255.49 499.195 254.772 499.646 254.711 500.658H253.234C253.289 498.915 254.602 497.965 256.229 497.965C258.006 497.965 259.195 499.031 259.195 500.59C259.195 501.69 258.669 502.422 257.801 502.955C256.98 503.454 256.659 503.946 256.639 505.061V505.143H255.244V505.061ZM255.025 507.125C255.019 506.592 255.463 506.154 255.996 506.154C256.522 506.154 256.96 506.592 256.967 507.125C256.96 507.658 256.522 508.089 255.996 508.096C255.463 508.089 255.019 507.658 255.025 507.125ZM274.18 498.266V499.332H264.213V498.266H268.574V496.857H269.859V498.266H274.18ZM263.639 505.908V504.842H274.85V505.908H269.859V509.176H268.574V505.908H263.639ZM265.143 502.025C265.136 500.686 266.667 499.954 269.217 499.961C271.76 499.954 273.291 500.686 273.291 502.025C273.291 503.331 271.76 504.069 269.217 504.076C266.667 504.069 265.136 503.331 265.143 502.025ZM266.482 502.025C266.482 502.709 267.46 503.099 269.217 503.092C270.967 503.099 271.944 502.709 271.951 502.025C271.944 501.321 270.967 500.932 269.217 500.932C267.46 500.932 266.482 501.321 266.482 502.025ZM285.869 496.912V509.162H284.57V496.912H285.869ZM275.807 505.826C276.818 505.819 277.967 505.812 279.17 505.785V504.555C277.741 504.363 276.812 503.522 276.818 502.326C276.812 500.945 278.015 500.036 279.785 500.029C281.576 500.036 282.8 500.945 282.807 502.326C282.8 503.509 281.877 504.343 280.455 504.548V505.737C281.59 505.683 282.738 505.601 283.818 505.457L283.914 506.428C281.193 506.879 278.227 506.913 275.984 506.906L275.807 505.826ZM276.066 499.414V498.375H279.17V496.939H280.469V498.375H283.545V499.414H276.066ZM278.049 502.326C278.035 503.105 278.76 503.591 279.785 503.584C280.845 503.591 281.562 503.105 281.562 502.326C281.562 501.54 280.845 501.041 279.785 501.041C278.76 501.041 278.035 501.54 278.049 502.326ZM297.463 496.871V499.742H299.254V500.809H297.463V503.611H296.164V496.871H297.463ZM287.852 498.977V497.951H290.859V496.803H292.158V497.951H295.152V498.977H287.852ZM288.521 501.451C288.515 500.214 289.704 499.441 291.502 499.441C293.3 499.441 294.469 500.214 294.469 501.451C294.469 502.695 293.3 503.454 291.502 503.447C289.704 503.454 288.515 502.695 288.521 501.451ZM289.547 505.156V504.186H297.463V507.029H290.846V508.055H297.887V509.039H289.574V506.113H296.178V505.156H289.547ZM289.779 501.451C289.766 502.114 290.442 502.504 291.502 502.504C292.555 502.504 293.238 502.114 293.252 501.451C293.238 500.788 292.555 500.378 291.502 500.371C290.442 500.378 289.766 500.788 289.779 501.451ZM310.383 496.926V506.086H309.152V496.926H310.383ZM300.484 504.158V497.896H305.146V498.949H301.729V500.48H304.668V501.492H301.729V503.092C303.349 503.085 304.408 503.044 305.666 502.791L305.789 503.83C304.381 504.097 303.212 504.151 301.277 504.158H300.484ZM302.316 508.902V505.074H303.629V507.85H310.738V508.902H302.316ZM305.229 501.396V500.344H306.746V497.158H307.977V505.785H306.746V501.396H305.229ZM322.564 496.912V509.162H321.307V496.912H322.564ZM312.475 506.277V498.375H317.123V499.441H313.746V505.197C315.346 505.184 316.426 505.115 317.697 504.842L317.807 505.936C316.405 506.216 315.195 506.277 313.281 506.277H312.475ZM316.289 502.6V501.52H318.805V497.172H320.035V508.547H318.805V502.6H316.289ZM326.146 505.061C326.167 503.27 326.693 502.723 327.596 502.162C328.17 501.813 328.607 501.308 328.607 500.59C328.607 499.735 327.951 499.195 327.131 499.195C326.393 499.195 325.675 499.646 325.613 500.658H324.137C324.191 498.915 325.504 497.965 327.131 497.965C328.908 497.965 330.098 499.031 330.098 500.59C330.098 501.69 329.571 502.422 328.703 502.955C327.883 503.454 327.562 503.946 327.541 505.061V505.143H326.146V505.061ZM325.928 507.125C325.921 506.592 326.365 506.154 326.898 506.154C327.425 506.154 327.862 506.592 327.869 507.125C327.862 507.658 327.425 508.089 326.898 508.096C326.365 508.089 325.921 507.658 325.928 507.125ZM333.133 505.061C333.153 503.27 333.68 502.723 334.582 502.162C335.156 501.813 335.594 501.308 335.594 500.59C335.594 499.735 334.938 499.195 334.117 499.195C333.379 499.195 332.661 499.646 332.6 500.658H331.123C331.178 498.915 332.49 497.965 334.117 497.965C335.895 497.965 337.084 499.031 337.084 500.59C337.084 501.69 336.558 502.422 335.689 502.955C334.869 503.454 334.548 503.946 334.527 505.061V505.143H333.133V505.061ZM332.914 507.125C332.907 506.592 333.352 506.154 333.885 506.154C334.411 506.154 334.849 506.592 334.855 507.125C334.849 507.658 334.411 508.089 333.885 508.096C333.352 508.089 332.907 507.658 332.914 507.125ZM41.6484 525.871V526.951H36.6445V531.162H35.373V526.951H30.4375V525.871H41.6484ZM31.6543 522.098C31.6611 520.43 33.4248 519.377 36.0156 519.377C38.6064 519.377 40.3838 520.43 40.377 522.098C40.3838 523.745 38.6064 524.791 36.0156 524.791C33.4248 524.791 31.6611 523.745 31.6543 522.098ZM32.9941 522.098C32.9873 523.116 34.1973 523.752 36.0156 523.752C37.8408 523.752 39.0439 523.116 39.0508 522.098C39.0439 521.065 37.8408 520.423 36.0156 520.416C34.1973 520.423 32.9873 521.065 32.9941 522.098ZM52.7227 518.912V531.189H51.4238V518.912H52.7227ZM43.2344 521.072V520.02H48.9766V524.49H44.5742V527.17C46.5635 527.163 48.293 527.067 50.3438 526.732L50.4668 527.799C48.2998 528.161 46.4541 528.243 44.2871 528.25H43.248V523.451H47.6504V521.072H43.2344ZM68.1992 518.912V531.162H66.9004V518.912H68.1992ZM58.1367 527.826C59.1484 527.819 60.2969 527.812 61.5 527.785V526.555C60.0713 526.363 59.1416 525.522 59.1484 524.326C59.1416 522.945 60.3447 522.036 62.1152 522.029C63.9062 522.036 65.1299 522.945 65.1367 524.326C65.1299 525.509 64.207 526.343 62.7852 526.548V527.737C63.9199 527.683 65.0684 527.601 66.1484 527.457L66.2441 528.428C63.5234 528.879 60.5566 528.913 58.3145 528.906L58.1367 527.826ZM58.3965 521.414V520.375H61.5V518.939H62.7988V520.375H65.875V521.414H58.3965ZM60.3789 524.326C60.3652 525.105 61.0898 525.591 62.1152 525.584C63.1748 525.591 63.8926 525.105 63.8926 524.326C63.8926 523.54 63.1748 523.041 62.1152 523.041C61.0898 523.041 60.3652 523.54 60.3789 524.326ZM74.4199 522.029C74.4062 524.196 75.6709 526.418 77.4961 527.307L76.6895 528.346C75.3564 527.648 74.3242 526.281 73.7842 524.647C73.2373 526.384 72.1641 527.854 70.7695 528.578L69.9629 527.525C71.8428 526.623 73.1143 524.271 73.1211 522.029V519.938H74.4199V522.029ZM78.4121 531.162V518.912H79.7109V523.793H81.6797V524.9H79.7109V531.162H78.4121ZM97.1289 521.934V523.027H95.2285V525.543H97.1289V526.623H95.2285V531.162H93.9297V518.912H95.2285V521.934H97.1289ZM85.4805 527.58C87.3604 526.657 88.6318 524.265 88.6387 522.029V519.938H89.9375V522.029C89.9238 524.251 91.1748 526.452 93.0137 527.293L92.207 528.346C90.874 527.662 89.8418 526.322 89.3018 524.695C88.748 526.418 87.6816 527.888 86.3281 528.605L85.4805 527.58ZM108.025 518.926V531.162H106.713V528.236H104.006V527.252H106.713V518.926H108.025ZM97.7305 525.297C100.055 525.283 103.138 525.276 105.824 524.9L105.893 525.857C104.724 526.062 103.514 526.186 102.338 526.261V530.779H101.039V526.322C99.918 526.363 98.8516 526.377 97.9082 526.377L97.7305 525.297ZM98.6328 521.934C98.6396 520.484 99.9248 519.486 101.764 519.486C103.575 519.486 104.867 520.484 104.867 521.934C104.867 523.41 103.575 524.36 101.764 524.367C99.9248 524.36 98.6396 523.41 98.6328 521.934ZM99.8633 521.934C99.8564 522.809 100.636 523.376 101.764 523.369C102.851 523.376 103.63 522.809 103.637 521.934C103.63 521.072 102.857 520.491 101.764 520.484C100.636 520.491 99.8564 521.072 99.8633 521.934ZM114.164 521.168C114.157 522.727 115.244 524.148 117.104 524.736L116.488 525.748C115.094 525.304 114.075 524.381 113.535 523.219C113.002 524.559 111.929 525.618 110.459 526.131L109.789 525.092C111.703 524.463 112.858 522.884 112.865 521.182V520.84H110.172V519.787H116.803V520.84H114.164V521.168ZM111.443 528.838C111.443 527.402 113.009 526.562 115.559 526.568C118.081 526.562 119.619 527.402 119.619 528.838C119.619 530.294 118.081 531.142 115.559 531.135C113.009 531.142 111.443 530.294 111.443 528.838ZM112.742 528.838C112.735 529.658 113.788 530.116 115.559 530.109C117.315 530.116 118.354 529.658 118.348 528.838C118.354 528.038 117.315 527.587 115.559 527.594C113.788 527.587 112.735 528.038 112.742 528.838ZM118.211 526.268V518.912H119.51V521.947H121.287V523.014H119.51V526.268H118.211ZM131.91 524.559V525.598H128.205V528.592H133.195V529.658H121.984V528.592H126.92V525.598H123.379V519.855H131.801V520.908H124.678V524.559H131.91ZM141.754 527.006C141.754 528.059 142.273 529.173 143.388 529.836C144.509 529.118 145.062 527.949 145.062 527.006V526.418H146.334V527.006C146.327 528.277 147.168 529.508 148.768 530.027L148.125 530.984C146.915 530.567 146.088 529.747 145.664 528.749C145.274 529.733 144.543 530.629 143.422 531.094C142.246 530.649 141.501 529.781 141.125 528.783C140.681 529.747 139.874 530.561 138.719 530.984L138.062 530.027C139.635 529.467 140.489 528.188 140.496 527.006V526.418H141.754V527.006ZM137.748 522.494C137.755 520.778 139.136 519.603 141.016 519.596C142.889 519.603 144.27 520.778 144.27 522.494C144.27 524.189 142.889 525.365 141.016 525.365C139.136 525.365 137.755 524.189 137.748 522.494ZM139.02 522.494C139.013 523.561 139.854 524.285 141.016 524.285C142.164 524.285 142.998 523.561 142.998 522.494C142.998 521.421 142.164 520.696 141.016 520.703C139.854 520.696 139.013 521.421 139.02 522.494ZM146.361 525.898V518.926H147.66V525.898H146.361ZM159.514 520.088V521.291C159.507 522.802 159.507 524.497 159.049 527.006L157.736 526.869C158.208 524.497 158.208 522.761 158.215 521.291V521.141H150.777V520.088H159.514ZM149.602 529.508V528.428H153.854V524.107H155.139V528.428H160.771V529.508H149.602ZM163.902 529.057L162.809 532.83H161.646L162.371 529.057H163.902ZM179.146 518.926V525.748H177.916V518.926H179.146ZM168.633 521.031V520.033H171.012V518.885H172.311V520.033H174.689V521.031H168.633ZM169.098 523.506C169.104 522.269 170.157 521.462 171.668 521.469C173.158 521.462 174.218 522.269 174.225 523.506C174.218 524.723 173.158 525.516 171.668 525.502C170.157 525.516 169.104 524.723 169.098 523.506ZM170.246 523.506C170.239 524.169 170.813 524.6 171.668 524.6C172.509 524.6 173.083 524.169 173.076 523.506C173.083 522.829 172.509 522.385 171.668 522.398C170.813 522.385 170.239 522.829 170.246 523.506ZM170.93 527.211V526.24H179.146V529.057H172.242V530.055H179.57V531.039H170.957V528.141H177.875V527.211H170.93ZM174.402 523.096V522.07H175.646V519.117H176.877V525.652H175.646V523.096H174.402ZM187.021 520.648C187.021 522.645 189.147 524.531 191.506 524.955L190.904 526.035C188.942 525.611 187.145 524.326 186.352 522.604C185.545 524.319 183.747 525.598 181.785 526.035L181.211 524.955C183.535 524.518 185.647 522.645 185.654 520.648V519.719H187.021V520.648ZM180.801 529.549V528.469H192.012V529.549H180.801ZM197.18 521.168C197.173 522.727 198.26 524.148 200.119 524.736L199.504 525.748C198.109 525.304 197.091 524.381 196.551 523.219C196.018 524.559 194.944 525.618 193.475 526.131L192.805 525.092C194.719 524.463 195.874 522.884 195.881 521.182V520.84H193.188V519.787H199.818V520.84H197.18V521.168ZM194.459 528.838C194.459 527.402 196.024 526.562 198.574 526.568C201.097 526.562 202.635 527.402 202.635 528.838C202.635 530.294 201.097 531.142 198.574 531.135C196.024 531.142 194.459 530.294 194.459 528.838ZM195.758 528.838C195.751 529.658 196.804 530.116 198.574 530.109C200.331 530.116 201.37 529.658 201.363 528.838C201.37 528.038 200.331 527.587 198.574 527.594C196.804 527.587 195.751 528.038 195.758 528.838ZM201.227 526.268V518.912H202.525V521.947H204.303V523.014H202.525V526.268H201.227ZM214.926 524.559V525.598H211.221V528.592H216.211V529.658H205V528.592H209.936V525.598H206.395V519.855H214.816V520.908H207.693V524.559H214.926ZM224.77 527.006C224.77 528.059 225.289 529.173 226.403 529.836C227.524 529.118 228.078 527.949 228.078 527.006V526.418H229.35V527.006C229.343 528.277 230.184 529.508 231.783 530.027L231.141 530.984C229.931 530.567 229.104 529.747 228.68 528.749C228.29 529.733 227.559 530.629 226.438 531.094C225.262 530.649 224.517 529.781 224.141 528.783C223.696 529.747 222.89 530.561 221.734 530.984L221.078 530.027C222.65 529.467 223.505 528.188 223.512 527.006V526.418H224.77V527.006ZM220.764 522.494C220.771 520.778 222.151 519.603 224.031 519.596C225.904 519.603 227.285 520.778 227.285 522.494C227.285 524.189 225.904 525.365 224.031 525.365C222.151 525.365 220.771 524.189 220.764 522.494ZM222.035 522.494C222.028 523.561 222.869 524.285 224.031 524.285C225.18 524.285 226.014 523.561 226.014 522.494C226.014 521.421 225.18 520.696 224.031 520.703C222.869 520.696 222.028 521.421 222.035 522.494ZM229.377 525.898V518.926H230.676V525.898H229.377ZM242.529 520.088V521.291C242.522 522.802 242.522 524.497 242.064 527.006L240.752 526.869C241.224 524.497 241.224 522.761 241.23 521.291V521.141H233.793V520.088H242.529ZM232.617 529.508V528.428H236.869V524.107H238.154V528.428H243.787V529.508H232.617ZM246.918 529.057L245.824 532.83H244.662L245.387 529.057H246.918ZM258.129 519.596C258.122 522.768 256.399 525.023 252.523 526.213L252.004 525.16C253.918 524.606 255.189 523.793 255.935 522.781L252.168 523.068L251.963 522.016L256.461 521.824C256.611 521.455 256.7 521.059 256.748 520.648H252.578V519.596H258.129ZM253.918 531.012V526.582H261.93V531.012H253.918ZM255.189 529.959H260.645V527.621H255.189V529.959ZM258.088 523.164V522.098H260.631V518.926H261.93V525.953H260.631V523.164H258.088ZM273.961 519.568V520.621H272.17V523.725H273.893V524.777H264.91V523.725H266.646V520.621H264.855V519.568H273.961ZM263.803 527.129V526.062H275.014V527.129H272.211V531.162H270.926V527.129H267.959V531.162H266.633V527.129H263.803ZM267.945 523.725H270.898V520.621H267.945V523.725ZM286.129 518.912V531.189H284.844V524.504H282.41V523.438H284.844V518.912H286.129ZM276.477 528.291V520.006H282.205V521.059H277.789V523.438H281.686V524.477H277.789V527.211C279.84 527.211 281.262 527.149 282.889 526.869L283.025 527.922C281.241 528.209 279.703 528.284 277.434 528.291H276.477ZM297.941 524.559V525.598H294.236V528.592H299.227V529.658H288.016V528.592H292.951V525.598H289.41V519.855H297.832V520.908H290.709V524.559H297.941ZM313.158 518.912V521.605H314.936V522.686H313.158V525.133H311.859V518.912H313.158ZM304.012 524.736V519.705H309.74V524.736H304.012ZM304.764 530.834V526.199H306.035V529.768C306.753 529.733 307.58 529.631 308.359 529.371L308.551 530.396C307.409 530.786 306.309 530.834 305.393 530.834H304.764ZM305.283 523.697H308.469V520.744H305.283V523.697ZM308.127 527.293V526.336H310.602V525.311H311.873V526.336H314.307V527.293H308.127ZM308.906 529.412C308.893 528.353 309.836 527.703 311.217 527.689C312.57 527.703 313.527 528.353 313.527 529.412C313.527 530.472 312.57 531.135 311.217 531.135C309.836 531.135 308.893 530.472 308.906 529.412ZM310.055 529.412C310.055 529.932 310.54 530.246 311.217 530.246C311.88 530.246 312.358 529.932 312.365 529.412C312.358 528.906 311.88 528.605 311.217 528.592C310.54 528.605 310.055 528.906 310.055 529.412ZM325.545 520.088V521.291C325.538 522.802 325.538 524.497 325.08 527.006L323.768 526.869C324.239 524.497 324.239 522.761 324.246 521.291V521.141H316.809V520.088H325.545ZM315.633 529.508V528.428H319.885V524.107H321.17V528.428H326.803V529.508H315.633ZM329.934 529.057L328.84 532.83H327.678L328.402 529.057H329.934ZM344.945 518.912V525.639H343.646V523.096H341.104V522.043H343.646V518.912H344.945ZM334.979 521.934L339.483 521.756C339.627 521.387 339.723 520.99 339.764 520.58H335.594V519.527H341.145C341.138 522.733 339.401 524.935 335.539 526.076L335.02 525.037C336.934 524.49 338.205 523.697 338.95 522.699L335.184 522.986L334.979 521.934ZM336.961 531.012V526.227H338.232V527.58H343.66V526.227H344.945V531.012H336.961ZM338.232 529.959H343.66V528.592H338.232V529.959ZM356.375 518.912V523.697H358.344V524.791H356.375V531.189H355.09V518.912H356.375ZM347.311 521.072V520.02H352.916V524.518H348.623V527.17C350.722 527.163 352.287 527.088 354.078 526.76L354.201 527.812C352.287 528.168 350.633 528.25 348.336 528.264H347.338V523.465H351.631V521.072H347.311ZM365.18 519.951V520.99H367.846V518.926H369.145V527.854H367.846V524.682H365.18V525.748H359.492V519.951H365.18ZM360.777 524.723H363.908V521.004H360.777V524.723ZM361.146 530.902V527.033H362.459V529.85H369.418V530.902H361.146ZM365.18 523.615H367.846V522.057H365.18V523.615ZM380.957 524.559V525.598H377.252V528.592H382.242V529.658H371.031V528.592H375.967V525.598H372.426V519.855H380.848V520.908H373.725V524.559H380.957ZM38.1211 549.006C38.1211 550.059 38.6406 551.173 39.7549 551.836C40.876 551.118 41.4297 549.949 41.4297 549.006V548.418H42.7012V549.006C42.6943 550.277 43.5352 551.508 45.1348 552.027L44.4922 552.984C43.2822 552.567 42.4551 551.747 42.0312 550.749C41.6416 551.733 40.9102 552.629 39.7891 553.094C38.6133 552.649 37.8682 551.781 37.4922 550.783C37.0479 551.747 36.2412 552.561 35.0859 552.984L34.4297 552.027C36.002 551.467 36.8564 550.188 36.8633 549.006V548.418H38.1211V549.006ZM34.1152 544.494C34.1221 542.778 35.5029 541.603 37.3828 541.596C39.2559 541.603 40.6367 542.778 40.6367 544.494C40.6367 546.189 39.2559 547.365 37.3828 547.365C35.5029 547.365 34.1221 546.189 34.1152 544.494ZM35.3867 544.494C35.3799 545.561 36.2207 546.285 37.3828 546.285C38.5312 546.285 39.3652 545.561 39.3652 544.494C39.3652 543.421 38.5312 542.696 37.3828 542.703C36.2207 542.696 35.3799 543.421 35.3867 544.494ZM42.7285 547.898V540.926H44.0273V547.898H42.7285ZM55.8809 542.088V543.291C55.874 544.802 55.874 546.497 55.416 549.006L54.1035 548.869C54.5752 546.497 54.5752 544.761 54.582 543.291V543.141H47.1445V542.088H55.8809ZM45.9688 551.508V550.428H50.2207V546.107H51.5059V550.428H57.1387V551.508H45.9688ZM71.2754 541.527V542.457C71.2822 543.414 71.2822 544.521 70.9609 545.998H72.6973V547.064H61.4863V545.998H69.6484C69.9766 544.569 69.9902 543.523 69.9902 542.594H62.8945V541.527H71.2754ZM62.8535 553.012V548.623H71.2891V553.012H62.8535ZM64.125 551.959H70.0039V549.648H64.125V551.959ZM84.7969 550.551V551.631H73.5859V550.551H76.2656V547.352C75.2607 546.798 74.6455 545.923 74.6523 544.822C74.6455 542.895 76.5391 541.63 79.1641 541.623C81.7959 541.63 83.6895 542.895 83.6895 544.822C83.6895 545.902 83.1016 546.771 82.1172 547.324V550.551H84.7969ZM75.9102 544.822C75.9102 546.135 77.2432 546.989 79.1641 546.996C81.0713 546.989 82.4248 546.135 82.4316 544.822C82.4248 543.503 81.0713 542.662 79.1641 542.662C77.2432 542.662 75.9102 543.503 75.9102 544.822ZM77.5508 550.551H80.8047V547.83C80.3057 547.946 79.752 548.008 79.1641 548.008C78.5898 548.008 78.043 547.946 77.5508 547.83V550.551ZM89.1582 541.322C91.0039 541.336 92.3643 542.464 92.3711 544.07C92.3643 545.684 91.0039 546.805 89.1582 546.805C87.292 546.805 85.9385 545.684 85.9316 544.07C85.9385 542.464 87.292 541.336 89.1582 541.322ZM87.2031 544.07C87.1963 545.082 88.0303 545.752 89.1582 545.752C90.2793 545.752 91.1133 545.082 91.1133 544.07C91.1133 543.072 90.2793 542.402 89.1582 542.416C88.0303 542.402 87.1963 543.072 87.2031 544.07ZM87.791 548.746V547.707H95.8438V550.797H89.0898V551.973H96.2539V553.012H87.832V549.826H94.5586V548.746H87.791ZM94.5449 547.146V540.912H95.8438V547.146H94.5449ZM103.979 542.129V550.086H98.25V542.129H103.979ZM99.5215 549.033H102.693V543.154H99.5215V549.033ZM106.029 553.162V540.912H107.328V545.711H109.297V546.805H107.328V553.162H106.029ZM119.428 540.912V545.656H121.396V546.723H119.428V553.189H118.129V540.912H119.428ZM110.404 550.141V542.088H116.133V543.141H111.703V549.061C113.761 549.054 115.299 548.965 117.049 548.65L117.213 549.744C115.292 550.086 113.665 550.147 111.389 550.141H110.404ZM129.695 543.523C129.695 544.966 130.878 546.312 132.744 546.832L132.129 547.844C130.707 547.44 129.641 546.565 129.08 545.431C128.547 546.695 127.48 547.7 126.018 548.158L125.402 547.16C127.262 546.565 128.41 545.103 128.41 543.523V543.373H125.744V542.334H128.41V540.857H129.709V542.334H132.361V543.373H129.695V543.523ZM127.371 550.865C127.364 549.43 128.943 548.616 131.514 548.609C134.077 548.616 135.649 549.43 135.656 550.865C135.649 552.308 134.077 553.142 131.514 553.135C128.943 553.142 127.364 552.308 127.371 550.865ZM128.656 550.865C128.649 551.658 129.716 552.13 131.514 552.137C133.312 552.13 134.364 551.658 134.371 550.865C134.364 550.072 133.312 549.621 131.514 549.621C129.716 549.621 128.649 550.072 128.656 550.865ZM131.979 545.41V544.344H134.316V540.912H135.615V548.336H134.316V545.41H131.979ZM148.713 550.537V551.604H137.502V550.537H142.41V547.625H143.695V550.537H148.713ZM137.885 546.777C140.243 546.381 142.349 544.562 142.355 542.621V541.691H143.723V542.621C143.723 544.562 145.855 546.381 148.221 546.777L147.66 547.844C145.671 547.454 143.853 546.224 143.046 544.549C142.239 546.217 140.435 547.454 138.459 547.844L137.885 546.777ZM159.527 546.559V547.598H155.822V550.592H160.812V551.658H149.602V550.592H154.537V547.598H150.996V541.855H159.418V542.908H152.295V546.559H159.527ZM169.371 549.006C169.371 550.059 169.891 551.173 171.005 551.836C172.126 551.118 172.68 549.949 172.68 549.006V548.418H173.951V549.006C173.944 550.277 174.785 551.508 176.385 552.027L175.742 552.984C174.532 552.567 173.705 551.747 173.281 550.749C172.892 551.733 172.16 552.629 171.039 553.094C169.863 552.649 169.118 551.781 168.742 550.783C168.298 551.747 167.491 552.561 166.336 552.984L165.68 552.027C167.252 551.467 168.106 550.188 168.113 549.006V548.418H169.371V549.006ZM165.365 544.494C165.372 542.778 166.753 541.603 168.633 541.596C170.506 541.603 171.887 542.778 171.887 544.494C171.887 546.189 170.506 547.365 168.633 547.365C166.753 547.365 165.372 546.189 165.365 544.494ZM166.637 544.494C166.63 545.561 167.471 546.285 168.633 546.285C169.781 546.285 170.615 545.561 170.615 544.494C170.615 543.421 169.781 542.696 168.633 542.703C167.471 542.696 166.63 543.421 166.637 544.494ZM173.979 547.898V540.926H175.277V547.898H173.979ZM187.131 544.494V545.533H178.695V541.35H179.98V544.494H187.131ZM177.205 548.117V547.078H188.416V548.117H177.205ZM178.6 552.875V549.279H179.898V551.809H187.213V552.875H178.6ZM199.846 540.912V553.162H198.588V540.912H199.846ZM189.756 550.277V542.375H194.404V543.441H191.027V549.197C192.627 549.184 193.707 549.115 194.979 548.842L195.088 549.936C193.687 550.216 192.477 550.277 190.562 550.277H189.756ZM193.57 546.6V545.52H196.086V541.172H197.316V552.547H196.086V546.6H193.57ZM203.428 549.061C203.448 547.27 203.975 546.723 204.877 546.162C205.451 545.813 205.889 545.308 205.889 544.59C205.889 543.735 205.232 543.195 204.412 543.195C203.674 543.195 202.956 543.646 202.895 544.658H201.418C201.473 542.915 202.785 541.965 204.412 541.965C206.189 541.965 207.379 543.031 207.379 544.59C207.379 545.69 206.853 546.422 205.984 546.955C205.164 547.454 204.843 547.946 204.822 549.061V549.143H203.428V549.061ZM203.209 551.125C203.202 550.592 203.646 550.154 204.18 550.154C204.706 550.154 205.144 550.592 205.15 551.125C205.144 551.658 204.706 552.089 204.18 552.096C203.646 552.089 203.202 551.658 203.209 551.125Z" fill="#646464"/>
<path d="M37.4844 402.422C37.4922 404.805 40.2109 406.922 42.625 407.375L42.0625 408.406C39.9609 407.922 37.7578 406.43 36.8594 404.391C35.9531 406.43 33.7578 407.914 31.6562 408.406L31.0938 407.375C33.5 406.914 36.1953 404.812 36.2031 402.422V401.359H37.4844V402.422ZM30.5625 412.375V411.359H43.2812V412.375H30.5625ZM57.0938 408.766V409.797H53.75V414.266H52.5312V409.797H48.9375V414.266H47.7031V409.797H44.375V408.766H57.0938ZM46.0781 407.328V401.031H55.5V402.031H47.2969V403.625H55.1719V404.609H47.2969V406.312H55.6562V407.328H46.0781ZM69.6719 400.375V414.297H68.4375V400.375H69.6719ZM59.125 410.844V401.703H65.7344V402.734H60.3594V409.781C63.0625 409.781 64.8359 409.703 66.9219 409.328L67.0469 410.359C64.8906 410.742 63.0625 410.836 60.25 410.844H59.125ZM78.375 401.281C81.3281 401.297 83.4531 402.734 83.4531 404.922C83.4531 406.992 81.6094 408.359 78.9688 408.539V411.453H84.7656V412.484H72.0469V411.453H77.7656V408.539C75.1406 408.352 73.2969 406.984 73.2969 404.922C73.2969 402.734 75.4297 401.297 78.375 401.281ZM74.4844 404.922C74.4766 406.523 76.125 407.562 78.375 407.578C80.625 407.562 82.2656 406.523 82.2656 404.922C82.2656 403.352 80.625 402.289 78.375 402.297C76.125 402.289 74.4766 403.352 74.4844 404.922ZM96.1719 409.156C99.1484 409.156 101.039 410.094 101.047 411.703C101.039 413.297 99.1484 414.234 96.1719 414.234C93.1953 414.234 91.3047 413.297 91.3125 411.703C91.3047 410.094 93.1953 409.156 96.1719 409.156ZM89.9062 407.859V406.859H95.1406V404.172H96.3438V406.859H102.547V407.859H89.9062ZM91.4062 402.094V401.094H100.938V402.266C100.93 403.391 100.93 404.516 100.547 405.953L99.3438 405.812C99.7188 404.383 99.7188 403.352 99.7188 402.266V402.094H91.4062ZM92.5312 411.703C92.5234 412.672 93.9609 413.266 96.1719 413.266C98.3906 413.266 99.8125 412.672 99.8281 411.703C99.8125 410.711 98.3906 410.102 96.1719 410.094C93.9609 410.102 92.5234 410.711 92.5312 411.703ZM114.578 400.375V404.609H116.672V405.641H114.578V410.547H113.344V400.375H114.578ZM103.734 407.953C107.07 406.914 109.234 404.938 109.492 402.484H104.312V401.453H110.828C110.828 405.031 108.273 407.688 104.266 408.938L103.734 407.953ZM105.875 413.969V409.516H107.094V412.938H115.219V413.969H105.875ZM133.438 400.375V414.266H132.266V406.984H130.219V413.547H129.094V400.688H130.219V405.969H132.266V400.375H133.438ZM122.078 410.828V402.078H127.281V403.094H123.297V409.781C125.211 409.773 126.531 409.703 128.078 409.391L128.188 410.422C126.516 410.766 125.102 410.82 122.969 410.828H122.078ZM139.125 401.453C140.398 401.461 141.438 402.203 142.039 403.484H145.688V400.375H146.906V414.297H145.688V408.906H142.125C141.547 410.312 140.469 411.133 139.125 411.125C137.07 411.133 135.633 409.258 135.641 406.297C135.633 403.344 137.07 401.461 139.125 401.453ZM136.812 406.297C136.82 408.555 137.758 410.039 139.125 410.031C140.484 410.039 141.438 408.555 141.438 406.297C141.438 404.039 140.484 402.555 139.125 402.547C137.758 402.555 136.82 404.039 136.812 406.297ZM142.391 404.516C142.523 405.055 142.594 405.648 142.594 406.297C142.594 406.867 142.539 407.406 142.438 407.891H145.688V404.516H142.391ZM153.188 403.625V401.688H162.453V403.625H158.984V413H156.656V403.625H153.188ZM173.344 401.688V413H171.312L166.344 405.812H166.25V413H163.906V401.688H165.969L170.906 408.875H171.016V401.688H173.344ZM174.812 403.625V401.688H184.078V403.625H180.609V413H178.281V403.625H174.812ZM191.672 404.922C191.578 404.023 190.867 403.5 189.719 403.5C188.531 403.5 187.867 404.047 187.859 404.797C187.852 405.617 188.695 405.984 189.672 406.203L190.688 406.453C192.625 406.898 194.07 407.883 194.078 409.766C194.07 411.836 192.461 413.164 189.703 413.156C186.969 413.164 185.227 411.898 185.156 409.469H187.438C187.516 410.609 188.422 411.188 189.672 411.188C190.906 411.188 191.703 410.609 191.703 409.766C191.703 408.992 191 408.633 189.766 408.328L188.531 408.031C186.625 407.562 185.453 406.609 185.453 404.953C185.445 402.898 187.258 401.531 189.734 401.531C192.242 401.531 193.891 402.922 193.922 404.922H191.672ZM195.172 403.625V401.688H204.438V403.625H200.969V413H198.641V403.625H195.172ZM212.891 401.688H215.25V409.031C215.25 411.508 213.367 413.164 210.562 413.156C207.75 413.164 205.891 411.508 205.891 409.031V401.688H208.234V408.844C208.242 410.148 209.164 411.086 210.562 411.094C211.977 411.086 212.898 410.148 212.891 408.844V401.688ZM221.141 413H217.156V401.688H221.188C224.594 401.688 226.68 403.805 226.672 407.328C226.68 410.867 224.594 413 221.141 413ZM219.5 410.984H221.047C223.203 410.984 224.328 409.867 224.328 407.328C224.328 404.812 223.203 403.703 221.062 403.703H219.5V410.984ZM230.719 401.688V413H228.375V401.688H230.719ZM242.984 407.344C242.984 411.039 240.695 413.156 237.703 413.156C234.688 413.156 232.406 411.023 232.406 407.344C232.406 403.648 234.688 401.531 237.703 401.531C240.695 401.531 242.984 403.648 242.984 407.344ZM234.797 407.344C234.797 409.758 235.945 411.07 237.703 411.078C239.445 411.07 240.602 409.758 240.594 407.344C240.602 404.922 239.445 403.617 237.703 403.609C235.945 403.617 234.797 404.922 234.797 407.344Z" fill="#488AD8"/>
<path d="M32.2383 385L30.3047 378.637H31.3711L32.7305 383.488H32.7891L34.1367 378.637H35.2148L36.5391 383.465H36.6094L37.9688 378.637H39.0234L37.0898 385H36.0938L34.7109 380.148H34.6172L33.2461 385H32.2383ZM41.5664 385L39.6328 378.637H40.6992L42.0586 383.488H42.1172L43.4648 378.637H44.543L45.8672 383.465H45.9375L47.2969 378.637H48.3516L46.418 385H45.4219L44.0391 380.148H43.9453L42.5742 385H41.5664ZM50.8945 385L48.9609 378.637H50.0273L51.3867 383.488H51.4453L52.793 378.637H53.8711L55.1953 383.465H55.2656L56.625 378.637H57.6797L55.7461 385H54.75L53.3672 380.148H53.2734L51.9023 385H50.8945ZM58.6406 385.07C58.2305 385.064 57.8789 384.725 57.8906 384.309C57.8789 383.898 58.2305 383.559 58.6406 383.559C59.0566 383.559 59.3965 383.898 59.3906 384.309C59.3965 384.725 59.0566 385.064 58.6406 385.07ZM60.2344 377.453V376.516H66.6328V377.453H63.9727V385H62.9062V377.453H60.2344ZM74.7773 376.516V385H73.7695L69.1758 378.391H69.0938V385H68.0391V376.516H69.0586L73.6523 383.137H73.7344V376.516H74.7773ZM76.1836 377.453V376.516H82.582V377.453H79.9219V385H78.8555V377.453H76.1836ZM88.6172 378.648C88.5293 377.816 87.7559 377.336 86.7422 377.336C85.6172 377.336 84.8848 377.922 84.8789 378.73C84.8848 379.621 85.875 379.955 86.5195 380.113L87.3633 380.348C88.2715 380.582 89.7656 381.104 89.7656 382.691C89.7656 384.074 88.6523 385.146 86.6836 385.152C84.8555 385.146 83.7246 384.203 83.625 382.797H84.7031C84.791 383.746 85.6758 384.197 86.6836 384.191C87.8555 384.197 88.7344 383.594 88.7344 382.668C88.7344 381.842 87.9492 381.525 87.0586 381.273L86.0156 380.992C84.6855 380.605 83.8535 379.926 83.8594 378.777C83.8535 377.342 85.1309 376.398 86.7773 376.398C88.4238 376.398 89.6074 377.359 89.6484 378.648H88.6172ZM90.8086 377.453V376.516H97.207V377.453H94.5469V385H93.4805V377.453H90.8086ZM104.168 376.516H105.223V382.129C105.223 383.875 103.916 385.146 101.918 385.152C99.9141 385.146 98.6133 383.875 98.6133 382.129V376.516H99.668V382.047C99.6621 383.277 100.518 384.162 101.918 384.168C103.318 384.162 104.162 383.277 104.168 382.047V376.516ZM109.734 385H107.098V376.516H109.84C112.318 376.516 113.777 378.104 113.777 380.746C113.777 383.395 112.318 385 109.734 385ZM108.152 384.062H109.664C111.744 384.062 112.746 382.803 112.746 380.746C112.746 378.695 111.744 377.453 109.77 377.453H108.152V384.062ZM116.379 376.516V385H115.324V376.516H116.379ZM125.426 380.758C125.432 383.441 123.85 385.117 121.676 385.117C119.496 385.117 117.92 383.441 117.926 380.758C117.92 378.074 119.496 376.398 121.676 376.398C123.85 376.398 125.432 378.074 125.426 380.758ZM118.945 380.758C118.951 382.943 120.141 384.127 121.676 384.133C123.211 384.127 124.4 382.943 124.406 380.758C124.4 378.566 123.211 377.383 121.676 377.383C120.141 377.383 118.951 378.566 118.945 380.758ZM127.02 385.07C126.609 385.064 126.258 384.725 126.27 384.309C126.258 383.898 126.609 383.559 127.02 383.559C127.436 383.559 127.775 383.898 127.77 384.309C127.775 384.725 127.436 385.064 127.02 385.07ZM131.953 385.129C130.148 385.135 129.047 383.758 129.047 381.848C129.047 379.914 130.201 378.555 131.93 378.555C133.283 378.555 134.303 379.357 134.461 380.559H133.453C133.307 379.979 132.803 379.445 131.953 379.445C130.816 379.445 130.061 380.383 130.055 381.812C130.061 383.283 130.799 384.227 131.953 384.227C132.703 384.227 133.277 383.822 133.453 383.125H134.461C134.303 384.262 133.365 385.135 131.953 385.129ZM138.305 385.129C136.57 385.135 135.398 383.822 135.398 381.848C135.398 379.861 136.57 378.555 138.305 378.555C140.033 378.555 141.193 379.861 141.188 381.848C141.193 383.822 140.033 385.135 138.305 385.129ZM136.406 381.848C136.412 383.119 137.01 384.238 138.305 384.238C139.588 384.238 140.18 383.119 140.18 381.848C140.18 380.582 139.588 379.445 138.305 379.445C137.01 379.445 136.412 380.582 136.406 381.848ZM142.512 385V378.637H143.484V379.633H143.566C143.83 378.953 144.445 378.555 145.277 378.555C146.109 378.555 146.678 378.953 146.977 379.633H147.047C147.369 378.977 148.043 378.555 148.957 378.555C150.088 378.555 150.902 379.246 150.902 380.746V385H149.895V380.758C149.889 379.82 149.303 379.457 148.605 379.457C147.721 379.457 147.217 380.055 147.211 380.863V385H146.191V380.652C146.197 379.938 145.682 379.457 144.949 379.457C144.188 379.457 143.52 380.102 143.52 381.027V385H142.512Z" fill="#808080"/>
</g>
<rect x="20" y="129" width="416" height="212" fill="white"/>
<path d="M72.6445 96.2812V93.8594H84.2266V96.2812H79.8906V108H76.9805V96.2812H72.6445ZM97.8398 93.8594V108H95.3008L89.0898 99.0156H88.9727V108H86.043V93.8594H88.6211L94.793 102.844H94.9297V93.8594H97.8398ZM99.6758 96.2812V93.8594H111.258V96.2812H106.922V108H104.012V96.2812H99.6758ZM120.75 97.9023C120.633 96.7793 119.744 96.125 118.309 96.125C116.824 96.125 115.994 96.8086 115.984 97.7461C115.975 98.7715 117.029 99.2305 118.25 99.5039L119.52 99.8164C121.941 100.373 123.748 101.604 123.758 103.957C123.748 106.545 121.736 108.205 118.289 108.195C114.871 108.205 112.693 106.623 112.605 103.586H115.457C115.555 105.012 116.688 105.734 118.25 105.734C119.793 105.734 120.789 105.012 120.789 103.957C120.789 102.99 119.91 102.541 118.367 102.16L116.824 101.789C114.441 101.203 112.977 100.012 112.977 97.9414C112.967 95.373 115.232 93.6641 118.328 93.6641C121.463 93.6641 123.523 95.4023 123.562 97.9023H120.75ZM125.125 96.2812V93.8594H136.707V96.2812H132.371V108H129.461V96.2812H125.125ZM147.273 93.8594H150.223V103.039C150.223 106.135 147.869 108.205 144.363 108.195C140.848 108.205 138.523 106.135 138.523 103.039V93.8594H141.453V102.805C141.463 104.436 142.615 105.607 144.363 105.617C146.131 105.607 147.283 104.436 147.273 102.805V93.8594ZM157.586 108H152.605V93.8594H157.645C161.902 93.8594 164.51 96.5059 164.5 100.91C164.51 105.334 161.902 108 157.586 108ZM155.535 105.48H157.469C160.164 105.48 161.57 104.084 161.57 100.91C161.57 97.7656 160.164 96.3789 157.488 96.3789H155.535V105.48ZM169.559 93.8594V108H166.629V93.8594H169.559ZM184.891 100.93C184.891 105.549 182.029 108.195 178.289 108.195C174.52 108.195 171.668 105.529 171.668 100.93C171.668 96.3105 174.52 93.6641 178.289 93.6641C182.029 93.6641 184.891 96.3105 184.891 100.93ZM174.656 100.93C174.656 103.947 176.092 105.588 178.289 105.598C180.467 105.588 181.912 103.947 181.902 100.93C181.912 97.9023 180.467 96.2715 178.289 96.2617C176.092 96.2715 174.656 97.9023 174.656 100.93Z" fill="#101010"/>
<path d="M43.6598 93.4506L44.5001 94.2749L45.3404 93.4506C47.9856 90.8557 50.7608 90.7654 52.7206 91.8731C54.7341 93.0111 56.1583 95.5611 55.7211 98.8011C55.5545 100.036 54.826 101.421 53.6798 102.862C52.5477 104.286 51.0904 105.663 49.6262 106.877C48.1666 108.088 46.7278 109.113 45.6519 109.837C45.1914 110.147 44.799 110.401 44.5019 110.588C44.2064 110.4 43.8165 110.147 43.3588 109.838C42.2873 109.113 40.8537 108.086 39.3973 106.875C37.9364 105.66 36.4799 104.282 35.3442 102.858C34.1945 101.415 33.4565 100.028 33.2775 98.7898C32.8492 95.8276 34.2433 93.2556 36.2979 92.0441C38.2812 90.8746 41.0422 90.8833 43.6598 93.4506Z" stroke="#5D1ED2" stroke-width="2.4"/>
<path d="M417 110V114" stroke="#5D1ED2" stroke-width="2.4" stroke-linecap="round"/>
<rect x="411.2" y="89.2" width="11.6" height="15.6" rx="5.8" stroke="#5D1ED2" stroke-width="2.4"/>
<path d="M427 101V101C426.429 105.57 422.544 109 417.938 109L416.062 109C411.456 109 407.571 105.57 407 101V101" stroke="#5D1ED2" stroke-width="2.4" stroke-linecap="round"/>
<circle cx="373" cy="101" r="10" fill="#E5E7EB"/>
<path fill-rule="evenodd" clip-rule="evenodd" d="M376.084 104.931C376.318 105.165 376.698 105.165 376.933 104.931C377.167 104.697 377.167 104.317 376.933 104.082L374.044 101.194C373.966 101.116 373.966 100.989 374.044 100.911L376.931 98.0243C377.165 97.7899 377.165 97.4101 376.931 97.1757C376.697 96.9414 376.317 96.9414 376.082 97.1757L373.196 100.063C373.117 100.141 372.991 100.141 372.913 100.063L370.026 97.1757C369.791 96.9414 369.412 96.9414 369.177 97.1757C368.943 97.4101 368.943 97.7899 369.177 98.0243L372.064 100.911C372.142 100.989 372.142 101.116 372.064 101.194L369.176 104.082C368.941 104.317 368.941 104.697 369.176 104.931C369.41 105.165 369.79 105.165 370.024 104.931L372.913 102.043C372.991 101.964 373.117 101.964 373.196 102.043L376.084 104.931Z" fill="white"/>
<rect x="385.5" y="36.5" width="29" height="13" rx="2.5" fill="white" stroke="#B4B7BC"/>
<rect x="387" y="38" width="26" height="10" rx="1" fill="#373737"/>
<path d="M414 40H415C416.105 40 417 40.8954 417 42V44C417 45.1046 416.105 46 415 46H414V40Z" fill="#B4B7BC"/>
<defs>
<filter id="filter0_f_9527_3259" x="0" y="0" width="455" height="599" filterUnits="userSpaceOnUse" color-interpolation-filters="sRGB">
<feFlood flood-opacity="0" result="BackgroundImageFix"/>
<feBlend mode="normal" in="SourceGraphic" in2="BackgroundImageFix" result="shape"/>
<feGaussianBlur stdDeviation="3" result="effect1_foregroundBlur_9527_3259"/>
</filter>
<filter id="filter1_f_9527_3259" x="16" y="136" width="424" height="450" filterUnits="userSpaceOnUse" color-interpolation-filters="sRGB">
<feFlood flood-opacity="0" result="BackgroundImageFix"/>
<feBlend mode="normal" in="SourceGraphic" in2="BackgroundImageFix" result="shape"/>
<feGaussianBlur stdDeviation="2" result="effect1_foregroundBlur_9527_3259"/>
</filter>
<filter id="filter2_f_9527_3259" x="16" y="567" width="424" height="20" filterUnits="userSpaceOnUse" color-interpolation-filters="sRGB">
<feFlood flood-opacity="0" result="BackgroundImageFix"/>
<feBlend mode="normal" in="SourceGraphic" in2="BackgroundImageFix" result="shape"/>
<feGaussianBlur stdDeviation="2" result="effect1_foregroundBlur_9527_3259"/>
</filter>
<filter id="filter3_f_9527_3259" x="12" y="347" width="432" height="222" filterUnits="userSpaceOnUse" color-interpolation-filters="sRGB">
<feFlood flood-opacity="0" result="BackgroundImageFix"/>
<feBlend mode="normal" in="SourceGraphic" in2="BackgroundImageFix" result="shape"/>
<feGaussianBlur stdDeviation="4" result="effect1_foregroundBlur_9527_3259"/>
</filter>
</defs>
</svg>
