<svg width="30" height="30" viewBox="0 0 30 30" fill="none" xmlns="http://www.w3.org/2000/svg">
<path fill-rule="evenodd" clip-rule="evenodd" d="M19.0376 0.655905C21.9707 -0.810271 25.5866 0.264929 27.129 3.05066C28.6714 5.83638 27.5589 9.33078 24.6257 10.797L22.2235 12.0188C24.2969 12.0921 26.2693 13.1917 27.3059 15.0733C28.8484 17.8835 27.7358 21.3534 24.8026 22.8196L11.9575 29.3441C9.02429 30.8103 5.40841 29.7351 3.86604 26.9493C2.32367 24.1636 3.46155 20.6693 6.36942 19.2031L8.7716 17.9813C6.69817 17.908 4.72585 16.8084 3.68917 14.9268C2.14673 12.1166 3.28461 8.64663 6.19248 7.18046L19.0376 0.655905Z" fill="#FF0000"/>
<path fill-rule="evenodd" clip-rule="evenodd" d="M12.1091 10.3813L19.8972 15.0242L12.1091 19.6427V10.3813Z" fill="white"/>
</svg>
