<svg width="34" height="36" viewBox="0 0 34 36" fill="none" xmlns="http://www.w3.org/2000/svg">
<path d="M3.14234 35.9992C3.10858 35.8839 2.99604 35.897 2.91538 35.8717C1.4758 35.4337 0.559522 34.2239 0.55202 32.7112C0.542641 30.661 0.55202 28.61 0.55202 26.5598C0.55202 22.5515 0.55202 18.5438 0.55202 14.5367C0.55202 13.5885 0.998432 13.1459 1.9494 13.1459C2.52243 13.1459 3.09639 13.1374 3.66847 13.1459C3.86823 13.1506 3.9442 13.1177 3.9592 12.888C4.00328 12.1996 4.43844 11.8113 5.13151 11.8095C6.4645 11.8057 7.79779 11.8057 9.13141 11.8095C9.53749 11.8095 9.7879 12.0111 9.7879 12.3328C9.7879 12.6545 9.54593 12.8645 9.14172 12.8655C7.87845 12.8655 6.61517 12.873 5.35284 12.8608C5.09305 12.8608 4.99646 12.9039 4.99739 13.1965C5.0074 18.4234 5.0074 23.6497 4.99739 28.8754C4.99739 29.1567 5.09118 29.1914 5.33408 29.1896C6.48012 29.1774 7.62711 29.1896 8.77315 29.183C9.0545 29.183 9.28615 29.2674 9.38275 29.5516C9.50748 29.9183 9.25239 30.2353 8.82567 30.2371C7.69088 30.2428 6.55609 30.2521 5.42224 30.2306C5.09305 30.2249 4.97207 30.2915 4.99646 30.6451C5.03022 31.1459 5.00677 31.6523 5.00396 32.156C5.00396 32.4373 5.12869 32.5536 5.41098 32.5527C9.0023 32.5489 12.593 32.5489 16.183 32.5527C16.2061 32.55 16.2288 32.5447 16.2506 32.5367C16.184 31.5182 15.1711 30.4791 14.0466 30.3037C13.1754 30.1677 12.2957 30.2643 11.4207 30.2456C10.858 30.2334 10.5982 30.0711 10.6094 29.7044C10.6207 29.3537 10.8786 29.1877 11.416 29.1877H13.1341C14.5596 29.1877 15.2283 29.4325 16.2965 30.3478C16.3791 30.2446 16.335 30.1246 16.335 30.0167C16.335 27.9185 16.335 25.8208 16.335 23.7238C16.335 23.4106 16.4128 23.1611 16.7373 23.0673C17.0899 22.9735 17.3872 23.2296 17.3938 23.6385C17.4004 24.6935 17.3938 25.7477 17.3938 26.8027V30.3159C17.4932 30.3712 17.5185 30.2784 17.5617 30.239C18.2924 29.5535 19.2599 29.1772 20.2617 29.1886C22.9636 29.1886 25.6656 29.1821 28.3666 29.1952C28.6639 29.1952 28.7267 29.1192 28.7258 28.8304C28.7126 26.5223 28.7183 24.2134 28.7192 21.9053C28.7135 21.7649 28.721 21.6242 28.7417 21.4852C28.7567 21.3672 28.816 21.2593 28.9076 21.1833C28.9992 21.1074 29.1162 21.0691 29.235 21.0763C29.3534 21.0641 29.4721 21.0975 29.5668 21.1696C29.6616 21.2417 29.7253 21.3472 29.7452 21.4645C29.7692 21.5909 29.7786 21.7196 29.7733 21.8481C29.7733 25.2462 29.7733 28.6444 29.7733 32.0425C29.7733 33.0966 29.2547 33.6087 28.1977 33.6087C20.6325 33.6087 13.0653 33.6087 5.49633 33.6087C4.4647 33.6087 3.94326 33.09 3.94326 32.0556C3.94326 26.2316 3.94576 20.4079 3.95076 14.5845C3.95076 14.2553 3.85698 14.1784 3.54936 14.1935C3.02417 14.2197 2.49617 14.216 1.97098 14.1935C1.68025 14.1822 1.59584 14.2713 1.59584 14.5686C1.60616 17.3221 1.6024 20.0756 1.6024 22.83C1.6024 26.0637 1.6024 29.2977 1.6024 32.532C1.6024 34.0326 2.50367 34.9451 3.99484 34.9451H29.6448C31.1454 34.9451 32.0495 34.042 32.0495 32.5452C32.0495 26.568 32.0523 20.5917 32.0579 14.6164C32.0579 14.2666 31.951 14.1784 31.6209 14.1944C31.0966 14.2207 30.5686 14.2131 30.0434 14.1944C29.8249 14.1878 29.7715 14.2507 29.7733 14.4654C29.7827 15.9772 29.7733 17.489 29.7733 19.0008C29.7733 19.1059 29.778 19.2118 29.7733 19.3169C29.7471 19.6508 29.5417 19.8627 29.25 19.8646C28.9583 19.8665 28.7408 19.6554 28.7258 19.3216C28.7107 18.9708 28.7201 18.6191 28.7201 18.2674C28.7201 16.5793 28.7136 14.8912 28.7276 13.2031C28.7276 12.9217 28.6479 12.858 28.3778 12.8608C27.1267 12.8748 25.8757 12.8683 24.6264 12.8664C24.1894 12.8664 23.9409 12.6723 23.9399 12.3393C23.939 12.0064 24.1903 11.8104 24.6255 11.8104C25.9385 11.8104 27.2483 11.8104 28.5551 11.8104C29.2969 11.8104 29.7105 12.178 29.7743 12.918C29.7902 13.1056 29.8446 13.1496 30.0209 13.1468C30.6052 13.1365 31.1904 13.1468 31.7747 13.1468C32.6459 13.1468 33.1083 13.6157 33.1083 14.4973C33.1083 18.5169 33.1083 22.5362 33.1083 26.5552C33.1083 28.5471 33.1083 30.5394 33.1083 32.532C33.1083 34.3393 32.1705 35.5266 30.4073 35.9458C30.3932 35.9458 30.3857 35.9814 30.3754 36.0002L3.14234 35.9992ZM22.9674 32.5545C24.7334 32.5545 26.4993 32.5489 28.2643 32.5545C28.5991 32.5545 28.7333 32.4279 28.7248 32.0997C28.7136 31.5726 28.7136 31.0452 28.7248 30.5175C28.7248 30.314 28.6892 30.2362 28.4585 30.2362C25.6984 30.2456 22.9383 30.2362 20.1783 30.2474C19.5764 30.2508 18.9917 30.4479 18.5106 30.8096C18.0295 31.1712 17.6777 31.6782 17.5073 32.2554C17.4248 32.5208 17.4838 32.563 17.7389 32.562C19.4814 32.5498 21.224 32.5545 22.9674 32.5545Z" fill="#805BEA"/>
<path d="M17.6689 0C18.0693 0.0937843 18.4745 0.168812 18.8702 0.281353C23.7583 1.62997 25.9444 7.36488 23.2021 11.6396C22.1098 13.3421 21.0157 15.0427 19.9197 16.7414C19.8043 16.903 19.746 17.0983 19.7537 17.2966C19.7837 17.8725 19.6186 18.363 19.0916 18.6687C18.9593 18.7456 18.9781 18.8563 18.9753 18.9716C18.9687 19.253 18.9828 19.5343 18.9518 19.8157C18.917 20.2159 18.7373 20.5897 18.4466 20.867C18.1558 21.1443 17.774 21.306 17.3725 21.3219C17.0339 21.3406 16.6945 21.3406 16.3559 21.3219C15.9553 21.3047 15.5744 21.1435 15.2833 20.8677C14.9923 20.592 14.8106 20.2204 14.7719 19.8213C14.7547 19.7052 14.7487 19.5878 14.754 19.4706C14.784 19.056 14.7662 18.6987 14.3442 18.4239C14.0178 18.212 13.9522 17.7956 13.9756 17.4092C13.9879 17.1408 13.9086 16.8762 13.7505 16.6589C12.6701 14.9914 11.5948 13.3205 10.5244 11.6461C10.0819 10.9566 9.75411 10.2 9.5537 9.40562C9.44772 8.98641 9.58465 8.70599 9.92321 8.62722C10.2374 8.555 10.4784 8.73882 10.5797 9.14584C10.7701 9.88199 11.082 10.5812 11.5025 11.2147C12.6279 12.9516 13.7355 14.6988 14.8638 16.4329C15.0401 16.7049 15.0194 16.9843 15.0269 17.2769C15.0316 17.442 14.9866 17.6258 15.1451 17.7459C15.2548 17.7243 15.2286 17.6521 15.2267 17.6061C15.1273 15.8402 15.0241 14.0742 14.9303 12.3073C14.921 12.1347 14.8591 12.0841 14.6987 12.0954C14.5469 12.1052 14.3947 12.1052 14.2429 12.0954C13.3707 12.0419 12.7424 11.3498 12.7546 10.4598C12.7548 10.0576 12.9116 9.6713 13.1917 9.38266C13.4717 9.09403 13.8531 8.92568 14.2551 8.91326C15.1048 8.88043 15.7857 9.50691 15.8598 10.3875C15.9141 11.044 15.9141 11.044 16.5547 11.044C16.8707 11.044 17.1868 11.0309 17.5019 11.0487C17.7045 11.06 17.7711 10.985 17.7645 10.7927C17.7671 10.6641 17.7771 10.5357 17.7945 10.4082C17.8677 9.5191 18.5326 8.89262 19.3804 8.91326C19.7825 8.921 20.1658 9.08468 20.4495 9.36973C20.7331 9.65478 20.8949 10.0389 20.9007 10.441C20.9204 11.3348 20.3033 12.026 19.4329 12.0991C19.206 12.1179 18.9002 11.9847 18.7718 12.1685C18.6583 12.3308 18.7211 12.6187 18.708 12.8522C18.6161 14.3959 18.5251 15.9393 18.4351 17.4823C18.4294 17.5827 18.4351 17.683 18.4351 17.7918C18.6845 17.7599 18.722 17.5902 18.6958 17.427C18.6067 16.8577 18.8702 16.4216 19.1647 15.9715C20.2188 14.3574 21.2495 12.7275 22.2943 11.1059C24.8977 7.06383 22.4115 1.71907 17.6492 1.12541C16.8033 1.0208 15.9451 1.08448 15.124 1.31279C14.3029 1.5411 13.535 1.92953 12.8645 2.45573C12.1941 2.98193 11.6343 3.63551 11.2174 4.37887C10.8005 5.12223 10.5347 5.9407 10.4353 6.78717C10.3828 7.23358 10.183 7.44366 9.8388 7.41552C9.51618 7.38832 9.34081 7.1548 9.37926 6.75903C9.51852 5.25699 10.1235 3.83595 11.1096 2.69442C12.3038 1.2584 13.9957 0.325679 15.8476 0.0825292C15.902 0.0750265 15.9676 0.0900329 15.9873 0.0131297L17.6689 0ZM16.1355 14.8883C16.1796 15.5888 16.2293 16.2885 16.2668 16.989C16.3109 17.8415 16.3062 17.8331 17.1596 17.7937C17.3312 17.7852 17.3791 17.728 17.3837 17.5695C17.3931 17.2422 17.4147 16.9131 17.4335 16.5886C17.516 15.1762 17.5938 13.7628 17.6857 12.3505C17.6998 12.1291 17.6426 12.0691 17.4241 12.0794C17.0396 12.0982 16.6532 12.0982 16.2687 12.0794C16.0417 12.0682 15.9704 12.1282 15.9873 12.3655C16.0417 13.2058 16.082 14.047 16.1355 14.8883ZM16.8492 20.2649H17.0583C17.727 20.2649 17.9211 20.0651 17.923 19.3833C17.923 19.267 17.9155 19.1489 17.923 19.0335C17.9361 18.8769 17.8677 18.8347 17.7204 18.8375C17.3247 18.8459 16.928 18.8375 16.5322 18.8375C15.7313 18.8375 15.6881 18.8835 15.8204 19.6947C15.8334 19.8472 15.9028 19.9893 16.015 20.0933C16.1272 20.1974 16.2741 20.2559 16.4271 20.2574C16.5641 20.2724 16.7047 20.2649 16.8445 20.2649H16.8492ZM14.5046 11.0309C14.5984 10.9728 14.8244 11.1519 14.8413 10.9043C14.8559 10.6824 14.8288 10.4597 14.7615 10.2478C14.6903 10.0255 14.4896 9.93738 14.2551 9.96177C14.1489 9.96827 14.048 10.0107 13.9691 10.0821C13.8902 10.1535 13.8379 10.2497 13.8209 10.3547C13.7233 10.7627 13.985 11.0272 14.4999 11.0309H14.5046ZM19.1291 11.0309C19.2144 11.0309 19.2735 11.0309 19.3316 11.0309C19.659 11.0028 19.8512 10.8011 19.8521 10.4898C19.8566 10.4227 19.8474 10.3553 19.8251 10.2919C19.8027 10.2284 19.7677 10.1701 19.7222 10.1206C19.6767 10.0711 19.6216 10.0313 19.5603 10.0037C19.499 9.97603 19.4327 9.96114 19.3654 9.95989C19.0672 9.95145 18.8862 10.1371 18.8477 10.4945C18.8459 10.5529 18.8403 10.6112 18.8308 10.6689C18.7614 10.9427 18.8205 11.1097 19.1244 11.03L19.1291 11.0309Z" fill="#805BEA"/>
<path d="M10.3355 26.6726C9.4136 26.6726 8.4917 26.6726 7.5698 26.6726C7.13839 26.6726 6.92175 26.4991 6.91331 26.1662C6.90487 25.8333 7.13558 25.6176 7.5698 25.6176C9.4261 25.6138 11.2821 25.6138 13.1378 25.6176C13.5607 25.6176 13.814 25.8361 13.8018 26.1681C13.7896 26.5001 13.5542 26.6717 13.135 26.6726C12.2034 26.6739 11.2702 26.6739 10.3355 26.6726Z" fill="#805BEA"/>
<path d="M23.3797 26.6726C22.4419 26.6726 21.5125 26.6726 20.5784 26.6726C20.1638 26.6726 19.9219 26.4851 19.9219 26.1606C19.9219 25.8361 20.1657 25.6176 20.5934 25.6176C22.4497 25.6138 24.3057 25.6138 26.1613 25.6176C26.5806 25.6176 26.8066 25.8051 26.8131 26.1371C26.8206 26.4869 26.5974 26.6708 26.1501 26.6726C25.2235 26.6745 24.3016 26.6726 23.3797 26.6726Z" fill="#805BEA"/>
<path d="M10.3559 21.5286C9.4181 21.5286 8.4887 21.5286 7.55461 21.5286C7.13352 21.5286 6.91406 21.3411 6.91406 21.0053C6.91406 20.6696 7.1429 20.4726 7.55273 20.4717C9.42092 20.4717 11.2888 20.4717 13.1563 20.4717C13.5587 20.4717 13.8035 20.6818 13.8044 21.0034C13.8053 21.3251 13.5624 21.5277 13.1573 21.5286C12.2241 21.5314 11.29 21.5286 10.3559 21.5286Z" fill="#805BEA"/>
<path d="M23.3499 21.5286C22.427 21.5286 21.5051 21.5286 20.5832 21.5286C20.1697 21.5286 19.9268 21.3411 19.9193 21.0203C19.9089 20.6855 20.1603 20.4717 20.5842 20.4717C22.4411 20.4717 24.2974 20.4717 26.1531 20.4717C26.5704 20.4717 26.8011 20.6592 26.8096 20.9884C26.819 21.3364 26.5911 21.5277 26.1531 21.5286C25.2171 21.5305 24.283 21.5286 23.3499 21.5286Z" fill="#805BEA"/>
<path d="M10.3731 23.0531C11.295 23.0531 12.2169 23.0531 13.1398 23.0531C13.5533 23.0531 13.7962 23.2406 13.8037 23.5605C13.8112 23.8803 13.5618 24.1072 13.1379 24.1082H7.5699C7.13849 24.1082 6.90309 23.9056 6.91341 23.5586C6.92373 23.2116 7.13849 23.054 7.5699 23.0531C8.50493 23.0512 9.43902 23.0531 10.3731 23.0531Z" fill="#805BEA"/>
<path d="M23.35 23.0531C24.2879 23.0531 25.2182 23.0531 26.1523 23.0531C26.5837 23.0531 26.7985 23.2238 26.8088 23.5595C26.8191 23.8953 26.5837 24.1072 26.1523 24.1082H20.5843C20.1604 24.1082 19.9082 23.8943 19.9203 23.5586C19.9316 23.2397 20.1707 23.054 20.5853 23.0531C21.5062 23.0512 22.4281 23.0531 23.35 23.0531Z" fill="#805BEA"/>
<path d="M9.03969 18.8443C8.22283 18.8443 7.40597 18.8443 6.58911 18.8443C6.19147 18.8443 5.94669 18.6332 5.95325 18.3097C5.95982 17.9861 6.19522 17.7929 6.57411 17.792C8.24221 17.792 9.91064 17.792 11.5794 17.792C11.9592 17.792 12.1908 17.9964 12.1955 18.3116C12.1955 18.6417 11.9639 18.8433 11.5587 18.8452C10.7194 18.8443 9.87906 18.8443 9.03969 18.8443Z" fill="#805BEA"/>
<path d="M24.6467 18.8443C23.8186 18.8443 22.9905 18.8443 22.1624 18.8443C21.7573 18.8443 21.5228 18.6407 21.5284 18.3097C21.534 17.9946 21.7657 17.7929 22.1465 17.792C23.8152 17.792 25.4833 17.792 27.1508 17.792C27.5259 17.792 27.7651 17.9993 27.7707 18.3116C27.7763 18.6239 27.5316 18.8443 27.132 18.8443C26.3039 18.8443 25.4758 18.8443 24.6467 18.8443Z" fill="#805BEA"/>
<path d="M27.7699 7.81883C27.7615 8.2268 27.2944 8.49314 26.9634 8.24086C26.5205 7.89891 26.0987 7.5306 25.7001 7.13796C25.506 6.95039 25.5125 6.68404 25.6898 6.46834C25.867 6.25264 26.1221 6.17198 26.3463 6.34642C26.8021 6.70749 27.2288 7.10607 27.6592 7.49715C27.6999 7.53958 27.7308 7.59031 27.7499 7.64585C27.769 7.70138 27.7758 7.7604 27.7699 7.81883Z" fill="#805BEA"/>
<path d="M8.14739 6.81046C8.14854 6.88101 8.13458 6.951 8.10643 7.0157C8.07828 7.08041 8.0366 7.13834 7.9842 7.1856C7.60062 7.52697 7.22267 7.87397 6.82878 8.20222C6.77753 8.25102 6.71667 8.2886 6.65009 8.31256C6.5835 8.33653 6.51265 8.34635 6.44206 8.34141C6.37147 8.33647 6.30268 8.31687 6.24008 8.28386C6.17749 8.25085 6.12246 8.20516 6.0785 8.1497C5.88343 7.92087 5.89938 7.63389 6.1479 7.40411C6.51648 7.06368 6.89818 6.73637 7.27332 6.40906C7.34877 6.33431 7.44653 6.28619 7.55179 6.27197C7.65705 6.25776 7.76407 6.27823 7.85665 6.33028C7.94745 6.37223 8.02365 6.44035 8.07545 6.52591C8.12726 6.61147 8.1523 6.71056 8.14739 6.81046Z" fill="#805BEA"/>
<path d="M6.48463 1.95285C6.5592 1.95174 6.6332 1.96608 6.70196 1.99497C6.77072 2.02386 6.83275 2.06668 6.88415 2.12072C7.23303 2.42927 7.58753 2.7322 7.93172 3.04638C8.18963 3.28177 8.22151 3.59501 8.03019 3.82103C7.83887 4.04705 7.52563 4.07894 7.25554 3.85198C6.8804 3.53687 6.51651 3.20956 6.15263 2.88225C5.97444 2.72188 5.89473 2.52306 5.99226 2.28579C6.02685 2.18422 6.09366 2.09674 6.18254 2.03664C6.27142 1.97655 6.37749 1.94712 6.48463 1.95285Z" fill="#805BEA"/>
<path d="M27.7719 2.45341C27.7699 2.54268 27.748 2.63037 27.708 2.71017C27.6679 2.78996 27.6106 2.85987 27.5403 2.91483C27.1895 3.22151 26.8453 3.53568 26.4889 3.83673C26.2076 4.07869 25.8906 4.06275 25.688 3.81328C25.5004 3.58351 25.5398 3.27496 25.7996 3.03956C26.1635 2.71257 26.5315 2.38995 26.9035 2.07171C26.9823 2.00068 27.0816 1.95651 27.1871 1.94555C27.2926 1.93459 27.3989 1.95742 27.4906 2.01075C27.5733 2.05199 27.6432 2.11499 27.6927 2.19299C27.7423 2.27099 27.7697 2.36102 27.7719 2.45341Z" fill="#805BEA"/>
</svg>
