<svg width="42" height="36" viewBox="0 0 42 36" fill="none" xmlns="http://www.w3.org/2000/svg">
<path d="M0.0043454 7.8444C0.11304 7.8194 0.0913009 7.71831 0.119562 7.64984C0.514123 6.65963 1.26955 6.13789 2.34563 6.13681C5.42604 6.13681 8.50572 6.13681 11.5847 6.13681H22.4541C24.102 6.13681 24.978 7.01832 24.9791 8.67591C24.9791 9.65417 24.9791 10.6324 24.9791 11.602C24.9791 11.7291 24.9346 11.8661 25.0802 12.0715C25.1756 11.9354 25.279 11.8051 25.39 11.6813C28.9291 8.1444 32.4704 4.60964 36.0138 1.07706C37.2508 -0.155534 38.9627 -0.34575 40.3051 0.58685C40.986 1.04765 41.4632 1.75299 41.6377 2.5564C41.6518 2.61836 41.6312 2.69553 41.7181 2.72162V3.94117C41.6301 3.95856 41.6344 4.03465 41.6181 4.0966C41.4388 4.75529 41.066 5.29224 40.5844 5.76724C38.2931 8.04331 36.0066 10.3234 33.7247 12.6074C33.6225 12.7096 33.5073 12.8031 33.3225 12.9791C34.4508 12.9791 35.4617 12.9715 36.4747 12.9791C37.5312 12.9889 38.3823 13.6248 38.6638 14.5987C38.732 14.8612 38.7631 15.1319 38.7562 15.403C38.7562 20.0407 38.7562 24.6761 38.7562 29.3094C38.7562 30.8007 37.8301 31.7214 36.3453 31.7279C35.7888 31.7279 35.2312 31.7442 34.6747 31.7214C34.3834 31.7094 34.2812 31.7692 34.2888 32.0898C34.3138 33.1192 34.3019 34.155 34.2964 35.18C34.2964 35.9257 33.8106 36.2083 33.1671 35.8376C30.9135 34.542 28.6617 33.2431 26.4117 31.9409C26.1686 31.7961 25.8904 31.7208 25.6074 31.7235C22.4973 31.7322 19.3872 31.7341 16.277 31.729C14.677 31.729 13.7771 30.8322 13.7771 29.2464C13.7771 27.9181 13.764 26.5888 13.7857 25.2616C13.7912 24.929 13.6825 24.8758 13.3814 24.8682C12.9629 24.8548 12.5498 24.9648 12.1934 25.1845C10.0423 26.441 7.87928 27.6768 5.7206 28.9203C5.64995 28.9616 5.58256 29.0062 5.51082 29.0442C4.95973 29.3312 4.48039 29.0616 4.47387 28.4442C4.463 27.3736 4.45974 26.3029 4.47387 25.2323C4.47387 24.9421 4.388 24.8638 4.10757 24.8736C3.53692 24.8932 2.96628 24.8845 2.39563 24.8736C1.18477 24.8584 0.496735 24.3627 0.0749996 23.2149C0.0630432 23.1823 0.0260867 23.1584 0 23.1301L0.0043454 7.8444ZM23.6661 21.1725C22.3618 21.6486 21.1172 22.0997 19.8759 22.5584C19.564 22.6736 19.2661 22.716 19.0064 22.4497C18.7466 22.1834 18.8096 21.891 18.9379 21.5802C19.59 20.0095 20.265 18.4454 20.8813 16.8595C21.1976 16.0476 21.6183 15.3378 22.2846 14.7693C22.7052 14.4085 23.0705 13.9835 23.4715 13.5987C23.5412 13.5364 23.5959 13.4592 23.6317 13.3728C23.6674 13.2864 23.6833 13.1931 23.6781 13.0998C23.6715 11.5694 23.6781 10.0379 23.6715 8.50635C23.6715 7.77592 23.3204 7.43571 22.5933 7.43571C15.8593 7.43571 9.12564 7.43571 2.39237 7.43571C1.65541 7.43571 1.30542 7.79222 1.30542 8.5357C1.30542 13.1835 1.30542 17.8309 1.30542 22.478C1.30542 23.2323 1.6315 23.5649 2.40106 23.5649C3.22932 23.5725 4.05757 23.5649 4.88582 23.5649C5.55429 23.5649 5.76843 23.7823 5.77169 24.4345C5.77169 24.9779 5.77169 25.5214 5.77169 26.0649V27.3812C7.87928 26.166 9.91948 24.9899 11.9542 23.8106C12.2337 23.645 12.5534 23.56 12.8781 23.5649C16.0419 23.5722 19.2053 23.5722 22.3683 23.5649C22.5173 23.5678 22.6664 23.5631 22.815 23.5508C23.302 23.5019 23.6248 23.2062 23.6552 22.7193C23.6857 22.2323 23.6661 21.7301 23.6661 21.1725ZM28.8834 17.4476H29.3791C30.7236 17.4476 32.0682 17.4476 33.4128 17.4476C33.7573 17.4476 34.0301 17.5563 34.1497 17.8965C34.3095 18.3563 33.9801 18.7476 33.4247 18.7497C31.8356 18.7497 30.2454 18.7976 28.6584 18.7313C27.8715 18.6987 27.2976 18.8976 26.8009 19.5073C26.4476 19.9421 26.0704 20.4008 25.465 20.5171C25.078 20.5921 24.9367 20.7878 24.9748 21.1867C25.0139 21.603 24.9846 22.0269 24.9824 22.4464C24.9737 23.9682 24.0802 24.8725 22.552 24.8779C20.2158 24.8866 17.8799 24.8866 15.5444 24.8779C15.1933 24.8779 15.0607 24.9356 15.0694 25.329C15.0988 26.616 15.0803 27.904 15.0803 29.192C15.0803 30.1279 15.3857 30.4344 16.3194 30.4344C19.5114 30.4344 22.7031 30.4344 25.8943 30.4344C26.219 30.4311 26.5382 30.5172 26.8172 30.6833C28.7599 31.8138 30.707 32.9369 32.6584 34.0529C32.7573 34.1105 32.8432 34.2192 32.9986 34.1746C32.9986 33.1877 32.9986 32.1996 32.9986 31.2116C32.9986 30.6736 33.216 30.4507 33.7595 30.4431C34.5747 30.4355 35.3899 30.4431 36.204 30.4431C37.141 30.4431 37.4519 30.1355 37.4519 29.2062C37.4519 26.3736 37.4519 23.5406 37.4519 20.7073C37.4519 18.9323 37.4519 17.1563 37.4519 15.3813C37.4519 14.6552 37.0932 14.2998 36.379 14.2943C35.0204 14.2889 33.6617 14.2943 32.3041 14.2943C32.2314 14.2874 32.1582 14.2966 32.0896 14.3214C32.0209 14.3463 31.9587 14.386 31.9073 14.4378C30.9313 15.4117 29.941 16.3954 28.8878 17.4476H28.8834ZM36.9269 3.86834C36.8769 3.81074 36.8366 3.75965 36.7921 3.71291C36.631 3.56761 36.4786 3.413 36.3356 3.24987C36.1182 2.97161 35.9627 2.96074 35.6899 3.23357C31.6602 7.27701 27.6226 11.3118 23.577 15.3378C23.3487 15.5672 22.9596 15.7954 22.9476 16.04C22.9335 16.3291 23.3737 16.5172 23.5857 16.778C23.7259 16.9508 23.8237 16.9628 23.9954 16.7911C28.2411 12.5433 32.491 8.2991 36.7453 4.05856C36.8051 3.99878 36.8584 3.94334 36.9301 3.86834H36.9269ZM38.7812 5.70637C38.729 5.65202 38.6866 5.6042 38.641 5.55963C38.4697 5.40527 38.3082 5.24046 38.1573 5.06616C37.9486 4.79443 37.8084 4.82269 37.5682 5.06616C33.5175 9.1241 29.4595 13.1784 25.3943 17.2291C25.177 17.4465 24.802 17.6791 24.803 17.903C24.8041 18.1269 25.1987 18.3378 25.3889 18.5845C25.5791 18.8313 25.7041 18.7921 25.9117 18.5845C27.9668 16.5172 30.0291 14.4559 32.0986 12.4009L38.5192 5.98789C38.6084 5.90094 38.6877 5.81072 38.7845 5.70637H38.7812ZM38.4551 1.31402C37.9765 1.30982 37.5128 1.48024 37.1508 1.79336C36.9671 1.94336 36.9334 2.04119 37.1301 2.22814C37.929 3.00096 38.7192 3.78465 39.491 4.58465C39.7018 4.80203 39.8051 4.73356 39.9529 4.54551C40.4562 3.90095 40.5768 3.19444 40.2344 2.45205C39.892 1.70967 39.2823 1.33902 38.4627 1.31402H38.4551ZM20.6487 20.8878L24.4628 19.4943C23.7183 18.7487 23.0118 18.0432 22.3096 17.3345C22.1802 17.2041 22.1368 17.2845 22.0922 17.4019C21.6216 18.5356 21.152 19.6693 20.6487 20.8878Z" fill="#272727"/>
<path d="M10.5948 15.5205C10.5922 15.2697 10.6396 15.0209 10.7342 14.7886C10.8288 14.5562 10.9687 14.3451 11.1458 14.1674C11.3228 13.9897 11.5335 13.8491 11.7655 13.7537C11.9975 13.6583 12.2462 13.6101 12.497 13.6119C12.9966 13.6121 13.476 13.8091 13.8314 14.1603C14.1868 14.5114 14.3896 14.9884 14.3959 15.4879C14.3967 15.9949 14.1963 16.4815 13.8386 16.8408C13.481 17.2001 12.9953 17.4028 12.4883 17.4042C11.9886 17.4017 11.5099 17.2027 11.1557 16.8503C10.8014 16.4978 10.6 16.0202 10.5948 15.5205ZM13.0948 15.5205C13.0975 15.3645 13.0393 15.2136 12.9326 15.0997C12.8259 14.9859 12.679 14.9181 12.5231 14.9108C12.3674 14.9027 12.2148 14.9562 12.0983 15.0597C11.9817 15.1633 11.9106 15.3085 11.9003 15.464C11.8945 15.5445 11.9052 15.6254 11.9318 15.7016C11.9585 15.7777 12.0004 15.8477 12.0551 15.907C12.1098 15.9664 12.1761 16.014 12.2498 16.0467C12.3236 16.0795 12.4032 16.0969 12.4839 16.0977C12.6394 16.098 12.7891 16.0391 12.9026 15.9328C13.0161 15.8266 13.0848 15.6811 13.0948 15.526V15.5205Z" fill="#272727"/>
<path d="M8.81374 15.5095C8.81389 15.7605 8.76428 16.009 8.66774 16.2407C8.57121 16.4723 8.42969 16.6825 8.25137 16.8591C8.07305 17.0358 7.86147 17.1752 7.62888 17.2695C7.39629 17.3638 7.14732 17.411 6.89636 17.4084C6.39642 17.4016 5.91934 17.1979 5.56856 16.8416C5.21777 16.4853 5.02156 16.0052 5.02246 15.5052C5.02188 15.0054 5.2195 14.5257 5.57199 14.1714C5.92449 13.8171 6.40309 13.617 6.90288 13.615C7.15352 13.6111 7.40242 13.6573 7.63496 13.7509C7.86749 13.8445 8.07898 13.9836 8.25699 14.1601C8.43501 14.3366 8.57595 14.5469 8.67156 14.7786C8.76717 15.0104 8.81551 15.2589 8.81374 15.5095ZM6.9018 14.9161C6.82377 14.9176 6.74683 14.9347 6.67548 14.9663C6.60413 14.9979 6.53981 15.0434 6.48627 15.1002C6.43273 15.157 6.39105 15.2239 6.36367 15.297C6.33629 15.37 6.32375 15.4478 6.3268 15.5258C6.32919 15.6039 6.34695 15.6808 6.37906 15.752C6.41117 15.8232 6.457 15.8874 6.51393 15.9409C6.57087 15.9944 6.63778 16.0362 6.71086 16.0638C6.78394 16.0914 6.86175 16.1044 6.93984 16.1019C7.01788 16.1001 7.09476 16.0827 7.16597 16.0507C7.23717 16.0188 7.30126 15.9729 7.35444 15.9157C7.40762 15.8586 7.44882 15.7914 7.47563 15.7181C7.50243 15.6448 7.51428 15.5668 7.51049 15.4889C7.50926 15.4109 7.49241 15.3341 7.46093 15.2628C7.42945 15.1915 7.38399 15.1272 7.32723 15.0738C7.27047 15.0204 7.20358 14.9789 7.1305 14.9518C7.05743 14.9247 6.97966 14.9126 6.9018 14.9161Z" fill="#272727"/>
<path d="M19.967 15.5205C19.9646 15.7715 19.9127 16.0197 19.8143 16.2507C19.7159 16.4817 19.5729 16.691 19.3935 16.8667C19.2141 17.0423 19.0018 17.1809 18.7688 17.2744C18.5357 17.368 18.2866 17.4146 18.0355 17.4118C17.0062 17.3976 16.142 16.5194 16.1594 15.5031C16.1623 15.252 16.2147 15.004 16.3137 14.7733C16.4127 14.5425 16.5563 14.3336 16.7363 14.1586C16.9163 13.9835 17.1291 13.8458 17.3625 13.7532C17.5959 13.6607 17.8453 13.6152 18.0964 13.6194C18.5959 13.6254 19.0728 13.8286 19.4232 14.1847C19.7736 14.5408 19.9691 15.0209 19.967 15.5205ZM18.0594 16.1085C18.2157 16.1092 18.3661 16.0494 18.4792 15.9416C18.5923 15.8338 18.6592 15.6863 18.6659 15.5303C18.6695 15.3743 18.6119 15.2232 18.5055 15.1093C18.399 14.9953 18.2522 14.9275 18.0964 14.9205C18.0157 14.9167 17.9351 14.9291 17.8594 14.9571C17.7836 14.985 17.7142 15.0278 17.6553 15.0831C17.5964 15.1383 17.5492 15.2048 17.5165 15.2787C17.4838 15.3525 17.4662 15.4321 17.4649 15.5129C17.4713 15.6682 17.5361 15.8153 17.6464 15.9249C17.7566 16.0345 17.9041 16.0986 18.0594 16.1042V16.1085Z" fill="#272727"/>
<path d="M27.3849 26.757C29.3414 26.757 31.2979 26.757 33.2544 26.757C33.4035 26.7513 33.5528 26.7604 33.7001 26.7842C33.843 26.8078 33.9721 26.8833 34.0628 26.9962C34.1534 27.1092 34.1992 27.2516 34.1914 27.3962C34.2028 27.5333 34.1654 27.6701 34.0859 27.7824C34.0064 27.8948 33.8898 27.9754 33.7566 28.0103C33.5984 28.0486 33.4356 28.0647 33.2729 28.0581C29.3599 28.0581 25.4498 28.0581 21.5426 28.0581C21.3935 28.0637 21.2443 28.0517 21.098 28.0222C20.7611 27.9429 20.598 27.7114 20.6111 27.3701C20.6075 27.2266 20.6574 27.0869 20.7509 26.978C20.8445 26.8692 20.9752 26.7989 21.1176 26.7809C21.2651 26.7597 21.4143 26.752 21.5632 26.7581C23.5024 26.7559 25.4429 26.7556 27.3849 26.757Z" fill="#272727"/>
<path d="M30.5859 23.3993C29.6641 23.3993 28.7381 23.3993 27.8207 23.3993C27.3283 23.3993 27.0533 23.1624 27.0479 22.7635C27.0479 22.3461 27.3261 22.1004 27.8402 22.1004C29.6982 22.0961 31.5554 22.0961 33.4119 22.1004C33.7869 22.1004 34.0837 22.2211 34.1728 22.6265C34.2391 22.9417 34.1141 23.1787 33.8326 23.3352C33.6815 23.4178 33.5174 23.4015 33.3565 23.4026C32.4319 23.4019 31.5083 23.4008 30.5859 23.3993Z" fill="#272727"/>
</svg>
