<svg width="1004" height="222" viewBox="0 0 1004 222" fill="none" xmlns="http://www.w3.org/2000/svg">
<path d="M0 121.256H220.864C218.286 148.759 205.537 174.31 185.112 192.908C164.687 211.507 138.056 221.813 110.432 221.81C82.8083 221.813 56.1778 211.507 35.7527 192.908C15.3275 174.31 2.57822 148.759 0 121.256Z" fill="#805BEA"/>
<g style="mix-blend-mode:multiply">
<path d="M220.864 100.554H0C2.57822 73.0509 15.3275 47.4998 35.7527 28.9017C56.1778 10.3036 82.8083 -0.00271807 110.432 5.37703e-07C138.056 -0.00271807 164.687 10.3036 185.112 28.9017C205.537 47.4998 218.286 73.0509 220.864 100.554Z" fill="#DAD9D9"/>
</g>
<g filter="url(#filter0_f_9635_6210)">
<path d="M113.415 199.876C160.375 199.876 198.443 161.808 198.443 114.849C198.443 67.8894 160.375 29.8213 113.415 29.8213C66.4558 29.8213 28.3877 67.8894 28.3877 114.849C28.3877 161.808 66.4558 199.876 113.415 199.876Z" fill="#3D3D3D" fill-opacity="0.6"/>
</g>
<path d="M111.027 195.9C157.987 195.9 196.055 157.832 196.055 110.872C196.055 63.9128 157.987 25.8447 111.027 25.8447C64.0681 25.8447 26 63.9128 26 110.872C26 157.832 64.0681 195.9 111.027 195.9Z" fill="#FCFCFC"/>
<path d="M416.864 100.555L196 100.555C198.578 73.0515 211.327 47.5003 231.753 28.9022C252.178 10.3041 278.808 -0.00222334 306.432 0.000490306C334.056 -0.00222817 360.686 10.304 381.112 28.9022C401.537 47.5003 414.286 73.0514 416.864 100.555Z" fill="#805BEA"/>
<g style="mix-blend-mode:multiply">
<path d="M196 121.256L416.864 121.256C414.286 148.76 401.537 174.311 381.112 192.909C360.686 211.507 334.056 221.813 306.432 221.811C278.808 221.813 252.178 211.507 231.753 192.909C211.327 174.311 198.578 148.76 196 121.256Z" fill="#DAD9D9"/>
</g>
<g filter="url(#filter1_f_9635_6210)">
<path d="M308.493 199.877C355.453 199.877 393.521 161.809 393.521 114.85C393.521 67.8904 355.453 29.8223 308.493 29.8223C261.534 29.8223 223.466 67.8904 223.466 114.85C223.466 161.809 261.534 199.877 308.493 199.877Z" fill="#3D3D3D" fill-opacity="0.6"/>
</g>
<path d="M307.027 195.901C353.987 195.901 392.055 157.833 392.055 110.873C392.055 63.9138 353.987 25.8457 307.027 25.8457C260.068 25.8457 222 63.9138 222 110.873C222 157.833 260.068 195.901 307.027 195.901Z" fill="#FCFCFC"/>
<path d="M807.864 100.555L587 100.555C589.578 73.0515 602.327 47.5003 622.753 28.9022C643.178 10.3041 669.808 -0.00222334 697.432 0.000490306C725.056 -0.00222817 751.686 10.304 772.112 28.9022C792.537 47.5003 805.286 73.0514 807.864 100.555Z" fill="#805BEA"/>
<g style="mix-blend-mode:multiply">
<path d="M587 121.256L807.864 121.256C805.286 148.76 792.537 174.311 772.112 192.909C751.686 211.507 725.056 221.813 697.432 221.811C669.808 221.813 643.178 211.507 622.753 192.909C602.327 174.311 589.578 148.76 587 121.256Z" fill="#DAD9D9"/>
</g>
<g filter="url(#filter2_f_9635_6210)">
<path d="M699.493 199.877C746.453 199.877 784.521 161.809 784.521 114.85C784.521 67.8904 746.453 29.8223 699.493 29.8223C652.534 29.8223 614.466 67.8904 614.466 114.85C614.466 161.809 652.534 199.877 699.493 199.877Z" fill="#3D3D3D" fill-opacity="0.6"/>
</g>
<path d="M698.027 195.901C744.987 195.901 783.055 157.833 783.055 110.873C783.055 63.9138 744.987 25.8457 698.027 25.8457C651.068 25.8457 613 63.9138 613 110.873C613 157.833 651.068 195.901 698.027 195.901Z" fill="#FCFCFC"/>
<path d="M392 121.256H612.864C610.286 148.759 597.537 174.31 577.112 192.908C556.687 211.507 530.056 221.813 502.432 221.81C474.808 221.813 448.178 211.507 427.753 192.908C407.328 174.31 394.578 148.759 392 121.256Z" fill="#805BEA"/>
<g style="mix-blend-mode:multiply">
<path d="M612.864 100.554H392C394.578 73.0509 407.328 47.4998 427.753 28.9017C448.178 10.3036 474.808 -0.00271807 502.432 5.37703e-07C530.056 -0.00271807 556.687 10.3036 577.112 28.9017C597.537 47.4998 610.286 73.0509 612.864 100.554Z" fill="#DAD9D9"/>
</g>
<g filter="url(#filter3_f_9635_6210)">
<path d="M505.415 199.908C552.375 199.908 590.443 161.84 590.443 114.881C590.443 67.9216 552.375 29.8535 505.415 29.8535C458.456 29.8535 420.388 67.9216 420.388 114.881C420.388 161.84 458.456 199.908 505.415 199.908Z" fill="#3D3D3D" fill-opacity="0.6"/>
</g>
<path d="M503.027 195.9C549.987 195.9 588.055 157.832 588.055 110.872C588.055 63.9128 549.987 25.8447 503.027 25.8447C456.068 25.8447 418 63.9128 418 110.872C418 157.832 456.068 195.9 503.027 195.9Z" fill="#FCFCFC"/>
<path d="M783 121.256H1003.86C1001.29 148.759 988.537 174.31 968.112 192.908C947.687 211.507 921.056 221.813 893.432 221.81C865.808 221.813 839.178 211.507 818.753 192.908C798.328 174.31 785.578 148.759 783 121.256Z" fill="#805BEA"/>
<g style="mix-blend-mode:multiply">
<path d="M1003.86 100.554H783C785.578 73.0509 798.328 47.4998 818.753 28.9017C839.178 10.3036 865.808 -0.00271807 893.432 5.37703e-07C921.056 -0.00271807 947.687 10.3036 968.112 28.9017C988.537 47.4998 1001.29 73.0509 1003.86 100.554Z" fill="#DAD9D9"/>
</g>
<g filter="url(#filter4_f_9635_6210)">
<path d="M896.415 199.908C943.375 199.908 981.443 161.84 981.443 114.881C981.443 67.9216 943.375 29.8535 896.415 29.8535C849.456 29.8535 811.388 67.9216 811.388 114.881C811.388 161.84 849.456 199.908 896.415 199.908Z" fill="#3D3D3D" fill-opacity="0.6"/>
</g>
<path d="M894.027 195.9C940.987 195.9 979.055 157.832 979.055 110.872C979.055 63.9128 940.987 25.8447 894.027 25.8447C847.068 25.8447 809 63.9128 809 110.872C809 157.832 847.068 195.9 894.027 195.9Z" fill="#FCFCFC"/>
<path d="M79.0066 80.2467C79.1716 80.2088 79.1386 80.0553 79.1815 79.9513C79.7806 78.4478 80.9277 77.6556 82.5616 77.654C87.2388 77.654 91.9149 77.654 96.59 77.654H113.094C115.596 77.654 116.926 78.9924 116.928 81.5093C116.928 82.9947 116.928 84.48 116.928 85.9522C116.928 86.1453 116.86 86.3532 117.081 86.6651C117.226 86.4584 117.383 86.2605 117.552 86.0727C122.925 80.7022 128.302 75.3351 133.683 69.9713C135.561 68.0998 138.16 67.811 140.199 69.227C141.232 69.9267 141.957 70.9976 142.222 72.2175C142.243 72.3116 142.212 72.4288 142.344 72.4684V74.3201C142.21 74.3465 142.217 74.4621 142.192 74.5561C141.92 75.5563 141.354 76.3716 140.623 77.0928C137.144 80.5488 133.672 84.0108 130.207 87.4788C130.052 87.6339 129.877 87.7759 129.596 88.0432C131.309 88.0432 132.844 88.0317 134.383 88.0432C135.987 88.0581 137.279 89.0236 137.706 90.5023C137.81 90.9009 137.857 91.312 137.847 91.7236C137.847 98.7653 137.847 105.804 137.847 112.839C137.847 115.103 136.441 116.501 134.186 116.511C133.341 116.511 132.494 116.536 131.649 116.501C131.207 116.483 131.052 116.574 131.064 117.061C131.102 118.624 131.083 120.196 131.075 121.753C131.075 122.885 130.337 123.314 129.36 122.751C125.939 120.784 122.519 118.812 119.103 116.834C118.734 116.615 118.311 116.5 117.882 116.504C113.159 116.518 108.437 116.52 103.715 116.513C101.285 116.513 99.9188 115.151 99.9188 112.743C99.9188 110.726 99.899 108.708 99.932 106.693C99.9403 106.188 99.7753 106.107 99.3181 106.095C98.6827 106.075 98.0554 106.242 97.5142 106.576C94.2481 108.483 90.9638 110.36 87.6861 112.248C87.5788 112.311 87.4765 112.378 87.3675 112.436C86.5308 112.872 85.803 112.463 85.793 111.525C85.7765 109.899 85.7716 108.274 85.793 106.648C85.793 106.208 85.6627 106.089 85.2369 106.104C84.3704 106.133 83.5039 106.12 82.6375 106.104C80.7989 106.08 79.7542 105.328 79.1139 103.585C79.0957 103.536 79.0396 103.499 79 103.456L79.0066 80.2467ZM114.934 100.484C112.954 101.207 111.064 101.892 109.179 102.588C108.706 102.763 108.253 102.828 107.859 102.423C107.464 102.019 107.56 101.575 107.755 101.103C108.745 98.718 109.77 96.3431 110.706 93.9352C111.186 92.7023 111.825 91.6246 112.837 90.7614C113.475 90.2135 114.03 89.5682 114.639 88.984C114.745 88.8893 114.828 88.7721 114.882 88.6409C114.936 88.5098 114.96 88.3681 114.952 88.2264C114.942 85.9027 114.952 83.5772 114.942 81.2518C114.942 80.1428 114.409 79.6262 113.305 79.6262C103.08 79.6262 92.8562 79.6262 82.6325 79.6262C81.5136 79.6262 80.9821 80.1675 80.9821 81.2964C80.9821 88.3535 80.9821 95.4101 80.9821 102.466C80.9821 103.611 81.4772 104.116 82.6457 104.116C83.9033 104.128 85.1609 104.116 86.4185 104.116C87.4335 104.116 87.7587 104.447 87.7636 105.437C87.7636 106.262 87.7636 107.087 87.7636 107.912V109.911C90.9638 108.066 94.0616 106.28 97.1511 104.489C97.5754 104.238 98.0609 104.109 98.554 104.116C103.358 104.127 108.161 104.127 112.964 104.116C113.19 104.121 113.416 104.114 113.642 104.095C114.381 104.021 114.871 103.572 114.918 102.832C114.964 102.093 114.934 101.331 114.934 100.484ZM122.856 94.828H123.609C125.65 94.828 127.692 94.828 129.733 94.828C130.257 94.828 130.671 94.9931 130.852 95.5096C131.095 96.2078 130.595 96.8019 129.751 96.8052C127.339 96.8052 124.924 96.8778 122.514 96.7772C121.32 96.7276 120.448 97.0297 119.694 97.9555C119.158 98.6157 118.585 99.3122 117.666 99.4888C117.078 99.6026 116.864 99.8997 116.921 100.505C116.981 101.138 116.936 101.781 116.933 102.418C116.92 104.729 115.563 106.102 113.243 106.11C109.695 106.123 106.149 106.123 102.602 106.11C102.069 106.11 101.868 106.198 101.881 106.795C101.926 108.749 101.898 110.705 101.898 112.661C101.898 114.082 102.361 114.547 103.779 114.547C108.626 114.547 113.472 114.547 118.318 114.547C118.81 114.542 119.295 114.673 119.719 114.925C122.669 116.641 125.625 118.347 128.588 120.041C128.738 120.129 128.869 120.294 129.105 120.226C129.105 118.727 129.105 117.227 129.105 115.727C129.105 114.91 129.435 114.572 130.26 114.56C131.498 114.549 132.735 114.56 133.972 114.56C135.394 114.56 135.866 114.093 135.866 112.682C135.866 108.381 135.866 104.08 135.866 99.7776C135.866 97.0825 135.866 94.3857 135.866 91.6906C135.866 90.5881 135.322 90.0485 134.237 90.0402C132.174 90.032 130.111 90.0402 128.05 90.0402C127.94 90.0296 127.828 90.0437 127.724 90.0814C127.62 90.119 127.526 90.1794 127.448 90.2581C125.965 91.7368 124.462 93.2304 122.863 94.828H122.856ZM135.069 74.2096C134.993 74.1221 134.932 74.0445 134.864 73.9736C134.62 73.7529 134.388 73.5182 134.171 73.2705C133.841 72.848 133.605 72.8315 133.191 73.2457C127.072 79.3852 120.942 85.5115 114.799 91.6246C114.452 91.9728 113.861 92.3194 113.843 92.6908C113.822 93.1298 114.49 93.4153 114.812 93.8114C115.025 94.0738 115.173 94.092 115.434 93.8312C121.881 87.3814 128.334 80.9372 134.793 74.4984C134.884 74.4076 134.965 74.3234 135.074 74.2096H135.069ZM137.885 77.0004C137.805 76.9179 137.741 76.8453 137.672 76.7776C137.412 76.5432 137.166 76.293 136.937 76.0283C136.62 75.6157 136.408 75.6586 136.043 76.0283C129.892 82.1898 123.731 88.3458 117.558 94.4963C117.228 94.8264 116.659 95.1796 116.661 95.5196C116.662 95.8595 117.261 96.1797 117.55 96.5544C117.839 96.929 118.029 96.8696 118.344 96.5544C121.464 93.4153 124.596 90.2856 127.738 87.1652L137.487 77.4278C137.622 77.2958 137.743 77.1588 137.89 77.0004H137.885ZM137.39 70.3311C136.663 70.3247 135.959 70.5835 135.409 71.0589C135.13 71.2867 135.079 71.4352 135.378 71.7191C136.591 72.8925 137.791 74.0825 138.962 75.2972C139.283 75.6273 139.439 75.5233 139.664 75.2378C140.428 74.2591 140.611 73.1863 140.091 72.0591C139.571 70.9319 138.646 70.3691 137.401 70.3311H137.39ZM110.353 100.052L116.144 97.9357C115.013 96.8036 113.941 95.7325 112.874 94.6564C112.678 94.4583 112.612 94.5805 112.544 94.7587C111.83 96.4801 111.117 98.2015 110.353 100.052Z" fill="#3C3C3C"/>
<path d="M95.088 91.9021C95.0841 91.5212 95.156 91.1434 95.2996 90.7907C95.4433 90.4379 95.6557 90.1173 95.9246 89.8475C96.1934 89.5777 96.5133 89.3642 96.8656 89.2194C97.2178 89.0745 97.5954 89.0013 97.9762 89.004C98.7348 89.0043 99.4628 89.3035 100.002 89.8366C100.542 90.3698 100.85 91.094 100.859 91.8526C100.861 92.6224 100.556 93.3612 100.013 93.9068C99.4703 94.4524 98.7328 94.76 97.963 94.7622C97.2043 94.7584 96.4775 94.4563 95.9396 93.9211C95.4017 93.386 95.0958 92.6608 95.088 91.9021ZM98.884 91.9021C98.8881 91.6652 98.7997 91.436 98.6377 91.2631C98.4756 91.0902 98.2526 90.9873 98.0159 90.9762C97.7795 90.964 97.5478 91.0452 97.3709 91.2024C97.1939 91.3596 97.0859 91.5801 97.0702 91.8163C97.0614 91.9385 97.0777 92.0612 97.1181 92.1769C97.1586 92.2926 97.2223 92.3988 97.3053 92.4889C97.3883 92.5791 97.4889 92.6513 97.6009 92.7011C97.7129 92.7508 97.8339 92.7772 97.9564 92.7784C98.1925 92.7789 98.4198 92.6894 98.5922 92.5281C98.7645 92.3668 98.8688 92.1459 98.884 91.9103V91.9021Z" fill="#3B3B3B"/>
<path d="M92.3836 91.8858C92.3838 92.2669 92.3085 92.6442 92.1619 92.9959C92.0153 93.3477 91.8004 93.6669 91.5297 93.935C91.2589 94.2032 90.9377 94.415 90.5845 94.5581C90.2313 94.7013 89.8533 94.773 89.4722 94.769C88.7132 94.7586 87.9888 94.4494 87.4561 93.9084C86.9235 93.3675 86.6256 92.6384 86.627 91.8792C86.6261 91.1203 86.9261 90.392 87.4614 89.854C87.9966 89.316 88.7233 89.0122 89.4822 89.0091C89.8627 89.0032 90.2406 89.0734 90.5937 89.2155C90.9468 89.3577 91.2679 89.5689 91.5382 89.8369C91.8085 90.1049 92.0225 90.4242 92.1677 90.776C92.3128 91.1279 92.3862 91.5052 92.3836 91.8858ZM89.4805 90.9847C89.362 90.987 89.2452 91.0129 89.1369 91.0609C89.0285 91.1089 88.9309 91.1781 88.8496 91.2643C88.7683 91.3505 88.705 91.4521 88.6634 91.563C88.6218 91.674 88.6028 91.7921 88.6074 91.9105C88.6111 92.0291 88.638 92.1458 88.6868 92.254C88.7355 92.3621 88.8051 92.4596 88.8916 92.5408C88.978 92.622 89.0796 92.6854 89.1906 92.7274C89.3016 92.7693 89.4197 92.789 89.5383 92.7853C89.6568 92.7825 89.7735 92.7561 89.8816 92.7076C89.9897 92.659 90.087 92.5893 90.1678 92.5026C90.2485 92.4158 90.3111 92.3138 90.3518 92.2025C90.3925 92.0911 90.4105 91.9728 90.4047 91.8544C90.4029 91.7361 90.3773 91.6194 90.3295 91.5111C90.2817 91.4028 90.2127 91.3053 90.1265 91.2242C90.0403 91.1431 89.9387 91.0801 89.8278 91.039C89.7168 90.9978 89.5987 90.9794 89.4805 90.9847Z" fill="#3B3B3B"/>
<path d="M109.318 91.9016C109.314 92.2828 109.235 92.6596 109.086 93.0103C108.937 93.3611 108.719 93.6789 108.447 93.9456C108.175 94.2124 107.852 94.4228 107.498 94.5648C107.145 94.7068 106.766 94.7777 106.385 94.7733C104.822 94.7518 103.51 93.4183 103.537 91.8752C103.541 91.494 103.62 91.1174 103.771 90.767C103.921 90.4167 104.139 90.0995 104.412 89.8337C104.686 89.5679 105.009 89.3588 105.363 89.2183C105.718 89.0778 106.096 89.0087 106.478 89.015C107.236 89.0242 107.96 89.3327 108.492 89.8734C109.024 90.414 109.321 91.1431 109.318 91.9016ZM106.421 92.7945C106.659 92.7955 106.887 92.7047 107.059 92.541C107.23 92.3773 107.332 92.1535 107.342 91.9165C107.348 91.6797 107.26 91.4503 107.099 91.2772C106.937 91.1042 106.714 91.0013 106.478 90.9906C106.355 90.9848 106.233 91.0037 106.118 91.0461C106.003 91.0885 105.897 91.1536 105.808 91.2375C105.718 91.3214 105.647 91.4223 105.597 91.5344C105.547 91.6465 105.521 91.7675 105.519 91.89C105.528 92.1259 105.627 92.3493 105.794 92.5157C105.962 92.6822 106.186 92.7793 106.421 92.7879V92.7945Z" fill="#3B3B3B"/>
<path d="M120.582 108.963C123.553 108.963 126.524 108.963 129.494 108.963C129.721 108.955 129.947 108.969 130.171 109.005C130.388 109.041 130.584 109.155 130.722 109.327C130.859 109.498 130.929 109.714 130.917 109.934C130.934 110.142 130.878 110.35 130.757 110.52C130.636 110.691 130.459 110.813 130.257 110.866C130.017 110.925 129.77 110.949 129.523 110.939C123.581 110.939 117.644 110.939 111.711 110.939C111.485 110.948 111.258 110.929 111.036 110.885C110.525 110.764 110.277 110.413 110.297 109.894C110.292 109.676 110.367 109.464 110.509 109.299C110.651 109.134 110.85 109.027 111.066 109C111.29 108.967 111.517 108.956 111.743 108.965C114.687 108.962 117.634 108.961 120.582 108.963Z" fill="#3C3C3C"/>
<path d="M125.442 103.866C124.043 103.866 122.637 103.866 121.244 103.866C120.496 103.866 120.079 103.506 120.07 102.9C120.07 102.267 120.493 101.894 121.273 101.894C124.095 101.887 126.915 101.887 129.733 101.894C130.303 101.894 130.753 102.077 130.889 102.692C130.989 103.171 130.8 103.531 130.372 103.768C130.143 103.894 129.893 103.869 129.649 103.871C128.245 103.87 126.843 103.868 125.442 103.866Z" fill="#3C3C3C"/>
<path d="M90.4219 135.336V136.258C90.4062 137.188 90.4062 138.453 90.0781 139.992L88.125 139.852C88.3594 138.664 88.4141 137.727 88.4297 136.93H83.0781V135.336H90.4219ZM82.2344 141.055C83.0469 141.055 83.9375 141.047 84.875 141.031V138.508H86.8594V140.977C88.2812 140.922 89.7266 140.828 91.0625 140.664L91.1719 142.055C88.2109 142.562 84.9688 142.648 82.4062 142.648L82.2344 141.055ZM84.0781 146.039C84.0781 144.406 85.9844 143.398 89.0312 143.398C92.0781 143.398 93.9688 144.406 93.9688 146.039C93.9688 147.758 92.0781 148.75 89.0312 148.742C85.9844 148.75 84.0781 147.758 84.0781 146.039ZM86.1094 146.039C86.1016 146.844 87.1641 147.195 89.0312 147.195C90.8984 147.195 91.9219 146.844 91.9219 146.039C91.9219 145.32 90.8984 144.922 89.0312 144.93C87.1641 144.922 86.1016 145.32 86.1094 146.039ZM91.8281 143.227V134.555H93.875V138.055H95.6094V139.711H93.875V143.227H91.8281ZM107.969 135.789V137.133C107.961 138.914 107.961 140.914 107.391 143.93L105.391 143.727C105.938 141.039 105.961 139.039 105.969 137.367H97.5938V135.789H107.969ZM96.25 147.039V145.414H100.891V140.523H102.875V145.414H109.219V147.039H96.25ZM126.766 141.586V143.164H121.406V145.617H119.438V143.164H113.75V141.586H126.766ZM115.281 148.523V144.383H117.266V146.93H125.328V148.523H115.281ZM115.375 140.414V135.18H125.094V140.414H115.375ZM117.328 138.867H123.141V136.727H117.328V138.867ZM132.203 135.508C134.461 135.5 136.133 136.953 136.141 138.992C136.133 141.039 134.461 142.484 132.203 142.492C129.961 142.484 128.242 141.039 128.25 138.992C128.242 136.953 129.961 135.5 132.203 135.508ZM127.656 144.273C130.195 144.281 133.711 144.25 136.75 143.82L136.906 145.258C133.75 145.875 130.375 145.898 127.891 145.898L127.656 144.273ZM130.234 138.992C130.227 140.117 131.078 140.766 132.203 140.758C133.336 140.766 134.195 140.117 134.203 138.992C134.195 137.883 133.336 137.227 132.203 137.227C131.078 137.227 130.227 137.883 130.234 138.992ZM137.562 148.805V134.555H139.547V148.805H137.562Z" fill="#393939"/>
<path d="M283.406 134.57V144.945H281.422V139.852H279.094V138.242H281.422V134.57H283.406ZM271.344 141.742C273.695 141.008 274.758 139.156 274.766 137.336V137.117H271.906V135.523H279.625V137.117H276.797V137.352C276.789 139 277.805 140.758 280.062 141.492L279.078 143.07C277.508 142.555 276.422 141.523 275.805 140.25C275.172 141.664 274.039 142.812 272.359 143.367L271.344 141.742ZM273.969 148.523V144.039H275.969V146.93H283.75V148.523H273.969ZM298.25 141.586V143.164H292.891V145.617H290.922V143.164H285.234V141.586H298.25ZM286.766 148.523V144.383H288.75V146.93H296.812V148.523H286.766ZM286.859 140.414V135.18H296.578V140.414H286.859ZM288.812 138.867H294.625V136.727H288.812V138.867ZM310.297 134.555V140.008H312.312V141.648H310.297V148.742H308.297V134.555H310.297ZM298.922 144.758C302.289 143.07 304.102 140.805 304.477 137.633H299.734V136.008H306.5C306.484 140.258 304.828 143.938 300.047 146.289L298.922 144.758ZM321.781 136.789C321.773 138.516 322.781 140.172 325.031 140.867L323.969 142.414C322.461 141.914 321.406 140.945 320.797 139.703C320.18 141.133 319.078 142.258 317.453 142.805L316.375 141.242C318.75 140.453 319.766 138.562 319.781 136.602V135.305H321.781V136.789ZM318.344 146.023C318.336 144.297 320.219 143.273 323.219 143.273C326.164 143.273 328.008 144.297 328.016 146.023C328.008 147.766 326.164 148.781 323.219 148.773C320.219 148.781 318.336 147.766 318.344 146.023ZM320.344 146.023C320.328 146.828 321.352 147.211 323.219 147.211C325.062 147.211 326.047 146.828 326.047 146.023C326.047 145.25 325.062 144.836 323.219 144.836C321.352 144.836 320.328 145.25 320.344 146.023ZM325.875 142.992V134.555H327.875V137.883H329.797V139.539H327.875V142.992H325.875ZM341.703 134.555V137.758H343.625V139.398H341.703V142.539H339.703V134.555H341.703ZM330.969 142.008V135.445H337.312V137.023H332.969V140.414C335.547 140.398 336.961 140.297 338.547 139.977L338.75 141.539C336.961 141.953 335.32 142.008 332.172 142.008H330.969ZM332.406 148.602V143.133H341.703V148.602H332.406ZM334.375 147.039H339.734V144.711H334.375V147.039Z" fill="#454545"/>
<path d="M291.333 84.2762C290.371 82.6653 289.451 81.1315 288.536 79.6066C288.338 79.2749 288.108 78.9995 287.677 79.0143C287.207 79.0277 286.903 79.3934 286.9 79.9693C286.9 81.8525 286.888 83.7343 286.908 85.6175C286.908 85.9906 286.841 86.1165 286.437 86.1105C285.122 86.0913 285.122 86.1105 285.122 84.8062C285.122 83.1776 285.122 81.5579 285.122 79.9338C285.122 78.6664 285.842 77.6759 286.976 77.3458C288.141 77.0053 289.29 77.4642 289.972 78.5613C290.416 79.2794 290.846 80.0107 291.28 80.7318C291.484 80.711 291.503 80.5393 291.576 80.4238C291.872 79.9545 292.15 79.4792 292.436 79.0069C292.779 78.4384 293.003 77.7041 293.499 77.3502C293.995 76.9964 294.783 77.2347 295.438 77.2495C295.883 77.2599 295.832 76.9756 295.866 76.721C296.302 73.5245 297.917 71.0846 300.742 69.5508C306.181 66.6001 313.744 69.1066 315.153 76.1776C315.221 76.5196 315.097 77.0082 315.352 77.1696C315.606 77.331 316.079 77.288 316.432 77.2229C317.343 77.0556 317.83 77.4583 318.218 78.2445C318.647 79.1106 319.205 79.9145 319.752 80.8191C320.254 79.9915 320.698 79.2157 321.185 78.4665C322.255 76.8217 324.568 76.8246 325.579 78.4665C325.836 78.8752 325.971 79.3488 325.969 79.8316C325.969 81.7874 325.969 83.7447 325.969 85.7004C325.969 85.9965 325.917 86.1076 325.585 86.112C324.185 86.1298 324.185 86.1431 324.185 84.7292C324.185 83.1791 324.185 81.6275 324.185 80.0774C324.185 79.5858 324.073 79.1787 323.557 79.041C323.04 78.9033 322.772 79.2216 322.538 79.614C321.625 81.1448 320.705 82.6713 319.783 84.2036C319.567 84.0955 319.521 83.9075 319.431 83.7595C318.531 82.2789 317.639 80.7944 316.752 79.306C316.404 78.7227 315.854 79.0869 315.402 79.0291C315.051 78.9833 315.201 79.3593 315.161 79.537C314.963 80.494 314.642 81.4213 314.204 82.2952C313.568 83.5403 312.956 84.8003 312.315 86.0439C312.167 86.3223 312.191 86.4599 312.463 86.6657C313.319 87.3305 313.695 88.2085 313.451 89.2967C313.425 89.3749 313.425 89.459 313.45 89.5374C313.475 89.6157 313.524 89.6842 313.59 89.7334C313.647 89.781 313.7 89.833 313.748 89.8889C314.077 90.2575 314.677 90.5314 314.706 90.9741C314.734 91.3768 314.308 91.8106 314.078 92.2296C313.981 92.4073 313.87 92.5775 313.773 92.7552C313.541 93.186 313.708 93.6021 314.176 93.7353C314.725 93.8937 315.276 94.0477 315.831 94.1795C316.079 94.2387 316.206 94.3186 316.203 94.6103C316.187 96.0316 316.187 97.4529 316.203 98.8742C316.203 99.1392 316.092 99.2222 315.868 99.2784C315.315 99.4265 314.764 99.5745 314.213 99.7226C313.701 99.8706 313.528 100.269 313.782 100.725C314.061 101.224 314.339 101.723 314.639 102.205C314.788 102.436 314.758 102.577 314.563 102.768C313.559 103.75 312.562 104.74 311.584 105.745C311.378 105.959 311.233 105.93 311.017 105.799C310.543 105.513 310.06 105.243 309.576 104.974C309.092 104.705 308.688 104.863 308.54 105.399C308.392 105.935 308.229 106.498 308.096 107.051C308.036 107.29 307.927 107.371 307.677 107.368C306.252 107.356 304.828 107.356 303.404 107.368C303.139 107.368 303.054 107.261 302.998 107.036C302.857 106.483 302.702 105.933 302.554 105.384C302.406 104.863 302.021 104.694 301.555 104.953C301.054 105.23 300.554 105.507 300.074 105.808C299.845 105.956 299.702 105.929 299.51 105.734C298.523 104.731 297.528 103.739 296.527 102.758C296.324 102.561 296.327 102.416 296.463 102.194C296.759 101.723 297.02 101.239 297.291 100.757C297.562 100.276 297.413 99.8692 296.873 99.7211C296.678 99.6648 296.482 99.6115 296.281 99.5523C295.826 99.4043 295.193 99.462 294.959 99.1082C294.744 98.7854 294.897 98.2198 294.895 97.7549C294.895 96.7585 294.919 95.7607 294.882 94.7657C294.867 94.3616 295.002 94.2209 295.378 94.1484C295.865 94.0536 296.339 93.8893 296.817 93.7545C297.409 93.5887 297.575 93.2201 297.28 92.6974C297.009 92.2163 296.743 91.7307 296.453 91.2613C296.313 91.0348 296.305 90.869 296.527 90.6987C296.651 90.5887 296.77 90.4721 296.882 90.3493C297.35 89.914 297.748 89.5321 297.599 88.7326C297.449 87.9331 297.906 87.181 298.588 86.6924C298.915 86.457 298.884 86.2867 298.736 85.9832C298.143 84.8388 297.585 83.678 296.994 82.5336C296.448 81.528 296.078 80.4364 295.9 79.306C295.868 79.0676 295.782 79.0203 295.558 78.9995C294.873 78.9344 294.392 79.0602 294.014 79.7694C293.21 81.2796 292.275 82.7186 291.333 84.2762ZM306.434 83.8142C306.434 84.442 306.449 85.0697 306.434 85.6975C306.425 85.9936 306.489 86.112 306.821 86.1046C307.873 86.0819 308.927 86.0819 309.983 86.1046C310.279 86.1046 310.401 85.9773 310.516 85.7419C311.256 84.2614 312.01 82.7808 312.737 81.3003C313.515 79.7532 313.743 77.987 313.383 76.2931C312.657 72.8005 309.492 70.0749 305.401 70.1311C299.547 70.22 295.838 76.0622 298.383 81.324C299.106 82.8164 299.874 84.285 300.604 85.7745C300.644 85.884 300.721 85.9766 300.82 86.0371C300.92 86.0976 301.038 86.1225 301.153 86.1076C302.19 86.0913 303.226 86.0824 304.262 86.1076C304.63 86.1179 304.68 85.9877 304.675 85.6634C304.656 84.5012 304.649 83.3375 304.675 82.1753C304.686 81.7415 304.603 81.5135 304.145 81.3269C303.333 80.9957 302.677 80.3674 302.311 79.5698C301.945 78.7722 301.897 77.8653 302.176 77.0334C302.444 76.1984 303.012 75.4926 303.771 75.0532C304.53 74.6138 305.425 74.4721 306.282 74.6556C307.02 74.8086 307.69 75.1922 308.196 75.7511C308.702 76.31 309.016 77.0152 309.095 77.7648C309.169 78.5261 308.993 79.291 308.593 79.9431C308.193 80.5951 307.591 81.0987 306.879 81.3773C306.572 81.5016 306.393 81.6082 306.418 81.9873C306.464 82.5943 306.434 83.2043 306.434 83.8142ZM305.546 102.049C301.845 102.049 299.279 98.3472 300.563 94.8872C300.635 94.6917 300.795 94.5141 300.613 94.2757C299.979 93.4576 299.571 92.4877 299.428 91.4627C299.383 91.134 299.038 91.1666 298.836 91.0185C298.749 90.9549 298.665 91.0585 298.611 91.1281C298.435 91.3576 298.667 91.4982 298.749 91.6625C298.884 91.945 299.04 92.2171 299.215 92.4768C299.445 92.81 299.495 93.1001 299.258 93.4777C299.041 93.8411 298.88 94.2355 298.781 94.6473C298.684 95.0308 298.46 95.1788 298.108 95.2588C297.641 95.3668 297.029 95.3757 296.764 95.6763C296.467 96.005 296.74 96.6312 296.663 97.1168C296.573 97.6972 296.803 97.9548 297.359 98.0052C298.235 98.0955 298.691 98.5515 299.046 99.4102C299.402 100.269 299.406 100.916 298.848 101.594C298.479 102.038 298.537 102.376 298.996 102.727C299.372 103.023 299.654 103.575 300.052 103.659C300.486 103.75 300.921 103.266 301.347 103.02C301.658 102.839 301.904 102.777 302.252 102.98C302.675 103.205 303.118 103.388 303.577 103.526C303.69 103.552 303.793 103.612 303.872 103.697C303.951 103.782 304.003 103.888 304.021 104.003C304.137 104.522 304.159 105.208 304.499 105.494C304.868 105.805 305.562 105.535 306.109 105.593C306.542 105.639 306.744 105.491 306.791 105.057C306.895 104.092 307.287 103.363 308.369 103.221C308.532 103.188 308.685 103.116 308.814 103.011C309.142 102.771 309.428 102.799 309.764 103.024C310.159 103.289 310.611 103.693 311.014 103.668C311.458 103.64 311.715 103.014 312.112 102.721C312.587 102.371 312.608 102.023 312.245 101.59C311.675 100.906 311.692 100.257 312.057 99.4028C312.411 98.5707 312.826 98.1118 313.699 98.0274C314.255 97.9756 314.548 97.7194 314.44 97.1006C314.388 96.7714 314.388 96.4362 314.44 96.1071C314.497 95.6985 314.315 95.543 313.951 95.4986C312.947 95.3757 312.2 94.9641 312.026 93.8567C311.978 93.659 311.889 93.4735 311.766 93.3119C311.696 93.2158 311.659 93.0993 311.662 92.9804C311.665 92.8616 311.707 92.747 311.782 92.6545C312.017 92.2799 312.226 91.8876 312.445 91.5056C312.518 91.3783 312.617 91.2658 312.49 91.1088C312.333 90.9149 312.194 91.0718 312.046 91.1088C311.779 91.1843 311.681 91.3502 311.64 91.6241C311.507 92.5027 311.16 93.3351 310.629 94.0477C310.531 94.1627 310.469 94.304 310.45 94.4541C310.432 94.6041 310.458 94.7563 310.525 94.8916C311.825 98.3575 309.234 102.053 305.546 102.049ZM309.854 91.4375H301.236C301.58 93.4362 303.457 94.9582 305.546 94.9582C307.635 94.9582 309.511 93.4347 309.854 91.4375ZM302.141 95.737C301.737 97.3863 302.324 98.895 303.657 99.7344C304.294 100.137 305.042 100.325 305.794 100.272C306.545 100.219 307.26 99.9267 307.833 99.4383C308.926 98.5204 309.37 96.9925 308.891 95.774C306.658 97.0635 304.415 97.0621 302.141 95.737ZM305.482 89.6416C307.2 89.6416 308.917 89.6416 310.635 89.6416C311.339 89.6416 311.741 89.3218 311.751 88.7711C311.761 88.2203 311.356 87.8709 310.666 87.8709C307.25 87.8709 303.833 87.8709 300.416 87.8709C299.725 87.8709 299.319 88.2114 299.328 88.7681C299.337 89.3248 299.738 89.6401 300.441 89.6416C302.126 89.6436 303.808 89.6436 305.488 89.6416H305.482ZM307.323 78.1408C307.324 77.6763 307.144 77.2296 306.822 76.8953C306.499 76.5609 306.059 76.3651 305.595 76.3494C305.36 76.3429 305.126 76.3832 304.906 76.4679C304.687 76.5526 304.486 76.68 304.316 76.8428C304.147 77.0056 304.011 77.2005 303.917 77.4162C303.823 77.6319 303.773 77.8641 303.769 78.0994C303.767 78.5644 303.947 79.0119 304.269 79.3467C304.592 79.6815 305.032 79.8773 305.497 79.8923C305.971 79.9014 306.43 79.7222 306.772 79.3939C307.114 79.0655 307.312 78.6149 307.323 78.1408Z" fill="#3B3B3B"/>
<path d="M282.436 104.228C279.894 101.798 280.304 98.2096 282.506 96.2789C283.044 95.812 283.669 95.4572 284.346 95.2357C285.023 95.0141 285.737 94.9302 286.447 94.9888C287.157 95.0475 287.848 95.2475 288.479 95.5771C289.111 95.9067 289.67 96.3593 290.123 96.9082C291.859 98.9928 292.018 102.706 288.669 104.928C289.273 105.356 289.82 105.858 290.298 106.424C291.401 107.769 291.779 109.355 291.879 111.047C291.937 112.06 292.051 113.07 292.107 114.082C292.125 114.402 292.238 114.475 292.537 114.472C293.869 114.455 295.202 114.457 296.534 114.461C298.138 114.461 299.334 115.61 299.332 117.126C299.331 118.642 298.13 119.774 296.519 119.781C295.521 119.781 294.522 119.8 293.524 119.772C293.172 119.763 293.095 119.868 293.104 120.203C293.127 121.106 293.104 122.012 293.117 122.915C293.117 123.197 293.096 123.336 292.745 123.336C287.956 123.323 283.169 123.323 278.384 123.336C278.088 123.336 278.014 123.26 278.016 122.97C278.027 118.78 277.952 114.589 278.056 110.402C278.122 107.689 279.566 105.731 281.985 104.497C282.117 104.431 282.251 104.374 282.383 104.311C282.393 104.293 282.401 104.272 282.436 104.228ZM279.797 115.776C279.797 117.553 279.81 119.319 279.786 121.09C279.786 121.488 279.896 121.566 280.275 121.565C283.532 121.549 286.789 121.555 290.036 121.555C291.349 121.555 291.331 121.555 291.351 120.253C291.351 119.862 291.247 119.779 290.868 119.769C289.832 119.755 288.837 119.366 288.065 118.676C287.293 117.985 286.797 117.039 286.668 116.012C286.431 114.202 286.292 112.38 286.141 110.562C286.105 110.128 285.834 109.553 286.111 109.294C286.388 109.035 286.956 109.183 287.39 109.102C287.713 109.041 287.792 109.136 287.818 109.447C287.984 111.413 288.182 113.378 288.348 115.344C288.487 117.001 289.547 118.009 291.212 118.009C292.967 118.009 294.724 118.009 296.481 118.009C297.141 118.009 297.538 117.682 297.551 117.147C297.565 116.613 297.156 116.242 296.472 116.24C295.159 116.24 293.847 116.24 292.534 116.24C291.053 116.24 290.439 115.637 290.337 114.149C290.242 112.751 290.165 111.348 289.974 109.961C289.614 107.336 287.213 105.446 284.551 105.617C283.277 105.711 282.084 106.277 281.206 107.204C280.328 108.131 279.828 109.353 279.804 110.63C279.783 112.334 279.797 114.051 279.797 115.767V115.776ZM286.002 96.7335C285.301 96.7352 284.617 96.9446 284.035 97.3351C283.453 97.7256 283 98.2798 282.733 98.9276C282.466 99.5754 282.397 100.288 282.535 100.975C282.673 101.662 283.011 102.292 283.507 102.787C284.003 103.282 284.635 103.619 285.322 103.755C286.01 103.891 286.722 103.82 287.369 103.552C288.016 103.283 288.569 102.829 288.958 102.246C289.347 101.663 289.555 100.978 289.555 100.278C289.552 99.337 289.177 98.4355 288.511 97.771C287.845 97.1066 286.942 96.7335 286.002 96.7335Z" fill="#3C3C3C"/>
<path d="M328.642 104.273C329.497 104.621 330.282 105.122 330.956 105.753C332.324 107.099 333.055 108.729 333.066 110.639C333.085 114.718 333.066 118.797 333.082 122.876C333.082 123.261 332.955 123.32 332.616 123.32C327.878 123.309 323.144 123.309 318.414 123.32C318.04 123.32 317.958 123.21 317.97 122.861C317.994 121.958 317.963 121.052 317.985 120.149C317.994 119.824 317.886 119.753 317.582 119.759C316.565 119.777 315.548 119.771 314.531 119.759C312.964 119.749 311.773 118.61 311.764 117.122C311.753 115.606 312.948 114.457 314.543 114.444C315.875 114.444 317.208 114.431 318.54 114.444C318.876 114.444 318.968 114.355 318.984 114.018C319.075 112.638 319.165 111.255 319.326 109.883C319.547 108.001 320.443 106.477 321.922 105.286C322.077 105.16 322.24 105.043 322.441 104.889C320.872 103.903 319.938 102.529 319.776 100.709C319.706 100.018 319.778 99.3205 319.988 98.6585C320.197 97.9965 320.54 97.3844 320.995 96.8598C321.892 95.7837 323.177 95.1042 324.572 94.9685C325.966 94.8327 327.358 95.2515 328.446 96.1343C330.506 97.8236 331.47 101.415 328.642 104.273ZM325.469 121.551C327.263 121.551 329.058 121.539 330.852 121.56C331.216 121.56 331.305 121.465 331.296 121.105C331.282 117.615 331.308 114.126 331.279 110.636C331.266 109.314 330.742 108.048 329.816 107.104C328.89 106.16 327.635 105.611 326.313 105.573C324.992 105.535 323.706 106.01 322.728 106.899C321.749 107.787 321.152 109.021 321.063 110.34C320.955 111.683 320.839 113.024 320.73 114.367C320.629 115.593 319.944 116.234 318.713 116.239C317.344 116.239 315.976 116.239 314.606 116.239C313.943 116.239 313.548 116.561 313.53 117.096C313.512 117.63 313.922 118.006 314.606 118.008C316.383 118.008 318.16 118.008 319.936 118.008C321.482 118.008 322.564 117.035 322.718 115.491C322.89 113.783 323.043 112.074 323.179 110.362C323.285 108.997 323.266 109.003 324.65 109.178C324.963 109.215 325.086 109.284 325.049 109.646C324.85 111.591 324.675 113.539 324.508 115.488C324.319 117.709 322.934 119.299 320.853 119.713C320.486 119.787 319.964 119.589 319.787 119.912C319.609 120.234 319.772 120.707 319.738 121.111C319.708 121.472 319.825 121.568 320.182 121.565C321.954 121.536 323.712 121.551 325.469 121.551ZM328.63 100.275C328.63 99.5729 328.422 98.8862 328.032 98.3021C327.642 97.7179 327.087 97.2624 326.438 96.9933C325.789 96.7241 325.075 96.6533 324.386 96.7898C323.697 96.9263 323.064 97.264 322.567 97.7602C322.07 98.2564 321.731 98.8889 321.593 99.5776C321.455 100.266 321.524 100.981 321.792 101.63C322.06 102.279 322.514 102.835 323.097 103.226C323.681 103.618 324.367 103.827 325.069 103.829C325.537 103.83 326 103.738 326.432 103.56C326.864 103.382 327.257 103.12 327.588 102.79C327.918 102.459 328.181 102.067 328.36 101.635C328.539 101.203 328.63 100.74 328.63 100.272V100.275Z" fill="#3C3C3C"/>
<path d="M286.022 87.8692C286.899 87.8692 286.899 87.8692 286.899 88.7664C286.899 89.6414 286.899 89.6414 285.999 89.6414C285.122 89.6414 285.122 89.6414 285.122 88.7442C285.122 87.847 285.122 87.8692 286.022 87.8692Z" fill="#3C3C3C"/>
<path d="M325.089 87.8701C325.968 87.8701 325.968 87.8701 325.968 88.7584C325.968 89.6468 325.968 89.6364 325.08 89.6364C324.191 89.6364 324.2 89.6364 324.2 88.7481C324.2 87.8598 324.2 87.8701 325.089 87.8701Z" fill="#3C3C3C"/>
<path d="M286.899 92.3236C286.899 93.1882 286.899 93.1882 286.043 93.1882C285.122 93.1882 285.122 93.1882 285.122 92.2792C285.122 91.416 285.122 91.416 285.978 91.416C286.899 91.416 286.899 91.416 286.899 92.3236Z" fill="#3C3C3C"/>
<path d="M325.131 93.1882C324.192 93.1882 324.192 93.1882 324.192 92.2422C324.192 91.416 324.192 91.416 325.029 91.416C325.968 91.416 325.968 91.416 325.968 92.3621C325.968 93.1882 325.968 93.1882 325.131 93.1882Z" fill="#3C3C3C"/>
<path d="M461.75 134.555V148.773H459.875V134.555H461.75ZM449.203 144.414C452.086 142.711 453.352 140.641 453.625 137.852H450.031V136.242H455.609C455.609 136.953 455.562 137.641 455.477 138.305H456.891V134.867H458.781V148.148H456.891V143.461H454.875V141.852H456.891V139.914H455.148C454.484 142.266 453.031 144.242 450.375 145.82L449.203 144.414ZM476.375 136.43V138.039H474.531V139.492H476.375V141.148H474.531V142.945H472.531V134.555H474.531V136.43H476.375ZM463.344 138.789C463.336 136.781 465.023 135.328 467.25 135.336C469.453 135.328 471.125 136.781 471.125 138.789C471.125 140.844 469.453 142.281 467.25 142.273C465.023 142.281 463.336 140.844 463.344 138.789ZM464.953 145.117V143.508H474.531V148.773H472.531V145.117H464.953ZM465.312 138.789C465.297 139.938 466.133 140.594 467.25 140.586C468.344 140.594 469.18 139.938 469.188 138.789C469.18 137.68 468.344 137.031 467.25 137.039C466.133 137.031 465.297 137.68 465.312 138.789ZM493.062 136.023V137.633H481.391V136.023H486.25V134.539H488.234V136.023H493.062ZM480.766 145.367V143.742H493.781V145.367H488.234V148.789H486.25V145.367H480.766ZM482.344 140.617C482.336 139.039 484.172 138.18 487.25 138.18C490.305 138.18 492.148 139.039 492.156 140.617C492.148 142.188 490.305 143.047 487.25 143.055C484.172 143.047 482.336 142.188 482.344 140.617ZM484.406 140.617C484.406 141.266 485.344 141.57 487.25 141.57C489.133 141.57 490.078 141.266 490.078 140.617C490.078 139.969 489.133 139.656 487.25 139.648C485.344 139.656 484.406 139.969 484.406 140.617ZM502.25 135.32C503.383 135.312 504.375 135.734 505.055 136.43H508.281V134.555H510.266V142.883H508.281V141.18H505.039C504.359 141.867 503.375 142.281 502.25 142.273C500.094 142.281 498.453 140.812 498.469 138.805C498.453 136.773 500.094 135.312 502.25 135.32ZM500.359 138.805C500.352 139.898 501.141 140.594 502.25 140.586C503.32 140.594 504.102 139.898 504.109 138.805C504.102 137.672 503.32 137.016 502.25 137.023C501.141 137.016 500.352 137.672 500.359 138.805ZM500.516 145.977C500.516 144.211 502.398 143.172 505.406 143.18C508.414 143.172 510.305 144.211 510.312 145.977C510.305 147.742 508.414 148.781 505.406 148.773C502.398 148.781 500.516 147.742 500.516 145.977ZM502.469 145.977C502.469 146.805 503.523 147.227 505.406 147.227C507.328 147.227 508.352 146.805 508.359 145.977C508.352 145.125 507.328 144.703 505.406 144.695C503.523 144.703 502.469 145.125 502.469 145.977ZM505.906 138.008C505.969 138.258 506 138.531 506 138.805C506 139.078 505.969 139.336 505.914 139.586H508.281V138.008H505.906ZM517.297 136.789C517.289 138.516 518.297 140.172 520.547 140.867L519.484 142.414C517.977 141.914 516.922 140.945 516.312 139.703C515.695 141.133 514.594 142.258 512.969 142.805L511.891 141.242C514.266 140.453 515.281 138.562 515.297 136.602V135.305H517.297V136.789ZM513.859 146.023C513.852 144.297 515.734 143.273 518.734 143.273C521.68 143.273 523.523 144.297 523.531 146.023C523.523 147.766 521.68 148.781 518.734 148.773C515.734 148.781 513.852 147.766 513.859 146.023ZM515.859 146.023C515.844 146.828 516.867 147.211 518.734 147.211C520.578 147.211 521.562 146.828 521.562 146.023C521.562 145.25 520.578 144.836 518.734 144.836C516.867 144.836 515.844 145.25 515.859 146.023ZM521.391 142.992V134.555H523.391V137.883H525.312V139.539H523.391V142.992H521.391ZM541.578 134.555V148.773H539.562V134.555H541.578ZM529.672 144.742C533.344 143.008 534.961 140.758 535.281 137.602H530.438V136.039H537.312C537.305 140.352 535.797 143.938 530.719 146.336L529.672 144.742ZM552.375 135.602V137.055H543.938V135.602H547.156V134.461H549.141V135.602H552.375ZM543.516 142.383C544.617 142.383 545.859 142.383 547.156 142.344V141.586C545.57 141.367 544.586 140.633 544.594 139.539C544.586 138.219 546 137.375 548.156 137.383C550.258 137.375 551.703 138.219 551.719 139.539C551.703 140.625 550.695 141.367 549.141 141.586V142.273C550.281 142.211 551.422 142.125 552.5 141.992L552.641 143.32C549.609 143.844 546.281 143.891 543.781 143.898L543.516 142.383ZM545.516 146.273V144.742H555.406V148.773H553.375V146.273H545.516ZM546.516 139.539C546.508 140.055 547.141 140.328 548.156 140.32C549.133 140.328 549.797 140.055 549.797 139.539C549.797 138.984 549.133 138.711 548.156 138.711C547.141 138.711 546.508 138.984 546.516 139.539ZM553.375 144.18V134.586H555.406V144.18H553.375Z" fill="#454545"/>
<path d="M487.337 75.8435C487.356 75.6834 487.371 75.5961 487.375 75.5073C487.449 73.7607 488.385 72.8641 490.14 72.8612H491.658C491.658 72.2411 491.658 71.6822 491.658 71.1233C491.669 69.9443 492.267 69.3418 493.443 69.3403C496.095 69.3345 498.746 69.3345 501.396 69.3403C502.537 69.3403 503.129 69.9429 503.15 71.0986C503.16 71.6589 503.15 72.2193 503.15 72.8612H504.594C506.457 72.8612 507.369 73.7345 507.445 75.5961C507.445 75.6499 507.461 75.7023 507.481 75.8435H508.059C510.111 75.8435 512.163 75.8435 514.214 75.8435C515.93 75.8435 516.834 76.7517 516.834 78.4634C516.834 92.4363 516.834 106.412 516.834 120.389C516.834 122.092 515.91 123.018 514.214 123.018H480.643C478.904 123.018 478 122.11 478 120.356V78.4925C478 76.7343 478.885 75.8479 480.645 75.8435C482.661 75.8435 484.676 75.8435 486.691 75.8435H487.337ZM483.365 81.2201V117.64H511.445V81.226H507.477C507.464 81.3249 507.449 81.3934 507.446 81.4618C507.398 82.7135 507.261 82.8459 506 82.8459H488.739C488.576 82.8459 488.411 82.8532 488.25 82.8459C487.686 82.8037 487.403 82.5068 487.376 81.9363C487.368 81.7063 487.376 81.4763 487.376 81.2245L483.365 81.2201ZM487.347 77.5348C487.145 77.5246 486.967 77.5101 486.791 77.5086H480.636C479.841 77.5086 479.661 77.6949 479.661 78.5173V120.34C479.661 121.168 479.822 121.334 480.645 121.334H514.203C514.98 121.334 515.163 121.148 515.163 120.367C515.163 106.409 515.163 92.4513 515.163 78.494C515.163 77.7167 514.965 77.5144 514.21 77.513C512.122 77.513 510.036 77.513 507.951 77.513C507.796 77.513 507.64 77.5333 507.499 77.5435V79.4575C507.547 79.4707 507.595 79.4804 507.644 79.4866C508.844 79.4866 510.042 79.4866 511.239 79.4939C512.574 79.4939 513.169 80.0907 513.169 81.4283C513.169 93.4197 513.169 105.412 513.169 117.405C513.169 118.768 512.602 119.34 511.261 119.34H483.588C482.215 119.34 481.645 118.766 481.643 117.379C481.643 114.814 481.643 112.248 481.643 109.681C481.643 100.269 481.643 90.8604 481.643 81.4559C481.643 80.0863 482.236 79.4968 483.605 79.4925C484.441 79.4925 485.276 79.4925 486.112 79.4925H487.347V77.5348ZM489.039 81.1052H505.777C505.777 80.7806 505.777 80.4938 505.777 80.2071C505.777 78.6439 505.781 77.0802 505.789 75.516C505.789 75.0313 505.636 74.6107 505.102 74.5656C504.476 74.5117 503.843 74.5525 503.158 74.5525C503.158 74.8348 503.158 75.0677 503.158 75.2991C503.151 76.219 502.898 76.4766 501.994 76.4854H493.067C491.854 76.4854 491.67 76.3034 491.661 75.107C491.661 74.9324 491.644 74.7562 491.632 74.5466C490.995 74.5466 490.398 74.5306 489.803 74.5466C489.701 74.5428 489.6 74.5603 489.506 74.5979C489.411 74.6355 489.326 74.6925 489.255 74.7652C489.184 74.8379 489.129 74.9246 489.093 75.0198C489.058 75.1151 489.043 75.2166 489.049 75.3181C489.028 77.235 489.039 79.1431 489.039 81.1095V81.1052ZM501.441 71.0622H493.396V74.7693H501.441V71.0622Z" fill="#3B3B3B"/>
<path d="M526.002 98.3341C526.002 101.609 526.002 104.884 526.002 108.159C526.003 108.358 525.967 108.555 525.895 108.741C525.129 110.624 524.349 112.502 523.583 114.387C523.416 114.797 523.212 115.16 522.719 115.17C522.195 115.18 521.982 114.809 521.808 114.377C521.042 112.492 520.259 110.616 519.49 108.734C519.414 108.549 519.374 108.351 519.371 108.152C519.371 102.731 519.378 97.3099 519.391 91.8877C519.391 90.8688 519.383 89.85 519.391 88.8311C519.412 86.939 520.621 85.728 522.503 85.7265C522.975 85.7111 523.446 85.7571 523.905 85.8634C525.187 86.2098 525.986 87.3436 525.991 88.7744C525.999 91.9576 525.991 95.1407 525.991 98.3239L526.002 98.3341ZM521.099 92.1672V107.387H524.301V92.1672H521.099ZM524.32 90.3958C524.32 89.7583 524.352 89.1615 524.311 88.5691C524.267 87.9142 523.793 87.4833 523.147 87.428C521.946 87.3261 521.326 87.5983 521.109 88.3202C521.09 88.3712 521.079 88.4246 521.075 88.4789C521.075 89.1077 521.075 89.7379 521.075 90.3958H524.32ZM522.69 112.115C523.118 111.065 523.495 110.147 523.882 109.204H521.495C521.888 110.16 522.262 111.07 522.69 112.115Z" fill="#3B3B3B"/>
<path d="M501.073 103.278H507.446C507.628 103.265 507.81 103.272 507.989 103.3C508.426 103.403 508.685 103.687 508.66 104.158C508.663 104.352 508.592 104.54 508.462 104.683C508.331 104.826 508.151 104.914 507.957 104.928C507.795 104.947 507.632 104.953 507.468 104.946H494.555C494.446 104.946 494.337 104.946 494.229 104.946C493.677 104.912 493.356 104.597 493.364 104.1C493.373 103.604 493.711 103.3 494.262 103.284C494.699 103.271 495.136 103.284 495.572 103.284L501.073 103.278Z" fill="#3B3B3B"/>
<path d="M501.038 88.8516H507.412C507.575 88.8457 507.739 88.8486 507.902 88.8603C508.114 88.8705 508.312 88.964 508.454 89.1204C508.596 89.2768 508.671 89.4832 508.661 89.6943C508.662 89.9057 508.581 90.1092 508.434 90.2611C508.287 90.413 508.086 90.5011 507.875 90.5065C507.729 90.5181 507.584 90.5065 507.438 90.5065H494.582C494.472 90.5065 494.363 90.5065 494.254 90.5065C493.703 90.4861 493.368 90.1804 493.36 89.6914C493.353 89.2023 493.682 88.8778 494.234 88.8501C494.379 88.8501 494.525 88.8501 494.67 88.8501L501.038 88.8516Z" fill="#3B3B3B"/>
<path d="M501.015 96.0649H507.444C507.608 96.0564 507.771 96.0603 507.934 96.0766C508.387 96.1508 508.652 96.4215 508.662 96.8888C508.672 97.356 508.415 97.6354 507.958 97.7126C507.796 97.7322 507.632 97.7381 507.469 97.73H494.392C493.713 97.7184 493.358 97.4229 493.374 96.88C493.39 96.3371 493.733 96.0708 494.379 96.0664C495.026 96.062 495.689 96.0664 496.341 96.0664L501.015 96.0649Z" fill="#3B3B3B"/>
<path d="M501.012 110.493C503.169 110.493 505.327 110.493 507.485 110.493C507.665 110.479 507.847 110.49 508.025 110.525C508.434 110.64 508.675 110.915 508.658 111.361C508.665 111.554 508.598 111.743 508.47 111.889C508.342 112.034 508.164 112.125 507.971 112.142C507.773 112.168 507.573 112.178 507.374 112.171C503.131 112.171 498.888 112.171 494.646 112.171C493.746 112.171 493.378 111.936 493.362 111.358C493.346 110.757 493.74 110.484 494.647 110.484L501.012 110.493Z" fill="#3B3B3B"/>
<path d="M488.099 89.2634C488.827 88.5095 489.447 87.8676 490.073 87.2388C490.557 86.7512 491.026 86.7003 491.405 87.0729C491.783 87.4455 491.729 87.9462 491.268 88.409C490.475 89.2105 489.679 90.0081 488.879 90.8019C488.355 91.3215 487.939 91.3215 487.424 90.8179C487.086 90.4875 486.748 90.1571 486.427 89.8121C486.082 89.4424 486.069 88.9607 486.37 88.6332C486.699 88.2766 487.184 88.2606 487.581 88.623C487.769 88.8237 487.942 89.0377 488.099 89.2634Z" fill="#3B3B3B"/>
<path d="M488.118 96.4755C488.872 95.6939 489.533 94.9952 490.21 94.314C490.513 94.0084 490.929 93.9152 491.239 94.202C491.454 94.3999 491.552 94.774 491.601 95.0869C491.625 95.2325 491.434 95.4377 491.298 95.576C490.485 96.4075 489.665 97.2323 488.837 98.0503C488.345 98.535 487.922 98.5263 487.422 98.0416C487.096 97.7257 486.773 97.4055 486.46 97.0766C486.064 96.6603 486.044 96.1611 486.393 95.819C486.743 95.477 487.217 95.5003 487.647 95.9107C487.797 96.0475 487.91 96.2164 488.118 96.4755Z" fill="#3B3B3B"/>
<path d="M488.162 103.608C488.842 102.918 489.494 102.238 490.166 101.577C490.588 101.163 491.137 101.168 491.454 101.577C491.526 101.655 491.582 101.746 491.617 101.846C491.653 101.946 491.669 102.051 491.663 102.157C491.657 102.263 491.63 102.366 491.583 102.461C491.537 102.556 491.472 102.641 491.392 102.71C490.518 103.608 489.632 104.495 488.732 105.371C488.658 105.45 488.569 105.514 488.469 105.558C488.369 105.602 488.262 105.626 488.153 105.627C488.044 105.628 487.936 105.607 487.835 105.565C487.735 105.523 487.644 105.461 487.568 105.382C487.168 105.012 486.782 104.625 486.412 104.218C486.333 104.142 486.271 104.051 486.227 103.95C486.184 103.85 486.161 103.742 486.159 103.632C486.158 103.523 486.178 103.414 486.219 103.312C486.26 103.211 486.321 103.118 486.398 103.04C486.715 102.722 487.201 102.719 487.575 103.04C487.756 103.209 487.932 103.388 488.162 103.608Z" fill="#3B3B3B"/>
<path d="M488.118 110.892C488.859 110.131 489.505 109.447 490.176 108.787C490.613 108.362 491.195 108.393 491.494 108.835C491.619 108.996 491.678 109.198 491.659 109.4C491.64 109.603 491.544 109.79 491.39 109.924C490.517 110.816 489.633 111.706 488.738 112.577C488.363 112.944 487.916 112.93 487.529 112.566C487.142 112.202 486.773 111.838 486.417 111.449C486.06 111.061 486.072 110.598 486.376 110.273C486.68 109.949 487.204 109.927 487.587 110.281C487.775 110.475 487.952 110.679 488.118 110.892Z" fill="#3B3B3B"/>
<path d="M673.391 135.32C674.523 135.312 675.516 135.734 676.195 136.43H679.422V134.555H681.406V142.883H679.422V141.18H676.18C675.5 141.867 674.516 142.281 673.391 142.273C671.234 142.281 669.594 140.812 669.609 138.805C669.594 136.773 671.234 135.312 673.391 135.32ZM671.5 138.805C671.492 139.898 672.281 140.594 673.391 140.586C674.461 140.594 675.242 139.898 675.25 138.805C675.242 137.672 674.461 137.016 673.391 137.023C672.281 137.016 671.492 137.672 671.5 138.805ZM671.656 145.977C671.656 144.211 673.539 143.172 676.547 143.18C679.555 143.172 681.445 144.211 681.453 145.977C681.445 147.742 679.555 148.781 676.547 148.773C673.539 148.781 671.656 147.742 671.656 145.977ZM673.609 145.977C673.609 146.805 674.664 147.227 676.547 147.227C678.469 147.227 679.492 146.805 679.5 145.977C679.492 145.125 678.469 144.703 676.547 144.695C674.664 144.703 673.609 145.125 673.609 145.977ZM677.047 138.008C677.109 138.258 677.141 138.531 677.141 138.805C677.141 139.078 677.109 139.336 677.055 139.586H679.422V138.008H677.047ZM688.438 136.789C688.43 138.516 689.438 140.172 691.688 140.867L690.625 142.414C689.117 141.914 688.062 140.945 687.453 139.703C686.836 141.133 685.734 142.258 684.109 142.805L683.031 141.242C685.406 140.453 686.422 138.562 686.438 136.602V135.305H688.438V136.789ZM685 146.023C684.992 144.297 686.875 143.273 689.875 143.273C692.82 143.273 694.664 144.297 694.672 146.023C694.664 147.766 692.82 148.781 689.875 148.773C686.875 148.781 684.992 147.766 685 146.023ZM687 146.023C686.984 146.828 688.008 147.211 689.875 147.211C691.719 147.211 692.703 146.828 692.703 146.023C692.703 145.25 691.719 144.836 689.875 144.836C688.008 144.836 686.984 145.25 687 146.023ZM692.531 142.992V134.555H694.531V137.883H696.453V139.539H694.531V142.992H692.531ZM713.062 134.555V148.773H711.172V134.555H713.062ZM700.469 144.617C702.562 143.328 703.344 140.781 703.344 138.367V137.602H701.016V136.008H707.422V137.602H705.266V138.367C705.258 140.727 706 143.117 708.078 144.305L706.906 145.773C705.633 145.023 704.805 143.758 704.32 142.227C703.836 143.883 702.977 145.289 701.672 146.086L700.469 144.617ZM706.406 141.039V139.43H708.281V134.789H710.156V148.117H708.281V141.039H706.406ZM722.672 135.383V136.977H719.844C719.852 138.641 720.852 140.352 723.156 141.086L722.141 142.633C720.562 142.117 719.477 141.102 718.859 139.836C718.227 141.219 717.086 142.328 715.438 142.867L714.375 141.336C716.727 140.578 717.805 138.75 717.828 136.977H714.922V135.383H722.672ZM716.297 145.32V143.742H725.875V148.773H723.875V145.32H716.297ZM723.875 143.133V134.555H725.875V138.008H727.797V139.664H725.875V143.133H723.875Z" fill="#454545"/>
<path d="M729.05 92.9797C726.516 95.5086 723.981 98.0356 721.445 100.561C721.213 100.79 721.209 101.041 721.209 101.323C721.209 103.454 721.221 105.585 721.209 107.716C721.191 110.562 719.382 112.342 716.512 112.344C714.416 112.344 712.329 112.354 710.239 112.336C710.054 112.326 709.869 112.358 709.699 112.43C709.528 112.501 709.376 112.611 709.255 112.751C708.418 113.63 707.533 114.466 706.691 115.34C706.364 115.689 705.936 115.925 705.467 116.017C703.504 116.432 701.545 116.871 699.585 117.296C698.713 117.485 698.161 116.985 698.324 116.11C698.517 115.075 698.766 114.051 698.987 113.022C699.034 112.811 699.074 112.598 699.125 112.345H698.421C689.777 112.345 681.133 112.345 672.49 112.345C670.244 112.345 668.575 111.147 668.009 109.131C667.894 108.688 667.84 108.23 667.847 107.772C667.847 98.1509 667.847 88.5308 667.847 78.9111C667.847 76.1885 669.698 74.3419 672.43 74.3404C687.149 74.3344 701.867 74.3344 716.586 74.3404C719.362 74.3404 721.18 76.145 721.2 78.9321C721.219 81.6802 721.2 84.4298 721.2 87.1779V87.8908C721.628 87.6766 721.865 87.3292 722.157 87.0536C722.813 86.4306 723.263 86.4156 723.894 87.0431C725.469 88.6046 727.036 90.1691 728.595 91.7366C728.76 91.9014 728.894 92.0916 729.044 92.2683L729.05 92.9797ZM695.824 76.2484C688.911 76.2484 681.999 76.2484 675.087 76.2484C674.769 76.2339 674.45 76.2535 674.136 76.3068C672.899 76.5809 672.229 77.5423 672.229 79.0249C672.229 88.5667 672.229 98.1085 672.229 107.65C672.229 107.809 672.229 107.969 672.244 108.128C672.34 109.476 673.293 110.403 674.654 110.437C675.312 110.454 675.969 110.437 676.626 110.437C684.076 110.437 691.526 110.437 698.977 110.437C699.387 110.437 699.652 110.395 699.678 109.898C699.7 109.479 700.013 109.196 700.299 108.911C706.498 102.716 712.698 96.521 718.899 90.3259C719.044 90.1937 719.158 90.0311 719.232 89.8499C719.307 89.6687 719.34 89.4733 719.331 89.2776C719.313 85.8915 719.322 82.5054 719.32 79.1193C719.32 77.1484 718.402 76.2274 716.44 76.2274L695.824 76.2484ZM705.661 113.591C705.837 113.555 705.923 113.415 706.03 113.305C711.961 107.38 717.892 101.454 723.824 95.5286C724.065 95.2875 724.123 95.1572 723.843 94.8906C722.798 93.8812 721.769 92.8544 720.758 91.81C720.509 91.5539 720.379 91.527 720.108 91.7995C714.174 97.749 708.234 103.69 702.286 109.621C702.053 109.853 702.026 109.981 702.276 110.22C703.324 111.249 704.365 112.299 705.407 113.341C705.485 113.434 705.575 113.512 705.661 113.591ZM719.323 102.913L711.789 110.446C713.364 110.446 715.012 110.446 716.657 110.446C718.303 110.446 719.281 109.509 719.316 107.888C719.35 106.22 719.323 104.55 719.323 102.913ZM670.672 76.8549C669.91 77.406 669.746 78.1848 669.746 79.0564C669.754 88.5772 669.754 98.097 669.746 107.616C669.735 107.874 669.747 108.134 669.782 108.39C669.883 108.913 670.059 109.401 670.626 109.796C670.113 107.866 670.345 106.012 670.341 104.173C670.314 95.888 670.33 87.6032 670.326 79.3125C670.332 78.4888 670.345 77.6591 670.672 76.8624V76.8549ZM725.484 93.8363C725.577 93.7494 725.649 93.6865 725.718 93.6191C725.973 93.3675 726.211 93.0965 726.485 92.8703C726.759 92.6442 726.708 92.4974 726.473 92.2713C725.643 91.4701 724.834 90.6464 724.018 89.8302C723.007 88.8193 723.007 88.8193 722.031 89.8811C722.019 89.897 722.005 89.9115 721.99 89.9245C721.773 90.0848 721.82 90.2106 721.999 90.3873C723.091 91.4626 724.171 92.5513 725.254 93.6341C725.321 93.7045 725.396 93.7659 725.483 93.8438L725.484 93.8363ZM701.189 111.885C700.961 112.898 700.739 113.88 700.519 114.861C700.488 115.011 700.452 115.161 700.691 115.108C701.699 114.891 702.707 114.67 703.739 114.443L701.189 111.885Z" fill="#3B3B3B"/>
<path d="M682.941 93.3549C682.926 86.3341 688.686 80.5608 695.741 80.5488C702.797 80.5369 708.621 86.3491 708.585 93.3774C708.543 100.446 702.803 106.164 695.756 106.156C692.363 106.147 689.111 104.796 686.71 102.398C684.309 99.9993 682.954 96.7485 682.941 93.3549ZM695.782 104.248C701.801 104.229 706.689 99.3393 706.685 93.3429C706.676 90.4533 705.523 87.6846 703.479 85.6422C701.435 83.5997 698.666 82.4496 695.776 82.4433C689.754 82.4328 684.801 87.3854 684.843 93.3759C684.861 96.2654 686.021 99.0305 688.071 101.068C690.12 103.105 692.892 104.248 695.782 104.248Z" fill="#3B3B3B"/>
<path d="M717.426 99.2191C716.943 99.2191 716.661 99.0244 716.49 98.671C716.29 98.2546 716.419 97.8877 716.715 97.5807C717.314 96.9667 717.913 96.3677 718.524 95.7641C718.861 95.4257 719.188 95.0767 719.543 94.7577C719.992 94.3594 720.507 94.3579 720.881 94.7173C721.256 95.0767 721.289 95.6578 720.859 96.0996C719.932 97.0566 718.982 97.9896 718.034 98.9256C717.849 99.1083 717.624 99.2446 717.426 99.2191Z" fill="#3B3B3B"/>
<path d="M691.17 93.3494C691.17 91.9551 691.17 90.5624 691.17 89.1681C691.171 88.8498 691.198 88.5322 691.253 88.2186C691.512 86.7839 692.801 86.1115 694.131 86.721C694.418 86.8572 694.695 87.0139 694.959 87.1897C696.968 88.4787 698.971 89.7721 700.968 91.07C701.22 91.2295 701.459 91.4072 701.685 91.6017C702.802 92.5886 702.804 94.1102 701.685 95.0941C701.459 95.2878 701.218 95.465 700.966 95.6243C698.97 96.9222 696.967 98.2201 694.959 99.5181C694.692 99.687 694.413 99.8371 694.125 99.9673C692.795 100.583 691.513 99.9209 691.251 98.4787C691.197 98.1651 691.169 97.8475 691.169 97.5292C691.166 96.1365 691.17 94.7422 691.17 93.3494ZM693.075 93.3195C693.075 94.7931 693.075 96.2667 693.075 97.7389C693.075 98.3379 693.176 98.4038 693.666 98.0878C695.838 96.6911 698.007 95.2878 700.173 93.8781C700.782 93.4797 700.781 93.2221 700.173 92.8297C698.007 91.409 695.837 90.0008 693.663 88.605C693.173 88.289 693.08 88.3504 693.077 88.9584C693.071 90.4126 693.075 91.8653 693.075 93.3195Z" fill="#3B3B3B"/>
<path d="M845.672 138.43C845.664 140.594 846.82 143.094 849.156 144.18L848.047 145.742C846.461 145.016 845.336 143.562 844.695 141.859C844.062 143.734 842.891 145.328 841.25 146.102L840.094 144.523C842.461 143.422 843.656 140.781 843.672 138.43V137.555H840.656V135.93H848.531V137.555H845.672V138.43ZM849.641 148.773V134.555H851.641V139.977H853.734V141.648H851.641V148.773H849.641ZM858.688 138.883C858.688 141.039 859.461 143.203 861.484 144.289L860.391 145.742C859.109 145.086 858.258 143.938 857.758 142.555C857.266 144.062 856.414 145.336 855.125 146.086L853.984 144.586C856.039 143.398 856.797 141.078 856.812 138.883V138.555H854.516V136.961H856.812V135.039H858.672V136.961H860.922V138.555H858.688V138.883ZM860.094 141.57V139.945H861.766V134.789H863.641V148.117H861.766V141.57H860.094ZM864.656 148.773V134.555H866.547V148.773H864.656ZM879.141 135.383C879.141 139.102 876.789 141.68 872.625 142.836L871.844 141.289C874.914 140.453 876.68 138.891 877.008 136.977H872.609V135.383H879.141ZM874.328 148.602V143.086H883.75V148.602H874.328ZM876.281 147.039H881.781V144.648H876.281V147.039ZM879.234 139.57V137.945H881.766V134.57H883.75V142.523H881.766V139.57H879.234ZM893.141 135.664C893.133 137.344 894.852 139.195 898.109 139.602L897.328 141.211C894.844 140.852 893.023 139.703 892.094 138.164C891.156 139.695 889.344 140.852 886.891 141.211L886.094 139.602C889.328 139.195 891.039 137.344 891.047 135.664V134.977H893.141V135.664ZM885.594 143.914V142.289H898.562V143.914H893.031V148.773H891.062V143.914H885.594ZM915.406 136.023V137.633H903.734V136.023H908.594V134.539H910.578V136.023H915.406ZM903.109 145.367V143.742H916.125V145.367H910.578V148.789H908.594V145.367H903.109ZM904.688 140.617C904.68 139.039 906.516 138.18 909.594 138.18C912.648 138.18 914.492 139.039 914.5 140.617C914.492 142.188 912.648 143.047 909.594 143.055C906.516 143.047 904.68 142.188 904.688 140.617ZM906.75 140.617C906.75 141.266 907.688 141.57 909.594 141.57C911.477 141.57 912.422 141.266 912.422 140.617C912.422 139.969 911.477 139.656 909.594 139.648C907.688 139.656 906.75 139.969 906.75 140.617ZM931.891 134.57V137.477H933.828V139.117H931.891V142.039H929.906V134.57H931.891ZM921.203 141.586V135.164H923.203V139.953C924.93 139.914 926.781 139.781 928.75 139.383L928.984 141.008C926.641 141.445 924.43 141.594 922.422 141.586H921.203ZM922.547 148.617V142.68H924.516V144.117H929.906V142.68H931.906V148.617H922.547ZM924.516 147.023H929.906V145.695H924.516V147.023ZM947.422 141.211V142.789H941.922V144.008H945.875V148.617H935.953V144.008H939.938V142.789H934.453V141.211H947.422ZM935.594 136.539V134.945H946.266V136.539H944.406V138.711H946.172V140.305H935.688V138.711H937.438V136.539H935.594ZM937.922 147.023H943.922V145.555H937.922V147.023ZM939.438 138.711H942.406V136.539H939.438V138.711Z" fill="#454545"/>
<path d="M867.159 75.3683C867.347 75.2709 867.318 75.0674 867.374 74.9112C867.899 73.4296 869.237 72.3722 870.813 72.3593C874.571 72.3306 878.331 72.3206 882.09 72.375C883.591 72.3965 884.874 73.1058 885.622 74.394C886.649 76.1664 888.092 76.7009 890.08 76.6866C897.311 76.6049 904.543 76.6536 911.775 76.6536C913.815 76.6536 914.96 77.7999 914.962 79.836C914.962 80.1756 914.848 80.5826 914.997 80.8391C915.171 81.1357 915.616 80.9193 915.94 80.9608C916.633 81.0394 917.272 81.3693 917.738 81.8879C918.204 82.4066 918.463 83.0781 918.466 83.775C918.496 87.0434 918.466 90.3133 918.458 93.5831C918.458 94.1777 918.131 94.5016 917.63 94.4901C917.128 94.4787 916.852 94.1534 916.852 93.5387C916.852 90.4475 916.857 87.3563 916.867 84.2651C916.867 82.9755 916.467 82.5642 915.181 82.5628L881.295 82.5213C879.111 82.5213 876.927 82.5184 874.742 82.5127C873.48 82.5127 873.091 82.9053 873.09 84.1863C873.082 93.6204 873.076 103.054 873.071 112.489C873.071 113.151 873.071 113.807 872.733 114.485H873.354L895.641 114.493C895.784 114.486 895.927 114.486 896.07 114.493C896.523 114.545 896.787 114.798 896.813 115.257C896.838 115.715 896.566 115.989 896.132 116.081C895.937 116.106 895.739 116.111 895.543 116.097L870.625 116.088C868.78 116.088 867.939 115.515 867.241 113.795C867.229 113.77 867.188 113.755 867.159 113.737V91.8751C867.335 91.7175 867.264 91.5069 867.264 91.3206C867.264 86.4717 867.264 81.6233 867.264 76.7754C867.264 76.5877 867.335 76.3785 867.159 76.2209V75.3683ZM893.586 80.9021V80.9351H912.326C913.35 80.9351 913.35 80.9351 913.35 79.912C913.35 78.6453 912.954 78.2498 911.686 78.2498C904.186 78.2498 896.688 78.2498 889.19 78.2498C888.886 78.2556 888.582 78.2413 888.28 78.2068C886.682 77.9976 885.484 77.1651 884.673 75.7953C883.885 74.4627 882.755 73.9082 881.2 73.9326C877.926 73.987 874.647 73.9927 871.373 73.924C869.634 73.8881 868.755 75.1147 868.76 76.5361C868.791 88.578 868.796 100.62 868.775 112.662C868.775 113.801 869.287 114.482 870.137 114.476C870.986 114.47 871.461 113.811 871.461 112.688C871.468 103.148 871.475 93.607 871.482 84.0659C871.482 82.0599 872.639 80.9021 874.635 80.9021H893.586Z" fill="#3C3C3C"/>
<path d="M922.16 108.173C921.909 108.557 921.946 109.013 921.855 109.434C921.153 112.579 919.328 115.361 916.722 117.257C914.116 119.153 910.908 120.034 907.699 119.735C901.395 119.149 896.371 114.084 895.806 107.753C895.517 104.316 896.584 100.902 898.781 98.2423C900.977 95.5826 904.128 93.8888 907.558 93.5235C910.988 93.1582 914.424 94.1505 917.132 96.2879C919.839 98.4253 921.602 101.538 922.042 104.959C922.054 105.044 922.031 105.142 922.15 105.17L922.16 108.173ZM908.95 95.0477C902.578 95.0477 897.375 100.232 897.361 106.591C897.347 112.95 902.567 118.174 908.967 118.169C912.033 118.167 914.973 116.947 917.14 114.778C919.307 112.608 920.523 109.667 920.521 106.601C920.519 103.535 919.299 100.595 917.13 98.4287C914.96 96.262 912.019 95.0458 908.953 95.0477H908.95Z" fill="#3B3B3B"/>
<path d="M867.159 76.2275C867.335 76.3852 867.264 76.5944 867.264 76.7821C867.264 81.6309 867.264 86.4793 867.264 91.3272C867.264 91.5135 867.335 91.7242 867.159 91.8818V76.2275Z" fill="#3C3C3C"/>
<path d="M883.246 92.3298C881.69 92.3298 880.134 92.3298 878.578 92.3298C877.38 92.3298 876.818 91.7567 876.815 90.5488C876.815 89.5658 876.807 88.5843 876.815 87.6028C876.824 86.6212 877.443 85.9922 878.427 85.9893C881.647 85.9788 884.867 85.9788 888.086 85.9893C889.089 85.9893 889.71 86.627 889.717 87.6414C889.724 88.6559 889.717 89.6475 889.717 90.6419C889.717 91.728 889.122 92.3212 888.02 92.3284C886.431 92.3384 884.838 92.3298 883.246 92.3298ZM883.217 90.7207C884.721 90.7207 886.227 90.7121 887.725 90.7279C888.025 90.7279 888.124 90.6577 888.115 90.3482C888.094 89.5443 888.095 88.7405 888.115 87.938C888.115 87.6515 888.016 87.5884 887.747 87.5884C884.759 87.597 881.772 87.597 878.786 87.5884C878.508 87.5884 878.414 87.6558 878.422 87.9423C878.44 88.7462 878.443 89.55 878.422 90.3525C878.412 90.6734 878.531 90.7293 878.819 90.7264C880.284 90.7135 881.752 90.7207 883.217 90.7207Z" fill="#3C3C3C"/>
<path d="M909.772 103.319C909.772 106.068 909.772 108.818 909.772 111.568C909.779 111.782 909.76 111.995 909.713 112.204C909.678 112.384 909.575 112.544 909.426 112.651C909.277 112.757 909.092 112.803 908.91 112.777C908.729 112.777 908.553 112.709 908.419 112.587C908.284 112.465 908.199 112.298 908.181 112.117C908.161 111.94 908.154 111.762 908.161 111.584C908.161 109.029 908.161 106.475 908.161 103.921V103.347C907.937 103.296 907.874 103.458 907.784 103.548C906.924 104.385 906.076 105.229 905.219 106.066C904.774 106.495 904.297 106.53 903.95 106.162C903.603 105.793 903.647 105.362 904.077 104.936C905.475 103.552 906.876 102.172 908.28 100.797C908.77 100.317 909.14 100.308 909.627 100.781C911.045 102.166 912.459 103.559 913.867 104.958C914.297 105.378 914.308 105.831 913.953 106.183C913.597 106.536 913.137 106.506 912.72 106.083C911.783 105.134 910.858 104.168 909.935 103.217L909.772 103.319Z" fill="#3B3B3B"/>
<defs>
<filter id="filter0_f_9635_6210" x="20.3877" y="21.8213" width="186.055" height="186.055" filterUnits="userSpaceOnUse" color-interpolation-filters="sRGB">
<feFlood flood-opacity="0" result="BackgroundImageFix"/>
<feBlend mode="normal" in="SourceGraphic" in2="BackgroundImageFix" result="shape"/>
<feGaussianBlur stdDeviation="4" result="effect1_foregroundBlur_9635_6210"/>
</filter>
<filter id="filter1_f_9635_6210" x="215.466" y="21.8223" width="186.055" height="186.055" filterUnits="userSpaceOnUse" color-interpolation-filters="sRGB">
<feFlood flood-opacity="0" result="BackgroundImageFix"/>
<feBlend mode="normal" in="SourceGraphic" in2="BackgroundImageFix" result="shape"/>
<feGaussianBlur stdDeviation="4" result="effect1_foregroundBlur_9635_6210"/>
</filter>
<filter id="filter2_f_9635_6210" x="606.466" y="21.8223" width="186.055" height="186.055" filterUnits="userSpaceOnUse" color-interpolation-filters="sRGB">
<feFlood flood-opacity="0" result="BackgroundImageFix"/>
<feBlend mode="normal" in="SourceGraphic" in2="BackgroundImageFix" result="shape"/>
<feGaussianBlur stdDeviation="4" result="effect1_foregroundBlur_9635_6210"/>
</filter>
<filter id="filter3_f_9635_6210" x="412.388" y="21.8535" width="186.055" height="186.055" filterUnits="userSpaceOnUse" color-interpolation-filters="sRGB">
<feFlood flood-opacity="0" result="BackgroundImageFix"/>
<feBlend mode="normal" in="SourceGraphic" in2="BackgroundImageFix" result="shape"/>
<feGaussianBlur stdDeviation="4" result="effect1_foregroundBlur_9635_6210"/>
</filter>
<filter id="filter4_f_9635_6210" x="803.388" y="21.8535" width="186.055" height="186.055" filterUnits="userSpaceOnUse" color-interpolation-filters="sRGB">
<feFlood flood-opacity="0" result="BackgroundImageFix"/>
<feBlend mode="normal" in="SourceGraphic" in2="BackgroundImageFix" result="shape"/>
<feGaussianBlur stdDeviation="4" result="effect1_foregroundBlur_9635_6210"/>
</filter>
</defs>
</svg>
