<svg width="36" height="36" viewBox="0 0 36 36" fill="none" xmlns="http://www.w3.org/2000/svg">
<path d="M35.9278 26.9294V28.8987C35.7928 28.9924 35.8284 29.149 35.8059 29.2737C35.5285 30.8519 34.7916 32.3132 33.6875 33.4744C32.5835 34.6357 31.1613 35.4454 29.5991 35.8021C29.2775 35.8753 28.9427 35.8612 28.6314 36H26.8769C26.6631 35.8706 26.4156 35.8884 26.183 35.8387C24.3995 35.4676 22.7925 34.5076 21.6204 33.113C20.4482 31.7184 19.779 29.9702 19.7202 28.1494C19.7118 27.9131 19.6424 27.854 19.4183 27.8606C18.8697 27.8756 18.3184 27.884 17.7707 27.8606C17.4678 27.8465 17.3825 27.9225 17.3853 28.2357C17.4022 30.1908 17.391 32.1479 17.3947 34.1039C17.3947 34.63 17.2522 35.0942 16.8836 35.4786C16.6201 35.7524 16.2816 35.8837 15.9319 35.9963H1.33344C1.32125 35.9775 1.31187 35.9503 1.29499 35.9428C0.305696 35.519 0 35.0567 0 33.9802V22.8429C0 21.6116 0.704228 20.8896 1.92889 20.9037C2.24396 20.9037 2.32461 20.8286 2.32461 20.5089C2.31336 14.3349 2.31117 8.16129 2.31804 1.98797C2.311 1.79984 2.32167 1.61146 2.34993 1.42533C2.49621 0.655466 3.01665 0.237243 3.719 0H28.698C28.8555 0.0519998 29.0098 0.113053 29.1603 0.182855C29.8645 0.557943 30.1702 1.15996 30.1233 1.94108C30.1055 2.23271 30.1655 2.33492 30.4909 2.32836C31.6677 2.30398 32.8446 2.31804 34.0224 2.32086C34.1853 2.31656 34.3483 2.32786 34.509 2.35461C35.2742 2.50371 35.6877 3.02508 35.924 3.72556V14.9079C35.9025 14.9323 35.8715 14.9529 35.8603 14.981C35.5124 15.885 34.9873 16.2516 34.0299 16.2526C32.8258 16.2526 31.6209 16.2591 30.4168 16.2526C30.189 16.2526 30.1186 16.3098 30.1214 16.5442C30.1346 17.6104 30.1364 18.6766 30.1214 19.7428C30.1214 20.0109 30.2058 20.1075 30.4581 20.2022C33.2412 21.245 35.0088 23.2029 35.7299 26.1099C35.8012 26.3771 35.7768 26.6744 35.9278 26.9294ZM8.70954 22.0702H1.94202C1.34375 22.0702 1.16652 22.2437 1.16559 22.84C1.16559 26.5759 1.16559 30.3121 1.16559 34.0486C1.16559 34.6487 1.34469 34.8316 1.93076 34.8316H15.4677C16.0406 34.8316 16.2179 34.6441 16.2179 34.0767C16.2179 30.3259 16.2179 26.5778 16.2179 22.8325C16.2179 22.2408 16.0425 22.0702 15.4396 22.0702H8.70954ZM27.2586 3.48926H20.4882C19.8862 3.48926 19.7118 3.66461 19.7109 4.25725V14.3096C19.7109 14.9229 19.8919 15.1039 20.5042 15.1048C21.9773 15.1048 23.4505 15.1048 24.9237 15.1001C25.0143 15.0915 25.1055 15.1081 25.1873 15.1482C25.2691 15.1882 25.3381 15.2501 25.3869 15.327C25.8023 15.9075 26.2355 16.4739 26.6659 17.0431C27.0317 17.5269 27.4386 17.5307 27.8006 17.0515C28.2244 16.4889 28.6445 15.9319 29.0581 15.3636C29.1122 15.2768 29.189 15.2063 29.2802 15.1599C29.3715 15.1135 29.4736 15.0928 29.5757 15.1001C31.0254 15.1123 32.4751 15.1067 33.9258 15.1057C34.6 15.1057 34.7697 14.936 34.7697 14.2487C34.7697 10.9454 34.7697 7.64148 34.7697 4.33695C34.7697 3.65148 34.6094 3.49301 33.9258 3.49301L27.2586 3.48926ZM28.9774 17.4285C28.834 17.616 28.7571 17.721 28.6792 17.8223C27.8859 18.8482 26.5797 18.8463 25.791 17.8139C25.4572 17.3769 25.1196 16.9418 24.8064 16.4907C24.6761 16.3032 24.5326 16.2507 24.3132 16.2516C23.0154 16.2619 21.7176 16.2573 20.4198 16.2516C20.2333 16.261 20.0463 16.2458 19.8637 16.2066C19.0338 15.9844 18.5406 15.3083 18.5397 14.3696C18.5397 11.6409 18.5322 8.91115 18.5481 6.18239C18.5481 5.86169 18.4543 5.8073 18.1627 5.8073C15.6952 5.81918 13.2284 5.81918 10.7622 5.8073C10.5053 5.8073 10.4331 5.86356 10.434 6.13081C10.4434 10.9444 10.4434 15.7581 10.434 20.5717C10.434 20.8361 10.4978 20.8999 10.7594 20.8971C12.3263 20.884 13.8923 20.8886 15.4592 20.8915C16.6783 20.8915 17.3919 21.6126 17.3938 22.8382C17.3938 24.0328 17.4003 25.2284 17.3881 26.4231C17.3881 26.6528 17.4472 26.7194 17.6779 26.7128C18.2855 26.6969 18.8969 26.6941 19.5018 26.7128C19.7437 26.7213 19.8112 26.6341 19.8543 26.4128C20.3598 23.8153 21.7832 21.8854 24.1116 20.6448C25.5211 19.8855 27.1343 19.5902 28.7214 19.8009C28.8311 19.814 28.983 19.8947 28.9802 19.6574C28.9727 18.9551 28.9774 18.2443 28.9774 17.4285ZM34.765 27.9094C34.8007 24.0863 31.6856 20.9262 27.8512 20.898C24.0356 20.8708 20.8849 23.9925 20.8596 27.8315C20.8343 31.6705 23.9325 34.7997 27.7771 34.8325C31.603 34.8701 34.7285 31.7662 34.765 27.9056V27.9094ZM9.2703 13.3578C9.2703 10.946 9.2703 8.53419 9.27593 6.12237C9.27593 5.88513 9.22998 5.80824 8.97585 5.81011C7.2467 5.82199 5.51723 5.82199 3.78745 5.81011C3.54177 5.81011 3.47894 5.87294 3.47894 6.11956C3.48644 10.9432 3.48644 15.7668 3.47894 20.5905C3.47894 20.8333 3.53614 20.9018 3.7837 20.8999C5.5016 20.8886 7.21919 20.8886 8.93647 20.8999C9.2131 20.8999 9.2778 20.8286 9.27686 20.5567C9.26561 18.1589 9.2703 15.7584 9.2703 13.3578ZM24.4614 2.32273C25.8764 2.32273 27.2905 2.32273 28.7045 2.32273C28.7983 2.32273 28.9174 2.38931 28.9793 2.25053C29.0311 2.13254 29.0523 2.00343 29.0411 1.87507C29.0299 1.74671 28.9866 1.62323 28.9151 1.51601C28.8437 1.40879 28.7464 1.32127 28.6323 1.2615C28.5181 1.20174 28.3908 1.17166 28.2619 1.17403C20.2444 1.17403 12.2266 1.17403 4.20849 1.17403C3.68618 1.17403 3.49394 1.37001 3.49019 1.89513C3.49019 2.69126 3.50895 3.48926 3.47988 4.28351C3.46863 4.60702 3.57365 4.65859 3.86528 4.65859C8.62265 4.64922 13.3797 4.64922 18.1364 4.65859C18.4693 4.65859 18.5594 4.59108 18.5537 4.24693C18.5322 3.04665 19.2636 2.3293 20.4648 2.32742C21.7945 2.32242 23.1251 2.32086 24.4567 2.32273H24.4614Z" fill="#805BEA"/>
<path d="M8.1198 31.8761C8.1198 31.3716 8.11417 30.8681 8.1198 30.3645C8.1198 30.1845 8.08698 30.0785 7.90506 29.9838C7.29554 29.6687 6.95984 29.1492 6.95609 28.4591C6.95234 27.7689 7.2796 27.24 7.89381 26.9287C8.08791 26.8274 8.12261 26.7093 8.12167 26.518C8.11511 25.5221 8.12167 24.5263 8.11323 23.5304C8.11323 23.2894 8.17137 23.2125 8.42174 23.2144C9.26569 23.221 9.26569 23.2144 9.26569 24.0696C9.26569 24.9013 9.27038 25.7331 9.26569 26.5649C9.25567 26.6379 9.27059 26.7121 9.30803 26.7756C9.34547 26.8391 9.40324 26.8881 9.47199 26.9146C9.76226 27.0469 10.0075 27.2612 10.1774 27.5311C10.3474 27.801 10.4347 28.1148 10.4285 28.4337C10.435 29.1342 10.0974 29.6687 9.47199 29.9904C9.40356 30.0167 9.34605 30.0654 9.30878 30.1286C9.2715 30.1917 9.25665 30.2656 9.26663 30.3382C9.27319 31.3575 9.26194 32.3768 9.27507 33.3962C9.27507 33.625 9.21974 33.7047 8.98813 33.6831C8.7115 33.6578 8.34766 33.7656 8.17606 33.6259C8.00446 33.4862 8.13105 33.1008 8.12167 32.8241C8.11229 32.5091 8.1198 32.1921 8.1198 31.8761ZM8.70025 27.8702C8.62436 27.8698 8.54916 27.8845 8.47897 27.9133C8.40878 27.9421 8.345 27.9846 8.2913 28.0382C8.2376 28.0918 8.19504 28.1555 8.16609 28.2257C8.13714 28.2958 8.12236 28.371 8.12261 28.4469C8.11984 28.5991 8.17749 28.7462 8.28293 28.8561C8.38837 28.9659 8.53303 29.0295 8.68524 29.0329C8.8383 29.0325 8.98499 28.9716 9.09349 28.8637C9.20198 28.7557 9.26352 28.6093 9.26475 28.4562C9.2658 28.3042 9.20734 28.1578 9.10185 28.0482C8.99637 27.9387 8.85223 27.8748 8.70025 27.8702Z" fill="#805BEA"/>
<path d="M12.7574 31.2844C12.7574 30.583 12.7527 29.8778 12.7574 29.1783C12.7674 29.1053 12.7525 29.031 12.7153 28.9674C12.6781 28.9038 12.6206 28.8546 12.552 28.8276C11.9266 28.5078 11.5899 27.9789 11.5918 27.2775C11.5937 26.5761 11.9359 26.0707 12.5417 25.7556C12.7236 25.6618 12.7593 25.5596 12.7565 25.3805C12.748 24.7607 12.7611 24.1399 12.7499 23.5201C12.7499 23.3072 12.7799 23.2134 13.0312 23.2144C13.9023 23.2144 13.9023 23.2031 13.9023 24.0799C13.9023 24.5253 13.907 24.9698 13.9023 25.4143C13.9023 25.5671 13.9305 25.6627 14.0852 25.7396C14.7163 26.0519 15.0623 26.5836 15.0651 27.2784C15.0679 27.9733 14.7238 28.5331 14.0721 28.8416C13.8845 28.9354 13.9052 29.0657 13.9052 29.2167C13.9052 30.6102 13.9005 32.0027 13.9098 33.3952C13.9098 33.6137 13.8714 33.7121 13.6285 33.6878C13.3519 33.6606 12.9899 33.7721 12.8165 33.6334C12.643 33.4946 12.7649 33.1101 12.7593 32.8344C12.7499 32.3149 12.7574 31.8001 12.7574 31.2844ZM13.3388 27.8608C13.4141 27.8608 13.4887 27.8457 13.5581 27.8164C13.6274 27.7871 13.6902 27.7441 13.7427 27.69C13.7952 27.636 13.8363 27.572 13.8635 27.5017C13.8908 27.4315 13.9037 27.3565 13.9014 27.2813C13.9014 27.206 13.8864 27.1315 13.8571 27.0622C13.8278 26.9929 13.785 26.9301 13.731 26.8777C13.6771 26.8252 13.6132 26.7841 13.543 26.7568C13.4729 26.7295 13.3981 26.7165 13.3228 26.7186C13.2474 26.7186 13.1728 26.7337 13.1033 26.7631C13.0339 26.7925 12.971 26.8355 12.9186 26.8897C12.8661 26.9438 12.825 27.008 12.7978 27.0783C12.7706 27.1486 12.7578 27.2237 12.7602 27.2991C12.7595 27.3742 12.7741 27.4487 12.8029 27.5181C12.8318 27.5875 12.8744 27.6503 12.9282 27.7028C12.982 27.7553 13.0459 27.7963 13.1159 27.8235C13.186 27.8506 13.2609 27.8633 13.336 27.8608H13.3388Z" fill="#805BEA"/>
<path d="M4.6378 26.2294C4.6378 27.1061 4.6378 27.9838 4.6378 28.8615C4.6378 29.0378 4.66312 29.1494 4.84692 29.2413C5.13668 29.374 5.38109 29.5889 5.5498 29.8593C5.7185 30.1297 5.80407 30.4437 5.79589 30.7623C5.80852 31.0807 5.72726 31.3958 5.5622 31.6684C5.39714 31.941 5.15557 32.1591 4.86755 32.2955C4.67531 32.3949 4.61436 32.5065 4.63968 32.6996C4.64203 32.7346 4.64203 32.7697 4.63968 32.8046C4.63968 33.7855 4.63968 33.7808 3.6532 33.6833C3.51066 33.6692 3.47316 33.6205 3.48441 33.4957C3.49097 33.4142 3.47878 33.3316 3.48441 33.2501C3.52567 32.7634 3.44971 32.4164 2.96772 32.076C1.96624 31.3681 2.13972 29.8686 3.22654 29.2694C3.43846 29.1522 3.48816 29.0303 3.48722 28.81C3.47972 27.0546 3.48722 25.2991 3.47691 23.5447C3.47691 23.2755 3.55193 23.2127 3.81074 23.2165C4.63781 23.2287 4.6378 23.2165 4.6378 24.0548V26.2294ZM3.49004 30.7642C3.48725 30.9169 3.54475 31.0645 3.65006 31.1751C3.75538 31.2856 3.90003 31.3503 4.05267 31.3549C4.20545 31.355 4.35219 31.2953 4.46153 31.1886C4.57087 31.0818 4.63413 30.9366 4.6378 30.7839C4.63985 30.6315 4.58209 30.4844 4.4769 30.3741C4.37171 30.2638 4.22748 30.1992 4.07517 30.194C3.99928 30.1929 3.92392 30.2068 3.8534 30.2349C3.78288 30.2629 3.7186 30.3047 3.66424 30.3576C3.60988 30.4106 3.56651 30.4738 3.53661 30.5435C3.50672 30.6133 3.49089 30.6883 3.49004 30.7642Z" fill="#805BEA"/>
<path d="M31.6818 9.30961C32.8718 9.63125 33.591 10.4724 33.6098 11.5648C33.6332 12.9339 32.5192 13.9926 31.1257 13.926C29.8392 13.8651 28.8265 12.646 28.9999 11.3398C29.029 11.1166 28.9737 11.035 28.7946 10.9441C28.2441 10.6627 27.6993 10.3702 27.1582 10.071C27.0864 10.0247 27.0027 10 26.9173 10C26.8318 10 26.7481 10.0247 26.6763 10.071C25.0821 10.9253 23.4833 11.7683 21.8873 12.6169C21.7523 12.6882 21.6173 12.7754 21.4644 12.7726C21.199 12.7726 20.9956 12.6545 20.9018 12.3844C20.8518 12.2633 20.848 12.1281 20.891 12.0044C20.9341 11.8806 21.021 11.777 21.1353 11.713C21.3697 11.562 21.6257 11.4439 21.8723 11.3126L25.6129 9.32649C25.5866 9.19521 25.4647 9.18583 25.3794 9.13895C24.0209 8.4144 22.6613 7.69204 21.3003 6.97188C21.0302 6.82934 20.8315 6.64649 20.8699 6.31547C20.9205 5.87287 21.366 5.6872 21.8132 5.92257C22.8447 6.46551 23.8762 7.01689 24.9077 7.56451C25.4947 7.87584 26.0864 8.17966 26.6669 8.50223C26.7423 8.55243 26.8309 8.57921 26.9215 8.57921C27.0121 8.57921 27.1006 8.55243 27.1761 8.50223C27.7062 8.20716 28.2423 7.92304 28.7843 7.64985C28.9718 7.55607 29.0365 7.46699 29.0056 7.22881C28.8415 5.97414 29.7267 4.8545 31.0038 4.6604C32.1816 4.48129 33.3238 5.3168 33.5704 6.53584C33.6822 7.11613 33.5669 7.71723 33.2483 8.21494C32.9296 8.71265 32.4319 9.06894 31.8581 9.21021C31.784 9.23272 31.709 9.22428 31.6818 9.30961ZM31.2917 5.81567C31.1396 5.8148 30.9889 5.84403 30.8481 5.90166C30.7073 5.9593 30.5794 6.0442 30.4716 6.15149C30.3638 6.25878 30.2782 6.38633 30.2199 6.52681C30.1616 6.66728 30.1316 6.8179 30.1318 6.97C30.134 7.27715 30.2566 7.57116 30.4734 7.78879C30.6901 8.00642 30.9836 8.13028 31.2908 8.13371C31.4429 8.13322 31.5934 8.10274 31.7338 8.04402C31.8741 7.98529 32.0014 7.89947 32.1086 7.79148C32.2157 7.68348 32.3005 7.55542 32.3581 7.41462C32.4157 7.27382 32.4449 7.12305 32.4442 6.97094C32.4459 6.81898 32.4173 6.66819 32.3601 6.52742C32.3028 6.38665 32.218 6.25872 32.1107 6.15113C32.0034 6.04354 31.8757 5.95845 31.735 5.90085C31.5944 5.84324 31.4437 5.81428 31.2917 5.81567ZM32.4442 11.6295C32.4479 11.4772 32.4211 11.3257 32.3653 11.1839C32.3095 11.0421 32.2259 10.9129 32.1193 10.804C32.0128 10.6951 31.8855 10.6086 31.7449 10.5497C31.6044 10.4908 31.4535 10.4607 31.3011 10.4611C31.149 10.4589 30.9981 10.4868 30.8568 10.5432C30.7156 10.5996 30.5869 10.6833 30.4782 10.7897C30.3695 10.896 30.283 11.0228 30.2235 11.1628C30.164 11.3027 30.1329 11.4531 30.1318 11.6051C30.1317 11.9123 30.252 12.2073 30.467 12.4268C30.6819 12.6463 30.9743 12.7728 31.2814 12.7792C31.5885 12.7797 31.8833 12.6585 32.1012 12.4421C32.3191 12.2258 32.4424 11.9319 32.4442 11.6248V11.6295ZM28.1513 9.29273C28.6145 9.53935 29.0224 9.75503 29.4294 9.97633C29.449 9.99219 29.4717 10.0039 29.4959 10.0108C29.5202 10.0177 29.5456 10.0197 29.5707 10.0165C29.5957 10.0134 29.6199 10.0052 29.6417 9.99249C29.6635 9.97978 29.6825 9.9628 29.6976 9.94257C30.038 9.60781 30.4543 9.40713 31.031 9.30117C30.445 9.15958 29.9995 8.9664 29.6573 8.60163C29.5851 8.52661 29.51 8.56881 29.436 8.6082L28.1513 9.29273Z" fill="#805BEA"/>
<path d="M14.5283 6.9665C15.3929 6.9665 16.2584 6.97307 17.123 6.96182C17.3358 6.96182 17.4043 7.01151 17.3986 7.23282C17.3893 8.9901 17.3893 10.7468 17.3986 12.5028C17.3986 12.7475 17.3124 12.7841 17.0958 12.7841C15.3541 12.7766 13.6124 12.7766 11.8708 12.7841C11.6392 12.7841 11.5792 12.7194 11.5801 12.4897C11.5895 10.7449 11.5895 8.99979 11.5801 7.25438C11.5801 6.99276 11.6673 6.95338 11.8989 6.95619C12.7729 6.97401 13.6515 6.9665 14.5283 6.9665ZM14.5283 8.13865C14.0153 8.13865 13.4968 8.14616 12.9876 8.13397C12.8001 8.13397 12.7532 8.18835 12.7541 8.37121C12.7626 9.37644 12.7644 10.3826 12.7541 11.3888C12.7541 11.5895 12.8319 11.6129 12.9989 11.612C13.991 11.6063 14.9831 11.6035 15.9752 11.612C16.174 11.612 16.2274 11.5566 16.2256 11.3588C16.2162 10.3648 16.2162 9.37082 16.2256 8.37683C16.2256 8.16585 16.1524 8.1274 15.9639 8.13209C15.4857 8.14522 15.0075 8.13865 14.5283 8.13865Z" fill="#805BEA"/>
<path d="M14.4929 13.9305C15.3696 13.9305 16.2464 13.937 17.1232 13.9258C17.337 13.9258 17.4045 13.9792 17.4045 14.1987C17.3951 15.9559 17.3951 17.7129 17.4045 19.4696C17.4045 19.7124 17.321 19.7509 17.1026 19.7509C15.3609 19.7434 13.6192 19.7434 11.8776 19.7509C11.6478 19.7509 11.585 19.6899 11.5859 19.4583C11.5953 17.7129 11.5953 15.9678 11.5859 14.223C11.5859 13.9661 11.6675 13.9173 11.9029 13.9211C12.7628 13.938 13.6283 13.9305 14.4929 13.9305ZM12.759 16.8374C12.759 17.3288 12.7665 17.8192 12.759 18.3106C12.7543 18.4934 12.7825 18.5778 12.9982 18.575C14.0015 18.5637 15.0058 18.5666 16.0092 18.575C16.1723 18.575 16.2295 18.5356 16.2277 18.3631C16.2202 17.3453 16.2202 16.3279 16.2277 15.3108C16.2277 15.1345 16.1667 15.0998 16.0054 15.1007C15.0021 15.1064 13.9987 15.1101 12.9953 15.1007C12.775 15.1007 12.7543 15.1889 12.7581 15.3689C12.7656 15.8584 12.759 16.3498 12.759 16.8412V16.8374Z" fill="#805BEA"/>
<path d="M23.7644 27.8578C23.7644 26.5703 23.7644 25.2828 23.7644 23.9953C23.7644 23.2995 24.1451 23.0576 24.7612 23.368C27.3674 24.6708 29.9727 25.9748 32.5771 27.2801C32.8368 27.4095 33.0347 27.5783 33.029 27.8859C33.0234 28.1766 32.8274 28.3388 32.5827 28.4607C29.9677 29.7679 27.3536 31.076 24.7405 32.3851C24.1657 32.672 23.7672 32.431 23.7644 31.7906C23.7606 30.4796 23.7644 29.1687 23.7644 27.8578ZM24.9431 24.7548V30.9851L31.1527 27.8699L24.9431 24.7548Z" fill="#805BEA"/>
<path d="M6.37502 15.1069C5.87334 15.1069 5.37166 15.0994 4.87467 15.1069C4.68712 15.1069 4.64117 15.0543 4.63555 14.8706C4.60366 13.9263 4.59804 13.9263 5.52638 13.9263C6.3075 13.9263 7.08862 13.9319 7.87068 13.9263C8.05822 13.9263 8.12855 13.9741 8.13418 14.1776C8.15856 15.1069 8.16606 15.1069 7.2546 15.1069H6.37502Z" fill="#805BEA"/>
<path d="M6.3546 17.4282C5.86511 17.4282 5.37468 17.4188 4.88519 17.4329C4.68265 17.4385 4.61888 17.3738 4.63295 17.176C4.6517 16.9544 4.6517 16.7317 4.63295 16.5102C4.61044 16.2776 4.71265 16.2458 4.91426 16.2476C5.89324 16.257 6.87285 16.257 7.85308 16.2476C8.065 16.2476 8.12783 16.3048 8.13439 16.5214C8.14565 17.4292 8.15409 17.4292 7.26888 17.4292L6.3546 17.4282Z" fill="#805BEA"/>
<path d="M6.38255 19.7506C5.90431 19.7506 5.42514 19.7384 4.94784 19.7553C4.71528 19.7637 4.62713 19.7168 4.62995 19.4571C4.63745 18.5737 4.62995 18.5737 5.51516 18.5737C6.28409 18.5737 7.05395 18.5803 7.82382 18.5737C8.03762 18.5737 8.12952 18.6075 8.13046 18.855C8.13608 19.7553 8.14546 19.7553 7.2565 19.7553L6.38255 19.7506Z" fill="#805BEA"/>
<path d="M6.39068 8.13871C5.88994 8.13871 5.38826 8.13027 4.89033 8.13871C4.6906 8.1434 4.63902 8.07964 4.63527 7.88272C4.61746 6.96094 4.61089 6.96094 5.51016 6.96094C6.29128 6.96094 7.07241 6.96844 7.85446 6.96094C8.06264 6.96094 8.13578 7.00689 8.13578 7.23006C8.14516 8.13871 8.15454 8.13871 7.23463 8.13871H6.39068Z" fill="#805BEA"/>
<path d="M6.41816 9.28707C6.90858 9.28707 7.39807 9.29363 7.88756 9.28707C8.06854 9.28707 8.12199 9.33771 8.12856 9.52244C8.16419 10.4602 8.17075 10.4602 7.22741 10.4602C6.45848 10.4602 5.68861 10.4508 4.91874 10.4658C4.68525 10.4705 4.63086 10.3983 4.63086 10.1713C4.63086 9.28613 4.62336 9.28613 5.50857 9.28613L6.41816 9.28707Z" fill="#805BEA"/>
<path d="M6.37864 12.7841C5.87696 12.7841 5.37528 12.7776 4.87828 12.7841C4.70012 12.7841 4.64198 12.741 4.63542 12.5516C4.60166 11.6045 4.5951 11.6045 5.5225 11.6045C6.29143 11.6045 7.0613 11.612 7.83117 11.6045C8.04778 11.6045 8.13311 11.6429 8.13405 11.8858C8.13405 12.7832 8.14718 12.7832 7.25634 12.7832L6.37864 12.7841Z" fill="#805BEA"/>
<path d="M5.22069 2.32275C5.80489 2.32275 5.80489 2.32275 5.80489 2.89945C5.80489 3.49303 5.80488 3.49303 5.19349 3.49303C4.63086 3.49303 4.63086 3.49303 4.63086 2.9304C4.63461 2.32275 4.63461 2.32275 5.22069 2.32275Z" fill="#805BEA"/>
<path d="M9.86783 2.32275C10.4436 2.32275 10.4436 2.32275 10.4436 2.90883C10.4436 3.4949 10.4436 3.49303 9.85846 3.49303C9.27332 3.49303 9.27051 3.49303 9.27051 2.91633C9.27051 2.32275 9.27051 2.32275 9.86783 2.32275Z" fill="#805BEA"/>
<path d="M6.95117 2.86194C6.95117 2.32275 6.95117 2.32275 7.49786 2.32275C8.12332 2.32275 8.12332 2.32275 8.12332 2.96322C8.12332 3.49303 8.12332 3.49303 7.58882 3.49303C6.95117 3.49303 6.95117 3.49303 6.95117 2.86194Z" fill="#805BEA"/>
</svg>
