<svg width="21" height="22" viewBox="0 0 21 22" fill="none" xmlns="http://www.w3.org/2000/svg">
<path d="M8.25483 1H17.3909C17.676 1 17.9494 1.11324 18.1509 1.31481C18.3525 1.51638 18.4658 1.78977 18.4658 2.07484V19.9252C18.4658 20.2102 18.3525 20.4836 18.1509 20.6852C17.9494 20.8868 17.676 21 17.3909 21H2.61194C2.32688 21 2.05349 20.8868 1.85192 20.6852C1.65035 20.4836 1.53711 20.2102 1.53711 19.9252V7.64786L8.25483 1Z" stroke="#D4D4D4" stroke-miterlimit="10"/>
<path d="M1.59095 7.64782H7.15589C7.44096 7.64782 7.71435 7.53458 7.91592 7.33301C8.11749 7.13144 8.23075 6.85805 8.23075 6.57299V1.06446C8.23067 1.0592 8.22905 1.05407 8.22609 1.04972C8.22313 1.04537 8.21898 1.04199 8.21412 1.03999C8.20925 1.03798 8.2039 1.03745 8.19873 1.03846C8.19357 1.03947 8.18881 1.04197 8.18505 1.04565L1.57213 7.60214C1.56845 7.6059 1.56596 7.61065 1.56495 7.61582C1.56394 7.62098 1.56447 7.62632 1.56648 7.63119C1.56848 7.63605 1.57187 7.64022 1.57622 7.64318C1.58057 7.64613 1.58569 7.64775 1.59095 7.64782Z" stroke="#D4D4D4" stroke-miterlimit="10"/>
<path d="M4.33789 15.6393H15.6344" stroke="#D4D4D4" stroke-linecap="round" stroke-linejoin="round"/>
<path d="M4.33789 12.9521H15.6344" stroke="#D4D4D4" stroke-linecap="round" stroke-linejoin="round"/>
<path d="M4.33789 18.3264H15.6344" stroke="#D4D4D4" stroke-linecap="round" stroke-linejoin="round"/>
</svg>
