<svg width="1920" height="320" viewBox="0 0 1920 320" fill="none" xmlns="http://www.w3.org/2000/svg">
<rect width="1920" height="320" fill="#010101" fill-opacity="0.15"/>
<path d="M322.773 205.938C322.492 204.062 321.051 202.926 319.07 202.914C316.434 202.926 314.688 204.941 314.688 208.516C314.688 212.172 316.457 214.105 319.047 214.117C320.98 214.105 322.434 213.051 322.773 211.211L326.336 211.234C325.949 214.375 323.312 217.234 319 217.234C314.465 217.234 311.102 214.035 311.102 208.516C311.102 202.973 314.523 199.797 319 199.797C322.914 199.797 325.867 202.035 326.336 205.938H322.773ZM334.445 217.258C330.602 217.246 328.199 214.609 328.211 210.672C328.199 206.746 330.602 204.109 334.445 204.109C338.301 204.109 340.691 206.746 340.703 210.672C340.691 214.609 338.301 217.246 334.445 217.258ZM331.727 210.672C331.727 212.898 332.652 214.551 334.469 214.562C336.238 214.551 337.176 212.898 337.164 210.672C337.176 208.434 336.238 206.758 334.469 206.758C332.652 206.758 331.727 208.434 331.727 210.672ZM346.352 209.641V217H342.883V204.273H346.188V206.5H346.328C346.902 205.035 348.262 204.109 350.148 204.109C352.809 204.109 354.543 205.926 354.531 208.891V217H351.086V209.5C351.074 207.93 350.23 206.992 348.789 206.992C347.348 206.992 346.352 207.965 346.352 209.641ZM363.93 204.273V206.875H361.539V213.086C361.527 214.105 362.031 214.352 362.734 214.375C363.086 214.375 363.695 214.34 364.117 214.305V217.047C363.742 217.105 363.121 217.176 362.266 217.164C359.758 217.176 358.047 216.051 358.07 213.578V206.875H356.312V204.273H358.07V201.227H361.539V204.273H363.93ZM365.5 213.438C365.512 210.602 367.785 209.676 370.234 209.523C371.148 209.465 372.859 209.383 373.398 209.359V208.328C373.387 207.262 372.66 206.652 371.359 206.641C370.176 206.652 369.438 207.18 369.25 208.047H365.945C366.156 205.844 368.078 204.109 371.453 204.109C374.23 204.109 376.855 205.352 376.844 208.422V217H373.562V215.242H373.469C372.848 216.414 371.629 217.246 369.742 217.234C367.305 217.246 365.512 215.957 365.5 213.438ZM368.828 213.344C368.828 214.316 369.613 214.832 370.727 214.844C372.309 214.832 373.41 213.801 373.398 212.453V211.527C372.871 211.551 371.383 211.633 370.797 211.68C369.59 211.785 368.828 212.359 368.828 213.344ZM385.211 217.258C381.309 217.246 378.965 214.551 378.977 210.672C378.965 206.781 381.355 204.109 385.211 204.109C388.492 204.109 390.719 206.02 390.859 208.938H387.602C387.391 207.684 386.57 206.816 385.258 206.805C383.594 206.816 382.492 208.211 382.492 210.625C382.492 213.086 383.57 214.492 385.258 214.492C386.477 214.492 387.379 213.73 387.602 212.383H390.859C390.707 215.266 388.586 217.246 385.211 217.258ZM399.719 204.273V206.875H397.328V213.086C397.316 214.105 397.82 214.352 398.523 214.375C398.875 214.375 399.484 214.34 399.906 214.305V217.047C399.531 217.105 398.91 217.176 398.055 217.164C395.547 217.176 393.836 216.051 393.859 213.578V206.875H392.102V204.273H393.859V201.227H397.328V204.273H399.719ZM350.266 255.75V260.484H334.188V267.844H328.281V260.484H311.219V255.75H350.266ZM315.812 276.562V264.141H321.766V271.781H345.953V276.562H315.812ZM316.094 252.234V236.531H345.25V252.234H316.094ZM321.953 247.594H339.391V241.172H321.953V247.594ZM366.578 237.516C373.352 237.492 378.367 241.852 378.391 247.969C378.367 254.109 373.352 258.445 366.578 258.469C359.852 258.445 354.695 254.109 354.719 247.969C354.695 241.852 359.852 237.492 366.578 237.516ZM352.938 263.812C360.555 263.836 371.102 263.742 380.219 262.453L380.688 266.766C371.219 268.617 361.094 268.688 353.641 268.688L352.938 263.812ZM360.672 247.969C360.648 251.344 363.203 253.289 366.578 253.266C369.977 253.289 372.555 251.344 372.578 247.969C372.555 244.641 369.977 242.672 366.578 242.672C363.203 242.672 360.648 244.641 360.672 247.969ZM382.656 277.406V234.656H388.609V277.406H382.656ZM438.953 234.656V251.344H445.234V256.266H438.953V277.312H433.047V234.656H438.953ZM405.062 245.812V241.031H414.719V235.312H420.719V241.031H430.141V245.812H405.062ZM406.797 258.375C406.773 252.422 411.414 248.18 417.719 248.203C423.93 248.18 428.594 252.422 428.594 258.375C428.594 264.328 423.93 268.523 417.719 268.547C411.414 268.523 406.773 264.328 406.797 258.375ZM412.516 258.375C412.516 261.68 414.695 263.648 417.719 263.625C420.695 263.648 422.875 261.68 422.875 258.375C422.875 255.094 420.695 253.078 417.719 253.031C414.695 253.078 412.516 255.094 412.516 258.375ZM482.641 234.656V277.312H476.594V234.656H482.641ZM446.922 265.219C457.938 260.016 462.789 253.266 463.75 243.797H449.219V239.109H469.844C469.82 252.047 465.297 262.805 450.062 270L446.922 265.219Z" fill="white"/>
</svg>
