<svg width="2849" height="702" viewBox="0 0 2849 702" fill="none" xmlns="http://www.w3.org/2000/svg">
<path d="M1015.64 519.462C1015.64 517.295 1016.02 516.53 1017.61 516.021C1020.48 515.001 1030.87 514.363 1036.67 514.363C1043.81 514.363 1053.3 515.128 1060.06 519.399C1066.3 523.542 1069.04 529.724 1069.04 536.162C1069.04 546.87 1061.4 553.244 1055.41 556.176C1054.51 556.686 1053.56 557.068 1052.54 557.451C1053.56 557.706 1054.39 557.833 1055.41 558.088C1068.28 561.275 1074.78 570.581 1074.78 582.054C1074.78 606.976 1045.34 606.976 1036.1 606.976C1027.56 606.976 1019.72 606.084 1017.55 605.319C1015.77 604.809 1015.57 604.171 1015.57 601.048V519.462H1015.64ZM1027.81 555.092C1031.7 555.22 1034.69 555.22 1038.33 554.965C1054.51 553.69 1056.49 542.982 1056.49 538.457C1056.49 521.821 1040.68 521.821 1036.73 521.821C1033.35 521.821 1030.49 522.076 1027.87 522.458V555.092H1027.81ZM1027.81 598.69C1030.17 598.945 1033.67 599.327 1038.2 599.327C1051.58 599.327 1061.84 594.419 1061.84 581.672C1061.84 574.979 1059.23 570.836 1057.32 568.796C1051.58 562.104 1042.91 561.721 1035.9 561.721C1032.53 561.721 1030.74 561.849 1027.75 561.976V598.754L1027.81 598.69Z" fill="#231815"/>
<path d="M1096.38 570.709C1097.4 588.811 1106.26 597.16 1115.76 597.16C1123.28 597.16 1128.89 592.762 1133.03 585.815C1134.81 582.755 1135.13 582.054 1136.66 582.054C1137.43 582.054 1139.21 582.437 1139.21 585.178C1139.21 588.556 1133.67 607.741 1114.16 607.741C1106.64 607.741 1096.51 604.618 1090.9 592.762C1087.65 586.261 1086.89 578.931 1086.89 572.876C1086.89 563.57 1088.61 556.878 1091.16 552.097C1092.5 549.356 1098.87 537.756 1114.29 537.756C1134.05 537.756 1138.32 555.412 1138.32 560.702C1138.32 564.335 1136.21 564.59 1134.68 564.845L1096.38 570.645V570.709ZM1126.34 559.618C1125.57 551.332 1120.09 545.15 1112.95 545.15C1102.82 545.15 1097.66 553.181 1096.45 564.399L1126.4 559.618H1126.34Z" fill="#231815"/>
<path d="M1179.93 568.541C1186.43 571.92 1195.23 576.254 1195.23 588.428C1195.23 593.846 1193.12 599.264 1189.36 602.769C1184.07 607.55 1177.32 607.805 1174.2 607.805C1157.44 607.805 1152.53 596.969 1152.53 593.208C1152.53 589.448 1155.14 587.663 1157.63 587.663C1160.37 587.663 1161.9 589.83 1162.66 590.978C1163.04 591.615 1163.55 592.571 1164.32 593.91C1166.1 596.778 1168.72 600.347 1175.09 600.347C1181.46 600.347 1184.78 595.312 1184.78 590.531C1184.78 582.692 1178.28 579.568 1172.79 576.891C1162.53 571.856 1153.87 567.585 1153.87 555.73C1153.87 546.552 1160.11 537.819 1173.81 537.819C1187.52 537.819 1193.32 546.743 1193.32 550.822C1193.32 553.945 1191.21 555.73 1188.66 555.73C1185.41 555.73 1184.27 553.563 1183.18 551.332C1181.78 548.846 1179.55 544.384 1173.56 544.384C1166.8 544.384 1164.19 550.057 1164.19 553.818C1164.19 561.02 1170.25 563.889 1174.71 565.928L1180.06 568.541H1179.93Z" fill="#231815"/>
<path d="M1225.37 545.022V586.962C1225.5 592.38 1225.5 593.782 1226.9 596.268C1228.24 598.945 1230.66 600.794 1234.42 600.794C1234.93 600.794 1237.23 600.666 1237.67 600.666C1239.9 600.666 1240.16 602.451 1240.16 603.279C1240.16 606.658 1233.27 607.55 1230.41 607.55C1224.35 607.55 1219.89 605.064 1217.28 601.622C1214.41 597.607 1214.28 593.336 1214.28 589.384V545.086H1207.65C1206 545.086 1205.81 544.958 1205.81 543.174C1205.81 539.796 1205.81 539.541 1207.65 539.413H1214.28V531.637C1214.28 529.342 1214.67 528.705 1216.19 527.111L1221.93 521.821C1223.2 520.674 1223.65 520.419 1224.1 520.419C1225.37 520.419 1225.44 522.14 1225.44 523.606V539.349H1236.33C1237.86 539.349 1238.31 539.477 1238.31 541.134C1238.31 544.576 1238.31 545.022 1236.46 545.022H1225.44H1225.37Z" fill="#231815"/>
<path d="M1300.89 562.549V603.725C1300.89 606.211 1300.13 606.211 1298.4 606.211H1291.27C1289.29 606.211 1288.65 606.211 1288.65 603.852V517.932C1288.65 515.701 1289.16 515.064 1290.88 514.937H1334.09C1335.88 515.064 1336.45 515.064 1336.45 516.721C1336.45 518.506 1336.45 521.119 1336.32 521.629C1336.32 522.521 1336.2 523.478 1334.03 523.286H1300.83V554.391H1328.74C1330.52 554.391 1331.1 554.518 1331.1 556.558C1331.1 558.088 1331.1 560.701 1330.97 561.083C1330.84 562.358 1330.21 562.549 1328.68 562.549H1300.76H1300.89Z" fill="#231815"/>
<path d="M1383.55 592.635C1383.42 598.435 1382.78 601.686 1378.13 604.235C1373.41 606.849 1365.89 607.741 1360.48 607.741C1357.1 607.741 1338.55 607.741 1338.55 590.213C1338.55 575.362 1352.58 571.091 1372.65 565.036V558.471C1372.65 553.435 1372.65 544.639 1363.28 544.639C1356.02 544.639 1353.79 550.44 1352.77 553.053C1351.87 555.475 1350.92 558.598 1347.16 558.598C1345.44 558.598 1342.12 557.323 1342.12 553.18C1342.12 545.404 1351.49 537.819 1364.87 537.819C1383.29 537.819 1383.42 551.651 1383.55 558.471V592.635ZM1372.65 571.091C1359.01 575.616 1349.96 578.548 1349.96 588.492C1349.96 589.512 1349.96 600.793 1362.71 600.793C1372.52 600.793 1372.65 594.866 1372.65 591.36V571.091Z" fill="#231815"/>
<path d="M1402.22 551.842C1402.22 547.444 1402.35 545.277 1405.34 542.919C1409.48 539.795 1417.96 537.756 1425.23 537.756C1437.97 537.756 1442.11 543.046 1444.03 545.532C1446.77 542.536 1451.16 537.756 1463.91 537.756C1484.3 537.756 1484.18 551.715 1484.18 558.535V603.726C1484.18 605.51 1483.67 606.02 1481.88 606.211H1475.25C1473.66 606.211 1473.02 605.956 1473.02 603.726V561.658C1472.9 554.774 1472.77 545.022 1460.91 545.022C1456.52 545.022 1453.78 546.679 1452.25 547.954C1448.74 551.205 1448.74 554.583 1448.74 558.535V603.726C1448.74 605.51 1448.49 606.211 1446.58 606.211H1440.07C1438.35 606.211 1437.59 606.084 1437.59 603.853V560.511C1437.59 555.858 1437.46 544.64 1425.54 544.64C1413.63 544.64 1413.31 554.2 1413.31 558.598V603.789C1413.31 605.829 1412.8 606.275 1410.82 606.275H1404.45C1402.79 606.275 1402.22 605.893 1402.22 603.789V551.906V551.842Z" fill="#231815"/>
<path d="M1509.54 527.876C1505.27 527.876 1502.79 524.753 1502.79 521.12C1502.79 517.168 1505.65 514.3 1509.67 514.3C1513.17 514.3 1516.04 516.913 1516.3 520.737C1516.3 524.371 1513.81 527.812 1509.54 527.812V527.876ZM1515.02 603.853C1515.02 606.02 1514.38 606.211 1512.54 606.211H1505.78C1503.93 606.211 1503.93 605.701 1503.93 603.853V541.771C1503.93 540.114 1503.93 539.349 1506.04 539.349H1512.54C1514.58 539.349 1515.02 539.732 1515.02 541.771V603.853Z" fill="#231815"/>
<path d="M1535.03 509.519C1535.03 507.607 1535.92 507.479 1537.52 507.479H1543.76C1545.67 507.479 1546.12 507.607 1546.12 509.519V603.853C1546.12 605.892 1545.36 606.211 1543.76 606.211H1537.39C1535.35 606.211 1535.03 606.083 1535.03 603.853V509.519Z" fill="#231815"/>
<path d="M1589.78 615.326C1586.27 625.014 1580.73 636.997 1567.34 636.997C1565.81 636.997 1558.55 636.997 1558.55 630.942C1558.55 627.946 1560.52 625.396 1563.9 625.396C1564.92 625.396 1569.51 626.544 1570.66 626.544C1576.01 626.544 1579.71 622.273 1584.55 606.147L1560.27 543.046C1559.63 541.516 1559.5 541.261 1559.5 540.879C1559.5 539.221 1561.16 539.349 1561.73 539.349H1569.13C1571.1 539.349 1571.29 539.604 1571.99 541.644L1589.65 591.296L1605.9 541.644C1606.54 539.731 1606.92 539.413 1607.87 539.349H1613.99C1615.01 539.349 1615.71 539.604 1615.71 540.751C1615.71 541.134 1615.71 541.389 1615.08 543.046L1589.58 615.326H1589.78Z" fill="#231815"/>
<path d="M1677.79 562.549V603.725C1677.79 606.211 1677.02 606.211 1675.3 606.211H1668.16C1666.19 606.211 1665.55 606.211 1665.55 603.852V517.932C1665.55 515.701 1666.06 515.064 1667.78 514.937H1710.99C1712.77 515.064 1713.35 515.064 1713.35 516.721C1713.35 518.506 1713.35 521.119 1713.22 521.629C1713.22 522.521 1713.09 523.478 1710.93 523.286H1677.72V554.391H1705.64C1707.42 554.391 1707.99 554.518 1707.99 556.558C1707.99 558.088 1707.99 560.701 1707.87 561.083C1707.74 562.358 1707.1 562.549 1705.64 562.549H1677.72H1677.79Z" fill="#231815"/>
<path d="M1735.78 603.98C1735.65 606.02 1735.01 606.147 1733.49 606.147H1727.11C1725.39 606.147 1724.63 606.02 1724.63 603.98V550.057C1724.63 545.532 1725.14 543.938 1727.88 542.345C1731.64 539.986 1739.67 537.819 1747.76 537.819C1753.88 537.819 1760.63 539.222 1760.63 545.277C1760.63 548.273 1758.59 550.822 1755.47 550.822C1753.18 550.822 1752.35 549.802 1750.25 547.316C1748.59 545.659 1747 544.066 1743.36 544.066C1735.97 544.066 1735.84 549.739 1735.72 553.117V603.98H1735.78Z" fill="#231815"/>
<path d="M1776.82 527.876C1772.55 527.876 1770.07 524.753 1770.07 521.12C1770.07 517.168 1772.93 514.3 1776.95 514.3C1780.45 514.3 1783.32 516.913 1783.64 520.737C1783.64 524.371 1781.15 527.812 1776.88 527.812L1776.82 527.876ZM1782.3 603.853C1782.3 606.02 1781.66 606.211 1779.82 606.211H1773.06C1771.15 606.211 1771.15 605.701 1771.15 603.853V541.771C1771.15 540.114 1771.15 539.349 1773.32 539.349H1779.82C1781.79 539.349 1782.3 539.732 1782.3 541.771V603.853Z" fill="#231815"/>
<path d="M1808.37 570.709C1809.39 588.811 1818.24 597.16 1827.8 597.16C1835.32 597.16 1840.93 592.762 1845.07 585.815C1846.86 582.755 1847.24 582.054 1848.71 582.054C1849.47 582.054 1851.19 582.437 1851.19 585.178C1851.19 588.556 1845.65 607.741 1826.15 607.741C1818.63 607.741 1808.49 604.618 1802.89 592.762C1799.64 586.261 1798.87 578.931 1798.87 572.876C1798.87 563.57 1800.59 556.878 1803.14 552.097C1804.48 549.356 1810.85 537.756 1826.27 537.756C1846.03 537.756 1850.3 555.412 1850.3 560.702C1850.3 564.335 1848.2 564.59 1846.67 564.845L1808.37 570.645V570.709ZM1838.32 559.618C1837.55 551.332 1832.01 545.15 1824.87 545.15C1814.74 545.15 1809.64 553.181 1808.37 564.399L1838.32 559.618Z" fill="#231815"/>
<path d="M1917.73 603.598C1917.73 604.745 1917.6 605.893 1916.2 606.211H1909.31C1907.34 606.211 1906.57 605.956 1906.57 603.598V560.256C1906.57 554.2 1906.57 544.512 1891.92 544.512C1878.47 544.512 1878.34 552.798 1878.34 555.985V603.598C1878.34 605.893 1877.45 606.211 1875.73 606.211H1869.61C1867.83 606.339 1867.25 605.956 1867.25 603.726V551.715C1867.25 546.807 1868.02 544.448 1872.29 542.281C1880.7 537.756 1892.49 537.756 1893.83 537.756C1917.6 537.756 1917.73 551.46 1917.73 559.045V603.598Z" fill="#231815"/>
<path d="M1988.47 592.507C1988.47 594.929 1988.47 597.224 1986.75 599.71C1982.48 605.892 1970.24 607.741 1963.61 607.741C1945.83 607.741 1934.17 596.14 1934.17 574.851C1934.17 557.196 1944.17 537.819 1963.61 537.819C1970.11 537.819 1974 539.986 1977.25 542.09V510.348C1977.25 508.244 1977.5 507.479 1979.61 507.479H1985.98C1987.89 507.479 1988.59 507.734 1988.47 510.093V592.571V592.507ZM1977.19 549.228C1974.83 547.189 1971.45 544.448 1965.21 544.448C1953.67 544.448 1945.39 556.049 1945.39 571.665C1945.39 589.639 1954.05 599.71 1966.03 599.71C1976.93 599.71 1977.06 593.272 1977.19 589.511V549.228Z" fill="#231815"/>
<path d="M2007.84 509.519C2007.84 507.607 2008.73 507.479 2010.33 507.479H2016.57C2018.42 507.479 2018.93 507.607 2018.93 509.519V603.853C2018.93 605.892 2018.16 606.211 2016.57 606.211H2010.2C2008.16 606.211 2007.78 606.083 2007.78 603.853V509.519H2007.84Z" fill="#231815"/>
<path d="M2062.58 615.326C2059.08 625.014 2053.6 636.997 2040.15 636.997C2038.62 636.997 2031.42 636.997 2031.42 630.942C2031.42 627.946 2033.4 625.396 2036.77 625.396C2037.79 625.396 2042.38 626.544 2043.53 626.544C2048.88 626.544 2052.51 622.273 2057.42 606.147L2033.14 543.046C2032.5 541.516 2032.38 541.261 2032.38 540.879C2032.38 539.221 2034.03 539.349 2034.67 539.349H2042.06C2044.1 539.349 2044.23 539.604 2044.93 541.644L2062.58 591.296L2078.9 541.644C2079.54 539.731 2079.92 539.413 2080.87 539.349H2086.99C2088.01 539.349 2088.78 539.604 2088.78 540.751C2088.78 541.134 2088.78 541.389 2088.14 543.046L2062.58 615.326Z" fill="#231815"/>
<path d="M2209.1 534.059L2181.44 603.789C2180.29 606.53 2180.16 606.785 2178.83 606.785C2177.3 606.785 2177.04 606.147 2176.08 603.789L2148.04 534.059V603.916C2148.04 606.084 2147.28 606.275 2145.81 606.275H2139.7C2138.55 606.02 2138.42 605.51 2138.42 603.789V517.55C2138.42 515.638 2138.8 515.128 2140.65 515.128H2149.19C2151.04 515.128 2151.42 515.383 2152.19 517.55L2179.97 584.54L2206.55 517.678C2207.57 515.383 2207.69 515.064 2209.8 515.064H2218.46C2220.25 515.064 2220.95 515.064 2220.95 517.295V604.044C2220.82 605.956 2220.44 606.211 2218.46 606.211H2211.45C2209.48 606.211 2209.22 605.956 2209.22 603.725V533.995L2209.1 534.059Z" fill="#231815"/>
<path d="M2282.58 592.635C2282.45 598.435 2281.81 601.686 2277.22 604.235C2272.44 606.849 2264.92 607.741 2259.57 607.741C2256.19 607.741 2237.65 607.741 2237.65 590.213C2237.65 575.362 2251.67 571.091 2271.74 565.036V558.471C2271.74 553.435 2271.74 544.639 2262.37 544.639C2255.11 544.639 2252.88 550.44 2251.86 553.053C2250.97 555.475 2250.01 558.598 2246.25 558.598C2244.53 558.598 2241.22 557.323 2241.22 553.18C2241.22 545.404 2250.58 537.819 2264.03 537.819C2282.45 537.819 2282.58 551.651 2282.7 558.471V592.635H2282.58ZM2271.68 571.091C2258.04 575.616 2248.99 578.548 2248.99 588.492C2248.99 589.512 2248.99 600.793 2261.8 600.793C2271.55 600.793 2271.68 594.866 2271.68 591.36V571.091Z" fill="#231815"/>
<path d="M2351.85 603.598C2351.85 604.745 2351.72 605.893 2350.39 606.211H2343.5C2341.46 606.211 2340.76 605.956 2340.76 603.598V560.256C2340.76 554.2 2340.76 544.512 2326.1 544.512C2312.66 544.512 2312.59 552.798 2312.59 555.985V603.598C2312.59 605.893 2311.7 606.211 2309.98 606.211H2303.86C2302.08 606.339 2301.5 605.956 2301.5 603.726V551.715C2301.5 546.807 2302.27 544.448 2306.54 542.281C2314.95 537.756 2326.68 537.756 2328.08 537.756C2351.85 537.756 2351.98 551.46 2351.98 559.045V603.598H2351.85Z" fill="#231815"/>
<path d="M2412.52 592.635C2412.39 598.435 2411.76 601.686 2407.1 604.235C2402.39 606.849 2394.87 607.741 2389.45 607.741C2386.07 607.741 2367.53 607.741 2367.53 590.213C2367.53 575.362 2381.55 571.091 2401.56 565.036V558.471C2401.56 553.435 2401.56 544.639 2392.19 544.639C2384.93 544.639 2382.63 550.44 2381.68 553.053C2380.78 555.475 2379.83 558.598 2376.07 558.598C2374.35 558.598 2371.03 557.323 2371.03 553.18C2371.03 545.404 2380.47 537.819 2393.85 537.819C2412.27 537.819 2412.39 551.651 2412.52 558.471V592.635ZM2401.62 571.091C2387.99 575.616 2378.94 578.548 2378.94 588.492C2378.94 589.512 2378.94 600.793 2391.75 600.793C2401.5 600.793 2401.62 594.866 2401.62 591.36V571.091Z" fill="#231815"/>
<path d="M2471.66 547.444C2473.45 550.057 2475.93 553.499 2475.93 561.212C2475.93 576.955 2463.31 583.138 2453.37 583.138C2450.25 583.138 2448.15 582.628 2445.72 582.118C2442.73 584.986 2440.69 587.663 2440.69 590.277C2440.69 594.42 2446.23 594.802 2453.44 595.185L2466.82 595.949C2472.36 596.332 2486.83 597.479 2486.83 611.565C2486.83 620.361 2477.65 636.615 2450.12 636.615C2445.02 636.615 2441.33 635.977 2438.59 635.213C2430.68 632.982 2426.1 627.883 2426.1 621.7C2426.1 614.752 2431.96 608.761 2439.22 604.044C2435.85 603.152 2429.6 601.558 2429.6 595.376C2429.6 589.831 2437.25 583.265 2440.75 580.142C2438.4 578.74 2435.02 576.637 2432.21 570.964C2430.43 567.331 2429.73 563.443 2429.73 559.809C2429.73 546.807 2438.97 537.756 2452.29 537.756C2456.81 537.756 2459.43 538.648 2462.04 539.541C2464.91 540.688 2466.56 541.325 2469.56 541.325C2471.41 541.325 2481.16 539.541 2481.99 539.541C2483.32 539.541 2483.64 543.174 2483.64 543.556C2483.64 544.448 2483.26 544.576 2482.24 544.831L2471.6 547.444H2471.66ZM2437.12 617.366C2437.12 625.524 2446.3 628.584 2455.16 628.584C2464.78 628.584 2476.7 622.911 2476.7 614.497C2476.7 607.04 2468.28 606.148 2464.27 605.829C2461.53 605.701 2448.02 605.192 2444.9 604.937C2440.88 608.633 2437.12 612.012 2437.12 617.302V617.366ZM2459.55 546.361C2457.83 544.958 2455.41 543.938 2452.54 543.938C2446.94 543.938 2440.18 547.444 2440.18 558.28C2440.18 569.88 2447.32 575.999 2453.82 575.999C2459.3 575.999 2465.48 572.494 2465.48 562.04C2465.48 560.511 2465.35 558.917 2465.1 557.387C2463.7 549.93 2460.38 547.189 2459.62 546.424L2459.55 546.361Z" fill="#231815"/>
<path d="M2502.44 570.709C2503.46 588.811 2512.38 597.16 2521.88 597.16C2529.4 597.16 2535.01 592.762 2539.15 585.815C2540.94 582.755 2541.32 582.054 2542.78 582.054C2543.55 582.054 2545.27 582.437 2545.27 585.178C2545.27 588.556 2539.72 607.741 2520.22 607.741C2512.7 607.741 2502.51 604.618 2496.9 592.762C2493.65 586.261 2492.88 578.931 2492.88 572.876C2492.88 563.57 2494.67 556.878 2497.15 552.097C2498.49 549.356 2504.93 537.756 2520.35 537.756C2540.11 537.756 2544.38 555.412 2544.38 560.702C2544.38 564.335 2542.27 564.59 2540.74 564.845L2502.38 570.645L2502.44 570.709ZM2532.4 559.618C2531.63 551.332 2526.15 545.15 2519.01 545.15C2508.88 545.15 2503.72 553.181 2502.44 564.399L2532.4 559.618Z" fill="#231815"/>
<path d="M2561.2 551.842C2561.2 547.444 2561.33 545.277 2564.32 542.919C2568.47 539.795 2576.94 537.756 2584.21 537.756C2596.95 537.756 2601.1 543.046 2603.01 545.532C2605.75 542.536 2610.15 537.756 2622.89 537.756C2643.28 537.756 2643.16 551.715 2643.16 558.535V603.726C2643.16 605.51 2642.65 606.02 2640.93 606.211H2634.3C2632.64 606.211 2632.07 605.956 2632.07 603.726V561.658C2631.94 554.774 2631.81 545.022 2619.9 545.022C2615.5 545.022 2612.76 546.679 2611.23 547.954C2607.72 551.205 2607.72 554.583 2607.72 558.535V603.726C2607.72 605.51 2607.47 606.211 2605.62 606.211H2599.12C2597.4 606.211 2596.63 606.084 2596.63 603.853V560.511C2596.63 555.858 2596.51 544.64 2584.59 544.64C2572.67 544.64 2572.29 554.2 2572.29 558.598V603.789C2572.29 605.829 2571.78 606.275 2569.8 606.275H2563.43C2561.78 606.275 2561.14 605.893 2561.14 603.789V551.906L2561.2 551.842Z" fill="#231815"/>
<path d="M2669.03 570.709C2670.05 588.811 2678.91 597.16 2688.4 597.16C2695.92 597.16 2701.53 592.762 2705.68 585.815C2707.46 582.755 2707.78 582.054 2709.31 582.054C2710.07 582.054 2711.79 582.437 2711.79 585.178C2711.79 588.556 2706.25 607.741 2686.75 607.741C2679.23 607.741 2669.09 604.618 2663.49 592.762C2660.24 586.261 2659.47 578.931 2659.47 572.876C2659.47 563.57 2661.26 556.878 2663.74 552.097C2665.08 549.356 2671.52 537.756 2686.88 537.756C2706.63 537.756 2710.9 555.412 2710.9 560.702C2710.9 564.335 2708.73 564.59 2707.27 564.845L2668.97 570.645L2669.03 570.709ZM2698.98 559.618C2698.22 551.332 2692.74 545.15 2685.6 545.15C2675.47 545.15 2670.31 553.181 2669.09 564.399L2699.05 559.618H2698.98Z" fill="#231815"/>
<path d="M2778.33 603.598C2778.33 604.745 2778.2 605.893 2776.86 606.211H2769.98C2768 606.211 2767.24 605.956 2767.24 603.598V560.256C2767.24 554.2 2767.24 544.512 2752.58 544.512C2739.2 544.512 2739.07 552.798 2739.07 555.985V603.598C2739.07 605.893 2738.24 606.211 2736.46 606.211H2730.34C2728.62 606.339 2727.98 605.956 2727.98 603.726V551.715C2727.98 546.807 2728.75 544.448 2732.95 542.281C2741.36 537.756 2753.09 537.756 2754.49 537.756C2778.26 537.756 2778.39 551.46 2778.39 559.045V603.598H2778.33Z" fill="#231815"/>
<path d="M2811.02 545.022V586.962C2811.15 592.38 2811.15 593.782 2812.55 596.268C2813.89 598.945 2816.31 600.794 2820.07 600.794C2820.58 600.794 2822.81 600.666 2823.32 600.666C2825.55 600.666 2825.81 602.451 2825.81 603.279C2825.81 606.658 2818.92 607.55 2816.06 607.55C2810.06 607.55 2805.54 605.064 2802.93 601.622C2800.06 597.607 2799.93 593.336 2799.93 589.384V545.086H2793.3C2791.71 545.086 2791.46 544.958 2791.46 543.174C2791.46 539.796 2791.46 539.541 2793.3 539.413H2799.93V531.637C2799.93 529.342 2800.31 528.705 2801.84 527.111L2807.58 521.821C2808.85 520.674 2809.3 520.419 2809.68 520.419C2810.96 520.419 2811.02 522.14 2811.02 523.606V539.349H2821.92C2823.45 539.349 2823.89 539.477 2823.89 541.134C2823.89 544.576 2823.89 545.022 2822.05 545.022H2811.02Z" fill="#231815"/>
<path d="M1046.16 346.793H1017.93L1015.45 212.24H924.25V185.661H1048.97L1046.16 346.857V346.793ZM1112.76 285.795L1111.1 403.266H1082.87L1080.07 185.598H1114.23L1113.4 256.412H1145.33V285.795H1112.89H1112.76Z" fill="#231815"/>
<path d="M1183.69 343.734V316.581H1263.74L1261.51 278.529H1294.52L1292.29 316.581H1372.27V343.734H1183.69ZM1351.05 297.587L1278.08 255.647L1205.3 297.906L1191.28 277.51L1260.68 231.363L1259.53 212.623H1206.38V185.726H1349.64V212.623H1295.92L1295.09 230.789L1365.32 277.191L1351.05 297.651V297.587ZM1331.48 454.831H1303.25L1301.27 391.028H1216.19V364.194H1334.28L1331.48 454.831Z" fill="#231815"/>
<path d="M1531.59 323.529L1479.01 270.371L1429.81 328.819L1409.1 313.713L1462.83 242.963L1461.42 221.674H1415.79V194.522H1461.11L1460.28 172.659H1495.52L1494.95 194.522H1540.51V221.674H1495.2L1494.37 242.071L1549.75 306.128L1531.59 323.465V323.529ZM1481.82 451.899L1479.01 355.398H1512.85L1510.88 425.32H1594.24V451.899H1481.82ZM1603.22 351.447H1574.99L1572.19 185.534H1606.03L1603.22 351.447Z" fill="#231815"/>
<path d="M1662.17 221.993V196.497H1710.29L1708.89 175.527H1743.3L1741.9 196.497H1790.01V221.993H1775.99C1784.41 232.064 1789.44 244.939 1789.44 258.324C1789.44 285.477 1768.73 308.997 1743.3 316.263L1740.75 345.646H1793.33V372.799H1659.62V345.646H1712.45L1710.22 316.263C1684.48 308.997 1663.77 285.477 1663.77 258.324C1663.77 244.875 1669.12 232 1676.96 221.993H1662.11H1662.17ZM1726.54 225.626C1708.89 225.626 1693.53 240.477 1693.53 258.324C1693.53 276.171 1708.89 291.086 1726.54 291.086C1744.19 291.086 1760.12 276.235 1760.12 258.324C1760.12 240.413 1744.45 225.626 1726.54 225.626ZM1842.33 283.501L1840.68 403.776H1812.45L1809.64 185.534H1843.48L1842.65 253.544H1873.43V283.501H1842.33Z" fill="#231815"/>
<path d="M2073.42 345.646L2070.61 405.497H2042.06L2039.51 345.646H1962.59V318.812H2150.27V345.646H2073.35H2073.42ZM2039.58 166.285H2073.42L2072.01 185.024C2101.14 191.717 2124.02 215.237 2124.02 245.768C2124.02 281.844 2092.41 308.168 2056.34 308.168C2020.27 308.168 1988.66 281.844 1988.66 245.768C1988.66 215.237 2011.85 191.781 2040.66 185.024L2039.51 166.285H2039.58ZM2056.34 211.349C2036.45 211.349 2018.29 225.945 2018.29 245.768C2018.29 265.59 2036.45 280.441 2056.34 280.441C2076.22 280.441 2094.89 266.164 2094.89 245.768C2094.89 225.371 2076.41 211.349 2056.34 211.349Z" fill="#231815"/>
<path d="M2299.91 336.723L2297.11 406.134H2268.62L2266.13 336.723H2189.21V309.825H2376.9V336.723H2299.97H2299.91ZM2352.49 293.38L2283.15 232.956L2213.24 293.38L2195.9 274.322L2265.56 204.975L2263.58 176.738H2302.2L2300.23 205.293L2369.89 273.558L2352.55 293.444L2352.49 293.38Z" fill="#231815"/>
<path d="M2504.29 346.794H2476L2473.76 212.241H2382.89V185.662H2507.41L2504.35 346.858L2504.29 346.794ZM2575.86 403.33H2547.63L2544.82 185.662H2578.66L2575.86 403.33Z" fill="#231815"/>
<path d="M2632.07 336.978V310.144H2667.06L2664.51 239.903H2697.26L2695.03 310.144H2764.69V336.978H2632.13H2632.07ZM2754.87 294.719H2726.64L2724.16 212.432H2642.77V185.534H2757.74L2754.94 294.655L2754.87 294.719ZM2694.2 451.963L2691.72 359.924H2724.99L2723.27 425.129H2806.62V451.963H2694.2ZM2815.86 268.968L2814.21 358.203H2785.97L2783.17 185.534H2817.01L2816.18 239.266H2848.05V268.905H2815.86V268.968Z" fill="#231815"/>
<path d="M760.146 495.814C797.046 472.549 818.522 439.469 819.032 405.114C819.542 373.117 802.463 343.861 771.108 322.699C766.073 319.321 760.847 316.134 755.494 313.139C752.818 311.609 750.077 310.207 747.273 308.804C736.694 303.387 725.605 298.734 714.07 294.718C713.56 294.527 712.987 294.399 712.477 294.208C666.464 278.401 613.378 272.601 562.585 272.346C569.468 277.891 574.63 282.48 577.753 285.412L595.916 302.303C626.187 304.47 654.929 308.996 680.867 316.453C686.667 318.11 692.211 319.959 697.692 321.935C707.825 325.568 717.448 329.583 726.37 334.236C727.836 335.001 729.238 335.83 730.64 336.594C734.718 338.889 738.797 341.184 742.557 343.733C761.421 356.226 771.745 372.161 771.49 388.542C771.172 407.6 756.514 426.657 732.424 442.465C678.892 477.585 599.294 467.578 575.777 464.901C575.777 464.901 572.209 464.2 570.679 466.176C569.15 468.151 570.233 470 570.679 471.083C586.611 510.028 593.749 567.584 577.371 598.37C565.198 621.252 543.913 635.912 519.951 641.075C496.18 646.238 471.453 641.011 450.358 626.288C400.777 591.805 375.54 533.803 362.985 476.438C352.279 482.047 341.7 487.337 331.248 492.309C337.239 526.919 351.068 563.824 363.049 587.917C380.065 622.017 403.708 652.93 436.401 676.131C467.374 698.121 504.082 705.897 539.707 698.058C575.523 690.154 605.794 667.463 624.849 634.191C638.678 610.034 645.242 582.372 644.414 554.518C644.159 545.785 643.076 536.989 641.355 528.257C684.436 528.002 727.135 516.657 760.146 495.814Z" fill="#F6AB00"/>
<path d="M416.836 311.545C444.495 307.402 496.243 300.837 545.824 300.136C547.099 298.67 548.373 297.204 549.521 295.738C541.172 288.408 531.995 281.46 522.372 274.959C480.183 275.405 429.837 282.799 413.586 285.285C413.777 286.751 413.841 288.153 414.032 289.619C414.861 297.013 415.816 304.343 416.9 311.609L416.836 311.545Z" fill="#F6AB00"/>
<path d="M351.896 380.765C351.195 356.863 352.024 336.722 352.852 323.209C358.397 321.998 368.912 319.895 376.177 318.492C374.775 310.015 373.5 301.347 372.353 292.551C358.715 295.292 348.072 297.777 341.317 299.435L325.831 303.131L324.174 319.002C322.836 332.133 320.478 361.58 321.625 398.867C322.007 412.826 322.963 427.868 324.556 443.548C334.498 439.214 344.567 434.625 354.637 429.844C352.98 414.228 352.279 391.92 351.96 380.765H351.896Z" fill="#F6AB00"/>
<path d="M752.626 560C726.242 546.487 697.883 551.076 689.152 570.325C680.484 589.574 694.824 616.153 721.208 629.666C747.591 643.242 776.015 638.526 784.682 619.34C793.349 600.091 779.01 573.512 752.626 560Z" fill="#F6AB00"/>
<path d="M115.907 363.111C114.569 346.857 87.611 335.257 55.6189 337.169C23.6268 339.081 -1.22768 353.805 0.0469105 370.058C1.38523 386.248 28.3427 397.912 60.3349 395.936C92.327 394.024 117.118 379.3 115.843 363.047L115.907 363.111Z" fill="#E62E8B"/>
<path d="M595.98 302.303L577.817 285.413C574.631 282.481 569.469 277.891 562.65 272.346C559.909 270.179 556.978 267.821 553.664 265.271C525.177 243.6 475.914 212.432 412.249 195.477C411.675 201.469 411.293 207.46 410.974 213.515C410.846 217.085 410.783 220.654 410.719 224.16C445.005 232.701 486.939 250.802 522.309 274.832C531.932 281.397 541.109 288.281 549.458 295.611C548.311 297.077 547.036 298.543 545.761 300.009C545.252 300.583 544.806 301.156 544.359 301.73C520.397 329.201 480.758 359.477 432.132 388.351C420.533 395.235 408.616 401.991 396.507 408.492C382.614 415.95 368.594 423.089 354.51 429.781C344.441 434.562 334.371 439.215 324.43 443.485C239.223 480.454 162.175 497.536 151.659 465.22C143.056 431.693 197.736 384.463 290.079 346.602C290.079 346.602 293.967 345.2 293.648 342.459C293.33 339.718 289.123 339.399 289.123 339.399C289.123 339.399 262.676 336.722 235.208 329.52C207.104 322.126 189.132 309.187 186.71 292.998C182.823 267.12 218.703 231.745 282.05 220.973C312.066 215.874 340.426 215.364 366.81 217.913C366.746 207.46 366.81 196.943 367.511 186.49C334.308 181.964 297.982 181.837 259.298 188.593C180.847 202.361 124.128 251.376 124.128 303.068C124.128 306.638 124.383 310.207 124.957 313.713C128.398 336.467 142.546 355.717 164.66 369.357C132.795 390.837 106.985 415.695 92.4548 439.916C82.0032 457.316 78.498 471.976 78.498 483.895C78.498 498.046 83.4689 508.307 87.8663 514.554C117.819 559.554 217.619 545.786 331.185 492.245C341.636 487.274 352.279 481.983 362.922 476.374C378.153 468.343 393.512 459.738 408.871 450.433C420.024 443.74 431.112 436.665 442.265 429.335C496.244 393.578 549.33 350.681 595.98 302.303Z" fill="#E62E8B"/>
<path d="M759.955 188.784C747.528 160.166 723.757 139.451 692.976 130.4C663.087 121.54 629.438 124.727 598.083 138.494C592.73 100.57 578.263 65.7047 556.659 40.974C532.824 13.6938 502.999 0.945995 472.727 5.15276C440.735 9.55074 412.503 33.0066 395.169 69.4653C378.217 105.159 370.123 145.506 367.638 186.554C367 197.007 366.873 207.46 366.937 217.977C366.937 222.63 366.937 227.346 367.128 231.999C367.638 247.743 368.848 263.423 370.505 278.72C371.015 283.373 371.653 288.026 372.29 292.615C373.437 301.411 374.712 310.079 376.114 318.557C376.369 320.15 376.623 321.744 376.878 323.337C381.722 351.127 390.389 385.929 396.507 408.62C408.616 402.118 420.533 395.362 432.132 388.478C427.926 371.715 423.847 353.167 420.405 333.599C419.131 326.397 417.92 319.003 416.837 311.545C415.753 304.279 414.797 296.949 413.969 289.556C413.841 288.09 413.714 286.687 413.523 285.221C412.694 276.872 411.929 268.458 411.42 259.981C410.91 250.484 410.591 240.987 410.591 231.489C410.591 229.067 410.719 226.709 410.719 224.223C410.719 220.654 410.782 217.084 410.974 213.579C411.228 207.524 411.675 201.468 412.248 195.541C415.052 164.372 421.871 135.435 434.553 109.43C445.26 87.5671 460.937 73.672 477.634 71.4412C492.42 69.4653 507.97 76.6678 521.544 91.7739C542.766 115.357 555.066 166.476 553.281 231.171C553.09 237.417 556.723 237.417 560.291 234.485C564.497 230.98 574.248 222.63 589.607 212.113C618.667 192.226 651.807 184.004 679.338 192.035C697.373 197.325 710.629 208.671 717.767 224.861C721.399 233.21 723.247 242.453 723.247 252.077C723.247 265.717 719.615 280.25 712.541 294.336C713.051 294.527 713.624 294.655 714.134 294.846C725.669 298.861 736.758 303.578 747.337 308.932C749.504 305.172 751.607 301.411 753.582 297.523C771.809 261.128 774.103 221.546 759.955 188.912V188.784Z" fill="#6FBA2C"/>
<path d="M697.819 321.871C670.225 357.756 623.575 389.116 596.553 403.457C541.364 432.777 483.179 447.5 451.251 453.938C449.148 449.094 445.388 438.258 442.392 429.399C431.303 436.729 420.151 443.74 408.998 450.496C411.993 459.547 414.67 467.004 416.454 471.785L422.891 489.249L441.245 486.254C463.423 482.684 536.011 468.789 608.28 432.267C647.601 412.38 697.437 378.599 730.831 336.595C729.429 335.83 728.027 335.001 726.561 334.236C717.639 329.583 708.016 325.568 697.883 321.935L697.819 321.871Z" fill="#6FBA2C"/>
<path d="M623.256 93.5584C642.183 97.7652 666.528 80.3644 677.617 54.7414C688.706 29.0547 682.333 4.8339 663.341 0.627139C644.414 -3.57963 620.005 13.8211 608.916 39.5078C597.828 65.1309 604.2 89.4154 623.192 93.5584H623.256Z" fill="#6FBA2C"/>
</svg>
