<svg width="26" height="26" viewBox="0 0 26 26" fill="none" xmlns="http://www.w3.org/2000/svg">
<rect x="0.75" y="0.75" width="24.5" height="24.5" rx="3.25" stroke="#4B4B4B" stroke-width="1.5"/>
<path d="M13.78 9.36002C12.598 9.44675 11.4884 9.9624 10.66 10.81V5H7V20.25H10.7V19.06C11.0392 19.5583 11.5003 19.9615 12.0395 20.231C12.5786 20.5006 13.1778 20.6276 13.78 20.6C14.4951 20.5681 15.1968 20.3945 15.8444 20.0894C16.4919 19.7843 17.0725 19.3537 17.5525 18.8226C18.0324 18.2915 18.4022 17.6705 18.6404 16.9954C18.8786 16.3203 18.9804 15.6047 18.94 14.89C18.94 14.89 18.75 9.32001 13.78 9.32001M12.97 17.37C12.6614 17.37 12.3558 17.3092 12.0707 17.1911C11.7856 17.073 11.5265 16.8999 11.3083 16.6817C11.0901 16.4635 10.917 16.2044 10.7989 15.9193C10.6808 15.6342 10.62 15.3286 10.62 15.02C10.62 14.7114 10.6808 14.4058 10.7989 14.1207C10.917 13.8356 11.0901 13.5765 11.3083 13.3583C11.5265 13.1401 11.7856 12.967 12.0707 12.8489C12.3558 12.7308 12.6614 12.67 12.97 12.67C13.5933 12.67 14.191 12.9176 14.6317 13.3583C15.0724 13.799 15.32 14.3968 15.32 15.02C15.32 15.6433 15.0724 16.241 14.6317 16.6817C14.191 17.1224 13.5933 17.37 12.97 17.37Z" fill="#4B4B4B"/>
</svg>
