<svg width="22" height="20" viewBox="0 0 22 20" fill="none" xmlns="http://www.w3.org/2000/svg">
<path d="M18.4885 3H3.13948C2.57243 3.00192 2.02918 3.22811 1.62833 3.62918C1.22748 4.03026 1.00159 4.57364 1 5.14069V13.8208C1.00191 14.3877 1.22793 14.9307 1.62875 15.3315C2.02957 15.7324 2.57264 15.9584 3.13948 15.9603H9.16704C9.16704 15.9603 10.33 19.1381 10.7547 19.1381C11.1795 19.1381 12.438 15.9603 12.438 15.9603H18.4885C19.0554 15.9584 19.5984 15.7324 19.9993 15.3315C20.4001 14.9307 20.6261 14.3877 20.628 13.8208V5.14069C20.6264 4.57364 20.4005 4.03026 19.9997 3.62918C19.5988 3.22811 19.0556 3.00192 18.4885 3Z" stroke="#D4D4D4" stroke-width="0.8" stroke-miterlimit="10"/>
<path d="M17.2657 7.96147V8.23617H17.2524C16.9729 7.98326 16.6885 7.87314 16.2359 7.87314C16.0007 7.86294 15.7661 7.90508 15.5491 7.99653C15.3321 8.08798 15.1381 8.22645 14.9811 8.40196C14.6729 8.76257 14.5184 9.24903 14.5176 9.86135C14.5176 10.4083 14.6563 10.8444 14.9339 11.1695C15.0788 11.3332 15.258 11.463 15.4588 11.5495C15.6596 11.6361 15.877 11.6774 16.0956 11.6705C16.605 11.6705 16.9886 11.5386 17.2524 11.1755H17.2657V11.4091C17.2657 12.0141 16.622 12.3251 16.1536 12.2779V13.1904C16.7151 13.2702 17.3819 13.24 17.8478 12.7947C18.2411 12.4207 18.4093 11.8834 18.4093 11.0001V7.96147H17.2657ZM17.0455 10.3611C16.9719 10.4384 16.8833 10.4998 16.785 10.5414C16.6868 10.583 16.581 10.6041 16.4743 10.6031C16.3691 10.6038 16.2649 10.5827 16.1682 10.541C16.0716 10.4993 15.9846 10.4381 15.9128 10.3611C15.8372 10.286 15.7775 10.1963 15.7374 10.0976C15.6972 9.99879 15.6775 9.89293 15.6793 9.78632C15.6775 9.67954 15.6972 9.57348 15.7373 9.47451C15.7775 9.37553 15.8372 9.28567 15.9128 9.21031C15.9846 9.13334 16.0716 9.0721 16.1682 9.03044C16.2649 8.98878 16.3691 8.96762 16.4743 8.96829C16.581 8.96738 16.6868 8.98839 16.785 9.03002C16.8833 9.07165 16.9719 9.13301 17.0455 9.21031C17.1232 9.28461 17.1847 9.37408 17.2264 9.47317C17.268 9.57226 17.2888 9.67885 17.2875 9.78632C17.289 9.89383 17.2683 10.0005 17.2267 10.0996C17.185 10.1987 17.1233 10.2882 17.0455 10.3623V10.3611Z" fill="#D4D4D4"/>
<path d="M13.79 9.07112C13.6892 8.84179 13.5421 8.63579 13.3579 8.46607C13.1715 8.29157 12.9528 8.1551 12.7142 8.06431C12.4688 7.97077 12.2083 7.92358 11.9457 7.92515C11.6875 7.92373 11.4314 7.97094 11.1906 8.06431C10.952 8.15598 10.7331 8.29233 10.5456 8.46607C10.3602 8.63657 10.2104 8.84224 10.1052 9.07112C10.0048 9.29399 9.95365 9.53584 9.95511 9.78025C9.95379 10.0243 10.005 10.2657 10.1052 10.4882C10.2101 10.7172 10.3599 10.923 10.5456 11.0932C10.7334 11.2666 10.9523 11.4029 11.1906 11.495C11.4316 11.5877 11.6876 11.6349 11.9457 11.6341C12.2082 11.6351 12.4687 11.588 12.7142 11.495C12.9526 11.4037 13.1712 11.2673 13.3579 11.0932C13.5421 10.9235 13.6892 10.7175 13.79 10.4882C13.8883 10.2626 13.9385 10.019 13.9376 9.77299C13.9367 9.53142 13.8864 9.29259 13.79 9.07112ZM12.5157 10.3563C12.442 10.4334 12.3533 10.4946 12.2551 10.5363C12.1569 10.5779 12.0512 10.599 11.9445 10.5983C11.8393 10.5989 11.7351 10.5777 11.6385 10.536C11.5418 10.4944 11.4549 10.4332 11.383 10.3563C11.3075 10.2808 11.248 10.1909 11.2078 10.0919C11.1677 9.993 11.1479 9.88701 11.1495 9.78025C11.1477 9.67346 11.1674 9.56741 11.2075 9.46843C11.2477 9.36946 11.3074 9.2796 11.383 9.20424C11.4548 9.12721 11.5417 9.06593 11.6384 9.02426C11.735 8.9826 11.8393 8.96147 11.9445 8.96221C12.0512 8.9613 12.157 8.98231 12.2552 9.02394C12.3535 9.06558 12.4421 9.12694 12.5157 9.20424C12.5936 9.27836 12.6553 9.3678 12.697 9.46693C12.7386 9.56606 12.7593 9.67274 12.7577 9.78025C12.7591 9.88773 12.7383 9.99434 12.6967 10.0934C12.655 10.1925 12.5934 10.282 12.5157 10.3563Z" fill="#D4D4D4"/>
<path d="M9.1769 11.4562H8.00188V8.34625C8.00188 7.62745 7.43555 7.53306 7.43555 7.53306V6.28906C7.43555 6.28906 9.08251 6.3895 9.1769 8.38498V11.4562Z" fill="#D4D4D4"/>
<path d="M6.70946 8.48906C6.44928 8.18895 6.01485 7.92757 5.59736 7.94088C5.11332 7.95661 4.69583 8.04737 4.38725 8.31359H4.37273V6.38831H3.2207V11.4139H4.37273V11.1719H4.38725C4.68796 11.3948 5.055 11.5099 5.42916 11.4986C5.9374 11.4986 6.40451 11.3546 6.70825 11.0146C6.86437 10.8503 6.98492 10.6555 7.06238 10.4425C7.13984 10.2295 7.17253 10.0028 7.15841 9.77662C7.16326 9.30825 7.00447 8.85287 6.70946 8.48906ZM5.71838 10.3623C5.645 10.4395 5.55655 10.5008 5.45851 10.5425C5.36047 10.5841 5.25492 10.6052 5.14841 10.6043C5.04298 10.6051 4.93854 10.584 4.84169 10.5423C4.74483 10.5007 4.65767 10.4394 4.58571 10.3623C4.51007 10.2872 4.45039 10.1975 4.41026 10.0988C4.37013 9.99998 4.35037 9.89411 4.35216 9.78751C4.35034 9.68072 4.37009 9.57467 4.41022 9.47569C4.45035 9.37672 4.51004 9.28686 4.58571 9.2115C4.65767 9.13444 4.74483 9.07314 4.84169 9.03149C4.93854 8.98983 5.04298 8.96871 5.14841 8.96947C5.25492 8.96866 5.36047 8.98972 5.45851 9.03135C5.55655 9.07298 5.645 9.13429 5.71838 9.2115C5.79627 9.28562 5.85799 9.37506 5.89964 9.47419C5.94129 9.57332 5.96198 9.68 5.9604 9.78751C5.96196 9.89484 5.94125 10.0013 5.8996 10.1003C5.85794 10.1992 5.79624 10.2884 5.71838 10.3623Z" fill="#D4D4D4"/>
</svg>
