<svg width="21" height="20" viewBox="0 0 21 20" fill="none" xmlns="http://www.w3.org/2000/svg">
<path d="M12.1727 1.57345L12.2506 1.61375L12.3382 1.61776L14.7765 1.72949L16.0922 3.78813L16.1396 3.86235L16.2138 3.90978L18.2725 5.22541L18.3842 7.66376L18.3882 7.75137L18.4285 7.82926L19.5516 10L18.4285 12.1707L18.3882 12.2486L18.3842 12.3362L18.2725 14.7746L16.2138 16.0902L16.1396 16.1377L16.0922 16.2119L14.7765 18.2705L12.3382 18.3822L12.2506 18.3863L12.1727 18.4265L10.002 19.5496L7.83121 18.4265L7.75332 18.3863L7.66572 18.3822L5.22736 18.2705L3.91173 16.2119L3.8643 16.1377L3.79008 16.0902L1.73144 14.7746L1.61972 12.3362L1.6157 12.2486L1.5754 12.1707L0.452318 10L1.5754 7.82926L1.6157 7.75137L1.61972 7.66376L1.73144 5.22541L3.79008 3.90978L3.8643 3.86235L3.91173 3.78813L5.22736 1.72949L7.66572 1.61776L7.75332 1.61375L7.83121 1.57345L10.002 0.450365L12.1727 1.57345Z" stroke="#D4D4D4" stroke-width="0.8"/>
<path d="M16.8237 10C16.8237 13.7673 13.7697 16.8212 10.0025 16.8212C6.23521 16.8212 3.18125 13.7673 3.18125 10C3.18125 6.23277 6.23521 3.17881 10.0025 3.17881C13.7697 3.17881 16.8237 6.23277 16.8237 10Z" stroke="#D4D4D4" stroke-width="0.8"/>
<path d="M10.0959 5.84244L11.3687 8.46971C11.3753 8.4856 11.3861 8.49938 11.4 8.50953C11.4139 8.51968 11.4303 8.52583 11.4475 8.52729L14.3414 8.92426C14.3604 8.92756 14.3782 8.93602 14.3928 8.94871C14.4074 8.9614 14.4183 8.97783 14.4242 8.99624C14.4302 9.01466 14.4309 9.03434 14.4265 9.05316C14.422 9.07199 14.4125 9.08924 14.399 9.10304L12.2778 11.1243C12.2657 11.1364 12.2566 11.1513 12.2514 11.1676C12.2461 11.1839 12.2448 11.2013 12.2475 11.2182L12.7656 14.0909C12.7688 14.1101 12.7665 14.1298 12.7592 14.1479C12.7518 14.1659 12.7397 14.1816 12.724 14.1931C12.7084 14.2047 12.6899 14.2118 12.6705 14.2135C12.6511 14.2153 12.6316 14.2116 12.6141 14.203L10.0414 12.8212C10.0258 12.8137 10.0087 12.8098 9.99139 12.8098C9.97408 12.8098 9.957 12.8137 9.9414 12.8212L7.36866 14.203C7.35131 14.2129 7.33146 14.2176 7.31152 14.2164C7.29159 14.2152 7.27244 14.2082 7.25639 14.1963C7.24034 14.1845 7.22808 14.1682 7.22112 14.1495C7.21415 14.1307 7.21276 14.1104 7.21714 14.0909L7.7323 11.2182C7.73646 11.2013 7.73584 11.1835 7.73048 11.1669C7.72513 11.1503 7.71527 11.1356 7.702 11.1243L5.58079 9.10304C5.56608 9.08974 5.55552 9.07247 5.55038 9.05332C5.54525 9.03416 5.54576 9.01393 5.55184 8.99506C5.55792 8.97618 5.56931 8.95946 5.58465 8.9469C5.6 8.93434 5.61866 8.92648 5.63837 8.92426L8.5323 8.52729C8.54935 8.52551 8.56562 8.51925 8.57947 8.50913C8.59331 8.49902 8.60422 8.48541 8.61109 8.46971L9.88079 5.84244C9.88079 5.81391 9.89211 5.78654 9.91229 5.76637C9.93246 5.7462 9.95983 5.73486 9.98836 5.73486C10.0169 5.73486 10.0443 5.7462 10.0644 5.76637C10.0846 5.78654 10.0959 5.81391 10.0959 5.84244Z" fill="#D4D4D4"/>
</svg>
