<svg width="21" height="20" viewBox="0 0 21 20" fill="none" xmlns="http://www.w3.org/2000/svg">
<path fill-rule="evenodd" clip-rule="evenodd" d="M10.0981 19.8315C11.4752 18.1155 16.5041 11.5228 16.5041 6.75106C16.5041 3.02255 13.4815 0 9.75302 0C6.02451 0 3.00195 3.02255 3.00195 6.75106C3.00195 11.5228 8.03079 18.1155 9.40795 19.8315C9.58831 20.0562 9.91773 20.0562 10.0981 19.8315ZM9.75291 10.7117C11.7415 10.7117 13.3535 9.0997 13.3535 7.11116C13.3535 5.12262 11.7415 3.51059 9.75291 3.51059C7.76437 3.51059 6.15234 5.12262 6.15234 7.11116C6.15234 9.0997 7.76437 10.7117 9.75291 10.7117Z" fill="#D4D4D4"/>
</svg>
