<svg width="26" height="26" viewBox="0 0 26 26" fill="none" xmlns="http://www.w3.org/2000/svg">
<path d="M2.60003 0.75H23.4C24.4218 0.75 25.25 1.57816 25.25 2.60003V23.4C25.25 24.4217 24.4217 25.25 23.4 25.25H2.60003C1.57816 25.25 0.75 24.4218 0.75 23.4V2.60003C0.75 1.57814 1.57814 0.75 2.60003 0.75Z" stroke="#4B4B4B" stroke-width="1.5"/>
<path d="M19.9925 9.10609C18.9298 9.10875 17.9092 8.69234 17.1538 7.94789C16.3985 7.20345 15.9698 6.19152 15.9616 5.1333H13.3611V12.2123L13.358 16.0898C13.359 16.5865 13.2018 17.0708 12.909 17.4729C12.6162 17.8751 12.2029 18.1745 11.7285 18.328C11.2541 18.4816 10.743 18.4814 10.2687 18.3275C9.79443 18.1737 9.38133 17.8741 9.08881 17.4717C8.79628 17.0694 8.6394 16.585 8.64071 16.0883C8.64201 15.5916 8.80144 15.1081 9.09607 14.7073C9.39071 14.3065 9.80538 14.009 10.2805 13.8576C10.7556 13.7062 11.2667 13.7087 11.7402 13.8647V11.2356C11.4919 11.1989 11.2411 11.1804 10.99 11.1803C10.2819 11.1777 9.58146 11.3252 8.9351 11.613C8.28873 11.9008 7.71129 12.3223 7.24116 12.8495C6.40502 13.7825 5.96153 15.0002 6.00262 16.25C6.04371 17.4998 6.56622 18.686 7.46184 19.5626C7.60995 19.7083 7.76693 19.8448 7.93189 19.9714C8.80864 20.6421 9.88432 21.0039 10.99 20.9999C11.2411 21 11.4918 20.9816 11.7402 20.945C12.7908 20.7911 13.7642 20.3063 14.5181 19.5617C14.9793 19.1115 15.346 18.5745 15.5969 17.982C15.8478 17.3894 15.9778 16.7531 15.9794 16.11L15.966 10.3197C17.1218 11.2069 18.5406 11.6872 20 11.6853V9.10609C20 9.10609 19.9931 9.10609 19.9925 9.10609Z" fill="#4B4B4B"/>
</svg>
