<svg width="26" height="26" viewBox="0 0 26 26" fill="none" xmlns="http://www.w3.org/2000/svg">
<rect x="0.75" y="0.75" width="24.5" height="24.5" rx="3.25" stroke="#4B4B4B" stroke-width="1.5"/>
<path d="M11.8836 20.7809H9.91291C9.65404 20.7809 9.3977 20.7299 9.15855 20.6308C8.9194 20.5317 8.70211 20.3865 8.51911 20.2034C8.3361 20.0203 8.19097 19.8029 8.09199 19.5637C7.99301 19.3245 7.94212 19.0682 7.94224 18.8093V10.4368H4V7.96974C4.00012 7.71095 4.05121 7.45471 4.15036 7.21567C4.24951 6.97662 4.39476 6.75945 4.57784 6.57654C4.76092 6.39363 4.97824 6.24858 5.21737 6.14965C5.45651 6.05073 5.71279 5.99988 5.97158 6H11.8873L11.8836 20.7809Z" fill="#4B4B4B"/>
<path d="M14.7968 6.04492H12.8262V9.98717H16.7675V8.01651C16.7676 7.75764 16.7167 7.50128 16.6178 7.26208C16.5188 7.02289 16.3736 6.80553 16.1906 6.62244C16.0076 6.43935 15.7903 6.29411 15.5512 6.19502C15.312 6.09592 15.0557 6.04492 14.7968 6.04492Z" fill="#4B4B4B"/>
<path fill-rule="evenodd" clip-rule="evenodd" d="M18.4812 10.9258C18.3529 10.9282 18.2269 10.9602 18.1131 11.0194C17.9992 11.0785 17.9006 11.1632 17.8249 11.2669L16.7675 12.6219V10.9258H12.8262V20.78H15.784C16.0453 20.78 16.296 20.6762 16.4807 20.4914C16.6655 20.3066 16.7693 20.056 16.7693 19.7947V18.508L17.7362 20.291C17.8056 20.4332 17.9123 20.5539 18.045 20.64C18.1777 20.7262 18.3314 20.7746 18.4895 20.78H21.7496C22.1258 20.78 22.3347 20.2624 22.0999 19.913L19.1042 15.4522L22.0408 11.8298C22.3181 11.4905 22.1138 10.9258 21.7182 10.9258H18.4812Z" fill="#4B4B4B"/>
</svg>
